<?xml version="1.0" encoding="utf-8" standalone="no"?>
<!DOCTYPE svg PUBLIC "-//W3C//DTD SVG 1.1//EN"
  "http://www.w3.org/Graphics/SVG/1.1/DTD/svg11.dtd">
<svg xmlns:xlink="http://www.w3.org/1999/xlink" width="518.911898pt" height="565.094877pt" viewBox="0 0 518.911898 565.094877" xmlns="http://www.w3.org/2000/svg" version="1.1">
 <metadata>
  <rdf:RDF xmlns:dc="http://purl.org/dc/elements/1.1/" xmlns:cc="http://creativecommons.org/ns#" xmlns:rdf="http://www.w3.org/1999/02/22-rdf-syntax-ns#">
   <cc:Work>
    <dc:type rdf:resource="http://purl.org/dc/dcmitype/StillImage"/>
    <dc:date>2026-06-27T17:47:24.548667</dc:date>
    <dc:format>image/svg+xml</dc:format>
    <dc:creator>
     <cc:Agent>
      <dc:title>Matplotlib v3.11.0, https://matplotlib.org/</dc:title>
     </cc:Agent>
    </dc:creator>
   </cc:Work>
  </rdf:RDF>
 </metadata>
 <defs>
  <style type="text/css">*{stroke-linejoin: round; stroke-linecap: butt}</style>
 </defs>
 <g id="figure_1">
  <g id="patch_1">
   <path d="M 0 565.094877 
L 518.911898 565.094877 
L 518.911898 0 
L 0 0 
z
" style="fill: #ffffff"/>
  </g>
  <g id="axes_1">
   <g id="patch_2">
    <path d="M 37.053359 481.664525 
L 515.311898 481.664525 
L 515.311898 18.718125 
L 37.053359 18.718125 
z
" style="fill: #ffffff"/>
   </g>
   <g id="patch_3">
    <path d="M 491.603172 329.733288 
Q 428.900925 318.668186 366.859291 307.719662 
" clip-path="url(#p670746be8f)" style="fill: none; opacity: 0.85; stroke-dasharray: 0.6,0.99; stroke-dashoffset: 0; stroke: #000000; stroke-width: 0.6; stroke-linecap: round"/>
    <path d="M 371.169167 310.917312 
L 366.859291 307.719662 
L 372.003337 306.190351 
z
" clip-path="url(#p670746be8f)" style="opacity: 0.85; stroke-dasharray: 0.6,0.99; stroke-dashoffset: 0; stroke: #000000; stroke-width: 0.6; stroke-linecap: round"/>
   </g>
   <g id="patch_4">
    <path d="M 328.040458 292.780328 
Q 345.204302 299.645865 361.745305 306.262267 
" clip-path="url(#p670746be8f)" style="fill: none; opacity: 0.85; stroke-dasharray: 0.6,0.99; stroke-dashoffset: 0; stroke: #000000; stroke-width: 0.6; stroke-linecap: round"/>
    <path d="M 358.179954 302.251247 
L 361.745305 306.262267 
L 356.397279 306.707935 
z
" clip-path="url(#p670746be8f)" style="opacity: 0.85; stroke-dasharray: 0.6,0.99; stroke-dashoffset: 0; stroke: #000000; stroke-width: 0.6; stroke-linecap: round"/>
   </g>
   <g id="patch_5">
    <path d="M 214.0588 307.255295 
Q 288.141997 307.255295 361.554373 307.255295 
" clip-path="url(#p670746be8f)" style="fill: none; opacity: 0.85; stroke-dasharray: 0.6,0.99; stroke-dashoffset: 0; stroke: #000000; stroke-width: 0.6; stroke-linecap: round"/>
    <path d="M 356.754373 304.855295 
L 361.554373 307.255295 
L 356.754373 309.655295 
z
" clip-path="url(#p670746be8f)" style="opacity: 0.85; stroke-dasharray: 0.6,0.99; stroke-dashoffset: 0; stroke: #000000; stroke-width: 0.6; stroke-linecap: round"/>
   </g>
   <g id="patch_6">
    <path d="M 251.998121 269.845377 
Q 307.165991 288.234667 361.697465 306.411825 
" clip-path="url(#p670746be8f)" style="fill: none; opacity: 0.85; stroke-dasharray: 0.6,0.99; stroke-dashoffset: 0; stroke: #000000; stroke-width: 0.6; stroke-linecap: round"/>
    <path d="M 357.902732 302.617091 
L 361.697465 306.411825 
L 356.384838 307.170771 
z
" clip-path="url(#p670746be8f)" style="opacity: 0.85; stroke-dasharray: 0.6,0.99; stroke-dashoffset: 0; stroke: #000000; stroke-width: 0.6; stroke-linecap: round"/>
   </g>
   <g id="patch_7">
    <path d="M 236.868367 292.271823 
Q 299.555068 299.646729 361.575544 306.943256 
" clip-path="url(#p670746be8f)" style="fill: none; opacity: 0.85; stroke-dasharray: 0.6,0.99; stroke-dashoffset: 0; stroke: #000000; stroke-width: 0.6; stroke-linecap: round"/>
    <path d="M 357.08884 303.998856 
L 361.575544 306.943256 
L 356.528002 308.765979 
z
" clip-path="url(#p670746be8f)" style="opacity: 0.85; stroke-dasharray: 0.6,0.99; stroke-dashoffset: 0; stroke: #000000; stroke-width: 0.6; stroke-linecap: round"/>
   </g>
   <g id="matplotlib.axis_1">
    <g id="xtick_1">
     <g id="line2d_1">
      <path d="M 59.886703 481.664525 
L 59.886703 18.718125 
" clip-path="url(#p670746be8f)" style="fill: none; stroke-dasharray: 0.3,0.495; stroke-dashoffset: 0; stroke: #bfbfbf; stroke-opacity: 0.5; stroke-width: 0.3"/>
     </g>
     <g id="line2d_2">
      <defs>
       <path id="mab65b0a9ac" d="M 0 0 
L 0 3.5 
" style="stroke: #000000; stroke-width: 0.8"/>
      </defs>
      <g>
       <use xlink:href="#mab65b0a9ac" x="59.886703" y="481.664525" style="stroke: #000000; stroke-width: 0.8"/>
      </g>
     </g>
     <g id="text_1">
      <!-- 0 -->
      <g transform="translate(57.023578 495.502416) scale(0.09 -0.09)">
       <defs>
        <path id="DejaVuSerif-13" d="M 2034 219 
Q 2513 219 2750 744 
Q 2988 1269 2988 2328 
Q 2988 3391 2750 3916 
Q 2513 4441 2034 4441 
Q 1556 4441 1318 3916 
Q 1081 3391 1081 2328 
Q 1081 1269 1318 744 
Q 1556 219 2034 219 
z
M 2034 -91 
Q 1275 -91 848 546 
Q 422 1184 422 2328 
Q 422 3475 848 4112 
Q 1275 4750 2034 4750 
Q 2797 4750 3222 4112 
Q 3647 3475 3647 2328 
Q 3647 1184 3222 546 
Q 2797 -91 2034 -91 
z
" transform="scale(0.015625)"/>
       </defs>
       <use xlink:href="#DejaVuSerif-13"/>
      </g>
     </g>
    </g>
    <g id="xtick_2">
     <g id="line2d_3">
      <path d="M 135.971996 481.664525 
L 135.971996 18.718125 
" clip-path="url(#p670746be8f)" style="fill: none; stroke-dasharray: 0.3,0.495; stroke-dashoffset: 0; stroke: #bfbfbf; stroke-opacity: 0.5; stroke-width: 0.3"/>
     </g>
     <g id="line2d_4">
      <g>
       <use xlink:href="#mab65b0a9ac" x="135.971996" y="481.664525" style="stroke: #000000; stroke-width: 0.8"/>
      </g>
     </g>
     <g id="text_2">
      <!-- 10 -->
      <g transform="translate(130.245746 495.502416) scale(0.09 -0.09)">
       <defs>
        <path id="DejaVuSerif-14" d="M 909 0 
L 909 331 
L 1722 331 
L 1722 4213 
L 781 3603 
L 781 4013 
L 1919 4750 
L 2350 4750 
L 2350 331 
L 3163 331 
L 3163 0 
L 909 0 
z
" transform="scale(0.015625)"/>
       </defs>
       <use xlink:href="#DejaVuSerif-14"/>
       <use xlink:href="#DejaVuSerif-13" transform="translate(63.625 0)"/>
      </g>
     </g>
    </g>
    <g id="xtick_3">
     <g id="line2d_5">
      <path d="M 212.057289 481.664525 
L 212.057289 18.718125 
" clip-path="url(#p670746be8f)" style="fill: none; stroke-dasharray: 0.3,0.495; stroke-dashoffset: 0; stroke: #bfbfbf; stroke-opacity: 0.5; stroke-width: 0.3"/>
     </g>
     <g id="line2d_6">
      <g>
       <use xlink:href="#mab65b0a9ac" x="212.057289" y="481.664525" style="stroke: #000000; stroke-width: 0.8"/>
      </g>
     </g>
     <g id="text_3">
      <!-- 20 -->
      <g transform="translate(206.331039 495.502416) scale(0.09 -0.09)">
       <defs>
        <path id="DejaVuSerif-15" d="M 819 3553 
L 469 3553 
L 469 4384 
Q 803 4563 1142 4656 
Q 1481 4750 1806 4750 
Q 2534 4750 2956 4397 
Q 3378 4044 3378 3438 
Q 3378 2753 2422 1800 
Q 2347 1728 2309 1691 
L 1131 513 
L 3078 513 
L 3078 1088 
L 3444 1088 
L 3444 0 
L 434 0 
L 434 341 
L 1850 1753 
Q 2319 2222 2519 2614 
Q 2719 3006 2719 3438 
Q 2719 3909 2473 4175 
Q 2228 4441 1797 4441 
Q 1350 4441 1106 4219 
Q 863 3997 819 3553 
z
" transform="scale(0.015625)"/>
       </defs>
       <use xlink:href="#DejaVuSerif-15"/>
       <use xlink:href="#DejaVuSerif-13" transform="translate(63.625 0)"/>
      </g>
     </g>
    </g>
    <g id="xtick_4">
     <g id="line2d_7">
      <path d="M 288.142582 481.664525 
L 288.142582 18.718125 
" clip-path="url(#p670746be8f)" style="fill: none; stroke-dasharray: 0.3,0.495; stroke-dashoffset: 0; stroke: #bfbfbf; stroke-opacity: 0.5; stroke-width: 0.3"/>
     </g>
     <g id="line2d_8">
      <g>
       <use xlink:href="#mab65b0a9ac" x="288.142582" y="481.664525" style="stroke: #000000; stroke-width: 0.8"/>
      </g>
     </g>
     <g id="text_4">
      <!-- 30 -->
      <g transform="translate(282.416332 495.502416) scale(0.09 -0.09)">
       <defs>
        <path id="DejaVuSerif-16" d="M 622 4469 
Q 988 4606 1323 4678 
Q 1659 4750 1953 4750 
Q 2638 4750 3022 4454 
Q 3406 4159 3406 3634 
Q 3406 3213 3140 2930 
Q 2875 2647 2388 2547 
Q 2963 2466 3280 2130 
Q 3597 1794 3597 1259 
Q 3597 606 3158 257 
Q 2719 -91 1894 -91 
Q 1528 -91 1179 -12 
Q 831 66 488 225 
L 488 1131 
L 838 1131 
Q 869 681 1141 450 
Q 1413 219 1906 219 
Q 2384 219 2661 495 
Q 2938 772 2938 1253 
Q 2938 1803 2653 2086 
Q 2369 2369 1819 2369 
L 1522 2369 
L 1522 2688 
L 1678 2688 
Q 2225 2688 2498 2914 
Q 2772 3141 2772 3597 
Q 2772 4006 2547 4223 
Q 2322 4441 1900 4441 
Q 1478 4441 1245 4241 
Q 1013 4041 972 3647 
L 622 3647 
L 622 4469 
z
" transform="scale(0.015625)"/>
       </defs>
       <use xlink:href="#DejaVuSerif-16"/>
       <use xlink:href="#DejaVuSerif-13" transform="translate(63.625 0)"/>
      </g>
     </g>
    </g>
    <g id="xtick_5">
     <g id="line2d_9">
      <path d="M 364.227875 481.664525 
L 364.227875 18.718125 
" clip-path="url(#p670746be8f)" style="fill: none; stroke-dasharray: 0.3,0.495; stroke-dashoffset: 0; stroke: #bfbfbf; stroke-opacity: 0.5; stroke-width: 0.3"/>
     </g>
     <g id="line2d_10">
      <g>
       <use xlink:href="#mab65b0a9ac" x="364.227875" y="481.664525" style="stroke: #000000; stroke-width: 0.8"/>
      </g>
     </g>
     <g id="text_5">
      <!-- 40 -->
      <g transform="translate(358.501625 495.502416) scale(0.09 -0.09)">
       <defs>
        <path id="DejaVuSerif-17" d="M 2234 1581 
L 2234 4063 
L 641 1581 
L 2234 1581 
z
M 3609 0 
L 1484 0 
L 1484 331 
L 2234 331 
L 2234 1247 
L 197 1247 
L 197 1588 
L 2241 4750 
L 2859 4750 
L 2859 1581 
L 3750 1581 
L 3750 1247 
L 2859 1247 
L 2859 331 
L 3609 331 
L 3609 0 
z
" transform="scale(0.015625)"/>
       </defs>
       <use xlink:href="#DejaVuSerif-17"/>
       <use xlink:href="#DejaVuSerif-13" transform="translate(63.625 0)"/>
      </g>
     </g>
    </g>
    <g id="xtick_6">
     <g id="line2d_11">
      <path d="M 440.313168 481.664525 
L 440.313168 18.718125 
" clip-path="url(#p670746be8f)" style="fill: none; stroke-dasharray: 0.3,0.495; stroke-dashoffset: 0; stroke: #bfbfbf; stroke-opacity: 0.5; stroke-width: 0.3"/>
     </g>
     <g id="line2d_12">
      <g>
       <use xlink:href="#mab65b0a9ac" x="440.313168" y="481.664525" style="stroke: #000000; stroke-width: 0.8"/>
      </g>
     </g>
     <g id="text_6">
      <!-- 50 -->
      <g transform="translate(434.586918 495.502416) scale(0.09 -0.09)">
       <defs>
        <path id="DejaVuSerif-18" d="M 3219 4666 
L 3219 4153 
L 1081 4153 
L 1081 2816 
Q 1244 2928 1461 2984 
Q 1678 3041 1947 3041 
Q 2703 3041 3140 2622 
Q 3578 2203 3578 1478 
Q 3578 738 3136 323 
Q 2694 -91 1894 -91 
Q 1572 -91 1234 -12 
Q 897 66 544 225 
L 544 1131 
L 897 1131 
Q 925 688 1179 453 
Q 1434 219 1894 219 
Q 2388 219 2653 544 
Q 2919 869 2919 1478 
Q 2919 2084 2655 2407 
Q 2391 2731 1894 2731 
Q 1613 2731 1398 2631 
Q 1184 2531 1019 2322 
L 750 2322 
L 750 4666 
L 3219 4666 
z
" transform="scale(0.015625)"/>
       </defs>
       <use xlink:href="#DejaVuSerif-18"/>
       <use xlink:href="#DejaVuSerif-13" transform="translate(63.625 0)"/>
      </g>
     </g>
    </g>
    <g id="text_7">
     <!-- X Coordinate -->
     <g transform="translate(239.492472 510.022806) scale(0.11 -0.11)">
      <defs>
       <path id="DejaVuSerif-3b" d="M 2119 1997 
L 978 331 
L 1581 331 
L 1581 0 
L 38 0 
L 38 331 
L 575 331 
L 1919 2291 
L 556 4331 
L 56 4331 
L 56 4666 
L 1906 4666 
L 1906 4331 
L 1356 4331 
L 2356 2828 
L 3384 4331 
L 2784 4331 
L 2784 4666 
L 4313 4666 
L 4313 4331 
L 3788 4331 
L 2553 2534 
L 4025 331 
L 4525 331 
L 4525 0 
L 2675 0 
L 2675 331 
L 3231 331 
L 2119 1997 
z
" transform="scale(0.015625)"/>
       <path id="DejaVuSerif-3" transform="scale(0.015625)"/>
       <path id="DejaVuSerif-26" d="M 4513 1234 
Q 4306 581 3820 245 
Q 3334 -91 2591 -91 
Q 2134 -91 1743 65 
Q 1353 222 1050 525 
Q 700 875 529 1320 
Q 359 1766 359 2328 
Q 359 3416 987 4083 
Q 1616 4750 2644 4750 
Q 3025 4750 3456 4650 
Q 3888 4550 4384 4347 
L 4384 3272 
L 4031 3272 
Q 3916 3859 3567 4137 
Q 3219 4416 2591 4416 
Q 1844 4416 1459 3886 
Q 1075 3356 1075 2328 
Q 1075 1303 1459 773 
Q 1844 244 2591 244 
Q 3113 244 3450 492 
Q 3788 741 3938 1234 
L 4513 1234 
z
" transform="scale(0.015625)"/>
       <path id="DejaVuSerif-52" d="M 1925 219 
Q 2388 219 2623 584 
Q 2859 950 2859 1663 
Q 2859 2375 2623 2739 
Q 2388 3103 1925 3103 
Q 1463 3103 1227 2739 
Q 991 2375 991 1663 
Q 991 950 1228 584 
Q 1466 219 1925 219 
z
M 1925 -91 
Q 1200 -91 759 389 
Q 319 869 319 1663 
Q 319 2456 758 2934 
Q 1197 3413 1925 3413 
Q 2653 3413 3092 2934 
Q 3531 2456 3531 1663 
Q 3531 869 3092 389 
Q 2653 -91 1925 -91 
z
" transform="scale(0.015625)"/>
       <path id="DejaVuSerif-55" d="M 3059 3328 
L 3059 2497 
L 2728 2497 
Q 2713 2744 2591 2866 
Q 2469 2988 2234 2988 
Q 1809 2988 1582 2694 
Q 1356 2400 1356 1850 
L 1356 331 
L 2022 331 
L 2022 0 
L 263 0 
L 263 331 
L 781 331 
L 781 2994 
L 231 2994 
L 231 3322 
L 1356 3322 
L 1356 2731 
Q 1525 3078 1790 3245 
Q 2056 3413 2438 3413 
Q 2578 3413 2733 3391 
Q 2888 3369 3059 3328 
z
" transform="scale(0.015625)"/>
       <path id="DejaVuSerif-47" d="M 3359 331 
L 3909 331 
L 3909 0 
L 2784 0 
L 2784 519 
Q 2616 206 2355 57 
Q 2094 -91 1709 -91 
Q 1097 -91 708 395 
Q 319 881 319 1663 
Q 319 2444 706 2928 
Q 1094 3413 1709 3413 
Q 2094 3413 2355 3264 
Q 2616 3116 2784 2803 
L 2784 4531 
L 2241 4531 
L 2241 4863 
L 3359 4863 
L 3359 331 
z
M 2784 1497 
L 2784 1825 
Q 2784 2422 2554 2737 
Q 2325 3053 1888 3053 
Q 1444 3053 1217 2703 
Q 991 2353 991 1663 
Q 991 975 1217 622 
Q 1444 269 1888 269 
Q 2325 269 2554 583 
Q 2784 897 2784 1497 
z
" transform="scale(0.015625)"/>
       <path id="DejaVuSerif-4c" d="M 622 4353 
Q 622 4497 726 4603 
Q 831 4709 978 4709 
Q 1122 4709 1226 4603 
Q 1331 4497 1331 4353 
Q 1331 4206 1228 4103 
Q 1125 4000 978 4000 
Q 831 4000 726 4103 
Q 622 4206 622 4353 
z
M 1356 331 
L 1900 331 
L 1900 0 
L 231 0 
L 231 331 
L 781 331 
L 781 2988 
L 231 2988 
L 231 3322 
L 1356 3322 
L 1356 331 
z
" transform="scale(0.015625)"/>
       <path id="DejaVuSerif-51" d="M 263 0 
L 263 331 
L 781 331 
L 781 2988 
L 231 2988 
L 231 3322 
L 1356 3322 
L 1356 2731 
Q 1516 3069 1770 3241 
Q 2025 3413 2363 3413 
Q 2913 3413 3172 3097 
Q 3431 2781 3431 2113 
L 3431 331 
L 3944 331 
L 3944 0 
L 2356 0 
L 2356 331 
L 2853 331 
L 2853 1931 
Q 2853 2541 2703 2767 
Q 2553 2994 2175 2994 
Q 1775 2994 1565 2701 
Q 1356 2409 1356 1850 
L 1356 331 
L 1856 331 
L 1856 0 
L 263 0 
z
" transform="scale(0.015625)"/>
       <path id="DejaVuSerif-44" d="M 2547 1044 
L 2547 1747 
L 1806 1747 
Q 1378 1747 1168 1562 
Q 959 1378 959 997 
Q 959 650 1171 447 
Q 1384 244 1747 244 
Q 2106 244 2326 466 
Q 2547 688 2547 1044 
z
M 3122 2075 
L 3122 331 
L 3634 331 
L 3634 0 
L 2547 0 
L 2547 359 
Q 2356 128 2106 18 
Q 1856 -91 1522 -91 
Q 969 -91 644 203 
Q 319 497 319 997 
Q 319 1513 691 1797 
Q 1063 2081 1741 2081 
L 2547 2081 
L 2547 2309 
Q 2547 2688 2317 2895 
Q 2088 3103 1672 3103 
Q 1328 3103 1125 2947 
Q 922 2791 872 2484 
L 575 2484 
L 575 3156 
Q 875 3284 1158 3348 
Q 1441 3413 1709 3413 
Q 2400 3413 2761 3070 
Q 3122 2728 3122 2075 
z
" transform="scale(0.015625)"/>
       <path id="DejaVuSerif-57" d="M 691 2988 
L 184 2988 
L 184 3322 
L 691 3322 
L 691 4353 
L 1269 4353 
L 1269 3322 
L 2350 3322 
L 2350 2988 
L 1269 2988 
L 1269 878 
Q 1269 456 1350 337 
Q 1431 219 1650 219 
Q 1875 219 1978 351 
Q 2081 484 2088 781 
L 2522 781 
Q 2497 328 2275 118 
Q 2053 -91 1600 -91 
Q 1103 -91 897 129 
Q 691 350 691 878 
L 691 2988 
z
" transform="scale(0.015625)"/>
       <path id="DejaVuSerif-48" d="M 3469 1600 
L 991 1600 
L 991 1575 
Q 991 903 1244 561 
Q 1497 219 1991 219 
Q 2369 219 2611 417 
Q 2853 616 2950 1006 
L 3413 1006 
Q 3275 459 2904 184 
Q 2534 -91 1931 -91 
Q 1203 -91 761 389 
Q 319 869 319 1663 
Q 319 2450 753 2931 
Q 1188 3413 1894 3413 
Q 2647 3413 3050 2948 
Q 3453 2484 3469 1600 
z
M 2791 1931 
Q 2772 2513 2545 2808 
Q 2319 3103 1894 3103 
Q 1497 3103 1269 2806 
Q 1041 2509 991 1931 
L 2791 1931 
z
" transform="scale(0.015625)"/>
      </defs>
      <use xlink:href="#DejaVuSerif-3b"/>
      <use xlink:href="#DejaVuSerif-3" transform="translate(71.1875 0)"/>
      <use xlink:href="#DejaVuSerif-26" transform="translate(102.96875 0)"/>
      <use xlink:href="#DejaVuSerif-52" transform="translate(179.484375 0)"/>
      <use xlink:href="#DejaVuSerif-52" transform="translate(239.6875 0)"/>
      <use xlink:href="#DejaVuSerif-55" transform="translate(299.890625 0)"/>
      <use xlink:href="#DejaVuSerif-47" transform="translate(347.6875 0)"/>
      <use xlink:href="#DejaVuSerif-4c" transform="translate(411.703125 0)"/>
      <use xlink:href="#DejaVuSerif-51" transform="translate(443.6875 0)"/>
      <use xlink:href="#DejaVuSerif-44" transform="translate(508.09375 0)"/>
      <use xlink:href="#DejaVuSerif-57" transform="translate(567.71875 0)"/>
      <use xlink:href="#DejaVuSerif-48" transform="translate(607.90625 0)"/>
     </g>
    </g>
   </g>
   <g id="matplotlib.axis_2">
    <g id="ytick_1">
     <g id="line2d_13">
      <path d="M 37.053359 459.425881 
L 515.311898 459.425881 
" clip-path="url(#p670746be8f)" style="fill: none; stroke-dasharray: 0.3,0.495; stroke-dashoffset: 0; stroke: #bfbfbf; stroke-opacity: 0.5; stroke-width: 0.3"/>
     </g>
     <g id="line2d_14">
      <defs>
       <path id="m9e97193e57" d="M 0 0 
L -3.5 0 
" style="stroke: #000000; stroke-width: 0.8"/>
      </defs>
      <g>
       <use xlink:href="#m9e97193e57" x="37.053359" y="459.425881" style="stroke: #000000; stroke-width: 0.8"/>
      </g>
     </g>
     <g id="text_8">
      <!-- 30 -->
      <g transform="translate(18.600859 462.844826) scale(0.09 -0.09)">
       <use xlink:href="#DejaVuSerif-16"/>
       <use xlink:href="#DejaVuSerif-13" transform="translate(63.625 0)"/>
      </g>
     </g>
    </g>
    <g id="ytick_2">
     <g id="line2d_15">
      <path d="M 37.053359 383.340588 
L 515.311898 383.340588 
" clip-path="url(#p670746be8f)" style="fill: none; stroke-dasharray: 0.3,0.495; stroke-dashoffset: 0; stroke: #bfbfbf; stroke-opacity: 0.5; stroke-width: 0.3"/>
     </g>
     <g id="line2d_16">
      <g>
       <use xlink:href="#m9e97193e57" x="37.053359" y="383.340588" style="stroke: #000000; stroke-width: 0.8"/>
      </g>
     </g>
     <g id="text_9">
      <!-- 40 -->
      <g transform="translate(18.600859 386.759533) scale(0.09 -0.09)">
       <use xlink:href="#DejaVuSerif-17"/>
       <use xlink:href="#DejaVuSerif-13" transform="translate(63.625 0)"/>
      </g>
     </g>
    </g>
    <g id="ytick_3">
     <g id="line2d_17">
      <path d="M 37.053359 307.255295 
L 515.311898 307.255295 
" clip-path="url(#p670746be8f)" style="fill: none; stroke-dasharray: 0.3,0.495; stroke-dashoffset: 0; stroke: #bfbfbf; stroke-opacity: 0.5; stroke-width: 0.3"/>
     </g>
     <g id="line2d_18">
      <g>
       <use xlink:href="#m9e97193e57" x="37.053359" y="307.255295" style="stroke: #000000; stroke-width: 0.8"/>
      </g>
     </g>
     <g id="text_10">
      <!-- 50 -->
      <g transform="translate(18.600859 310.67424) scale(0.09 -0.09)">
       <use xlink:href="#DejaVuSerif-18"/>
       <use xlink:href="#DejaVuSerif-13" transform="translate(63.625 0)"/>
      </g>
     </g>
    </g>
    <g id="ytick_4">
     <g id="line2d_19">
      <path d="M 37.053359 231.170002 
L 515.311898 231.170002 
" clip-path="url(#p670746be8f)" style="fill: none; stroke-dasharray: 0.3,0.495; stroke-dashoffset: 0; stroke: #bfbfbf; stroke-opacity: 0.5; stroke-width: 0.3"/>
     </g>
     <g id="line2d_20">
      <g>
       <use xlink:href="#m9e97193e57" x="37.053359" y="231.170002" style="stroke: #000000; stroke-width: 0.8"/>
      </g>
     </g>
     <g id="text_11">
      <!-- 60 -->
      <g transform="translate(18.600859 234.588947) scale(0.09 -0.09)">
       <defs>
        <path id="DejaVuSerif-19" d="M 2094 219 
Q 2534 219 2771 542 
Q 3009 866 3009 1472 
Q 3009 2078 2771 2401 
Q 2534 2725 2094 2725 
Q 1647 2725 1412 2412 
Q 1178 2100 1178 1509 
Q 1178 888 1415 553 
Q 1653 219 2094 219 
z
M 1075 2569 
Q 1288 2803 1556 2918 
Q 1825 3034 2163 3034 
Q 2859 3034 3264 2615 
Q 3669 2197 3669 1472 
Q 3669 763 3233 336 
Q 2797 -91 2069 -91 
Q 1278 -91 853 498 
Q 428 1088 428 2181 
Q 428 3406 931 4078 
Q 1434 4750 2350 4750 
Q 2597 4750 2869 4703 
Q 3141 4656 3425 4563 
L 3425 3794 
L 3072 3794 
Q 3034 4109 2831 4275 
Q 2628 4441 2284 4441 
Q 1678 4441 1381 3981 
Q 1084 3522 1075 2569 
z
" transform="scale(0.015625)"/>
       </defs>
       <use xlink:href="#DejaVuSerif-19"/>
       <use xlink:href="#DejaVuSerif-13" transform="translate(63.625 0)"/>
      </g>
     </g>
    </g>
    <g id="ytick_5">
     <g id="line2d_21">
      <path d="M 37.053359 155.084709 
L 515.311898 155.084709 
" clip-path="url(#p670746be8f)" style="fill: none; stroke-dasharray: 0.3,0.495; stroke-dashoffset: 0; stroke: #bfbfbf; stroke-opacity: 0.5; stroke-width: 0.3"/>
     </g>
     <g id="line2d_22">
      <g>
       <use xlink:href="#m9e97193e57" x="37.053359" y="155.084709" style="stroke: #000000; stroke-width: 0.8"/>
      </g>
     </g>
     <g id="text_12">
      <!-- 70 -->
      <g transform="translate(18.600859 158.503654) scale(0.09 -0.09)">
       <defs>
        <path id="DejaVuSerif-1a" d="M 3609 4347 
L 1784 0 
L 1319 0 
L 3059 4153 
L 903 4153 
L 903 3578 
L 538 3578 
L 538 4666 
L 3609 4666 
L 3609 4347 
z
" transform="scale(0.015625)"/>
       </defs>
       <use xlink:href="#DejaVuSerif-1a"/>
       <use xlink:href="#DejaVuSerif-13" transform="translate(63.625 0)"/>
      </g>
     </g>
    </g>
    <g id="ytick_6">
     <g id="line2d_23">
      <path d="M 37.053359 78.999416 
L 515.311898 78.999416 
" clip-path="url(#p670746be8f)" style="fill: none; stroke-dasharray: 0.3,0.495; stroke-dashoffset: 0; stroke: #bfbfbf; stroke-opacity: 0.5; stroke-width: 0.3"/>
     </g>
     <g id="line2d_24">
      <g>
       <use xlink:href="#m9e97193e57" x="37.053359" y="78.999416" style="stroke: #000000; stroke-width: 0.8"/>
      </g>
     </g>
     <g id="text_13">
      <!-- 80 -->
      <g transform="translate(18.600859 82.418361) scale(0.09 -0.09)">
       <defs>
        <path id="DejaVuSerif-1b" d="M 2981 1275 
Q 2981 1775 2732 2051 
Q 2484 2328 2034 2328 
Q 1584 2328 1336 2051 
Q 1088 1775 1088 1275 
Q 1088 772 1336 495 
Q 1584 219 2034 219 
Q 2484 219 2732 495 
Q 2981 772 2981 1275 
z
M 2853 3541 
Q 2853 3966 2637 4203 
Q 2422 4441 2034 4441 
Q 1650 4441 1433 4203 
Q 1216 3966 1216 3541 
Q 1216 3113 1433 2875 
Q 1650 2638 2034 2638 
Q 2422 2638 2637 2875 
Q 2853 3113 2853 3541 
z
M 2516 2484 
Q 3047 2413 3344 2092 
Q 3641 1772 3641 1275 
Q 3641 619 3225 264 
Q 2809 -91 2034 -91 
Q 1263 -91 845 264 
Q 428 619 428 1275 
Q 428 1772 725 2092 
Q 1022 2413 1556 2484 
Q 1084 2569 832 2842 
Q 581 3116 581 3541 
Q 581 4103 968 4426 
Q 1356 4750 2034 4750 
Q 2713 4750 3100 4426 
Q 3488 4103 3488 3541 
Q 3488 3116 3236 2842 
Q 2984 2569 2516 2484 
z
" transform="scale(0.015625)"/>
       </defs>
       <use xlink:href="#DejaVuSerif-1b"/>
       <use xlink:href="#DejaVuSerif-13" transform="translate(63.625 0)"/>
      </g>
     </g>
    </g>
    <g id="text_14">
     <!-- Y Coordinate -->
     <g transform="translate(11.958281 286.597028) rotate(-90) scale(0.11 -0.11)">
      <defs>
       <path id="DejaVuSerif-3c" d="M 1209 0 
L 1209 331 
L 1806 331 
L 1806 2009 
L 366 4331 
L -72 4331 
L -72 4666 
L 1663 4666 
L 1663 4331 
L 1119 4331 
L 2284 2444 
L 3450 4331 
L 2925 4331 
L 2925 4666 
L 4281 4666 
L 4281 4331 
L 3841 4331 
L 2438 2069 
L 2438 331 
L 3034 331 
L 3034 0 
L 1209 0 
z
" transform="scale(0.015625)"/>
      </defs>
      <use xlink:href="#DejaVuSerif-3c"/>
      <use xlink:href="#DejaVuSerif-3" transform="translate(66.015625 0)"/>
      <use xlink:href="#DejaVuSerif-26" transform="translate(97.796875 0)"/>
      <use xlink:href="#DejaVuSerif-52" transform="translate(174.3125 0)"/>
      <use xlink:href="#DejaVuSerif-52" transform="translate(234.515625 0)"/>
      <use xlink:href="#DejaVuSerif-55" transform="translate(294.71875 0)"/>
      <use xlink:href="#DejaVuSerif-47" transform="translate(342.515625 0)"/>
      <use xlink:href="#DejaVuSerif-4c" transform="translate(406.53125 0)"/>
      <use xlink:href="#DejaVuSerif-51" transform="translate(438.515625 0)"/>
      <use xlink:href="#DejaVuSerif-44" transform="translate(502.921875 0)"/>
      <use xlink:href="#DejaVuSerif-57" transform="translate(562.546875 0)"/>
      <use xlink:href="#DejaVuSerif-48" transform="translate(602.734375 0)"/>
     </g>
    </g>
   </g>
   <g id="patch_8">
    <path d="M 363.286097 309.021129 
Q 333.793787 364.319209 304.932838 418.433489 
" clip-path="url(#p670746be8f)" style="fill: none; stroke: #000000; stroke-width: 1.2; stroke-linecap: round"/>
    <path d="M 309.309309 415.327606 
L 304.932838 418.433489 
L 305.074015 413.068783 
z
" clip-path="url(#p670746be8f)" style="stroke: #000000; stroke-width: 1.2; stroke-linecap: round"/>
   </g>
   <g id="patch_9">
    <path d="M 305.362081 421.383234 
Q 307.164625 421.383234 307.625528 421.383234 
" clip-path="url(#p670746be8f)" style="fill: none; stroke: #000000; stroke-width: 1.2; stroke-linecap: round"/>
    <path d="M 302.825528 418.983234 
L 307.625528 421.383234 
L 302.825528 423.783234 
z
" clip-path="url(#p670746be8f)" style="stroke: #000000; stroke-width: 1.2; stroke-linecap: round"/>
   </g>
   <g id="patch_10">
    <path d="M 308.970374 421.383234 
Q 299.556934 421.383234 291.485135 421.383234 
" clip-path="url(#p670746be8f)" style="fill: none; stroke: #000000; stroke-width: 1.2; stroke-linecap: round"/>
    <path d="M 296.285135 423.783234 
L 291.485135 421.383234 
L 296.285135 418.983234 
z
" clip-path="url(#p670746be8f)" style="stroke: #000000; stroke-width: 1.2; stroke-linecap: round"/>
   </g>
   <g id="patch_11">
    <path d="M 286.140142 421.383234 
Q 280.531349 421.383234 276.264198 421.383234 
" clip-path="url(#p670746be8f)" style="fill: none; stroke: #000000; stroke-width: 1.2; stroke-linecap: round"/>
    <path d="M 281.064198 423.783234 
L 276.264198 421.383234 
L 281.064198 418.983234 
z
" clip-path="url(#p670746be8f)" style="stroke: #000000; stroke-width: 1.2; stroke-linecap: round"/>
   </g>
   <g id="patch_12">
    <path d="M 270.927727 421.383234 
Q 261.514288 421.383234 253.442489 421.383234 
" clip-path="url(#p670746be8f)" style="fill: none; stroke: #000000; stroke-width: 1.2; stroke-linecap: round"/>
    <path d="M 258.242489 423.783234 
L 253.442489 421.383234 
L 258.242489 418.983234 
z
" clip-path="url(#p670746be8f)" style="stroke: #000000; stroke-width: 1.2; stroke-linecap: round"/>
   </g>
   <g id="patch_13">
    <path d="M 248.384023 422.412782 
Q 231.077607 432.796632 214.921638 442.490213 
" clip-path="url(#p670746be8f)" style="fill: none; stroke: #000000; stroke-width: 1.2; stroke-linecap: round"/>
    <path d="M 220.272394 442.078616 
L 214.921638 442.490213 
L 217.802814 437.96265 
z
" clip-path="url(#p670746be8f)" style="stroke: #000000; stroke-width: 1.2; stroke-linecap: round"/>
   </g>
   <g id="patch_14">
    <path d="M 212.057289 446.211262 
Q 212.057289 451.820055 212.057289 456.087207 
" clip-path="url(#p670746be8f)" style="fill: none; stroke: #000000; stroke-width: 1.2; stroke-linecap: round"/>
    <path d="M 214.457289 451.287207 
L 212.057289 456.087207 
L 209.657289 451.287207 
z
" clip-path="url(#p670746be8f)" style="stroke: #000000; stroke-width: 1.2; stroke-linecap: round"/>
   </g>
   <g id="patch_15">
    <path d="M 214.059729 459.425881 
Q 242.492008 459.425881 269.582647 459.425881 
" clip-path="url(#p670746be8f)" style="fill: none; stroke: #000000; stroke-width: 1.2; stroke-linecap: round"/>
    <path d="M 264.782647 457.025881 
L 269.582647 459.425881 
L 264.782647 461.825881 
z
" clip-path="url(#p670746be8f)" style="stroke: #000000; stroke-width: 1.2; stroke-linecap: round"/>
   </g>
   <g id="patch_16">
    <path d="M 274.927964 459.425881 
Q 280.536756 459.425881 284.803908 459.425881 
" clip-path="url(#p670746be8f)" style="fill: none; stroke: #000000; stroke-width: 1.2; stroke-linecap: round"/>
    <path d="M 280.003908 457.025881 
L 284.803908 459.425881 
L 280.003908 461.825881 
z
" clip-path="url(#p670746be8f)" style="stroke: #000000; stroke-width: 1.2; stroke-linecap: round"/>
   </g>
   <g id="patch_17">
    <path d="M 288.142582 457.423441 
Q 288.142582 451.814648 288.142582 447.547496 
" clip-path="url(#p670746be8f)" style="fill: none; stroke: #000000; stroke-width: 1.2; stroke-linecap: round"/>
    <path d="M 285.742582 452.347496 
L 288.142582 447.547496 
L 290.542582 452.347496 
z
" clip-path="url(#p670746be8f)" style="stroke: #000000; stroke-width: 1.2; stroke-linecap: round"/>
   </g>
   <g id="patch_18">
    <path d="M 290.140378 444.208822 
Q 299.553818 444.208822 307.625617 444.208822 
" clip-path="url(#p670746be8f)" style="fill: none; stroke: #000000; stroke-width: 1.2; stroke-linecap: round"/>
    <path d="M 302.825617 441.808822 
L 307.625617 444.208822 
L 302.825617 446.608822 
z
" clip-path="url(#p670746be8f)" style="stroke: #000000; stroke-width: 1.2; stroke-linecap: round"/>
   </g>
   <g id="patch_19">
    <path d="M 312.97061 444.208822 
Q 318.579403 444.208822 322.846554 444.208822 
" clip-path="url(#p670746be8f)" style="fill: none; stroke: #000000; stroke-width: 1.2; stroke-linecap: round"/>
    <path d="M 318.046554 441.808822 
L 322.846554 444.208822 
L 318.046554 446.608822 
z
" clip-path="url(#p670746be8f)" style="stroke: #000000; stroke-width: 1.2; stroke-linecap: round"/>
   </g>
   <g id="patch_20">
    <path d="M 326.185229 446.211262 
Q 326.185229 451.820055 326.185229 456.087207 
" clip-path="url(#p670746be8f)" style="fill: none; stroke: #000000; stroke-width: 1.2; stroke-linecap: round"/>
    <path d="M 328.585229 451.287207 
L 326.185229 456.087207 
L 323.785229 451.287207 
z
" clip-path="url(#p670746be8f)" style="stroke: #000000; stroke-width: 1.2; stroke-linecap: round"/>
   </g>
   <g id="patch_21">
    <path d="M 327.766237 458.204193 
Q 409.878927 394.753477 490.929998 332.123105 
" clip-path="url(#p670746be8f)" style="fill: none; stroke: #000000; stroke-width: 1.2; stroke-linecap: round"/>
    <path d="M 485.664356 333.158969 
L 490.929998 332.123105 
L 488.599304 336.957137 
z
" clip-path="url(#p670746be8f)" style="stroke: #000000; stroke-width: 1.2; stroke-linecap: round"/>
   </g>
   <g id="patch_22">
    <path d="M 362.626666 308.456202 
Q 349.010931 318.668003 336.468508 328.07482 
" clip-path="url(#p670746be8f)" style="fill: none; opacity: 0.85; stroke-dasharray: 4.44,1.92; stroke-dashoffset: 0; stroke: #000000; stroke-width: 1.2; stroke-linecap: round"/>
    <path d="M 341.748508 327.11482 
L 336.468508 328.07482 
L 338.868508 323.27482 
z
" clip-path="url(#p670746be8f)" style="opacity: 0.85; stroke-dasharray: 4.44,1.92; stroke-dashoffset: 0; stroke: #000000; stroke-width: 1.2; stroke-linecap: round"/>
   </g>
   <g id="patch_23">
    <path d="M 331.791318 330.080883 
Q 329.988774 330.080883 329.527871 330.080883 
" clip-path="url(#p670746be8f)" style="fill: none; opacity: 0.85; stroke-dasharray: 4.44,1.92; stroke-dashoffset: 0; stroke: #000000; stroke-width: 1.2; stroke-linecap: round"/>
    <path d="M 334.327871 332.480883 
L 329.527871 330.080883 
L 334.327871 327.680883 
z
" clip-path="url(#p670746be8f)" style="opacity: 0.85; stroke-dasharray: 4.44,1.92; stroke-dashoffset: 0; stroke: #000000; stroke-width: 1.2; stroke-linecap: round"/>
   </g>
   <g id="patch_24">
    <path d="M 324.187432 330.080883 
Q 314.773993 330.080883 306.702194 330.080883 
" clip-path="url(#p670746be8f)" style="fill: none; opacity: 0.85; stroke-dasharray: 4.44,1.92; stroke-dashoffset: 0; stroke: #000000; stroke-width: 1.2; stroke-linecap: round"/>
    <path d="M 311.502194 332.480883 
L 306.702194 330.080883 
L 311.502194 327.680883 
z
" clip-path="url(#p670746be8f)" style="opacity: 0.85; stroke-dasharray: 4.44,1.92; stroke-dashoffset: 0; stroke: #000000; stroke-width: 1.2; stroke-linecap: round"/>
   </g>
   <g id="patch_25">
    <path d="M 301.357201 330.080883 
Q 295.748408 330.080883 291.481256 330.080883 
" clip-path="url(#p670746be8f)" style="fill: none; opacity: 0.85; stroke-dasharray: 4.44,1.92; stroke-dashoffset: 0; stroke: #000000; stroke-width: 1.2; stroke-linecap: round"/>
    <path d="M 296.281256 332.480883 
L 291.481256 330.080883 
L 296.281256 327.680883 
z
" clip-path="url(#p670746be8f)" style="opacity: 0.85; stroke-dasharray: 4.44,1.92; stroke-dashoffset: 0; stroke: #000000; stroke-width: 1.2; stroke-linecap: round"/>
   </g>
   <g id="patch_26">
    <path d="M 288.142582 328.083086 
Q 288.142582 318.669647 288.142582 310.597848 
" clip-path="url(#p670746be8f)" style="fill: none; opacity: 0.85; stroke-dasharray: 4.44,1.92; stroke-dashoffset: 0; stroke: #000000; stroke-width: 1.2; stroke-linecap: round"/>
    <path d="M 285.742582 315.397848 
L 288.142582 310.597848 
L 290.542582 315.397848 
z
" clip-path="url(#p670746be8f)" style="opacity: 0.85; stroke-dasharray: 4.44,1.92; stroke-dashoffset: 0; stroke: #000000; stroke-width: 1.2; stroke-linecap: round"/>
   </g>
   <g id="patch_27">
    <path d="M 286.141071 307.255295 
Q 269.121401 307.255295 253.443373 307.255295 
" clip-path="url(#p670746be8f)" style="fill: none; opacity: 0.85; stroke-dasharray: 4.44,1.92; stroke-dashoffset: 0; stroke: #000000; stroke-width: 1.2; stroke-linecap: round"/>
    <path d="M 258.243373 309.655295 
L 253.443373 307.255295 
L 258.243373 304.855295 
z
" clip-path="url(#p670746be8f)" style="opacity: 0.85; stroke-dasharray: 4.44,1.92; stroke-dashoffset: 0; stroke: #000000; stroke-width: 1.2; stroke-linecap: round"/>
   </g>
   <g id="patch_28">
    <path d="M 252.097732 307.255295 
Q 261.511172 307.255295 269.582971 307.255295 
" clip-path="url(#p670746be8f)" style="fill: none; opacity: 0.85; stroke-dasharray: 4.44,1.92; stroke-dashoffset: 0; stroke: #000000; stroke-width: 1.2; stroke-linecap: round"/>
    <path d="M 264.782971 304.855295 
L 269.582971 307.255295 
L 264.782971 309.655295 
z
" clip-path="url(#p670746be8f)" style="opacity: 0.85; stroke-dasharray: 4.44,1.92; stroke-dashoffset: 0; stroke: #000000; stroke-width: 1.2; stroke-linecap: round"/>
   </g>
   <g id="patch_29">
    <path d="M 272.925524 305.252855 
Q 272.925524 299.644062 272.925524 295.37691 
" clip-path="url(#p670746be8f)" style="fill: none; opacity: 0.85; stroke-dasharray: 4.44,1.92; stroke-dashoffset: 0; stroke: #000000; stroke-width: 1.2; stroke-linecap: round"/>
    <path d="M 270.525524 300.17691 
L 272.925524 295.37691 
L 275.325524 300.17691 
z
" clip-path="url(#p670746be8f)" style="opacity: 0.85; stroke-dasharray: 4.44,1.92; stroke-dashoffset: 0; stroke: #000000; stroke-width: 1.2; stroke-linecap: round"/>
   </g>
   <g id="patch_30">
    <path d="M 274.927964 292.038236 
Q 280.536756 292.038236 284.803908 292.038236 
" clip-path="url(#p670746be8f)" style="fill: none; opacity: 0.85; stroke-dasharray: 4.44,1.92; stroke-dashoffset: 0; stroke: #000000; stroke-width: 1.2; stroke-linecap: round"/>
    <path d="M 280.003908 289.638236 
L 284.803908 292.038236 
L 280.003908 294.438236 
z
" clip-path="url(#p670746be8f)" style="opacity: 0.85; stroke-dasharray: 4.44,1.92; stroke-dashoffset: 0; stroke: #000000; stroke-width: 1.2; stroke-linecap: round"/>
   </g>
   <g id="patch_31">
    <path d="M 289.556178 293.451833 
Q 295.751898 299.647552 300.998933 304.894587 
" clip-path="url(#p670746be8f)" style="fill: none; opacity: 0.85; stroke-dasharray: 4.44,1.92; stroke-dashoffset: 0; stroke: #000000; stroke-width: 1.2; stroke-linecap: round"/>
    <path d="M 299.301877 299.803419 
L 300.998933 304.894587 
L 295.907764 303.197531 
z
" clip-path="url(#p670746be8f)" style="opacity: 0.85; stroke-dasharray: 4.44,1.92; stroke-dashoffset: 0; stroke: #000000; stroke-width: 1.2; stroke-linecap: round"/>
   </g>
   <g id="patch_32">
    <path d="M 305.357437 307.255295 
Q 314.770877 307.255295 322.842676 307.255295 
" clip-path="url(#p670746be8f)" style="fill: none; opacity: 0.85; stroke-dasharray: 4.44,1.92; stroke-dashoffset: 0; stroke: #000000; stroke-width: 1.2; stroke-linecap: round"/>
    <path d="M 318.042676 304.855295 
L 322.842676 307.255295 
L 318.042676 309.655295 
z
" clip-path="url(#p670746be8f)" style="opacity: 0.85; stroke-dasharray: 4.44,1.92; stroke-dashoffset: 0; stroke: #000000; stroke-width: 1.2; stroke-linecap: round"/>
   </g>
   <g id="patch_33">
    <path d="M 326.185229 305.252855 
Q 326.185229 299.644062 326.185229 295.37691 
" clip-path="url(#p670746be8f)" style="fill: none; opacity: 0.85; stroke-dasharray: 4.44,1.92; stroke-dashoffset: 0; stroke: #000000; stroke-width: 1.2; stroke-linecap: round"/>
    <path d="M 323.785229 300.17691 
L 326.185229 295.37691 
L 328.585229 300.17691 
z
" clip-path="url(#p670746be8f)" style="opacity: 0.85; stroke-dasharray: 4.44,1.92; stroke-dashoffset: 0; stroke: #000000; stroke-width: 1.2; stroke-linecap: round"/>
   </g>
   <g id="patch_34">
    <path d="M 362.322028 307.850872 
Q 242.491319 345.297969 123.94118 382.344887 
" clip-path="url(#p670746be8f)" style="fill: none; opacity: 0.85; stroke-dasharray: 7.68,1.92,1.2,1.92; stroke-dashoffset: 0; stroke: #000000; stroke-width: 1.2; stroke-linecap: round"/>
    <path d="M 129.238544 383.203919 
L 123.94118 382.344887 
L 127.806824 378.622415 
z
" clip-path="url(#p670746be8f)" style="opacity: 0.85; stroke-dasharray: 7.68,1.92,1.2,1.92; stroke-dashoffset: 0; stroke: #000000; stroke-width: 1.2; stroke-linecap: round"/>
   </g>
   <g id="patch_35">
    <path d="M 122.757378 383.340588 
Q 128.36617 383.340588 132.633322 383.340588 
" clip-path="url(#p670746be8f)" style="fill: none; opacity: 0.85; stroke-dasharray: 7.68,1.92,1.2,1.92; stroke-dashoffset: 0; stroke: #000000; stroke-width: 1.2; stroke-linecap: round"/>
    <path d="M 127.833322 380.940588 
L 132.633322 383.340588 
L 127.833322 385.740588 
z
" clip-path="url(#p670746be8f)" style="opacity: 0.85; stroke-dasharray: 7.68,1.92,1.2,1.92; stroke-dashoffset: 0; stroke: #000000; stroke-width: 1.2; stroke-linecap: round"/>
   </g>
   <g id="patch_36">
    <path d="M 135.971996 385.342099 
Q 135.971996 402.361768 135.971996 418.039797 
" clip-path="url(#p670746be8f)" style="fill: none; opacity: 0.85; stroke-dasharray: 7.68,1.92,1.2,1.92; stroke-dashoffset: 0; stroke: #000000; stroke-width: 1.2; stroke-linecap: round"/>
    <path d="M 138.371996 413.239797 
L 135.971996 418.039797 
L 133.571996 413.239797 
z
" clip-path="url(#p670746be8f)" style="opacity: 0.85; stroke-dasharray: 7.68,1.92,1.2,1.92; stroke-dashoffset: 0; stroke: #000000; stroke-width: 1.2; stroke-linecap: round"/>
   </g>
   <g id="patch_37">
    <path d="M 133.970485 421.383234 
Q 116.950815 421.383234 101.272787 421.383234 
" clip-path="url(#p670746be8f)" style="fill: none; opacity: 0.85; stroke-dasharray: 7.68,1.92,1.2,1.92; stroke-dashoffset: 0; stroke: #000000; stroke-width: 1.2; stroke-linecap: round"/>
    <path d="M 106.072787 423.783234 
L 101.272787 421.383234 
L 106.072787 418.983234 
z
" clip-path="url(#p670746be8f)" style="opacity: 0.85; stroke-dasharray: 7.68,1.92,1.2,1.92; stroke-dashoffset: 0; stroke: #000000; stroke-width: 1.2; stroke-linecap: round"/>
   </g>
   <g id="patch_38">
    <path d="M 97.92935 419.381723 
Q 97.92935 402.362054 97.92935 386.684025 
" clip-path="url(#p670746be8f)" style="fill: none; opacity: 0.85; stroke-dasharray: 7.68,1.92,1.2,1.92; stroke-dashoffset: 0; stroke: #000000; stroke-width: 1.2; stroke-linecap: round"/>
    <path d="M 95.52935 391.484025 
L 97.92935 386.684025 
L 100.32935 391.484025 
z
" clip-path="url(#p670746be8f)" style="opacity: 0.85; stroke-dasharray: 7.68,1.92,1.2,1.92; stroke-dashoffset: 0; stroke: #000000; stroke-width: 1.2; stroke-linecap: round"/>
   </g>
   <g id="patch_39">
    <path d="M 95.931553 383.340588 
Q 86.518114 383.340588 78.446315 383.340588 
" clip-path="url(#p670746be8f)" style="fill: none; opacity: 0.85; stroke-dasharray: 7.68,1.92,1.2,1.92; stroke-dashoffset: 0; stroke: #000000; stroke-width: 1.2; stroke-linecap: round"/>
    <path d="M 83.246315 385.740588 
L 78.446315 383.340588 
L 83.246315 380.940588 
z
" clip-path="url(#p670746be8f)" style="opacity: 0.85; stroke-dasharray: 7.68,1.92,1.2,1.92; stroke-dashoffset: 0; stroke: #000000; stroke-width: 1.2; stroke-linecap: round"/>
   </g>
   <g id="patch_40">
    <path d="M 73.101322 383.340588 
Q 67.492529 383.340588 63.225377 383.340588 
" clip-path="url(#p670746be8f)" style="fill: none; opacity: 0.85; stroke-dasharray: 7.68,1.92,1.2,1.92; stroke-dashoffset: 0; stroke: #000000; stroke-width: 1.2; stroke-linecap: round"/>
    <path d="M 68.025377 385.740588 
L 63.225377 383.340588 
L 68.025377 380.940588 
z
" clip-path="url(#p670746be8f)" style="opacity: 0.85; stroke-dasharray: 7.68,1.92,1.2,1.92; stroke-dashoffset: 0; stroke: #000000; stroke-width: 1.2; stroke-linecap: round"/>
   </g>
   <g id="patch_41">
    <path d="M 59.886703 381.339076 
Q 59.886703 364.319407 59.886703 348.641379 
" clip-path="url(#p670746be8f)" style="fill: none; opacity: 0.85; stroke-dasharray: 7.68,1.92,1.2,1.92; stroke-dashoffset: 0; stroke: #000000; stroke-width: 1.2; stroke-linecap: round"/>
    <path d="M 57.486703 353.441379 
L 59.886703 348.641379 
L 62.286703 353.441379 
z
" clip-path="url(#p670746be8f)" style="opacity: 0.85; stroke-dasharray: 7.68,1.92,1.2,1.92; stroke-dashoffset: 0; stroke: #000000; stroke-width: 1.2; stroke-linecap: round"/>
   </g>
   <g id="patch_42">
    <path d="M 61.889143 345.297941 
Q 90.321422 345.297941 117.412061 345.297941 
" clip-path="url(#p670746be8f)" style="fill: none; opacity: 0.85; stroke-dasharray: 7.68,1.92,1.2,1.92; stroke-dashoffset: 0; stroke: #000000; stroke-width: 1.2; stroke-linecap: round"/>
    <path d="M 112.612061 342.897941 
L 117.412061 345.297941 
L 112.612061 347.697941 
z
" clip-path="url(#p670746be8f)" style="opacity: 0.85; stroke-dasharray: 7.68,1.92,1.2,1.92; stroke-dashoffset: 0; stroke: #000000; stroke-width: 1.2; stroke-linecap: round"/>
   </g>
   <g id="patch_43">
    <path d="M 122.602272 344.528219 
Q 166.405692 326.276793 208.970675 308.541384 
" clip-path="url(#p670746be8f)" style="fill: none; opacity: 0.85; stroke-dasharray: 7.68,1.92,1.2,1.92; stroke-dashoffset: 0; stroke: #000000; stroke-width: 1.2; stroke-linecap: round"/>
    <path d="M 203.616829 308.172153 
L 208.970675 308.541384 
L 205.462983 312.602922 
z
" clip-path="url(#p670746be8f)" style="opacity: 0.85; stroke-dasharray: 7.68,1.92,1.2,1.92; stroke-dashoffset: 0; stroke: #000000; stroke-width: 1.2; stroke-linecap: round"/>
   </g>
   <g id="patch_44">
    <path d="M 363.059708 305.63284 
Q 295.752345 212.150392 229.22891 119.756732 
" clip-path="url(#p670746be8f)" style="fill: none; opacity: 0.85; stroke-dasharray: 3.6,2.4,1.2,2.4; stroke-dashoffset: 0; stroke: #000000; stroke-width: 1.2; stroke-linecap: round"/>
    <path d="M 230.08589 125.054428 
L 229.22891 119.756732 
L 233.981255 122.249765 
z
" clip-path="url(#p670746be8f)" style="opacity: 0.85; stroke-dasharray: 3.6,2.4,1.2,2.4; stroke-dashoffset: 0; stroke: #000000; stroke-width: 1.2; stroke-linecap: round"/>
   </g>
   <g id="patch_45">
    <path d="M 226.532256 115.186833 
Q 219.666718 98.022989 213.299454 82.104827 
" clip-path="url(#p670746be8f)" style="fill: none; opacity: 0.85; stroke-dasharray: 3.6,2.4,1.2,2.4; stroke-dashoffset: 0; stroke: #000000; stroke-width: 1.2; stroke-linecap: round"/>
    <path d="M 212.853785 87.452853 
L 213.299454 82.104827 
L 217.310473 85.670178 
z
" clip-path="url(#p670746be8f)" style="opacity: 0.85; stroke-dasharray: 3.6,2.4,1.2,2.4; stroke-dashoffset: 0; stroke: #000000; stroke-width: 1.2; stroke-linecap: round"/>
   </g>
   <g id="patch_46">
    <path d="M 212.799381 77.144187 
Q 219.664918 59.980343 226.032183 44.062181 
" clip-path="url(#p670746be8f)" style="fill: none; opacity: 0.85; stroke-dasharray: 3.6,2.4,1.2,2.4; stroke-dashoffset: 0; stroke: #000000; stroke-width: 1.2; stroke-linecap: round"/>
    <path d="M 222.021164 47.627531 
L 226.032183 44.062181 
L 226.477852 49.410206 
z
" clip-path="url(#p670746be8f)" style="opacity: 0.85; stroke-dasharray: 3.6,2.4,1.2,2.4; stroke-dashoffset: 0; stroke: #000000; stroke-width: 1.2; stroke-linecap: round"/>
   </g>
   <g id="patch_47">
    <path d="M 229.272144 40.956769 
Q 238.685584 40.956769 246.757383 40.956769 
" clip-path="url(#p670746be8f)" style="fill: none; opacity: 0.85; stroke-dasharray: 3.6,2.4,1.2,2.4; stroke-dashoffset: 0; stroke: #000000; stroke-width: 1.2; stroke-linecap: round"/>
    <path d="M 241.957383 38.556769 
L 246.757383 40.956769 
L 241.957383 43.356769 
z
" clip-path="url(#p670746be8f)" style="opacity: 0.85; stroke-dasharray: 3.6,2.4,1.2,2.4; stroke-dashoffset: 0; stroke: #000000; stroke-width: 1.2; stroke-linecap: round"/>
   </g>
   <g id="patch_48">
    <path d="M 248.098424 40.956769 
Q 231.078755 40.956769 215.400726 40.956769 
" clip-path="url(#p670746be8f)" style="fill: none; opacity: 0.85; stroke-dasharray: 3.6,2.4,1.2,2.4; stroke-dashoffset: 0; stroke: #000000; stroke-width: 1.2; stroke-linecap: round"/>
    <path d="M 220.200726 43.356769 
L 215.400726 40.956769 
L 220.200726 38.556769 
z
" clip-path="url(#p670746be8f)" style="opacity: 0.85; stroke-dasharray: 3.6,2.4,1.2,2.4; stroke-dashoffset: 0; stroke: #000000; stroke-width: 1.2; stroke-linecap: round"/>
   </g>
   <g id="patch_49">
    <path d="M 210.643228 42.37083 
Q 193.036513 59.977546 176.378481 76.635578 
" clip-path="url(#p670746be8f)" style="fill: none; opacity: 0.85; stroke-dasharray: 3.6,2.4,1.2,2.4; stroke-dashoffset: 0; stroke: #000000; stroke-width: 1.2; stroke-linecap: round"/>
    <path d="M 181.469649 74.938521 
L 176.378481 76.635578 
L 178.075537 71.544409 
z
" clip-path="url(#p670746be8f)" style="opacity: 0.85; stroke-dasharray: 3.6,2.4,1.2,2.4; stroke-dashoffset: 0; stroke: #000000; stroke-width: 1.2; stroke-linecap: round"/>
   </g>
   <g id="patch_50">
    <path d="M 174.014643 81.000927 
Q 174.014643 98.020596 174.014643 113.698625 
" clip-path="url(#p670746be8f)" style="fill: none; opacity: 0.85; stroke-dasharray: 3.6,2.4,1.2,2.4; stroke-dashoffset: 0; stroke: #000000; stroke-width: 1.2; stroke-linecap: round"/>
    <path d="M 176.414643 108.898625 
L 174.014643 113.698625 
L 171.614643 108.898625 
z
" clip-path="url(#p670746be8f)" style="opacity: 0.85; stroke-dasharray: 3.6,2.4,1.2,2.4; stroke-dashoffset: 0; stroke: #000000; stroke-width: 1.2; stroke-linecap: round"/>
   </g>
   <g id="patch_51">
    <path d="M 176.012439 117.042062 
Q 185.425879 117.042062 193.497678 117.042062 
" clip-path="url(#p670746be8f)" style="fill: none; opacity: 0.85; stroke-dasharray: 3.6,2.4,1.2,2.4; stroke-dashoffset: 0; stroke: #000000; stroke-width: 1.2; stroke-linecap: round"/>
    <path d="M 188.697678 114.642062 
L 193.497678 117.042062 
L 188.697678 119.442062 
z
" clip-path="url(#p670746be8f)" style="opacity: 0.85; stroke-dasharray: 3.6,2.4,1.2,2.4; stroke-dashoffset: 0; stroke: #000000; stroke-width: 1.2; stroke-linecap: round"/>
   </g>
   <g id="patch_52">
    <path d="M 197.324355 118.978559 
Q 215.861196 193.125923 234.072641 265.971703 
" clip-path="url(#p670746be8f)" style="fill: none; opacity: 0.85; stroke-dasharray: 3.6,2.4,1.2,2.4; stroke-dashoffset: 0; stroke: #000000; stroke-width: 1.2; stroke-linecap: round"/>
    <path d="M 235.236812 260.732934 
L 234.072641 265.971703 
L 230.580128 261.897105 
z
" clip-path="url(#p670746be8f)" style="opacity: 0.85; stroke-dasharray: 3.6,2.4,1.2,2.4; stroke-dashoffset: 0; stroke: #000000; stroke-width: 1.2; stroke-linecap: round"/>
   </g>
   <g id="patch_53">
    <path d="M 232.885081 269.212648 
Q 223.471641 269.212648 215.399842 269.212648 
" clip-path="url(#p670746be8f)" style="fill: none; opacity: 0.85; stroke-dasharray: 3.6,2.4,1.2,2.4; stroke-dashoffset: 0; stroke: #000000; stroke-width: 1.2; stroke-linecap: round"/>
    <path d="M 220.199842 271.612648 
L 215.399842 269.212648 
L 220.199842 266.812648 
z
" clip-path="url(#p670746be8f)" style="opacity: 0.85; stroke-dasharray: 3.6,2.4,1.2,2.4; stroke-dashoffset: 0; stroke: #000000; stroke-width: 1.2; stroke-linecap: round"/>
   </g>
   <g id="patch_54">
    <path d="M 214.0588 269.212648 
Q 231.07847 269.212648 246.756498 269.212648 
" clip-path="url(#p670746be8f)" style="fill: none; opacity: 0.85; stroke-dasharray: 3.6,2.4,1.2,2.4; stroke-dashoffset: 0; stroke: #000000; stroke-width: 1.2; stroke-linecap: round"/>
    <path d="M 241.956498 266.812648 
L 246.756498 269.212648 
L 241.956498 271.612648 
z
" clip-path="url(#p670746be8f)" style="opacity: 0.85; stroke-dasharray: 3.6,2.4,1.2,2.4; stroke-dashoffset: 0; stroke: #000000; stroke-width: 1.2; stroke-linecap: round"/>
   </g>
   <g id="patch_55">
    <path d="M 362.380541 306.485572 
Q 318.57712 288.234147 276.012138 270.498737 
" clip-path="url(#p670746be8f)" style="fill: none; opacity: 0.85; stroke-dasharray: 1.2,1.2; stroke-dashoffset: 0; stroke: #000000; stroke-width: 1.2; stroke-linecap: round"/>
    <path d="M 279.51983 274.560276 
L 276.012138 270.498737 
L 281.365984 270.129507 
z
" clip-path="url(#p670746be8f)" style="opacity: 0.85; stroke-dasharray: 1.2,1.2; stroke-dashoffset: 0; stroke: #000000; stroke-width: 1.2; stroke-linecap: round"/>
   </g>
   <g id="patch_56">
    <path d="M 271.512856 270.625316 
Q 261.513451 280.624721 252.462729 289.675443 
" clip-path="url(#p670746be8f)" style="fill: none; opacity: 0.85; stroke-dasharray: 1.2,1.2; stroke-dashoffset: 0; stroke: #000000; stroke-width: 1.2; stroke-linecap: round"/>
    <path d="M 257.553898 287.978386 
L 252.462729 289.675443 
L 254.159785 284.584274 
z
" clip-path="url(#p670746be8f)" style="opacity: 0.85; stroke-dasharray: 1.2,1.2; stroke-dashoffset: 0; stroke: #000000; stroke-width: 1.2; stroke-linecap: round"/>
   </g>
   <g id="patch_57">
    <path d="M 248.097496 292.038236 
Q 242.488703 292.038236 238.221551 292.038236 
" clip-path="url(#p670746be8f)" style="fill: none; opacity: 0.85; stroke-dasharray: 1.2,1.2; stroke-dashoffset: 0; stroke: #000000; stroke-width: 1.2; stroke-linecap: round"/>
    <path d="M 243.021551 294.438236 
L 238.221551 292.038236 
L 243.021551 289.638236 
z
" clip-path="url(#p670746be8f)" style="opacity: 0.85; stroke-dasharray: 1.2,1.2; stroke-dashoffset: 0; stroke: #000000; stroke-width: 1.2; stroke-linecap: round"/>
   </g>
   <g id="patch_58">
    <path d="M 37.053359 481.664525 
L 37.053359 18.718125 
" style="fill: none; stroke: #000000; stroke-width: 0.8; stroke-linejoin: miter; stroke-linecap: square"/>
   </g>
   <g id="patch_59">
    <path d="M 37.053359 481.664525 
L 515.311898 481.664525 
" style="fill: none; stroke: #000000; stroke-width: 0.8; stroke-linejoin: miter; stroke-linecap: square"/>
   </g>
   <g id="PathCollection_1">
    <defs>
     <path id="meb47492af2" d="M 0 2.345208 
C 0.621956 2.345208 1.218523 2.098102 1.658312 1.658312 
C 2.098102 1.218523 2.345208 0.621956 2.345208 0 
C 2.345208 -0.621956 2.098102 -1.218523 1.658312 -1.658312 
C 1.218523 -2.098102 0.621956 -2.345208 0 -2.345208 
C -0.621956 -2.345208 -1.218523 -2.098102 -1.658312 -1.658312 
C -2.098102 -1.218523 -2.345208 -0.621956 -2.345208 0 
C -2.345208 0.621956 -2.098102 1.218523 -1.658312 1.658312 
C -1.218523 2.098102 -0.621956 2.345208 0 2.345208 
z
" style="stroke: #000000; stroke-width: 0.7"/>
    </defs>
    <g clip-path="url(#p670746be8f)">
     <use xlink:href="#meb47492af2" x="250.099936" y="40.956769" style="fill: #ffffff; stroke: #000000; stroke-width: 0.7"/>
     <use xlink:href="#meb47492af2" x="227.274348" y="117.042062" style="fill: #ffffff; stroke: #000000; stroke-width: 0.7"/>
     <use xlink:href="#meb47492af2" x="227.274348" y="40.956769" style="fill: #ffffff; stroke: #000000; stroke-width: 0.7"/>
     <use xlink:href="#meb47492af2" x="212.057289" y="78.999416" style="fill: #ffffff; stroke: #000000; stroke-width: 0.7"/>
     <use xlink:href="#meb47492af2" x="212.057289" y="40.956769" style="fill: #ffffff; stroke: #000000; stroke-width: 0.7"/>
     <use xlink:href="#meb47492af2" x="196.84023" y="117.042062" style="fill: #ffffff; stroke: #000000; stroke-width: 0.7"/>
     <use xlink:href="#meb47492af2" x="174.014643" y="117.042062" style="fill: #ffffff; stroke: #000000; stroke-width: 0.7"/>
     <use xlink:href="#meb47492af2" x="174.014643" y="78.999416" style="fill: #ffffff; stroke: #000000; stroke-width: 0.7"/>
     <use xlink:href="#meb47492af2" x="288.142582" y="307.255295" style="fill: #ffffff; stroke: #000000; stroke-width: 0.7"/>
     <use xlink:href="#meb47492af2" x="288.142582" y="292.038236" style="fill: #ffffff; stroke: #000000; stroke-width: 0.7"/>
     <use xlink:href="#meb47492af2" x="272.925524" y="292.038236" style="fill: #ffffff; stroke: #000000; stroke-width: 0.7"/>
     <use xlink:href="#meb47492af2" x="272.925524" y="269.212648" style="fill: #ffffff; stroke: #000000; stroke-width: 0.7"/>
     <use xlink:href="#meb47492af2" x="250.099936" y="307.255295" style="fill: #ffffff; stroke: #000000; stroke-width: 0.7"/>
     <use xlink:href="#meb47492af2" x="250.099936" y="292.038236" style="fill: #ffffff; stroke: #000000; stroke-width: 0.7"/>
     <use xlink:href="#meb47492af2" x="250.099936" y="269.212648" style="fill: #ffffff; stroke: #000000; stroke-width: 0.7"/>
     <use xlink:href="#meb47492af2" x="234.882877" y="292.038236" style="fill: #ffffff; stroke: #000000; stroke-width: 0.7"/>
     <use xlink:href="#meb47492af2" x="234.882877" y="269.212648" style="fill: #ffffff; stroke: #000000; stroke-width: 0.7"/>
     <use xlink:href="#meb47492af2" x="212.057289" y="307.255295" style="fill: #ffffff; stroke: #000000; stroke-width: 0.7"/>
     <use xlink:href="#meb47492af2" x="212.057289" y="269.212648" style="fill: #ffffff; stroke: #000000; stroke-width: 0.7"/>
     <use xlink:href="#meb47492af2" x="135.971996" y="421.383234" style="fill: #ffffff; stroke: #000000; stroke-width: 0.7"/>
     <use xlink:href="#meb47492af2" x="135.971996" y="383.340588" style="fill: #ffffff; stroke: #000000; stroke-width: 0.7"/>
     <use xlink:href="#meb47492af2" x="120.754937" y="383.340588" style="fill: #ffffff; stroke: #000000; stroke-width: 0.7"/>
     <use xlink:href="#meb47492af2" x="120.754937" y="345.297941" style="fill: #ffffff; stroke: #000000; stroke-width: 0.7"/>
     <use xlink:href="#meb47492af2" x="97.92935" y="421.383234" style="fill: #ffffff; stroke: #000000; stroke-width: 0.7"/>
     <use xlink:href="#meb47492af2" x="97.92935" y="383.340588" style="fill: #ffffff; stroke: #000000; stroke-width: 0.7"/>
     <use xlink:href="#meb47492af2" x="75.103762" y="383.340588" style="fill: #ffffff; stroke: #000000; stroke-width: 0.7"/>
     <use xlink:href="#meb47492af2" x="59.886703" y="383.340588" style="fill: #ffffff; stroke: #000000; stroke-width: 0.7"/>
     <use xlink:href="#meb47492af2" x="59.886703" y="345.297941" style="fill: #ffffff; stroke: #000000; stroke-width: 0.7"/>
     <use xlink:href="#meb47492af2" x="326.185229" y="459.425881" style="fill: #ffffff; stroke: #000000; stroke-width: 0.7"/>
     <use xlink:href="#meb47492af2" x="326.185229" y="444.208822" style="fill: #ffffff; stroke: #000000; stroke-width: 0.7"/>
     <use xlink:href="#meb47492af2" x="310.96817" y="444.208822" style="fill: #ffffff; stroke: #000000; stroke-width: 0.7"/>
     <use xlink:href="#meb47492af2" x="310.96817" y="421.383234" style="fill: #ffffff; stroke: #000000; stroke-width: 0.7"/>
     <use xlink:href="#meb47492af2" x="303.359641" y="421.383234" style="fill: #ffffff; stroke: #000000; stroke-width: 0.7"/>
     <use xlink:href="#meb47492af2" x="288.142582" y="459.425881" style="fill: #ffffff; stroke: #000000; stroke-width: 0.7"/>
     <use xlink:href="#meb47492af2" x="288.142582" y="444.208822" style="fill: #ffffff; stroke: #000000; stroke-width: 0.7"/>
     <use xlink:href="#meb47492af2" x="288.142582" y="421.383234" style="fill: #ffffff; stroke: #000000; stroke-width: 0.7"/>
     <use xlink:href="#meb47492af2" x="272.925524" y="459.425881" style="fill: #ffffff; stroke: #000000; stroke-width: 0.7"/>
     <use xlink:href="#meb47492af2" x="272.925524" y="421.383234" style="fill: #ffffff; stroke: #000000; stroke-width: 0.7"/>
     <use xlink:href="#meb47492af2" x="250.099936" y="421.383234" style="fill: #ffffff; stroke: #000000; stroke-width: 0.7"/>
     <use xlink:href="#meb47492af2" x="212.057289" y="459.425881" style="fill: #ffffff; stroke: #000000; stroke-width: 0.7"/>
     <use xlink:href="#meb47492af2" x="212.057289" y="444.208822" style="fill: #ffffff; stroke: #000000; stroke-width: 0.7"/>
     <use xlink:href="#meb47492af2" x="333.793758" y="330.080883" style="fill: #ffffff; stroke: #000000; stroke-width: 0.7"/>
     <use xlink:href="#meb47492af2" x="326.185229" y="330.080883" style="fill: #ffffff; stroke: #000000; stroke-width: 0.7"/>
     <use xlink:href="#meb47492af2" x="326.185229" y="307.255295" style="fill: #ffffff; stroke: #000000; stroke-width: 0.7"/>
     <use xlink:href="#meb47492af2" x="326.185229" y="292.038236" style="fill: #ffffff; stroke: #000000; stroke-width: 0.7"/>
     <use xlink:href="#meb47492af2" x="303.359641" y="330.080883" style="fill: #ffffff; stroke: #000000; stroke-width: 0.7"/>
     <use xlink:href="#meb47492af2" x="303.359641" y="307.255295" style="fill: #ffffff; stroke: #000000; stroke-width: 0.7"/>
     <use xlink:href="#meb47492af2" x="288.142582" y="330.080883" style="fill: #ffffff; stroke: #000000; stroke-width: 0.7"/>
     <use xlink:href="#meb47492af2" x="272.925524" y="307.255295" style="fill: #ffffff; stroke: #000000; stroke-width: 0.7"/>
     <use xlink:href="#meb47492af2" x="493.572873" y="330.080883" style="fill: #ffffff; stroke: #000000; stroke-width: 0.7"/>
    </g>
   </g>
   <g id="text_15">
    <!-- Depot -->
    <g transform="translate(350.901625 292.038236) scale(0.08 -0.08)">
     <defs>
      <path id="DejaVuSerif-Bold-27" d="M 2100 378 
L 2534 378 
Q 3266 378 3605 847 
Q 3944 1316 3944 2338 
Q 3944 3353 3606 3820 
Q 3269 4288 2534 4288 
L 2100 4288 
L 2100 378 
z
M 300 0 
L 300 378 
L 897 378 
L 897 4288 
L 300 4288 
L 300 4666 
L 2694 4666 
Q 3950 4666 4615 4066 
Q 5281 3466 5281 2338 
Q 5281 1203 4614 601 
Q 3947 0 2694 0 
L 300 0 
z
" transform="scale(0.015625)"/>
      <path id="DejaVuSerif-Bold-48" d="M 2566 1875 
Q 2566 2531 2444 2795 
Q 2322 3059 2028 3059 
Q 1744 3059 1620 2800 
Q 1497 2541 1497 1931 
L 1497 1875 
L 2566 1875 
z
M 3781 1503 
L 1497 1503 
L 1497 1478 
Q 1497 834 1690 548 
Q 1884 263 2316 263 
Q 2675 263 2897 453 
Q 3119 644 3181 1006 
L 3700 1006 
Q 3566 441 3166 175 
Q 2766 -91 2047 -91 
Q 1184 -91 723 364 
Q 263 819 263 1663 
Q 263 2488 734 2950 
Q 1206 3413 2047 3413 
Q 2872 3413 3312 2927 
Q 3753 2441 3781 1503 
z
" transform="scale(0.015625)"/>
      <path id="DejaVuSerif-Bold-53" d="M 1728 1825 
L 1728 1497 
Q 1728 916 1876 656 
Q 2025 397 2356 397 
Q 2697 397 2836 672 
Q 2975 947 2975 1663 
Q 2975 2378 2836 2651 
Q 2697 2925 2356 2925 
Q 2025 2925 1876 2665 
Q 1728 2406 1728 1825 
z
M 622 2944 
L 147 2944 
L 147 3322 
L 1728 3322 
L 1728 2900 
Q 1869 3159 2106 3286 
Q 2344 3413 2694 3413 
Q 3403 3413 3811 2945 
Q 4219 2478 4219 1663 
Q 4219 847 3811 378 
Q 3403 -91 2694 -91 
Q 2344 -91 2106 36 
Q 1869 163 1728 422 
L 1728 -953 
L 2241 -953 
L 2241 -1331 
L 147 -1331 
L 147 -953 
L 622 -953 
L 622 2944 
z
" transform="scale(0.015625)"/>
      <path id="DejaVuSerif-Bold-52" d="M 2138 263 
Q 2488 263 2630 563 
Q 2772 863 2772 1663 
Q 2772 2463 2631 2761 
Q 2491 3059 2138 3059 
Q 1784 3059 1640 2757 
Q 1497 2456 1497 1663 
Q 1497 869 1640 566 
Q 1784 263 2138 263 
z
M 2138 -91 
Q 1259 -91 761 376 
Q 263 844 263 1663 
Q 263 2484 761 2948 
Q 1259 3413 2138 3413 
Q 3019 3413 3516 2948 
Q 4013 2484 4013 1663 
Q 4013 844 3514 376 
Q 3016 -91 2138 -91 
z
" transform="scale(0.015625)"/>
      <path id="DejaVuSerif-Bold-57" d="M 634 2944 
L 153 2944 
L 153 3322 
L 634 3322 
L 634 4353 
L 1741 4353 
L 1741 3322 
L 2663 3322 
L 2663 2944 
L 1741 2944 
L 1741 909 
Q 1741 475 1809 369 
Q 1878 263 2059 263 
Q 2259 263 2356 397 
Q 2453 531 2459 813 
L 2925 813 
Q 2897 313 2651 111 
Q 2406 -91 1806 -91 
Q 1122 -91 878 123 
Q 634 338 634 909 
L 634 2944 
z
" transform="scale(0.015625)"/>
     </defs>
     <use xlink:href="#DejaVuSerif-Bold-27"/>
     <use xlink:href="#DejaVuSerif-Bold-48" transform="translate(86.71875 0)"/>
     <use xlink:href="#DejaVuSerif-Bold-53" transform="translate(150.34375 0)"/>
     <use xlink:href="#DejaVuSerif-Bold-52" transform="translate(220.265625 0)"/>
     <use xlink:href="#DejaVuSerif-Bold-57" transform="translate(286.96875 0)"/>
    </g>
   </g>
   <g id="text_16">
    <!-- ACO Route Map (50 Customers) -->
    <g transform="translate(178.131379 12.718125) scale(0.12 -0.12)">
     <defs>
      <path id="DejaVuSerif-24" d="M 1281 1691 
L 2994 1691 
L 2138 3909 
L 1281 1691 
z
M -38 0 
L -38 331 
L 372 331 
L 2034 4666 
L 2559 4666 
L 4225 331 
L 4684 331 
L 4684 0 
L 2988 0 
L 2988 331 
L 3506 331 
L 3116 1356 
L 1153 1356 
L 763 331 
L 1275 331 
L 1275 0 
L -38 0 
z
" transform="scale(0.015625)"/>
      <path id="DejaVuSerif-32" d="M 2625 244 
Q 3391 244 3781 770 
Q 4172 1297 4172 2328 
Q 4172 3363 3781 3889 
Q 3391 4416 2625 4416 
Q 1856 4416 1465 3889 
Q 1075 3363 1075 2328 
Q 1075 1297 1465 770 
Q 1856 244 2625 244 
z
M 2625 -91 
Q 2150 -91 1751 65 
Q 1353 222 1050 525 
Q 700 875 529 1319 
Q 359 1763 359 2328 
Q 359 2894 529 3339 
Q 700 3784 1050 4134 
Q 1356 4441 1750 4595 
Q 2144 4750 2625 4750 
Q 3641 4750 4266 4084 
Q 4891 3419 4891 2328 
Q 4891 1769 4719 1320 
Q 4547 872 4197 525 
Q 3891 219 3497 64 
Q 3103 -91 2625 -91 
z
" transform="scale(0.015625)"/>
      <path id="DejaVuSerif-35" d="M 3066 2316 
Q 3284 2256 3442 2114 
Q 3600 1972 3725 1716 
L 4403 331 
L 4972 331 
L 4972 0 
L 3872 0 
L 3144 1484 
Q 2934 1916 2759 2042 
Q 2584 2169 2278 2169 
L 1581 2169 
L 1581 331 
L 2241 331 
L 2241 0 
L 353 0 
L 353 331 
L 947 331 
L 947 4331 
L 353 4331 
L 353 4666 
L 2719 4666 
Q 3400 4666 3770 4341 
Q 4141 4016 4141 3419 
Q 4141 2938 3870 2661 
Q 3600 2384 3066 2316 
z
M 1581 2503 
L 2503 2503 
Q 2975 2503 3200 2726 
Q 3425 2950 3425 3419 
Q 3425 3888 3200 4109 
Q 2975 4331 2503 4331 
L 1581 4331 
L 1581 2503 
z
" transform="scale(0.015625)"/>
      <path id="DejaVuSerif-58" d="M 2266 3322 
L 3341 3322 
L 3341 331 
L 3884 331 
L 3884 0 
L 2766 0 
L 2766 588 
Q 2606 256 2353 82 
Q 2100 -91 1766 -91 
Q 1213 -91 952 223 
Q 691 538 691 1209 
L 691 2988 
L 172 2988 
L 172 3322 
L 1269 3322 
L 1269 1388 
Q 1269 781 1417 556 
Q 1566 331 1947 331 
Q 2347 331 2556 625 
Q 2766 919 2766 1478 
L 2766 2988 
L 2266 2988 
L 2266 3322 
z
" transform="scale(0.015625)"/>
      <path id="DejaVuSerif-30" d="M 353 0 
L 353 331 
L 947 331 
L 947 4331 
L 319 4331 
L 319 4666 
L 1678 4666 
L 3316 1344 
L 4953 4666 
L 6228 4666 
L 6228 4331 
L 5606 4331 
L 5606 331 
L 6203 331 
L 6203 0 
L 4378 0 
L 4378 331 
L 4972 331 
L 4972 3938 
L 3372 684 
L 2931 684 
L 1331 3938 
L 1331 331 
L 1925 331 
L 1925 0 
L 353 0 
z
" transform="scale(0.015625)"/>
      <path id="DejaVuSerif-53" d="M 1313 1825 
L 1313 1497 
Q 1313 897 1542 583 
Q 1772 269 2209 269 
Q 2650 269 2876 622 
Q 3103 975 3103 1663 
Q 3103 2353 2876 2703 
Q 2650 3053 2209 3053 
Q 1772 3053 1542 2737 
Q 1313 2422 1313 1825 
z
M 738 2988 
L 184 2988 
L 184 3322 
L 1313 3322 
L 1313 2803 
Q 1481 3116 1742 3264 
Q 2003 3413 2388 3413 
Q 3000 3413 3387 2928 
Q 3775 2444 3775 1663 
Q 3775 881 3387 395 
Q 3000 -91 2388 -91 
Q 2003 -91 1742 57 
Q 1481 206 1313 519 
L 1313 -997 
L 1856 -997 
L 1856 -1331 
L 184 -1331 
L 184 -997 
L 738 -997 
L 738 2988 
z
" transform="scale(0.015625)"/>
      <path id="DejaVuSerif-b" d="M 2041 -997 
Q 1281 -656 893 83 
Q 506 822 506 1931 
Q 506 3044 893 3783 
Q 1281 4522 2041 4863 
L 2041 4556 
Q 1559 4225 1350 3623 
Q 1141 3022 1141 1931 
Q 1141 844 1350 242 
Q 1559 -359 2041 -691 
L 2041 -997 
z
" transform="scale(0.015625)"/>
      <path id="DejaVuSerif-56" d="M 359 184 
L 359 959 
L 691 959 
Q 703 588 923 403 
Q 1144 219 1575 219 
Q 1963 219 2166 364 
Q 2369 509 2369 788 
Q 2369 1006 2220 1140 
Q 2072 1275 1594 1428 
L 1178 1569 
Q 750 1706 558 1912 
Q 366 2119 366 2438 
Q 366 2894 700 3153 
Q 1034 3413 1625 3413 
Q 1888 3413 2178 3344 
Q 2469 3275 2778 3144 
L 2778 2419 
L 2447 2419 
Q 2434 2741 2221 2922 
Q 2009 3103 1644 3103 
Q 1281 3103 1095 2975 
Q 909 2847 909 2591 
Q 909 2381 1050 2254 
Q 1191 2128 1613 1997 
L 2069 1856 
Q 2541 1709 2748 1489 
Q 2956 1269 2956 922 
Q 2956 450 2595 179 
Q 2234 -91 1600 -91 
Q 1278 -91 972 -22 
Q 666 47 359 184 
z
" transform="scale(0.015625)"/>
      <path id="DejaVuSerif-50" d="M 3316 2675 
Q 3481 3041 3739 3227 
Q 3997 3413 4341 3413 
Q 4863 3413 5119 3089 
Q 5375 2766 5375 2113 
L 5375 331 
L 5894 331 
L 5894 0 
L 4300 0 
L 4300 331 
L 4800 331 
L 4800 2047 
Q 4800 2556 4650 2772 
Q 4500 2988 4153 2988 
Q 3769 2988 3567 2697 
Q 3366 2406 3366 1850 
L 3366 331 
L 3866 331 
L 3866 0 
L 2291 0 
L 2291 331 
L 2791 331 
L 2791 2069 
Q 2791 2566 2641 2777 
Q 2491 2988 2144 2988 
Q 1759 2988 1557 2697 
Q 1356 2406 1356 1850 
L 1356 331 
L 1856 331 
L 1856 0 
L 263 0 
L 263 331 
L 781 331 
L 781 2994 
L 231 2994 
L 231 3322 
L 1356 3322 
L 1356 2731 
Q 1516 3063 1762 3238 
Q 2009 3413 2322 3413 
Q 2709 3413 2968 3220 
Q 3228 3028 3316 2675 
z
" transform="scale(0.015625)"/>
      <path id="DejaVuSerif-c" d="M 453 -997 
L 453 -691 
Q 934 -359 1145 242 
Q 1356 844 1356 1931 
Q 1356 3022 1145 3623 
Q 934 4225 453 4556 
L 453 4863 
Q 1216 4522 1603 3783 
Q 1991 3044 1991 1931 
Q 1991 822 1603 83 
Q 1216 -656 453 -997 
z
" transform="scale(0.015625)"/>
     </defs>
     <use xlink:href="#DejaVuSerif-24"/>
     <use xlink:href="#DejaVuSerif-26" transform="translate(72.21875 0)"/>
     <use xlink:href="#DejaVuSerif-32" transform="translate(148.734375 0)"/>
     <use xlink:href="#DejaVuSerif-3" transform="translate(230.71875 0)"/>
     <use xlink:href="#DejaVuSerif-35" transform="translate(262.5 0)"/>
     <use xlink:href="#DejaVuSerif-52" transform="translate(337.796875 0)"/>
     <use xlink:href="#DejaVuSerif-58" transform="translate(398 0)"/>
     <use xlink:href="#DejaVuSerif-57" transform="translate(462.40625 0)"/>
     <use xlink:href="#DejaVuSerif-48" transform="translate(502.59375 0)"/>
     <use xlink:href="#DejaVuSerif-3" transform="translate(561.78125 0)"/>
     <use xlink:href="#DejaVuSerif-30" transform="translate(593.5625 0)"/>
     <use xlink:href="#DejaVuSerif-44" transform="translate(695.953125 0)"/>
     <use xlink:href="#DejaVuSerif-53" transform="translate(755.578125 0)"/>
     <use xlink:href="#DejaVuSerif-3" transform="translate(819.59375 0)"/>
     <use xlink:href="#DejaVuSerif-b" transform="translate(851.375 0)"/>
     <use xlink:href="#DejaVuSerif-18" transform="translate(890.390625 0)"/>
     <use xlink:href="#DejaVuSerif-13" transform="translate(954.015625 0)"/>
     <use xlink:href="#DejaVuSerif-3" transform="translate(1017.640625 0)"/>
     <use xlink:href="#DejaVuSerif-26" transform="translate(1049.421875 0)"/>
     <use xlink:href="#DejaVuSerif-58" transform="translate(1125.9375 0)"/>
     <use xlink:href="#DejaVuSerif-56" transform="translate(1190.34375 0)"/>
     <use xlink:href="#DejaVuSerif-57" transform="translate(1241.65625 0)"/>
     <use xlink:href="#DejaVuSerif-52" transform="translate(1281.84375 0)"/>
     <use xlink:href="#DejaVuSerif-50" transform="translate(1342.046875 0)"/>
     <use xlink:href="#DejaVuSerif-48" transform="translate(1436.875 0)"/>
     <use xlink:href="#DejaVuSerif-55" transform="translate(1496.0625 0)"/>
     <use xlink:href="#DejaVuSerif-56" transform="translate(1543.859375 0)"/>
     <use xlink:href="#DejaVuSerif-c" transform="translate(1595.171875 0)"/>
    </g>
   </g>
   <g id="PathCollection_2">
    <defs>
     <path id="m0064168e21" d="M -4.1833 4.1833 
L 4.1833 4.1833 
L 4.1833 -4.1833 
L -4.1833 -4.1833 
z
" style="stroke: #000000"/>
    </defs>
    <g clip-path="url(#p670746be8f)">
     <use xlink:href="#m0064168e21" x="364.227875" y="307.255295" style="stroke: #000000"/>
    </g>
   </g>
   <g id="text_17">
    <!-- 1 -->
    <g transform="translate(307.533066 416.725122) scale(0.055 -0.055)">
     <defs>
      <path id="DejaVuSerif-Bold-14" d="M 878 0 
L 878 378 
L 1753 378 
L 1753 4153 
L 781 3578 
L 781 4044 
L 1953 4750 
L 2938 4750 
L 2938 378 
L 3816 378 
L 3816 0 
L 878 0 
z
" transform="scale(0.015625)"/>
     </defs>
     <use xlink:href="#DejaVuSerif-Bold-14"/>
    </g>
   </g>
   <g id="text_18">
    <!-- 2 -->
    <g transform="translate(315.141595 416.725122) scale(0.055 -0.055)">
     <defs>
      <path id="DejaVuSerif-Bold-15" d="M 844 3513 
L 469 3513 
L 469 4519 
Q 850 4634 1223 4692 
Q 1597 4750 1978 4750 
Q 2869 4750 3367 4386 
Q 3866 4022 3866 3372 
Q 3866 2909 3591 2542 
Q 3316 2175 2541 1672 
L 1241 819 
L 3450 819 
L 3450 1369 
L 3878 1369 
L 3878 0 
L 428 0 
L 428 763 
L 1119 1241 
Q 2003 1850 2297 2278 
Q 2591 2706 2591 3278 
Q 2591 3819 2367 4101 
Q 2144 4384 1716 4384 
Q 1347 4384 1125 4161 
Q 903 3938 844 3513 
z
" transform="scale(0.015625)"/>
     </defs>
     <use xlink:href="#DejaVuSerif-Bold-15"/>
    </g>
   </g>
   <g id="text_19">
    <!-- 3 -->
    <g transform="translate(292.316007 416.725122) scale(0.055 -0.055)">
     <defs>
      <path id="DejaVuSerif-Bold-16" d="M 550 4531 
Q 963 4641 1350 4695 
Q 1738 4750 2106 4750 
Q 2950 4750 3401 4448 
Q 3853 4147 3853 3584 
Q 3853 3163 3593 2900 
Q 3334 2638 2834 2547 
Q 3444 2450 3744 2131 
Q 4044 1813 4044 1259 
Q 4044 606 3526 257 
Q 3009 -91 2028 -91 
Q 1659 -91 1267 -28 
Q 875 34 447 159 
L 447 1184 
L 825 1184 
Q 859 741 1103 508 
Q 1347 275 1778 275 
Q 2253 275 2512 539 
Q 2772 803 2772 1288 
Q 2772 1794 2501 2069 
Q 2231 2344 1734 2344 
L 1528 2344 
L 1528 2719 
L 1691 2719 
Q 2150 2719 2381 2931 
Q 2613 3144 2613 3566 
Q 2613 3963 2395 4173 
Q 2178 4384 1772 4384 
Q 1403 4384 1187 4182 
Q 972 3981 928 3597 
L 550 3597 
L 550 4531 
z
" transform="scale(0.015625)"/>
     </defs>
     <use xlink:href="#DejaVuSerif-Bold-16"/>
    </g>
   </g>
   <g id="text_20">
    <!-- 4 -->
    <g transform="translate(277.098949 416.725122) scale(0.055 -0.055)">
     <defs>
      <path id="DejaVuSerif-Bold-17" d="M 4084 0 
L 1516 0 
L 1516 378 
L 2209 378 
L 2209 1228 
L 263 1228 
L 263 1588 
L 2216 4750 
L 3391 4750 
L 3391 1631 
L 4191 1631 
L 4191 1228 
L 3391 1228 
L 3391 378 
L 4084 378 
L 4084 0 
z
M 2209 1631 
L 2209 3897 
L 819 1631 
L 2209 1631 
z
" transform="scale(0.015625)"/>
     </defs>
     <use xlink:href="#DejaVuSerif-Bold-17"/>
    </g>
   </g>
   <g id="text_21">
    <!-- 5 -->
    <g transform="translate(254.273361 416.725122) scale(0.055 -0.055)">
     <defs>
      <path id="DejaVuSerif-Bold-18" d="M 3609 4666 
L 3609 3847 
L 1113 3847 
L 1113 2822 
Q 1319 2981 1572 3062 
Q 1825 3144 2106 3144 
Q 2969 3144 3469 2708 
Q 3969 2272 3969 1522 
Q 3969 759 3469 334 
Q 2969 -91 2069 -91 
Q 1688 -91 1311 -28 
Q 934 34 525 166 
L 525 1184 
L 900 1184 
Q 919 725 1139 500 
Q 1359 275 1791 275 
Q 2250 275 2472 583 
Q 2694 891 2694 1522 
Q 2694 2144 2476 2451 
Q 2259 2759 1819 2759 
Q 1581 2759 1395 2661 
Q 1209 2563 1050 2356 
L 738 2356 
L 738 4666 
L 3609 4666 
z
" transform="scale(0.015625)"/>
     </defs>
     <use xlink:href="#DejaVuSerif-Bold-18"/>
    </g>
   </g>
   <g id="text_22">
    <!-- 6 -->
    <g transform="translate(216.230714 439.55071) scale(0.055 -0.055)">
     <defs>
      <path id="DejaVuSerif-Bold-19" d="M 1575 2766 
Q 1778 2928 2029 3009 
Q 2281 3091 2578 3091 
Q 3294 3091 3701 2672 
Q 4109 2253 4109 1522 
Q 4109 750 3650 329 
Q 3191 -91 2344 -91 
Q 1388 -91 895 486 
Q 403 1063 403 2181 
Q 403 3453 950 4101 
Q 1497 4750 2572 4750 
Q 2853 4750 3175 4703 
Q 3497 4656 3866 4563 
L 3866 3738 
L 3488 3738 
Q 3409 4056 3192 4220 
Q 2975 4384 2631 4384 
Q 2075 4384 1826 4003 
Q 1578 3622 1575 2766 
z
M 2272 275 
Q 2594 275 2731 548 
Q 2869 822 2869 1497 
Q 2869 2172 2731 2445 
Q 2594 2719 2272 2719 
Q 1950 2719 1814 2445 
Q 1678 2172 1678 1497 
Q 1678 822 1814 548 
Q 1950 275 2272 275 
z
" transform="scale(0.015625)"/>
     </defs>
     <use xlink:href="#DejaVuSerif-Bold-19"/>
    </g>
   </g>
   <g id="text_23">
    <!-- 7 -->
    <g transform="translate(216.230714 454.767768) scale(0.055 -0.055)">
     <defs>
      <path id="DejaVuSerif-Bold-1a" d="M 3922 3872 
L 1997 0 
L 1363 0 
L 3238 3781 
L 934 3781 
L 934 3150 
L 506 3150 
L 506 4666 
L 3922 4666 
L 3922 3872 
z
" transform="scale(0.015625)"/>
     </defs>
     <use xlink:href="#DejaVuSerif-Bold-1a"/>
    </g>
   </g>
   <g id="text_24">
    <!-- 8 -->
    <g transform="translate(277.098949 454.767768) scale(0.055 -0.055)">
     <defs>
      <path id="DejaVuSerif-Bold-1b" d="M 2975 2484 
Q 3531 2394 3820 2075 
Q 4109 1756 4109 1241 
Q 4109 597 3623 253 
Q 3138 -91 2222 -91 
Q 1306 -91 818 253 
Q 331 597 331 1241 
Q 331 1756 622 2075 
Q 913 2394 1466 2484 
Q 975 2597 731 2861 
Q 488 3125 488 3531 
Q 488 4125 931 4437 
Q 1375 4750 2222 4750 
Q 3066 4750 3511 4437 
Q 3956 4125 3956 3531 
Q 3956 3125 3711 2861 
Q 3466 2597 2975 2484 
z
M 2747 3519 
Q 2747 4013 2628 4198 
Q 2509 4384 2222 4384 
Q 1931 4384 1814 4198 
Q 1697 4013 1697 3519 
Q 1697 3028 1814 2845 
Q 1931 2663 2222 2663 
Q 2513 2663 2630 2845 
Q 2747 3028 2747 3519 
z
M 2869 1294 
Q 2869 1866 2723 2081 
Q 2578 2297 2222 2297 
Q 1863 2297 1719 2081 
Q 1575 1866 1575 1294 
Q 1575 716 1720 495 
Q 1866 275 2222 275 
Q 2575 275 2722 495 
Q 2869 716 2869 1294 
z
" transform="scale(0.015625)"/>
     </defs>
     <use xlink:href="#DejaVuSerif-Bold-1b"/>
    </g>
   </g>
   <g id="text_25">
    <!-- 9 -->
    <g transform="translate(292.316007 454.767768) scale(0.055 -0.055)">
     <defs>
      <path id="DejaVuSerif-Bold-1c" d="M 2181 4384 
Q 1859 4384 1723 4111 
Q 1588 3838 1588 3163 
Q 1588 2488 1723 2214 
Q 1859 1941 2181 1941 
Q 2503 1941 2640 2214 
Q 2778 2488 2778 3163 
Q 2778 3838 2640 4111 
Q 2503 4384 2181 4384 
z
M 2878 1900 
Q 2672 1734 2420 1651 
Q 2169 1569 1875 1569 
Q 1163 1569 755 1986 
Q 347 2403 347 3138 
Q 347 3913 803 4331 
Q 1259 4750 2106 4750 
Q 3063 4750 3556 4172 
Q 4050 3594 4050 2478 
Q 4050 1206 3503 557 
Q 2956 -91 1881 -91 
Q 1600 -91 1278 -44 
Q 956 3 588 97 
L 588 922 
L 966 922 
Q 1044 603 1261 439 
Q 1478 275 1825 275 
Q 2375 275 2625 658 
Q 2875 1041 2878 1900 
z
" transform="scale(0.015625)"/>
     </defs>
     <use xlink:href="#DejaVuSerif-Bold-1c"/>
    </g>
   </g>
   <g id="text_26">
    <!-- 10 -->
    <g transform="translate(290.402609 439.55071) scale(0.055 -0.055)">
     <defs>
      <path id="DejaVuSerif-Bold-13" d="M 2228 275 
Q 2603 275 2742 615 
Q 2881 956 2881 2328 
Q 2881 3691 2742 4037 
Q 2603 4384 2228 4384 
Q 1853 4384 1714 4043 
Q 1575 3703 1575 2328 
Q 1575 956 1714 615 
Q 1853 275 2228 275 
z
M 2228 -91 
Q 1294 -91 797 532 
Q 300 1156 300 2328 
Q 300 3500 797 4125 
Q 1294 4750 2228 4750 
Q 3159 4750 3656 4125 
Q 4153 3500 4153 2328 
Q 4153 1156 3656 532 
Q 3159 -91 2228 -91 
z
" transform="scale(0.015625)"/>
     </defs>
     <use xlink:href="#DejaVuSerif-Bold-14"/>
     <use xlink:href="#DejaVuSerif-Bold-13" transform="translate(69.578125 0)"/>
    </g>
   </g>
   <g id="text_27">
    <!-- 11 -->
    <g transform="translate(313.228197 439.55071) scale(0.055 -0.055)">
     <use xlink:href="#DejaVuSerif-Bold-14"/>
     <use xlink:href="#DejaVuSerif-Bold-14" transform="translate(69.578125 0)"/>
    </g>
   </g>
   <g id="text_28">
    <!-- 12 -->
    <g transform="translate(328.445255 439.55071) scale(0.055 -0.055)">
     <use xlink:href="#DejaVuSerif-Bold-14"/>
     <use xlink:href="#DejaVuSerif-Bold-15" transform="translate(69.578125 0)"/>
    </g>
   </g>
   <g id="text_29">
    <!-- 13 -->
    <g transform="translate(328.445255 454.767768) scale(0.055 -0.055)">
     <use xlink:href="#DejaVuSerif-Bold-14"/>
     <use xlink:href="#DejaVuSerif-Bold-16" transform="translate(69.578125 0)"/>
    </g>
   </g>
   <g id="text_30">
    <!-- 14 -->
    <g transform="translate(495.8329 325.42277) scale(0.055 -0.055)">
     <use xlink:href="#DejaVuSerif-Bold-14"/>
     <use xlink:href="#DejaVuSerif-Bold-17" transform="translate(69.578125 0)"/>
    </g>
   </g>
   <g id="text_31">
    <!-- 1 -->
    <g transform="translate(337.967183 325.42277) scale(0.055 -0.055)">
     <use xlink:href="#DejaVuSerif-Bold-14"/>
    </g>
   </g>
   <g id="text_32">
    <!-- 2 -->
    <g transform="translate(330.358654 325.42277) scale(0.055 -0.055)">
     <use xlink:href="#DejaVuSerif-Bold-15"/>
    </g>
   </g>
   <g id="text_33">
    <!-- 3 -->
    <g transform="translate(307.533066 325.42277) scale(0.055 -0.055)">
     <use xlink:href="#DejaVuSerif-Bold-16"/>
    </g>
   </g>
   <g id="text_34">
    <!-- 4 -->
    <g transform="translate(292.316007 325.42277) scale(0.055 -0.055)">
     <use xlink:href="#DejaVuSerif-Bold-17"/>
    </g>
   </g>
   <g id="text_35">
    <!-- 5 -->
    <g transform="translate(292.316007 302.597182) scale(0.055 -0.055)">
     <use xlink:href="#DejaVuSerif-Bold-18"/>
    </g>
   </g>
   <g id="text_36">
    <!-- 6 -->
    <g transform="translate(254.273361 302.597182) scale(0.055 -0.055)">
     <use xlink:href="#DejaVuSerif-Bold-19"/>
    </g>
   </g>
   <g id="text_37">
    <!-- 7 -->
    <g transform="translate(277.098949 302.597182) scale(0.055 -0.055)">
     <use xlink:href="#DejaVuSerif-Bold-1a"/>
    </g>
   </g>
   <g id="text_38">
    <!-- 8 -->
    <g transform="translate(277.098949 287.380124) scale(0.055 -0.055)">
     <use xlink:href="#DejaVuSerif-Bold-1b"/>
    </g>
   </g>
   <g id="text_39">
    <!-- 9 -->
    <g transform="translate(292.316007 287.380124) scale(0.055 -0.055)">
     <use xlink:href="#DejaVuSerif-Bold-1c"/>
    </g>
   </g>
   <g id="text_40">
    <!-- 10 -->
    <g transform="translate(305.619667 302.597182) scale(0.055 -0.055)">
     <use xlink:href="#DejaVuSerif-Bold-14"/>
     <use xlink:href="#DejaVuSerif-Bold-13" transform="translate(69.578125 0)"/>
    </g>
   </g>
   <g id="text_41">
    <!-- 11 -->
    <g transform="translate(328.445255 302.597182) scale(0.055 -0.055)">
     <use xlink:href="#DejaVuSerif-Bold-14"/>
     <use xlink:href="#DejaVuSerif-Bold-14" transform="translate(69.578125 0)"/>
    </g>
   </g>
   <g id="text_42">
    <!-- 12 -->
    <g transform="translate(328.445255 287.380124) scale(0.055 -0.055)">
     <use xlink:href="#DejaVuSerif-Bold-14"/>
     <use xlink:href="#DejaVuSerif-Bold-15" transform="translate(69.578125 0)"/>
    </g>
   </g>
   <g id="text_43">
    <!-- 1 -->
    <g transform="translate(124.928362 378.682475) scale(0.055 -0.055)">
     <use xlink:href="#DejaVuSerif-Bold-14"/>
    </g>
   </g>
   <g id="text_44">
    <!-- 2 -->
    <g transform="translate(140.145421 378.682475) scale(0.055 -0.055)">
     <use xlink:href="#DejaVuSerif-Bold-15"/>
    </g>
   </g>
   <g id="text_45">
    <!-- 3 -->
    <g transform="translate(140.145421 416.725122) scale(0.055 -0.055)">
     <use xlink:href="#DejaVuSerif-Bold-16"/>
    </g>
   </g>
   <g id="text_46">
    <!-- 4 -->
    <g transform="translate(102.102775 416.725122) scale(0.055 -0.055)">
     <use xlink:href="#DejaVuSerif-Bold-17"/>
    </g>
   </g>
   <g id="text_47">
    <!-- 5 -->
    <g transform="translate(102.102775 378.682475) scale(0.055 -0.055)">
     <use xlink:href="#DejaVuSerif-Bold-18"/>
    </g>
   </g>
   <g id="text_48">
    <!-- 6 -->
    <g transform="translate(79.277187 378.682475) scale(0.055 -0.055)">
     <use xlink:href="#DejaVuSerif-Bold-19"/>
    </g>
   </g>
   <g id="text_49">
    <!-- 7 -->
    <g transform="translate(64.060128 378.682475) scale(0.055 -0.055)">
     <use xlink:href="#DejaVuSerif-Bold-1a"/>
    </g>
   </g>
   <g id="text_50">
    <!-- 8 -->
    <g transform="translate(64.060128 340.639829) scale(0.055 -0.055)">
     <use xlink:href="#DejaVuSerif-Bold-1b"/>
    </g>
   </g>
   <g id="text_51">
    <!-- 9 -->
    <g transform="translate(124.928362 340.639829) scale(0.055 -0.055)">
     <use xlink:href="#DejaVuSerif-Bold-1c"/>
    </g>
   </g>
   <g id="text_52">
    <!-- 10 -->
    <g transform="translate(214.317316 302.597182) scale(0.055 -0.055)">
     <use xlink:href="#DejaVuSerif-Bold-14"/>
     <use xlink:href="#DejaVuSerif-Bold-13" transform="translate(69.578125 0)"/>
    </g>
   </g>
   <g id="text_53">
    <!-- 1 -->
    <g transform="translate(231.447773 112.38395) scale(0.055 -0.055)">
     <use xlink:href="#DejaVuSerif-Bold-14"/>
    </g>
   </g>
   <g id="text_54">
    <!-- 2 -->
    <g transform="translate(216.230714 74.341303) scale(0.055 -0.055)">
     <use xlink:href="#DejaVuSerif-Bold-15"/>
    </g>
   </g>
   <g id="text_55">
    <!-- 3 -->
    <g transform="translate(231.447773 36.298657) scale(0.055 -0.055)">
     <use xlink:href="#DejaVuSerif-Bold-16"/>
    </g>
   </g>
   <g id="text_56">
    <!-- 4 -->
    <g transform="translate(254.273361 36.298657) scale(0.055 -0.055)">
     <use xlink:href="#DejaVuSerif-Bold-17"/>
    </g>
   </g>
   <g id="text_57">
    <!-- 5 -->
    <g transform="translate(216.230714 36.298657) scale(0.055 -0.055)">
     <use xlink:href="#DejaVuSerif-Bold-18"/>
    </g>
   </g>
   <g id="text_58">
    <!-- 6 -->
    <g transform="translate(178.188068 74.341303) scale(0.055 -0.055)">
     <use xlink:href="#DejaVuSerif-Bold-19"/>
    </g>
   </g>
   <g id="text_59">
    <!-- 7 -->
    <g transform="translate(178.188068 112.38395) scale(0.055 -0.055)">
     <use xlink:href="#DejaVuSerif-Bold-1a"/>
    </g>
   </g>
   <g id="text_60">
    <!-- 8 -->
    <g transform="translate(201.013655 112.38395) scale(0.055 -0.055)">
     <use xlink:href="#DejaVuSerif-Bold-1b"/>
    </g>
   </g>
   <g id="text_61">
    <!-- 9 -->
    <g transform="translate(239.056302 264.554536) scale(0.055 -0.055)">
     <use xlink:href="#DejaVuSerif-Bold-1c"/>
    </g>
   </g>
   <g id="text_62">
    <!-- 10 -->
    <g transform="translate(214.317316 264.554536) scale(0.055 -0.055)">
     <use xlink:href="#DejaVuSerif-Bold-14"/>
     <use xlink:href="#DejaVuSerif-Bold-13" transform="translate(69.578125 0)"/>
    </g>
   </g>
   <g id="text_63">
    <!-- 11 -->
    <g transform="translate(252.359962 264.554536) scale(0.055 -0.055)">
     <use xlink:href="#DejaVuSerif-Bold-14"/>
     <use xlink:href="#DejaVuSerif-Bold-14" transform="translate(69.578125 0)"/>
    </g>
   </g>
   <g id="text_64">
    <!-- 1 -->
    <g transform="translate(277.098949 264.554536) scale(0.055 -0.055)">
     <use xlink:href="#DejaVuSerif-Bold-14"/>
    </g>
   </g>
   <g id="text_65">
    <!-- 2 -->
    <g transform="translate(254.273361 287.380124) scale(0.055 -0.055)">
     <use xlink:href="#DejaVuSerif-Bold-15"/>
    </g>
   </g>
   <g id="text_66">
    <!-- 3 -->
    <g transform="translate(239.056302 287.380124) scale(0.055 -0.055)">
     <use xlink:href="#DejaVuSerif-Bold-16"/>
    </g>
   </g>
   <g id="legend_1">
    <g id="line2d_25">
     <defs>
      <path id="m7d33b340c7" d="M -4.5 4.5 
L 4.5 4.5 
L 4.5 -4.5 
L -4.5 -4.5 
z
" style="stroke: #000000; stroke-linejoin: miter"/>
     </defs>
     <g>
      <use xlink:href="#m7d33b340c7" x="178.235675" y="533.562143" style="stroke: #000000; stroke-linejoin: miter"/>
     </g>
    </g>
    <g id="text_67">
     <!-- Depot -->
     <g transform="translate(190.835675 536.012143) scale(0.07 -0.07)">
      <defs>
       <path id="DejaVuSerif-27" d="M 1581 331 
L 2163 331 
Q 3072 331 3558 850 
Q 4044 1369 4044 2338 
Q 4044 3306 3559 3818 
Q 3075 4331 2163 4331 
L 1581 4331 
L 1581 331 
z
M 353 0 
L 353 331 
L 947 331 
L 947 4331 
L 353 4331 
L 353 4666 
L 2209 4666 
Q 3416 4666 4089 4050 
Q 4763 3434 4763 2338 
Q 4763 1238 4088 619 
Q 3413 0 2209 0 
L 353 0 
z
" transform="scale(0.015625)"/>
      </defs>
      <use xlink:href="#DejaVuSerif-27"/>
      <use xlink:href="#DejaVuSerif-48" transform="translate(80.171875 0)"/>
      <use xlink:href="#DejaVuSerif-53" transform="translate(139.359375 0)"/>
      <use xlink:href="#DejaVuSerif-52" transform="translate(203.375 0)"/>
      <use xlink:href="#DejaVuSerif-57" transform="translate(263.578125 0)"/>
     </g>
    </g>
    <g id="line2d_26">
     <defs>
      <path id="me5e504247d" d="M 0 4 
C 1.060812 4 2.078319 3.578535 2.828427 2.828427 
C 3.578535 2.078319 4 1.060812 4 0 
C 4 -1.060812 3.578535 -2.078319 2.828427 -2.828427 
C 2.078319 -3.578535 1.060812 -4 0 -4 
C -1.060812 -4 -2.078319 -3.578535 -2.828427 -2.828427 
C -3.578535 -2.078319 -4 -1.060812 -4 0 
C -4 1.060812 -3.578535 2.078319 -2.828427 2.828427 
C -2.078319 3.578535 -1.060812 4 0 4 
z
" style="stroke: #000000"/>
     </defs>
     <g>
      <use xlink:href="#me5e504247d" x="178.235675" y="544.062689" style="fill: #ffffff; stroke: #000000"/>
     </g>
    </g>
    <g id="text_68">
     <!-- Customer -->
     <g transform="translate(190.835675 546.512689) scale(0.07 -0.07)">
      <use xlink:href="#DejaVuSerif-26"/>
      <use xlink:href="#DejaVuSerif-58" transform="translate(76.515625 0)"/>
      <use xlink:href="#DejaVuSerif-56" transform="translate(140.921875 0)"/>
      <use xlink:href="#DejaVuSerif-57" transform="translate(192.234375 0)"/>
      <use xlink:href="#DejaVuSerif-52" transform="translate(232.421875 0)"/>
      <use xlink:href="#DejaVuSerif-50" transform="translate(292.625 0)"/>
      <use xlink:href="#DejaVuSerif-48" transform="translate(387.453125 0)"/>
      <use xlink:href="#DejaVuSerif-55" transform="translate(446.640625 0)"/>
     </g>
    </g>
    <g id="line2d_27">
     <path d="M 171.235675 554.563236 
L 178.235675 554.563236 
L 185.235675 554.563236 
" style="fill: none; stroke: #000000; stroke-width: 1.2; stroke-linecap: square"/>
    </g>
    <g id="text_69">
     <!-- Vehicle 1 -->
     <g transform="translate(190.835675 557.013236) scale(0.07 -0.07)">
      <defs>
       <path id="DejaVuSerif-39" d="M 1119 4331 
L 2497 750 
L 3872 4331 
L 3347 4331 
L 3347 4666 
L 4716 4666 
L 4716 4331 
L 4263 4331 
L 2597 0 
L 2059 0 
L 403 4331 
L -63 4331 
L -63 4666 
L 1638 4666 
L 1638 4331 
L 1119 4331 
z
" transform="scale(0.015625)"/>
       <path id="DejaVuSerif-4b" d="M 263 0 
L 263 331 
L 781 331 
L 781 4531 
L 231 4531 
L 231 4863 
L 1356 4863 
L 1356 2731 
Q 1516 3069 1770 3241 
Q 2025 3413 2363 3413 
Q 2913 3413 3172 3097 
Q 3431 2781 3431 2113 
L 3431 331 
L 3944 331 
L 3944 0 
L 2356 0 
L 2356 331 
L 2853 331 
L 2853 1931 
Q 2853 2541 2704 2764 
Q 2556 2988 2175 2988 
Q 1775 2988 1565 2697 
Q 1356 2406 1356 1850 
L 1356 331 
L 1856 331 
L 1856 0 
L 263 0 
z
" transform="scale(0.015625)"/>
       <path id="DejaVuSerif-46" d="M 3291 997 
Q 3169 466 2822 187 
Q 2475 -91 1925 -91 
Q 1200 -91 759 389 
Q 319 869 319 1663 
Q 319 2459 759 2936 
Q 1200 3413 1925 3413 
Q 2241 3413 2553 3339 
Q 2866 3266 3181 3116 
L 3181 2266 
L 2847 2266 
Q 2781 2703 2561 2903 
Q 2341 3103 1931 3103 
Q 1466 3103 1228 2742 
Q 991 2381 991 1663 
Q 991 944 1227 581 
Q 1463 219 1931 219 
Q 2303 219 2525 412 
Q 2747 606 2828 997 
L 3291 997 
z
" transform="scale(0.015625)"/>
       <path id="DejaVuSerif-4f" d="M 1313 331 
L 1856 331 
L 1856 0 
L 184 0 
L 184 331 
L 738 331 
L 738 4531 
L 184 4531 
L 184 4863 
L 1313 4863 
L 1313 331 
z
" transform="scale(0.015625)"/>
      </defs>
      <use xlink:href="#DejaVuSerif-39"/>
      <use xlink:href="#DejaVuSerif-48" transform="translate(63.046875 0)"/>
      <use xlink:href="#DejaVuSerif-4b" transform="translate(122.234375 0)"/>
      <use xlink:href="#DejaVuSerif-4c" transform="translate(186.640625 0)"/>
      <use xlink:href="#DejaVuSerif-46" transform="translate(218.625 0)"/>
      <use xlink:href="#DejaVuSerif-4f" transform="translate(274.625 0)"/>
      <use xlink:href="#DejaVuSerif-48" transform="translate(306.609375 0)"/>
      <use xlink:href="#DejaVuSerif-3" transform="translate(365.796875 0)"/>
      <use xlink:href="#DejaVuSerif-14" transform="translate(397.578125 0)"/>
     </g>
    </g>
    <g id="line2d_28">
     <path d="M 239.4463 533.562143 
L 246.4463 533.562143 
L 253.4463 533.562143 
" style="fill: none; stroke-dasharray: 4.44,1.92; stroke-dashoffset: 0; stroke: #000000; stroke-width: 1.2"/>
    </g>
    <g id="text_70">
     <!-- Vehicle 2 -->
     <g transform="translate(259.0463 536.012143) scale(0.07 -0.07)">
      <use xlink:href="#DejaVuSerif-39"/>
      <use xlink:href="#DejaVuSerif-48" transform="translate(63.046875 0)"/>
      <use xlink:href="#DejaVuSerif-4b" transform="translate(122.234375 0)"/>
      <use xlink:href="#DejaVuSerif-4c" transform="translate(186.640625 0)"/>
      <use xlink:href="#DejaVuSerif-46" transform="translate(218.625 0)"/>
      <use xlink:href="#DejaVuSerif-4f" transform="translate(274.625 0)"/>
      <use xlink:href="#DejaVuSerif-48" transform="translate(306.609375 0)"/>
      <use xlink:href="#DejaVuSerif-3" transform="translate(365.796875 0)"/>
      <use xlink:href="#DejaVuSerif-15" transform="translate(397.578125 0)"/>
     </g>
    </g>
    <g id="line2d_29">
     <path d="M 239.4463 544.062689 
L 246.4463 544.062689 
L 253.4463 544.062689 
" style="fill: none; stroke-dasharray: 7.68,1.92,1.2,1.92; stroke-dashoffset: 0; stroke: #000000; stroke-width: 1.2"/>
    </g>
    <g id="text_71">
     <!-- Vehicle 3 -->
     <g transform="translate(259.0463 546.512689) scale(0.07 -0.07)">
      <use xlink:href="#DejaVuSerif-39"/>
      <use xlink:href="#DejaVuSerif-48" transform="translate(63.046875 0)"/>
      <use xlink:href="#DejaVuSerif-4b" transform="translate(122.234375 0)"/>
      <use xlink:href="#DejaVuSerif-4c" transform="translate(186.640625 0)"/>
      <use xlink:href="#DejaVuSerif-46" transform="translate(218.625 0)"/>
      <use xlink:href="#DejaVuSerif-4f" transform="translate(274.625 0)"/>
      <use xlink:href="#DejaVuSerif-48" transform="translate(306.609375 0)"/>
      <use xlink:href="#DejaVuSerif-3" transform="translate(365.796875 0)"/>
      <use xlink:href="#DejaVuSerif-16" transform="translate(397.578125 0)"/>
     </g>
    </g>
    <g id="line2d_30">
     <path d="M 239.4463 554.563236 
L 246.4463 554.563236 
L 253.4463 554.563236 
" style="fill: none; stroke-dasharray: 3.6,2.4,1.2,2.4; stroke-dashoffset: 0; stroke: #000000; stroke-width: 1.2"/>
    </g>
    <g id="text_72">
     <!-- Vehicle 4 -->
     <g transform="translate(259.0463 557.013236) scale(0.07 -0.07)">
      <use xlink:href="#DejaVuSerif-39"/>
      <use xlink:href="#DejaVuSerif-48" transform="translate(63.046875 0)"/>
      <use xlink:href="#DejaVuSerif-4b" transform="translate(122.234375 0)"/>
      <use xlink:href="#DejaVuSerif-4c" transform="translate(186.640625 0)"/>
      <use xlink:href="#DejaVuSerif-46" transform="translate(218.625 0)"/>
      <use xlink:href="#DejaVuSerif-4f" transform="translate(274.625 0)"/>
      <use xlink:href="#DejaVuSerif-48" transform="translate(306.609375 0)"/>
      <use xlink:href="#DejaVuSerif-3" transform="translate(365.796875 0)"/>
      <use xlink:href="#DejaVuSerif-17" transform="translate(397.578125 0)"/>
     </g>
    </g>
    <g id="line2d_31">
     <path d="M 305.330519 533.562143 
L 312.330519 533.562143 
L 319.330519 533.562143 
" style="fill: none; stroke-dasharray: 1.2,1.2; stroke-dashoffset: 0; stroke: #000000; stroke-width: 1.2"/>
    </g>
    <g id="text_73">
     <!-- Vehicle 5 -->
     <g transform="translate(324.930519 536.012143) scale(0.07 -0.07)">
      <use xlink:href="#DejaVuSerif-39"/>
      <use xlink:href="#DejaVuSerif-48" transform="translate(63.046875 0)"/>
      <use xlink:href="#DejaVuSerif-4b" transform="translate(122.234375 0)"/>
      <use xlink:href="#DejaVuSerif-4c" transform="translate(186.640625 0)"/>
      <use xlink:href="#DejaVuSerif-46" transform="translate(218.625 0)"/>
      <use xlink:href="#DejaVuSerif-4f" transform="translate(274.625 0)"/>
      <use xlink:href="#DejaVuSerif-48" transform="translate(306.609375 0)"/>
      <use xlink:href="#DejaVuSerif-3" transform="translate(365.796875 0)"/>
      <use xlink:href="#DejaVuSerif-18" transform="translate(397.578125 0)"/>
     </g>
    </g>
    <g id="line2d_32">
     <path d="M 305.330519 544.062689 
L 312.330519 544.062689 
L 319.330519 544.062689 
" style="fill: none; stroke-dasharray: 0.6,0.99; stroke-dashoffset: 0; stroke: #000000; stroke-width: 0.6"/>
    </g>
    <g id="text_74">
     <!-- Return to depot -->
     <g transform="translate(324.930519 546.512689) scale(0.07 -0.07)">
      <use xlink:href="#DejaVuSerif-35"/>
      <use xlink:href="#DejaVuSerif-48" transform="translate(75.296875 0)"/>
      <use xlink:href="#DejaVuSerif-57" transform="translate(134.484375 0)"/>
      <use xlink:href="#DejaVuSerif-58" transform="translate(174.671875 0)"/>
      <use xlink:href="#DejaVuSerif-55" transform="translate(239.078125 0)"/>
      <use xlink:href="#DejaVuSerif-51" transform="translate(286.875 0)"/>
      <use xlink:href="#DejaVuSerif-3" transform="translate(351.28125 0)"/>
      <use xlink:href="#DejaVuSerif-57" transform="translate(383.0625 0)"/>
      <use xlink:href="#DejaVuSerif-52" transform="translate(423.25 0)"/>
      <use xlink:href="#DejaVuSerif-3" transform="translate(483.453125 0)"/>
      <use xlink:href="#DejaVuSerif-47" transform="translate(515.234375 0)"/>
      <use xlink:href="#DejaVuSerif-48" transform="translate(579.25 0)"/>
      <use xlink:href="#DejaVuSerif-53" transform="translate(638.4375 0)"/>
      <use xlink:href="#DejaVuSerif-52" transform="translate(702.453125 0)"/>
      <use xlink:href="#DejaVuSerif-57" transform="translate(762.65625 0)"/>
     </g>
    </g>
   </g>
  </g>
 </g>
 <defs>
  <clipPath id="p670746be8f">
   <rect x="37.053359" y="18.718125" width="478.258538" height="462.9464"/>
  </clipPath>
 </defs>
</svg>
