<?xml version="1.0" encoding="utf-8" standalone="no"?>
<!DOCTYPE svg PUBLIC "-//W3C//DTD SVG 1.1//EN"
  "http://www.w3.org/Graphics/SVG/1.1/DTD/svg11.dtd">
<svg xmlns:xlink="http://www.w3.org/1999/xlink" width="534.741796pt" height="566.582925pt" viewBox="0 0 534.741796 566.582925" xmlns="http://www.w3.org/2000/svg" version="1.1">
 <metadata>
  <rdf:RDF xmlns:dc="http://purl.org/dc/elements/1.1/" xmlns:cc="http://creativecommons.org/ns#" xmlns:rdf="http://www.w3.org/1999/02/22-rdf-syntax-ns#">
   <cc:Work>
    <dc:type rdf:resource="http://purl.org/dc/dcmitype/StillImage"/>
    <dc:date>2026-06-27T18:04:06.396866</dc:date>
    <dc:format>image/svg+xml</dc:format>
    <dc:creator>
     <cc:Agent>
      <dc:title>Matplotlib v3.11.0, https://matplotlib.org/</dc:title>
     </cc:Agent>
    </dc:creator>
   </cc:Work>
  </rdf:RDF>
 </metadata>
 <defs>
  <style type="text/css">*{stroke-linejoin: round; stroke-linecap: butt}</style>
 </defs>
 <g id="figure_1">
  <g id="patch_1">
   <path d="M 0 566.582925 
L 534.741796 566.582925 
L 534.741796 0 
L 0 0 
z
" style="fill: #ffffff"/>
  </g>
  <g id="axes_1">
   <g id="patch_2">
    <path d="M 37.053359 495.470125 
L 531.141796 495.470125 
L 531.141796 18.718125 
L 37.053359 18.718125 
z
" style="fill: #ffffff"/>
   </g>
   <g id="matplotlib.axis_1">
    <g id="xtick_1">
     <g id="line2d_1">
      <path d="M 59.511925 495.470125 
L 59.511925 18.718125 
" clip-path="url(#pce0bf86831)" style="fill: none; stroke-dasharray: 0.3,0.495; stroke-dashoffset: 0; stroke: #bfbfbf; stroke-opacity: 0.5; stroke-width: 0.3"/>
     </g>
     <g id="line2d_2">
      <defs>
       <path id="m541927281e" d="M 0 0 
L 0 3.5 
" style="stroke: #000000; stroke-width: 0.8"/>
      </defs>
      <g>
       <use xlink:href="#m541927281e" x="59.511925" y="495.470125" style="stroke: #000000; stroke-width: 0.8"/>
      </g>
     </g>
     <g id="text_1">
      <!-- 0 -->
      <g transform="translate(56.6488 509.308016) scale(0.09 -0.09)">
       <defs>
        <path id="DejaVuSerif-13" d="M 2034 219 
Q 2513 219 2750 744 
Q 2988 1269 2988 2328 
Q 2988 3391 2750 3916 
Q 2513 4441 2034 4441 
Q 1556 4441 1318 3916 
Q 1081 3391 1081 2328 
Q 1081 1269 1318 744 
Q 1556 219 2034 219 
z
M 2034 -91 
Q 1275 -91 848 546 
Q 422 1184 422 2328 
Q 422 3475 848 4112 
Q 1275 4750 2034 4750 
Q 2797 4750 3222 4112 
Q 3647 3475 3647 2328 
Q 3647 1184 3222 546 
Q 2797 -91 2034 -91 
z
" transform="scale(0.015625)"/>
       </defs>
       <use xlink:href="#DejaVuSerif-13"/>
      </g>
     </g>
    </g>
    <g id="xtick_2">
     <g id="line2d_3">
      <path d="M 138.313908 495.470125 
L 138.313908 18.718125 
" clip-path="url(#pce0bf86831)" style="fill: none; stroke-dasharray: 0.3,0.495; stroke-dashoffset: 0; stroke: #bfbfbf; stroke-opacity: 0.5; stroke-width: 0.3"/>
     </g>
     <g id="line2d_4">
      <g>
       <use xlink:href="#m541927281e" x="138.313908" y="495.470125" style="stroke: #000000; stroke-width: 0.8"/>
      </g>
     </g>
     <g id="text_2">
      <!-- 10 -->
      <g transform="translate(132.587658 509.308016) scale(0.09 -0.09)">
       <defs>
        <path id="DejaVuSerif-14" d="M 909 0 
L 909 331 
L 1722 331 
L 1722 4213 
L 781 3603 
L 781 4013 
L 1919 4750 
L 2350 4750 
L 2350 331 
L 3163 331 
L 3163 0 
L 909 0 
z
" transform="scale(0.015625)"/>
       </defs>
       <use xlink:href="#DejaVuSerif-14"/>
       <use xlink:href="#DejaVuSerif-13" transform="translate(63.625 0)"/>
      </g>
     </g>
    </g>
    <g id="xtick_3">
     <g id="line2d_5">
      <path d="M 217.115892 495.470125 
L 217.115892 18.718125 
" clip-path="url(#pce0bf86831)" style="fill: none; stroke-dasharray: 0.3,0.495; stroke-dashoffset: 0; stroke: #bfbfbf; stroke-opacity: 0.5; stroke-width: 0.3"/>
     </g>
     <g id="line2d_6">
      <g>
       <use xlink:href="#m541927281e" x="217.115892" y="495.470125" style="stroke: #000000; stroke-width: 0.8"/>
      </g>
     </g>
     <g id="text_3">
      <!-- 20 -->
      <g transform="translate(211.389642 509.308016) scale(0.09 -0.09)">
       <defs>
        <path id="DejaVuSerif-15" d="M 819 3553 
L 469 3553 
L 469 4384 
Q 803 4563 1142 4656 
Q 1481 4750 1806 4750 
Q 2534 4750 2956 4397 
Q 3378 4044 3378 3438 
Q 3378 2753 2422 1800 
Q 2347 1728 2309 1691 
L 1131 513 
L 3078 513 
L 3078 1088 
L 3444 1088 
L 3444 0 
L 434 0 
L 434 341 
L 1850 1753 
Q 2319 2222 2519 2614 
Q 2719 3006 2719 3438 
Q 2719 3909 2473 4175 
Q 2228 4441 1797 4441 
Q 1350 4441 1106 4219 
Q 863 3997 819 3553 
z
" transform="scale(0.015625)"/>
       </defs>
       <use xlink:href="#DejaVuSerif-15"/>
       <use xlink:href="#DejaVuSerif-13" transform="translate(63.625 0)"/>
      </g>
     </g>
    </g>
    <g id="xtick_4">
     <g id="line2d_7">
      <path d="M 295.917875 495.470125 
L 295.917875 18.718125 
" clip-path="url(#pce0bf86831)" style="fill: none; stroke-dasharray: 0.3,0.495; stroke-dashoffset: 0; stroke: #bfbfbf; stroke-opacity: 0.5; stroke-width: 0.3"/>
     </g>
     <g id="line2d_8">
      <g>
       <use xlink:href="#m541927281e" x="295.917875" y="495.470125" style="stroke: #000000; stroke-width: 0.8"/>
      </g>
     </g>
     <g id="text_4">
      <!-- 30 -->
      <g transform="translate(290.191625 509.308016) scale(0.09 -0.09)">
       <defs>
        <path id="DejaVuSerif-16" d="M 622 4469 
Q 988 4606 1323 4678 
Q 1659 4750 1953 4750 
Q 2638 4750 3022 4454 
Q 3406 4159 3406 3634 
Q 3406 3213 3140 2930 
Q 2875 2647 2388 2547 
Q 2963 2466 3280 2130 
Q 3597 1794 3597 1259 
Q 3597 606 3158 257 
Q 2719 -91 1894 -91 
Q 1528 -91 1179 -12 
Q 831 66 488 225 
L 488 1131 
L 838 1131 
Q 869 681 1141 450 
Q 1413 219 1906 219 
Q 2384 219 2661 495 
Q 2938 772 2938 1253 
Q 2938 1803 2653 2086 
Q 2369 2369 1819 2369 
L 1522 2369 
L 1522 2688 
L 1678 2688 
Q 2225 2688 2498 2914 
Q 2772 3141 2772 3597 
Q 2772 4006 2547 4223 
Q 2322 4441 1900 4441 
Q 1478 4441 1245 4241 
Q 1013 4041 972 3647 
L 622 3647 
L 622 4469 
z
" transform="scale(0.015625)"/>
       </defs>
       <use xlink:href="#DejaVuSerif-16"/>
       <use xlink:href="#DejaVuSerif-13" transform="translate(63.625 0)"/>
      </g>
     </g>
    </g>
    <g id="xtick_5">
     <g id="line2d_9">
      <path d="M 374.719859 495.470125 
L 374.719859 18.718125 
" clip-path="url(#pce0bf86831)" style="fill: none; stroke-dasharray: 0.3,0.495; stroke-dashoffset: 0; stroke: #bfbfbf; stroke-opacity: 0.5; stroke-width: 0.3"/>
     </g>
     <g id="line2d_10">
      <g>
       <use xlink:href="#m541927281e" x="374.719859" y="495.470125" style="stroke: #000000; stroke-width: 0.8"/>
      </g>
     </g>
     <g id="text_5">
      <!-- 40 -->
      <g transform="translate(368.993609 509.308016) scale(0.09 -0.09)">
       <defs>
        <path id="DejaVuSerif-17" d="M 2234 1581 
L 2234 4063 
L 641 1581 
L 2234 1581 
z
M 3609 0 
L 1484 0 
L 1484 331 
L 2234 331 
L 2234 1247 
L 197 1247 
L 197 1588 
L 2241 4750 
L 2859 4750 
L 2859 1581 
L 3750 1581 
L 3750 1247 
L 2859 1247 
L 2859 331 
L 3609 331 
L 3609 0 
z
" transform="scale(0.015625)"/>
       </defs>
       <use xlink:href="#DejaVuSerif-17"/>
       <use xlink:href="#DejaVuSerif-13" transform="translate(63.625 0)"/>
      </g>
     </g>
    </g>
    <g id="xtick_6">
     <g id="line2d_11">
      <path d="M 453.521842 495.470125 
L 453.521842 18.718125 
" clip-path="url(#pce0bf86831)" style="fill: none; stroke-dasharray: 0.3,0.495; stroke-dashoffset: 0; stroke: #bfbfbf; stroke-opacity: 0.5; stroke-width: 0.3"/>
     </g>
     <g id="line2d_12">
      <g>
       <use xlink:href="#m541927281e" x="453.521842" y="495.470125" style="stroke: #000000; stroke-width: 0.8"/>
      </g>
     </g>
     <g id="text_6">
      <!-- 50 -->
      <g transform="translate(447.795592 509.308016) scale(0.09 -0.09)">
       <defs>
        <path id="DejaVuSerif-18" d="M 3219 4666 
L 3219 4153 
L 1081 4153 
L 1081 2816 
Q 1244 2928 1461 2984 
Q 1678 3041 1947 3041 
Q 2703 3041 3140 2622 
Q 3578 2203 3578 1478 
Q 3578 738 3136 323 
Q 2694 -91 1894 -91 
Q 1572 -91 1234 -12 
Q 897 66 544 225 
L 544 1131 
L 897 1131 
Q 925 688 1179 453 
Q 1434 219 1894 219 
Q 2388 219 2653 544 
Q 2919 869 2919 1478 
Q 2919 2084 2655 2407 
Q 2391 2731 1894 2731 
Q 1613 2731 1398 2631 
Q 1184 2531 1019 2322 
L 750 2322 
L 750 4666 
L 3219 4666 
z
" transform="scale(0.015625)"/>
       </defs>
       <use xlink:href="#DejaVuSerif-18"/>
       <use xlink:href="#DejaVuSerif-13" transform="translate(63.625 0)"/>
      </g>
     </g>
    </g>
    <g id="text_7">
     <!-- X Coordinate -->
     <g transform="translate(247.407421 523.828406) scale(0.11 -0.11)">
      <defs>
       <path id="DejaVuSerif-3b" d="M 2119 1997 
L 978 331 
L 1581 331 
L 1581 0 
L 38 0 
L 38 331 
L 575 331 
L 1919 2291 
L 556 4331 
L 56 4331 
L 56 4666 
L 1906 4666 
L 1906 4331 
L 1356 4331 
L 2356 2828 
L 3384 4331 
L 2784 4331 
L 2784 4666 
L 4313 4666 
L 4313 4331 
L 3788 4331 
L 2553 2534 
L 4025 331 
L 4525 331 
L 4525 0 
L 2675 0 
L 2675 331 
L 3231 331 
L 2119 1997 
z
" transform="scale(0.015625)"/>
       <path id="DejaVuSerif-3" transform="scale(0.015625)"/>
       <path id="DejaVuSerif-26" d="M 4513 1234 
Q 4306 581 3820 245 
Q 3334 -91 2591 -91 
Q 2134 -91 1743 65 
Q 1353 222 1050 525 
Q 700 875 529 1320 
Q 359 1766 359 2328 
Q 359 3416 987 4083 
Q 1616 4750 2644 4750 
Q 3025 4750 3456 4650 
Q 3888 4550 4384 4347 
L 4384 3272 
L 4031 3272 
Q 3916 3859 3567 4137 
Q 3219 4416 2591 4416 
Q 1844 4416 1459 3886 
Q 1075 3356 1075 2328 
Q 1075 1303 1459 773 
Q 1844 244 2591 244 
Q 3113 244 3450 492 
Q 3788 741 3938 1234 
L 4513 1234 
z
" transform="scale(0.015625)"/>
       <path id="DejaVuSerif-52" d="M 1925 219 
Q 2388 219 2623 584 
Q 2859 950 2859 1663 
Q 2859 2375 2623 2739 
Q 2388 3103 1925 3103 
Q 1463 3103 1227 2739 
Q 991 2375 991 1663 
Q 991 950 1228 584 
Q 1466 219 1925 219 
z
M 1925 -91 
Q 1200 -91 759 389 
Q 319 869 319 1663 
Q 319 2456 758 2934 
Q 1197 3413 1925 3413 
Q 2653 3413 3092 2934 
Q 3531 2456 3531 1663 
Q 3531 869 3092 389 
Q 2653 -91 1925 -91 
z
" transform="scale(0.015625)"/>
       <path id="DejaVuSerif-55" d="M 3059 3328 
L 3059 2497 
L 2728 2497 
Q 2713 2744 2591 2866 
Q 2469 2988 2234 2988 
Q 1809 2988 1582 2694 
Q 1356 2400 1356 1850 
L 1356 331 
L 2022 331 
L 2022 0 
L 263 0 
L 263 331 
L 781 331 
L 781 2994 
L 231 2994 
L 231 3322 
L 1356 3322 
L 1356 2731 
Q 1525 3078 1790 3245 
Q 2056 3413 2438 3413 
Q 2578 3413 2733 3391 
Q 2888 3369 3059 3328 
z
" transform="scale(0.015625)"/>
       <path id="DejaVuSerif-47" d="M 3359 331 
L 3909 331 
L 3909 0 
L 2784 0 
L 2784 519 
Q 2616 206 2355 57 
Q 2094 -91 1709 -91 
Q 1097 -91 708 395 
Q 319 881 319 1663 
Q 319 2444 706 2928 
Q 1094 3413 1709 3413 
Q 2094 3413 2355 3264 
Q 2616 3116 2784 2803 
L 2784 4531 
L 2241 4531 
L 2241 4863 
L 3359 4863 
L 3359 331 
z
M 2784 1497 
L 2784 1825 
Q 2784 2422 2554 2737 
Q 2325 3053 1888 3053 
Q 1444 3053 1217 2703 
Q 991 2353 991 1663 
Q 991 975 1217 622 
Q 1444 269 1888 269 
Q 2325 269 2554 583 
Q 2784 897 2784 1497 
z
" transform="scale(0.015625)"/>
       <path id="DejaVuSerif-4c" d="M 622 4353 
Q 622 4497 726 4603 
Q 831 4709 978 4709 
Q 1122 4709 1226 4603 
Q 1331 4497 1331 4353 
Q 1331 4206 1228 4103 
Q 1125 4000 978 4000 
Q 831 4000 726 4103 
Q 622 4206 622 4353 
z
M 1356 331 
L 1900 331 
L 1900 0 
L 231 0 
L 231 331 
L 781 331 
L 781 2988 
L 231 2988 
L 231 3322 
L 1356 3322 
L 1356 331 
z
" transform="scale(0.015625)"/>
       <path id="DejaVuSerif-51" d="M 263 0 
L 263 331 
L 781 331 
L 781 2988 
L 231 2988 
L 231 3322 
L 1356 3322 
L 1356 2731 
Q 1516 3069 1770 3241 
Q 2025 3413 2363 3413 
Q 2913 3413 3172 3097 
Q 3431 2781 3431 2113 
L 3431 331 
L 3944 331 
L 3944 0 
L 2356 0 
L 2356 331 
L 2853 331 
L 2853 1931 
Q 2853 2541 2703 2767 
Q 2553 2994 2175 2994 
Q 1775 2994 1565 2701 
Q 1356 2409 1356 1850 
L 1356 331 
L 1856 331 
L 1856 0 
L 263 0 
z
" transform="scale(0.015625)"/>
       <path id="DejaVuSerif-44" d="M 2547 1044 
L 2547 1747 
L 1806 1747 
Q 1378 1747 1168 1562 
Q 959 1378 959 997 
Q 959 650 1171 447 
Q 1384 244 1747 244 
Q 2106 244 2326 466 
Q 2547 688 2547 1044 
z
M 3122 2075 
L 3122 331 
L 3634 331 
L 3634 0 
L 2547 0 
L 2547 359 
Q 2356 128 2106 18 
Q 1856 -91 1522 -91 
Q 969 -91 644 203 
Q 319 497 319 997 
Q 319 1513 691 1797 
Q 1063 2081 1741 2081 
L 2547 2081 
L 2547 2309 
Q 2547 2688 2317 2895 
Q 2088 3103 1672 3103 
Q 1328 3103 1125 2947 
Q 922 2791 872 2484 
L 575 2484 
L 575 3156 
Q 875 3284 1158 3348 
Q 1441 3413 1709 3413 
Q 2400 3413 2761 3070 
Q 3122 2728 3122 2075 
z
" transform="scale(0.015625)"/>
       <path id="DejaVuSerif-57" d="M 691 2988 
L 184 2988 
L 184 3322 
L 691 3322 
L 691 4353 
L 1269 4353 
L 1269 3322 
L 2350 3322 
L 2350 2988 
L 1269 2988 
L 1269 878 
Q 1269 456 1350 337 
Q 1431 219 1650 219 
Q 1875 219 1978 351 
Q 2081 484 2088 781 
L 2522 781 
Q 2497 328 2275 118 
Q 2053 -91 1600 -91 
Q 1103 -91 897 129 
Q 691 350 691 878 
L 691 2988 
z
" transform="scale(0.015625)"/>
       <path id="DejaVuSerif-48" d="M 3469 1600 
L 991 1600 
L 991 1575 
Q 991 903 1244 561 
Q 1497 219 1991 219 
Q 2369 219 2611 417 
Q 2853 616 2950 1006 
L 3413 1006 
Q 3275 459 2904 184 
Q 2534 -91 1931 -91 
Q 1203 -91 761 389 
Q 319 869 319 1663 
Q 319 2450 753 2931 
Q 1188 3413 1894 3413 
Q 2647 3413 3050 2948 
Q 3453 2484 3469 1600 
z
M 2791 1931 
Q 2772 2513 2545 2808 
Q 2319 3103 1894 3103 
Q 1497 3103 1269 2806 
Q 1041 2509 991 1931 
L 2791 1931 
z
" transform="scale(0.015625)"/>
      </defs>
      <use xlink:href="#DejaVuSerif-3b"/>
      <use xlink:href="#DejaVuSerif-3" transform="translate(71.1875 0)"/>
      <use xlink:href="#DejaVuSerif-26" transform="translate(102.96875 0)"/>
      <use xlink:href="#DejaVuSerif-52" transform="translate(179.484375 0)"/>
      <use xlink:href="#DejaVuSerif-52" transform="translate(239.6875 0)"/>
      <use xlink:href="#DejaVuSerif-55" transform="translate(299.890625 0)"/>
      <use xlink:href="#DejaVuSerif-47" transform="translate(347.6875 0)"/>
      <use xlink:href="#DejaVuSerif-4c" transform="translate(411.703125 0)"/>
      <use xlink:href="#DejaVuSerif-51" transform="translate(443.6875 0)"/>
      <use xlink:href="#DejaVuSerif-44" transform="translate(508.09375 0)"/>
      <use xlink:href="#DejaVuSerif-57" transform="translate(567.71875 0)"/>
      <use xlink:href="#DejaVuSerif-48" transform="translate(607.90625 0)"/>
     </g>
    </g>
   </g>
   <g id="matplotlib.axis_2">
    <g id="ytick_1">
     <g id="line2d_13">
      <path d="M 37.053359 473.79958 
L 531.141796 473.79958 
" clip-path="url(#pce0bf86831)" style="fill: none; stroke-dasharray: 0.3,0.495; stroke-dashoffset: 0; stroke: #bfbfbf; stroke-opacity: 0.5; stroke-width: 0.3"/>
     </g>
     <g id="line2d_14">
      <defs>
       <path id="me7cff5095f" d="M 0 0 
L -3.5 0 
" style="stroke: #000000; stroke-width: 0.8"/>
      </defs>
      <g>
       <use xlink:href="#me7cff5095f" x="37.053359" y="473.79958" style="stroke: #000000; stroke-width: 0.8"/>
      </g>
     </g>
     <g id="text_8">
      <!-- 30 -->
      <g transform="translate(18.600859 477.218525) scale(0.09 -0.09)">
       <use xlink:href="#DejaVuSerif-16"/>
       <use xlink:href="#DejaVuSerif-13" transform="translate(63.625 0)"/>
      </g>
     </g>
    </g>
    <g id="ytick_2">
     <g id="line2d_15">
      <path d="M 37.053359 394.997596 
L 531.141796 394.997596 
" clip-path="url(#pce0bf86831)" style="fill: none; stroke-dasharray: 0.3,0.495; stroke-dashoffset: 0; stroke: #bfbfbf; stroke-opacity: 0.5; stroke-width: 0.3"/>
     </g>
     <g id="line2d_16">
      <g>
       <use xlink:href="#me7cff5095f" x="37.053359" y="394.997596" style="stroke: #000000; stroke-width: 0.8"/>
      </g>
     </g>
     <g id="text_9">
      <!-- 40 -->
      <g transform="translate(18.600859 398.416541) scale(0.09 -0.09)">
       <use xlink:href="#DejaVuSerif-17"/>
       <use xlink:href="#DejaVuSerif-13" transform="translate(63.625 0)"/>
      </g>
     </g>
    </g>
    <g id="ytick_3">
     <g id="line2d_17">
      <path d="M 37.053359 316.195613 
L 531.141796 316.195613 
" clip-path="url(#pce0bf86831)" style="fill: none; stroke-dasharray: 0.3,0.495; stroke-dashoffset: 0; stroke: #bfbfbf; stroke-opacity: 0.5; stroke-width: 0.3"/>
     </g>
     <g id="line2d_18">
      <g>
       <use xlink:href="#me7cff5095f" x="37.053359" y="316.195613" style="stroke: #000000; stroke-width: 0.8"/>
      </g>
     </g>
     <g id="text_10">
      <!-- 50 -->
      <g transform="translate(18.600859 319.614558) scale(0.09 -0.09)">
       <use xlink:href="#DejaVuSerif-18"/>
       <use xlink:href="#DejaVuSerif-13" transform="translate(63.625 0)"/>
      </g>
     </g>
    </g>
    <g id="ytick_4">
     <g id="line2d_19">
      <path d="M 37.053359 237.393629 
L 531.141796 237.393629 
" clip-path="url(#pce0bf86831)" style="fill: none; stroke-dasharray: 0.3,0.495; stroke-dashoffset: 0; stroke: #bfbfbf; stroke-opacity: 0.5; stroke-width: 0.3"/>
     </g>
     <g id="line2d_20">
      <g>
       <use xlink:href="#me7cff5095f" x="37.053359" y="237.393629" style="stroke: #000000; stroke-width: 0.8"/>
      </g>
     </g>
     <g id="text_11">
      <!-- 60 -->
      <g transform="translate(18.600859 240.812574) scale(0.09 -0.09)">
       <defs>
        <path id="DejaVuSerif-19" d="M 2094 219 
Q 2534 219 2771 542 
Q 3009 866 3009 1472 
Q 3009 2078 2771 2401 
Q 2534 2725 2094 2725 
Q 1647 2725 1412 2412 
Q 1178 2100 1178 1509 
Q 1178 888 1415 553 
Q 1653 219 2094 219 
z
M 1075 2569 
Q 1288 2803 1556 2918 
Q 1825 3034 2163 3034 
Q 2859 3034 3264 2615 
Q 3669 2197 3669 1472 
Q 3669 763 3233 336 
Q 2797 -91 2069 -91 
Q 1278 -91 853 498 
Q 428 1088 428 2181 
Q 428 3406 931 4078 
Q 1434 4750 2350 4750 
Q 2597 4750 2869 4703 
Q 3141 4656 3425 4563 
L 3425 3794 
L 3072 3794 
Q 3034 4109 2831 4275 
Q 2628 4441 2284 4441 
Q 1678 4441 1381 3981 
Q 1084 3522 1075 2569 
z
" transform="scale(0.015625)"/>
       </defs>
       <use xlink:href="#DejaVuSerif-19"/>
       <use xlink:href="#DejaVuSerif-13" transform="translate(63.625 0)"/>
      </g>
     </g>
    </g>
    <g id="ytick_5">
     <g id="line2d_21">
      <path d="M 37.053359 158.591646 
L 531.141796 158.591646 
" clip-path="url(#pce0bf86831)" style="fill: none; stroke-dasharray: 0.3,0.495; stroke-dashoffset: 0; stroke: #bfbfbf; stroke-opacity: 0.5; stroke-width: 0.3"/>
     </g>
     <g id="line2d_22">
      <g>
       <use xlink:href="#me7cff5095f" x="37.053359" y="158.591646" style="stroke: #000000; stroke-width: 0.8"/>
      </g>
     </g>
     <g id="text_12">
      <!-- 70 -->
      <g transform="translate(18.600859 162.010591) scale(0.09 -0.09)">
       <defs>
        <path id="DejaVuSerif-1a" d="M 3609 4347 
L 1784 0 
L 1319 0 
L 3059 4153 
L 903 4153 
L 903 3578 
L 538 3578 
L 538 4666 
L 3609 4666 
L 3609 4347 
z
" transform="scale(0.015625)"/>
       </defs>
       <use xlink:href="#DejaVuSerif-1a"/>
       <use xlink:href="#DejaVuSerif-13" transform="translate(63.625 0)"/>
      </g>
     </g>
    </g>
    <g id="ytick_6">
     <g id="line2d_23">
      <path d="M 37.053359 79.789662 
L 531.141796 79.789662 
" clip-path="url(#pce0bf86831)" style="fill: none; stroke-dasharray: 0.3,0.495; stroke-dashoffset: 0; stroke: #bfbfbf; stroke-opacity: 0.5; stroke-width: 0.3"/>
     </g>
     <g id="line2d_24">
      <g>
       <use xlink:href="#me7cff5095f" x="37.053359" y="79.789662" style="stroke: #000000; stroke-width: 0.8"/>
      </g>
     </g>
     <g id="text_13">
      <!-- 80 -->
      <g transform="translate(18.600859 83.208608) scale(0.09 -0.09)">
       <defs>
        <path id="DejaVuSerif-1b" d="M 2981 1275 
Q 2981 1775 2732 2051 
Q 2484 2328 2034 2328 
Q 1584 2328 1336 2051 
Q 1088 1775 1088 1275 
Q 1088 772 1336 495 
Q 1584 219 2034 219 
Q 2484 219 2732 495 
Q 2981 772 2981 1275 
z
M 2853 3541 
Q 2853 3966 2637 4203 
Q 2422 4441 2034 4441 
Q 1650 4441 1433 4203 
Q 1216 3966 1216 3541 
Q 1216 3113 1433 2875 
Q 1650 2638 2034 2638 
Q 2422 2638 2637 2875 
Q 2853 3113 2853 3541 
z
M 2516 2484 
Q 3047 2413 3344 2092 
Q 3641 1772 3641 1275 
Q 3641 619 3225 264 
Q 2809 -91 2034 -91 
Q 1263 -91 845 264 
Q 428 619 428 1275 
Q 428 1772 725 2092 
Q 1022 2413 1556 2484 
Q 1084 2569 832 2842 
Q 581 3116 581 3541 
Q 581 4103 968 4426 
Q 1356 4750 2034 4750 
Q 2713 4750 3100 4426 
Q 3488 4103 3488 3541 
Q 3488 3116 3236 2842 
Q 2984 2569 2516 2484 
z
" transform="scale(0.015625)"/>
       </defs>
       <use xlink:href="#DejaVuSerif-1b"/>
       <use xlink:href="#DejaVuSerif-13" transform="translate(63.625 0)"/>
      </g>
     </g>
    </g>
    <g id="text_14">
     <!-- Y Coordinate -->
     <g transform="translate(11.958281 293.499828) rotate(-90) scale(0.11 -0.11)">
      <defs>
       <path id="DejaVuSerif-3c" d="M 1209 0 
L 1209 331 
L 1806 331 
L 1806 2009 
L 366 4331 
L -72 4331 
L -72 4666 
L 1663 4666 
L 1663 4331 
L 1119 4331 
L 2284 2444 
L 3450 4331 
L 2925 4331 
L 2925 4666 
L 4281 4666 
L 4281 4331 
L 3841 4331 
L 2438 2069 
L 2438 331 
L 3034 331 
L 3034 0 
L 1209 0 
z
" transform="scale(0.015625)"/>
      </defs>
      <use xlink:href="#DejaVuSerif-3c"/>
      <use xlink:href="#DejaVuSerif-3" transform="translate(66.015625 0)"/>
      <use xlink:href="#DejaVuSerif-26" transform="translate(97.796875 0)"/>
      <use xlink:href="#DejaVuSerif-52" transform="translate(174.3125 0)"/>
      <use xlink:href="#DejaVuSerif-52" transform="translate(234.515625 0)"/>
      <use xlink:href="#DejaVuSerif-55" transform="translate(294.71875 0)"/>
      <use xlink:href="#DejaVuSerif-47" transform="translate(342.515625 0)"/>
      <use xlink:href="#DejaVuSerif-4c" transform="translate(406.53125 0)"/>
      <use xlink:href="#DejaVuSerif-51" transform="translate(438.515625 0)"/>
      <use xlink:href="#DejaVuSerif-44" transform="translate(502.921875 0)"/>
      <use xlink:href="#DejaVuSerif-57" transform="translate(562.546875 0)"/>
      <use xlink:href="#DejaVuSerif-48" transform="translate(602.734375 0)"/>
     </g>
    </g>
   </g>
   <g id="PathCollection_1">
    <defs>
     <path id="md59322885e" d="M 0 1.581139 
C 0.419323 1.581139 0.821528 1.41454 1.118034 1.118034 
C 1.41454 0.821528 1.581139 0.419323 1.581139 0 
C 1.581139 -0.419323 1.41454 -0.821528 1.118034 -1.118034 
C 0.821528 -1.41454 0.419323 -1.581139 0 -1.581139 
C -0.419323 -1.581139 -0.821528 -1.41454 -1.118034 -1.118034 
C -1.41454 -0.821528 -1.581139 -0.419323 -1.581139 0 
C -1.581139 0.419323 -1.41454 0.821528 -1.118034 1.118034 
C -0.821528 1.41454 -0.419323 1.581139 0 1.581139 
z
" style="stroke: #bfbfbf; stroke-width: 0.3"/>
    </defs>
    <g clip-path="url(#pce0bf86831)">
     <use xlink:href="#md59322885e" x="256.516883" y="40.38867" style="fill: #ffffff; stroke: #bfbfbf; stroke-width: 0.3"/>
     <use xlink:href="#md59322885e" x="232.876288" y="119.190654" style="fill: #ffffff; stroke: #bfbfbf; stroke-width: 0.3"/>
     <use xlink:href="#md59322885e" x="232.876288" y="40.38867" style="fill: #ffffff; stroke: #bfbfbf; stroke-width: 0.3"/>
     <use xlink:href="#md59322885e" x="217.115892" y="79.789662" style="fill: #ffffff; stroke: #bfbfbf; stroke-width: 0.3"/>
     <use xlink:href="#md59322885e" x="217.115892" y="40.38867" style="fill: #ffffff; stroke: #bfbfbf; stroke-width: 0.3"/>
     <use xlink:href="#md59322885e" x="201.355495" y="119.190654" style="fill: #ffffff; stroke: #bfbfbf; stroke-width: 0.3"/>
     <use xlink:href="#md59322885e" x="177.7149" y="119.190654" style="fill: #ffffff; stroke: #bfbfbf; stroke-width: 0.3"/>
     <use xlink:href="#md59322885e" x="177.7149" y="79.789662" style="fill: #ffffff; stroke: #bfbfbf; stroke-width: 0.3"/>
     <use xlink:href="#md59322885e" x="295.917875" y="316.195613" style="fill: #ffffff; stroke: #bfbfbf; stroke-width: 0.3"/>
     <use xlink:href="#md59322885e" x="295.917875" y="300.435216" style="fill: #ffffff; stroke: #bfbfbf; stroke-width: 0.3"/>
     <use xlink:href="#md59322885e" x="280.157478" y="300.435216" style="fill: #ffffff; stroke: #bfbfbf; stroke-width: 0.3"/>
     <use xlink:href="#md59322885e" x="256.516883" y="316.195613" style="fill: #ffffff; stroke: #bfbfbf; stroke-width: 0.3"/>
     <use xlink:href="#md59322885e" x="256.516883" y="276.794621" style="fill: #ffffff; stroke: #bfbfbf; stroke-width: 0.3"/>
     <use xlink:href="#md59322885e" x="240.756487" y="276.794621" style="fill: #ffffff; stroke: #bfbfbf; stroke-width: 0.3"/>
     <use xlink:href="#md59322885e" x="217.115892" y="316.195613" style="fill: #ffffff; stroke: #bfbfbf; stroke-width: 0.3"/>
     <use xlink:href="#md59322885e" x="217.115892" y="276.794621" style="fill: #ffffff; stroke: #bfbfbf; stroke-width: 0.3"/>
     <use xlink:href="#md59322885e" x="138.313908" y="434.398588" style="fill: #ffffff; stroke: #bfbfbf; stroke-width: 0.3"/>
     <use xlink:href="#md59322885e" x="138.313908" y="394.997596" style="fill: #ffffff; stroke: #bfbfbf; stroke-width: 0.3"/>
     <use xlink:href="#md59322885e" x="122.553511" y="394.997596" style="fill: #ffffff; stroke: #bfbfbf; stroke-width: 0.3"/>
     <use xlink:href="#md59322885e" x="122.553511" y="355.596604" style="fill: #ffffff; stroke: #bfbfbf; stroke-width: 0.3"/>
     <use xlink:href="#md59322885e" x="98.912916" y="434.398588" style="fill: #ffffff; stroke: #bfbfbf; stroke-width: 0.3"/>
     <use xlink:href="#md59322885e" x="98.912916" y="394.997596" style="fill: #ffffff; stroke: #bfbfbf; stroke-width: 0.3"/>
     <use xlink:href="#md59322885e" x="75.272321" y="394.997596" style="fill: #ffffff; stroke: #bfbfbf; stroke-width: 0.3"/>
     <use xlink:href="#md59322885e" x="59.511925" y="394.997596" style="fill: #ffffff; stroke: #bfbfbf; stroke-width: 0.3"/>
     <use xlink:href="#md59322885e" x="59.511925" y="355.596604" style="fill: #ffffff; stroke: #bfbfbf; stroke-width: 0.3"/>
     <use xlink:href="#md59322885e" x="335.318867" y="473.79958" style="fill: #ffffff; stroke: #bfbfbf; stroke-width: 0.3"/>
     <use xlink:href="#md59322885e" x="335.318867" y="458.039183" style="fill: #ffffff; stroke: #bfbfbf; stroke-width: 0.3"/>
     <use xlink:href="#md59322885e" x="319.55847" y="458.039183" style="fill: #ffffff; stroke: #bfbfbf; stroke-width: 0.3"/>
     <use xlink:href="#md59322885e" x="319.55847" y="434.398588" style="fill: #ffffff; stroke: #bfbfbf; stroke-width: 0.3"/>
     <use xlink:href="#md59322885e" x="311.678272" y="434.398588" style="fill: #ffffff; stroke: #bfbfbf; stroke-width: 0.3"/>
     <use xlink:href="#md59322885e" x="295.917875" y="473.79958" style="fill: #ffffff; stroke: #bfbfbf; stroke-width: 0.3"/>
     <use xlink:href="#md59322885e" x="295.917875" y="458.039183" style="fill: #ffffff; stroke: #bfbfbf; stroke-width: 0.3"/>
     <use xlink:href="#md59322885e" x="295.917875" y="434.398588" style="fill: #ffffff; stroke: #bfbfbf; stroke-width: 0.3"/>
     <use xlink:href="#md59322885e" x="280.157478" y="473.79958" style="fill: #ffffff; stroke: #bfbfbf; stroke-width: 0.3"/>
     <use xlink:href="#md59322885e" x="280.157478" y="434.398588" style="fill: #ffffff; stroke: #bfbfbf; stroke-width: 0.3"/>
     <use xlink:href="#md59322885e" x="256.516883" y="434.398588" style="fill: #ffffff; stroke: #bfbfbf; stroke-width: 0.3"/>
     <use xlink:href="#md59322885e" x="217.115892" y="473.79958" style="fill: #ffffff; stroke: #bfbfbf; stroke-width: 0.3"/>
     <use xlink:href="#md59322885e" x="217.115892" y="458.039183" style="fill: #ffffff; stroke: #bfbfbf; stroke-width: 0.3"/>
     <use xlink:href="#md59322885e" x="343.199065" y="339.836208" style="fill: #ffffff; stroke: #bfbfbf; stroke-width: 0.3"/>
     <use xlink:href="#md59322885e" x="335.318867" y="339.836208" style="fill: #ffffff; stroke: #bfbfbf; stroke-width: 0.3"/>
     <use xlink:href="#md59322885e" x="335.318867" y="316.195613" style="fill: #ffffff; stroke: #bfbfbf; stroke-width: 0.3"/>
     <use xlink:href="#md59322885e" x="335.318867" y="300.435216" style="fill: #ffffff; stroke: #bfbfbf; stroke-width: 0.3"/>
     <use xlink:href="#md59322885e" x="311.678272" y="339.836208" style="fill: #ffffff; stroke: #bfbfbf; stroke-width: 0.3"/>
     <use xlink:href="#md59322885e" x="311.678272" y="316.195613" style="fill: #ffffff; stroke: #bfbfbf; stroke-width: 0.3"/>
     <use xlink:href="#md59322885e" x="295.917875" y="339.836208" style="fill: #ffffff; stroke: #bfbfbf; stroke-width: 0.3"/>
     <use xlink:href="#md59322885e" x="280.157478" y="316.195613" style="fill: #ffffff; stroke: #bfbfbf; stroke-width: 0.3"/>
     <use xlink:href="#md59322885e" x="508.68323" y="339.836208" style="fill: #ffffff; stroke: #bfbfbf; stroke-width: 0.3"/>
    </g>
   </g>
   <g id="patch_3">
    <path d="M 37.053359 495.470125 
L 37.053359 18.718125 
" style="fill: none; stroke: #000000; stroke-width: 0.8; stroke-linejoin: miter; stroke-linecap: square"/>
   </g>
   <g id="patch_4">
    <path d="M 37.053359 495.470125 
L 531.141796 495.470125 
" style="fill: none; stroke: #000000; stroke-width: 0.8; stroke-linejoin: miter; stroke-linecap: square"/>
   </g>
   <g id="text_15">
    <!-- Depot -->
    <g transform="translate(359.727827 300.435216) scale(0.09 -0.09)">
     <defs>
      <path id="DejaVuSerif-Bold-27" d="M 2100 378 
L 2534 378 
Q 3266 378 3605 847 
Q 3944 1316 3944 2338 
Q 3944 3353 3606 3820 
Q 3269 4288 2534 4288 
L 2100 4288 
L 2100 378 
z
M 300 0 
L 300 378 
L 897 378 
L 897 4288 
L 300 4288 
L 300 4666 
L 2694 4666 
Q 3950 4666 4615 4066 
Q 5281 3466 5281 2338 
Q 5281 1203 4614 601 
Q 3947 0 2694 0 
L 300 0 
z
" transform="scale(0.015625)"/>
      <path id="DejaVuSerif-Bold-48" d="M 2566 1875 
Q 2566 2531 2444 2795 
Q 2322 3059 2028 3059 
Q 1744 3059 1620 2800 
Q 1497 2541 1497 1931 
L 1497 1875 
L 2566 1875 
z
M 3781 1503 
L 1497 1503 
L 1497 1478 
Q 1497 834 1690 548 
Q 1884 263 2316 263 
Q 2675 263 2897 453 
Q 3119 644 3181 1006 
L 3700 1006 
Q 3566 441 3166 175 
Q 2766 -91 2047 -91 
Q 1184 -91 723 364 
Q 263 819 263 1663 
Q 263 2488 734 2950 
Q 1206 3413 2047 3413 
Q 2872 3413 3312 2927 
Q 3753 2441 3781 1503 
z
" transform="scale(0.015625)"/>
      <path id="DejaVuSerif-Bold-53" d="M 1728 1825 
L 1728 1497 
Q 1728 916 1876 656 
Q 2025 397 2356 397 
Q 2697 397 2836 672 
Q 2975 947 2975 1663 
Q 2975 2378 2836 2651 
Q 2697 2925 2356 2925 
Q 2025 2925 1876 2665 
Q 1728 2406 1728 1825 
z
M 622 2944 
L 147 2944 
L 147 3322 
L 1728 3322 
L 1728 2900 
Q 1869 3159 2106 3286 
Q 2344 3413 2694 3413 
Q 3403 3413 3811 2945 
Q 4219 2478 4219 1663 
Q 4219 847 3811 378 
Q 3403 -91 2694 -91 
Q 2344 -91 2106 36 
Q 1869 163 1728 422 
L 1728 -953 
L 2241 -953 
L 2241 -1331 
L 147 -1331 
L 147 -953 
L 622 -953 
L 622 2944 
z
" transform="scale(0.015625)"/>
      <path id="DejaVuSerif-Bold-52" d="M 2138 263 
Q 2488 263 2630 563 
Q 2772 863 2772 1663 
Q 2772 2463 2631 2761 
Q 2491 3059 2138 3059 
Q 1784 3059 1640 2757 
Q 1497 2456 1497 1663 
Q 1497 869 1640 566 
Q 1784 263 2138 263 
z
M 2138 -91 
Q 1259 -91 761 376 
Q 263 844 263 1663 
Q 263 2484 761 2948 
Q 1259 3413 2138 3413 
Q 3019 3413 3516 2948 
Q 4013 2484 4013 1663 
Q 4013 844 3514 376 
Q 3016 -91 2138 -91 
z
" transform="scale(0.015625)"/>
      <path id="DejaVuSerif-Bold-57" d="M 634 2944 
L 153 2944 
L 153 3322 
L 634 3322 
L 634 4353 
L 1741 4353 
L 1741 3322 
L 2663 3322 
L 2663 2944 
L 1741 2944 
L 1741 909 
Q 1741 475 1809 369 
Q 1878 263 2059 263 
Q 2259 263 2356 397 
Q 2453 531 2459 813 
L 2925 813 
Q 2897 313 2651 111 
Q 2406 -91 1806 -91 
Q 1122 -91 878 123 
Q 634 338 634 909 
L 634 2944 
z
" transform="scale(0.015625)"/>
     </defs>
     <use xlink:href="#DejaVuSerif-Bold-27"/>
     <use xlink:href="#DejaVuSerif-Bold-48" transform="translate(86.71875 0)"/>
     <use xlink:href="#DejaVuSerif-Bold-53" transform="translate(150.34375 0)"/>
     <use xlink:href="#DejaVuSerif-Bold-52" transform="translate(220.265625 0)"/>
     <use xlink:href="#DejaVuSerif-Bold-57" transform="translate(286.96875 0)"/>
    </g>
   </g>
   <g id="patch_5">
    <path d="M 372.875823 315.427264 
Q 327.440495 296.495878 283.450011 278.16651 
" clip-path="url(#pce0bf86831)" style="fill: none; opacity: 0.9; stroke: #000000; stroke-width: 1.4; stroke-linecap: round"/>
    <path d="M 287.542319 282.904971 
L 283.450011 278.16651 
L 289.696165 277.73574 
z
" clip-path="url(#pce0bf86831)" style="opacity: 0.9; stroke: #000000; stroke-width: 1.4; stroke-linecap: round"/>
   </g>
   <g id="patch_6">
    <path d="M 278.740543 278.211556 
Q 268.335411 288.616689 259.037075 297.915024 
" clip-path="url(#pce0bf86831)" style="fill: none; opacity: 0.9; stroke: #000000; stroke-width: 1.4; stroke-linecap: round"/>
    <path d="M 264.976772 295.935125 
L 259.037075 297.915024 
L 261.016974 291.975327 
z
" clip-path="url(#pce0bf86831)" style="opacity: 0.9; stroke: #000000; stroke-width: 1.4; stroke-linecap: round"/>
   </g>
   <g id="patch_7">
    <path d="M 254.519899 300.435216 
Q 248.637855 300.435216 244.321058 300.435216 
" clip-path="url(#pce0bf86831)" style="fill: none; opacity: 0.9; stroke: #000000; stroke-width: 1.4; stroke-linecap: round"/>
    <path d="M 249.921058 303.235216 
L 244.321058 300.435216 
L 249.921058 297.635216 
z
" clip-path="url(#pce0bf86831)" style="opacity: 0.9; stroke: #000000; stroke-width: 1.4; stroke-linecap: round"/>
   </g>
   <g id="patch_8">
    <path d="M 242.739282 300.668486 
Q 307.736735 308.315245 371.845888 315.857498 
" clip-path="url(#pce0bf86831)" style="fill: none; opacity: 0.6; stroke-dasharray: 0.8,1.32; stroke-dashoffset: 0; stroke: #000000; stroke-width: 0.8; stroke-linecap: round"/>
    <path d="M 366.6114 312.422366 
L 371.845888 315.857498 
L 365.957089 317.984009 
z
" clip-path="url(#pce0bf86831)" style="opacity: 0.6; stroke-dasharray: 0.8,1.32; stroke-dashoffset: 0; stroke: #000000; stroke-width: 0.8; stroke-linecap: round"/>
   </g>
   <g id="text_16">
    <!-- Size 50 (Vehicle 5) -->
    <g transform="translate(227.553203 12.718125) scale(0.12 -0.12)">
     <defs>
      <path id="DejaVuSerif-36" d="M 594 225 
L 594 1288 
L 953 1284 
Q 969 753 1261 498 
Q 1553 244 2150 244 
Q 2706 244 2998 464 
Q 3291 684 3291 1106 
Q 3291 1444 3114 1625 
Q 2938 1806 2369 1978 
L 1753 2163 
Q 1084 2366 811 2669 
Q 538 2972 538 3500 
Q 538 4094 959 4422 
Q 1381 4750 2144 4750 
Q 2469 4750 2856 4679 
Q 3244 4609 3681 4475 
L 3681 3481 
L 3328 3481 
Q 3275 3975 2998 4195 
Q 2722 4416 2156 4416 
Q 1663 4416 1405 4214 
Q 1147 4013 1147 3628 
Q 1147 3294 1340 3103 
Q 1534 2913 2163 2725 
L 2741 2553 
Q 3375 2363 3645 2067 
Q 3916 1772 3916 1275 
Q 3916 597 3481 253 
Q 3047 -91 2188 -91 
Q 1803 -91 1404 -12 
Q 1006 66 594 225 
z
" transform="scale(0.015625)"/>
      <path id="DejaVuSerif-5d" d="M 256 0 
L 256 269 
L 2338 2988 
L 691 2988 
L 691 2413 
L 359 2413 
L 359 3322 
L 3078 3322 
L 3078 3053 
L 997 331 
L 2803 331 
L 2803 934 
L 3138 934 
L 3138 0 
L 256 0 
z
" transform="scale(0.015625)"/>
      <path id="DejaVuSerif-b" d="M 2041 -997 
Q 1281 -656 893 83 
Q 506 822 506 1931 
Q 506 3044 893 3783 
Q 1281 4522 2041 4863 
L 2041 4556 
Q 1559 4225 1350 3623 
Q 1141 3022 1141 1931 
Q 1141 844 1350 242 
Q 1559 -359 2041 -691 
L 2041 -997 
z
" transform="scale(0.015625)"/>
      <path id="DejaVuSerif-39" d="M 1119 4331 
L 2497 750 
L 3872 4331 
L 3347 4331 
L 3347 4666 
L 4716 4666 
L 4716 4331 
L 4263 4331 
L 2597 0 
L 2059 0 
L 403 4331 
L -63 4331 
L -63 4666 
L 1638 4666 
L 1638 4331 
L 1119 4331 
z
" transform="scale(0.015625)"/>
      <path id="DejaVuSerif-4b" d="M 263 0 
L 263 331 
L 781 331 
L 781 4531 
L 231 4531 
L 231 4863 
L 1356 4863 
L 1356 2731 
Q 1516 3069 1770 3241 
Q 2025 3413 2363 3413 
Q 2913 3413 3172 3097 
Q 3431 2781 3431 2113 
L 3431 331 
L 3944 331 
L 3944 0 
L 2356 0 
L 2356 331 
L 2853 331 
L 2853 1931 
Q 2853 2541 2704 2764 
Q 2556 2988 2175 2988 
Q 1775 2988 1565 2697 
Q 1356 2406 1356 1850 
L 1356 331 
L 1856 331 
L 1856 0 
L 263 0 
z
" transform="scale(0.015625)"/>
      <path id="DejaVuSerif-46" d="M 3291 997 
Q 3169 466 2822 187 
Q 2475 -91 1925 -91 
Q 1200 -91 759 389 
Q 319 869 319 1663 
Q 319 2459 759 2936 
Q 1200 3413 1925 3413 
Q 2241 3413 2553 3339 
Q 2866 3266 3181 3116 
L 3181 2266 
L 2847 2266 
Q 2781 2703 2561 2903 
Q 2341 3103 1931 3103 
Q 1466 3103 1228 2742 
Q 991 2381 991 1663 
Q 991 944 1227 581 
Q 1463 219 1931 219 
Q 2303 219 2525 412 
Q 2747 606 2828 997 
L 3291 997 
z
" transform="scale(0.015625)"/>
      <path id="DejaVuSerif-4f" d="M 1313 331 
L 1856 331 
L 1856 0 
L 184 0 
L 184 331 
L 738 331 
L 738 4531 
L 184 4531 
L 184 4863 
L 1313 4863 
L 1313 331 
z
" transform="scale(0.015625)"/>
      <path id="DejaVuSerif-c" d="M 453 -997 
L 453 -691 
Q 934 -359 1145 242 
Q 1356 844 1356 1931 
Q 1356 3022 1145 3623 
Q 934 4225 453 4556 
L 453 4863 
Q 1216 4522 1603 3783 
Q 1991 3044 1991 1931 
Q 1991 822 1603 83 
Q 1216 -656 453 -997 
z
" transform="scale(0.015625)"/>
     </defs>
     <use xlink:href="#DejaVuSerif-36"/>
     <use xlink:href="#DejaVuSerif-4c" transform="translate(68.5 0)"/>
     <use xlink:href="#DejaVuSerif-5d" transform="translate(100.484375 0)"/>
     <use xlink:href="#DejaVuSerif-48" transform="translate(153.171875 0)"/>
     <use xlink:href="#DejaVuSerif-3" transform="translate(212.359375 0)"/>
     <use xlink:href="#DejaVuSerif-18" transform="translate(244.140625 0)"/>
     <use xlink:href="#DejaVuSerif-13" transform="translate(307.765625 0)"/>
     <use xlink:href="#DejaVuSerif-3" transform="translate(371.390625 0)"/>
     <use xlink:href="#DejaVuSerif-b" transform="translate(403.171875 0)"/>
     <use xlink:href="#DejaVuSerif-39" transform="translate(442.1875 0)"/>
     <use xlink:href="#DejaVuSerif-48" transform="translate(505.234375 0)"/>
     <use xlink:href="#DejaVuSerif-4b" transform="translate(564.421875 0)"/>
     <use xlink:href="#DejaVuSerif-4c" transform="translate(628.828125 0)"/>
     <use xlink:href="#DejaVuSerif-46" transform="translate(660.8125 0)"/>
     <use xlink:href="#DejaVuSerif-4f" transform="translate(716.8125 0)"/>
     <use xlink:href="#DejaVuSerif-48" transform="translate(748.796875 0)"/>
     <use xlink:href="#DejaVuSerif-3" transform="translate(807.984375 0)"/>
     <use xlink:href="#DejaVuSerif-18" transform="translate(839.765625 0)"/>
     <use xlink:href="#DejaVuSerif-c" transform="translate(903.390625 0)"/>
    </g>
   </g>
   <g id="PathCollection_2">
    <defs>
     <path id="m984fff0b0a" d="M 0 2.738613 
C 0.726289 2.738613 1.422928 2.450055 1.936492 1.936492 
C 2.450055 1.422928 2.738613 0.726289 2.738613 0 
C 2.738613 -0.726289 2.450055 -1.422928 1.936492 -1.936492 
C 1.422928 -2.450055 0.726289 -2.738613 0 -2.738613 
C -0.726289 -2.738613 -1.422928 -2.450055 -1.936492 -1.936492 
C -2.450055 -1.422928 -2.738613 -0.726289 -2.738613 0 
C -2.738613 0.726289 -2.450055 1.422928 -1.936492 1.936492 
C -1.422928 2.450055 -0.726289 2.738613 0 2.738613 
z
" style="stroke: #000000"/>
    </defs>
    <g clip-path="url(#pce0bf86831)">
     <use xlink:href="#m984fff0b0a" x="280.157478" y="276.794621" style="fill: #ffffff; stroke: #000000"/>
     <use xlink:href="#m984fff0b0a" x="256.516883" y="300.435216" style="fill: #ffffff; stroke: #000000"/>
     <use xlink:href="#m984fff0b0a" x="240.756487" y="300.435216" style="fill: #ffffff; stroke: #000000"/>
    </g>
   </g>
   <g id="PathCollection_3">
    <defs>
     <path id="md32e6ce1b7" d="M -4.472136 4.472136 
L 4.472136 4.472136 
L 4.472136 -4.472136 
L -4.472136 -4.472136 
z
" style="stroke: #000000"/>
    </defs>
    <g clip-path="url(#pce0bf86831)">
     <use xlink:href="#md32e6ce1b7" x="374.719859" y="316.195613" style="stroke: #000000"/>
    </g>
   </g>
   <g id="legend_1">
    <g id="line2d_25">
     <defs>
      <path id="mc1826c4fd5" d="M -5 5 
L 5 5 
L 5 -5 
L -5 -5 
z
" style="stroke: #000000; stroke-linejoin: miter"/>
     </defs>
     <g>
      <use xlink:href="#mc1826c4fd5" x="145.234453" y="555.06105" style="stroke: #000000; stroke-linejoin: miter"/>
     </g>
    </g>
    <g id="text_17">
     <!-- Depot -->
     <g transform="translate(159.634453 557.86105) scale(0.08 -0.08)">
      <defs>
       <path id="DejaVuSerif-27" d="M 1581 331 
L 2163 331 
Q 3072 331 3558 850 
Q 4044 1369 4044 2338 
Q 4044 3306 3559 3818 
Q 3075 4331 2163 4331 
L 1581 4331 
L 1581 331 
z
M 353 0 
L 353 331 
L 947 331 
L 947 4331 
L 353 4331 
L 353 4666 
L 2209 4666 
Q 3416 4666 4089 4050 
Q 4763 3434 4763 2338 
Q 4763 1238 4088 619 
Q 3413 0 2209 0 
L 353 0 
z
" transform="scale(0.015625)"/>
       <path id="DejaVuSerif-53" d="M 1313 1825 
L 1313 1497 
Q 1313 897 1542 583 
Q 1772 269 2209 269 
Q 2650 269 2876 622 
Q 3103 975 3103 1663 
Q 3103 2353 2876 2703 
Q 2650 3053 2209 3053 
Q 1772 3053 1542 2737 
Q 1313 2422 1313 1825 
z
M 738 2988 
L 184 2988 
L 184 3322 
L 1313 3322 
L 1313 2803 
Q 1481 3116 1742 3264 
Q 2003 3413 2388 3413 
Q 3000 3413 3387 2928 
Q 3775 2444 3775 1663 
Q 3775 881 3387 395 
Q 3000 -91 2388 -91 
Q 2003 -91 1742 57 
Q 1481 206 1313 519 
L 1313 -997 
L 1856 -997 
L 1856 -1331 
L 184 -1331 
L 184 -997 
L 738 -997 
L 738 2988 
z
" transform="scale(0.015625)"/>
      </defs>
      <use xlink:href="#DejaVuSerif-27"/>
      <use xlink:href="#DejaVuSerif-48" transform="translate(80.171875 0)"/>
      <use xlink:href="#DejaVuSerif-53" transform="translate(139.359375 0)"/>
      <use xlink:href="#DejaVuSerif-52" transform="translate(203.375 0)"/>
      <use xlink:href="#DejaVuSerif-57" transform="translate(263.578125 0)"/>
     </g>
    </g>
    <g id="line2d_26">
     <defs>
      <path id="m7147dad24c" d="M 0 4.5 
C 1.193414 4.5 2.338109 4.025852 3.181981 3.181981 
C 4.025852 2.338109 4.5 1.193414 4.5 0 
C 4.5 -1.193414 4.025852 -2.338109 3.181981 -3.181981 
C 2.338109 -4.025852 1.193414 -4.5 0 -4.5 
C -1.193414 -4.5 -2.338109 -4.025852 -3.181981 -3.181981 
C -4.025852 -2.338109 -4.5 -1.193414 -4.5 0 
C -4.5 1.193414 -4.025852 2.338109 -3.181981 3.181981 
C -2.338109 4.025852 -1.193414 4.5 0 4.5 
z
" style="stroke: #000000"/>
     </defs>
     <g>
      <use xlink:href="#m7147dad24c" x="207.935703" y="555.06105" style="fill: #ffffff; stroke: #000000"/>
     </g>
    </g>
    <g id="text_18">
     <!-- Route customer (3 stops) -->
     <g transform="translate(222.335703 557.86105) scale(0.08 -0.08)">
      <defs>
       <path id="DejaVuSerif-35" d="M 3066 2316 
Q 3284 2256 3442 2114 
Q 3600 1972 3725 1716 
L 4403 331 
L 4972 331 
L 4972 0 
L 3872 0 
L 3144 1484 
Q 2934 1916 2759 2042 
Q 2584 2169 2278 2169 
L 1581 2169 
L 1581 331 
L 2241 331 
L 2241 0 
L 353 0 
L 353 331 
L 947 331 
L 947 4331 
L 353 4331 
L 353 4666 
L 2719 4666 
Q 3400 4666 3770 4341 
Q 4141 4016 4141 3419 
Q 4141 2938 3870 2661 
Q 3600 2384 3066 2316 
z
M 1581 2503 
L 2503 2503 
Q 2975 2503 3200 2726 
Q 3425 2950 3425 3419 
Q 3425 3888 3200 4109 
Q 2975 4331 2503 4331 
L 1581 4331 
L 1581 2503 
z
" transform="scale(0.015625)"/>
       <path id="DejaVuSerif-58" d="M 2266 3322 
L 3341 3322 
L 3341 331 
L 3884 331 
L 3884 0 
L 2766 0 
L 2766 588 
Q 2606 256 2353 82 
Q 2100 -91 1766 -91 
Q 1213 -91 952 223 
Q 691 538 691 1209 
L 691 2988 
L 172 2988 
L 172 3322 
L 1269 3322 
L 1269 1388 
Q 1269 781 1417 556 
Q 1566 331 1947 331 
Q 2347 331 2556 625 
Q 2766 919 2766 1478 
L 2766 2988 
L 2266 2988 
L 2266 3322 
z
" transform="scale(0.015625)"/>
       <path id="DejaVuSerif-56" d="M 359 184 
L 359 959 
L 691 959 
Q 703 588 923 403 
Q 1144 219 1575 219 
Q 1963 219 2166 364 
Q 2369 509 2369 788 
Q 2369 1006 2220 1140 
Q 2072 1275 1594 1428 
L 1178 1569 
Q 750 1706 558 1912 
Q 366 2119 366 2438 
Q 366 2894 700 3153 
Q 1034 3413 1625 3413 
Q 1888 3413 2178 3344 
Q 2469 3275 2778 3144 
L 2778 2419 
L 2447 2419 
Q 2434 2741 2221 2922 
Q 2009 3103 1644 3103 
Q 1281 3103 1095 2975 
Q 909 2847 909 2591 
Q 909 2381 1050 2254 
Q 1191 2128 1613 1997 
L 2069 1856 
Q 2541 1709 2748 1489 
Q 2956 1269 2956 922 
Q 2956 450 2595 179 
Q 2234 -91 1600 -91 
Q 1278 -91 972 -22 
Q 666 47 359 184 
z
" transform="scale(0.015625)"/>
       <path id="DejaVuSerif-50" d="M 3316 2675 
Q 3481 3041 3739 3227 
Q 3997 3413 4341 3413 
Q 4863 3413 5119 3089 
Q 5375 2766 5375 2113 
L 5375 331 
L 5894 331 
L 5894 0 
L 4300 0 
L 4300 331 
L 4800 331 
L 4800 2047 
Q 4800 2556 4650 2772 
Q 4500 2988 4153 2988 
Q 3769 2988 3567 2697 
Q 3366 2406 3366 1850 
L 3366 331 
L 3866 331 
L 3866 0 
L 2291 0 
L 2291 331 
L 2791 331 
L 2791 2069 
Q 2791 2566 2641 2777 
Q 2491 2988 2144 2988 
Q 1759 2988 1557 2697 
Q 1356 2406 1356 1850 
L 1356 331 
L 1856 331 
L 1856 0 
L 263 0 
L 263 331 
L 781 331 
L 781 2994 
L 231 2994 
L 231 3322 
L 1356 3322 
L 1356 2731 
Q 1516 3063 1762 3238 
Q 2009 3413 2322 3413 
Q 2709 3413 2968 3220 
Q 3228 3028 3316 2675 
z
" transform="scale(0.015625)"/>
      </defs>
      <use xlink:href="#DejaVuSerif-35"/>
      <use xlink:href="#DejaVuSerif-52" transform="translate(75.296875 0)"/>
      <use xlink:href="#DejaVuSerif-58" transform="translate(135.5 0)"/>
      <use xlink:href="#DejaVuSerif-57" transform="translate(199.90625 0)"/>
      <use xlink:href="#DejaVuSerif-48" transform="translate(240.09375 0)"/>
      <use xlink:href="#DejaVuSerif-3" transform="translate(299.28125 0)"/>
      <use xlink:href="#DejaVuSerif-46" transform="translate(331.0625 0)"/>
      <use xlink:href="#DejaVuSerif-58" transform="translate(387.0625 0)"/>
      <use xlink:href="#DejaVuSerif-56" transform="translate(451.46875 0)"/>
      <use xlink:href="#DejaVuSerif-57" transform="translate(502.78125 0)"/>
      <use xlink:href="#DejaVuSerif-52" transform="translate(542.96875 0)"/>
      <use xlink:href="#DejaVuSerif-50" transform="translate(603.171875 0)"/>
      <use xlink:href="#DejaVuSerif-48" transform="translate(698 0)"/>
      <use xlink:href="#DejaVuSerif-55" transform="translate(757.1875 0)"/>
      <use xlink:href="#DejaVuSerif-3" transform="translate(804.984375 0)"/>
      <use xlink:href="#DejaVuSerif-b" transform="translate(836.765625 0)"/>
      <use xlink:href="#DejaVuSerif-16" transform="translate(875.78125 0)"/>
      <use xlink:href="#DejaVuSerif-3" transform="translate(939.40625 0)"/>
      <use xlink:href="#DejaVuSerif-56" transform="translate(971.1875 0)"/>
      <use xlink:href="#DejaVuSerif-57" transform="translate(1022.5 0)"/>
      <use xlink:href="#DejaVuSerif-52" transform="translate(1062.6875 0)"/>
      <use xlink:href="#DejaVuSerif-53" transform="translate(1122.890625 0)"/>
      <use xlink:href="#DejaVuSerif-56" transform="translate(1186.90625 0)"/>
      <use xlink:href="#DejaVuSerif-c" transform="translate(1238.21875 0)"/>
     </g>
    </g>
    <g id="line2d_27">
     <defs>
      <path id="m6e0b33a4d7" d="M 0 3 
C 0.795609 3 1.55874 2.683901 2.12132 2.12132 
C 2.683901 1.55874 3 0.795609 3 0 
C 3 -0.795609 2.683901 -1.55874 2.12132 -2.12132 
C 1.55874 -2.683901 0.795609 -3 0 -3 
C -0.795609 -3 -1.55874 -2.683901 -2.12132 -2.12132 
C -2.683901 -1.55874 -3 -0.795609 -3 0 
C -3 0.795609 -2.683901 1.55874 -2.12132 2.12132 
C -1.55874 2.683901 -0.795609 3 0 3 
z
" style="stroke: #bfbfbf"/>
     </defs>
     <g>
      <use xlink:href="#m6e0b33a4d7" x="348.514453" y="555.06105" style="fill: #ffffff; stroke: #bfbfbf"/>
     </g>
    </g>
    <g id="text_19">
     <!-- Other customers -->
     <g transform="translate(362.914453 557.86105) scale(0.08 -0.08)">
      <defs>
       <path id="DejaVuSerif-32" d="M 2625 244 
Q 3391 244 3781 770 
Q 4172 1297 4172 2328 
Q 4172 3363 3781 3889 
Q 3391 4416 2625 4416 
Q 1856 4416 1465 3889 
Q 1075 3363 1075 2328 
Q 1075 1297 1465 770 
Q 1856 244 2625 244 
z
M 2625 -91 
Q 2150 -91 1751 65 
Q 1353 222 1050 525 
Q 700 875 529 1319 
Q 359 1763 359 2328 
Q 359 2894 529 3339 
Q 700 3784 1050 4134 
Q 1356 4441 1750 4595 
Q 2144 4750 2625 4750 
Q 3641 4750 4266 4084 
Q 4891 3419 4891 2328 
Q 4891 1769 4719 1320 
Q 4547 872 4197 525 
Q 3891 219 3497 64 
Q 3103 -91 2625 -91 
z
" transform="scale(0.015625)"/>
      </defs>
      <use xlink:href="#DejaVuSerif-32"/>
      <use xlink:href="#DejaVuSerif-57" transform="translate(81.984375 0)"/>
      <use xlink:href="#DejaVuSerif-4b" transform="translate(122.171875 0)"/>
      <use xlink:href="#DejaVuSerif-48" transform="translate(186.578125 0)"/>
      <use xlink:href="#DejaVuSerif-55" transform="translate(245.765625 0)"/>
      <use xlink:href="#DejaVuSerif-3" transform="translate(293.5625 0)"/>
      <use xlink:href="#DejaVuSerif-46" transform="translate(325.34375 0)"/>
      <use xlink:href="#DejaVuSerif-58" transform="translate(381.34375 0)"/>
      <use xlink:href="#DejaVuSerif-56" transform="translate(445.75 0)"/>
      <use xlink:href="#DejaVuSerif-57" transform="translate(497.0625 0)"/>
      <use xlink:href="#DejaVuSerif-52" transform="translate(537.25 0)"/>
      <use xlink:href="#DejaVuSerif-50" transform="translate(597.453125 0)"/>
      <use xlink:href="#DejaVuSerif-48" transform="translate(692.28125 0)"/>
      <use xlink:href="#DejaVuSerif-55" transform="translate(751.46875 0)"/>
      <use xlink:href="#DejaVuSerif-56" transform="translate(799.265625 0)"/>
     </g>
    </g>
   </g>
   <g id="text_20">
    <!-- 1 -->
    <g transform="translate(285.776388 270.602899) scale(0.065 -0.065)">
     <defs>
      <path id="DejaVuSerif-Bold-14" d="M 878 0 
L 878 378 
L 1753 378 
L 1753 4153 
L 781 3578 
L 781 4044 
L 1953 4750 
L 2938 4750 
L 2938 378 
L 3816 378 
L 3816 0 
L 878 0 
z
" transform="scale(0.015625)"/>
     </defs>
     <use xlink:href="#DejaVuSerif-Bold-14"/>
    </g>
   </g>
   <g id="text_21">
    <!-- 2 -->
    <g transform="translate(246.375396 310.003891) scale(0.065 -0.065)">
     <defs>
      <path id="DejaVuSerif-Bold-15" d="M 844 3513 
L 469 3513 
L 469 4519 
Q 850 4634 1223 4692 
Q 1597 4750 1978 4750 
Q 2869 4750 3367 4386 
Q 3866 4022 3866 3372 
Q 3866 2909 3591 2542 
Q 3316 2175 2541 1672 
L 1241 819 
L 3450 819 
L 3450 1369 
L 3878 1369 
L 3878 0 
L 428 0 
L 428 763 
L 1119 1241 
Q 2003 1850 2297 2278 
Q 2591 2706 2591 3278 
Q 2591 3819 2367 4101 
Q 2144 4384 1716 4384 
Q 1347 4384 1125 4161 
Q 903 3938 844 3513 
z
" transform="scale(0.015625)"/>
     </defs>
     <use xlink:href="#DejaVuSerif-Bold-15"/>
    </g>
   </g>
   <g id="text_22">
    <!-- 3 -->
    <g transform="translate(246.375396 310.003891) scale(0.065 -0.065)">
     <defs>
      <path id="DejaVuSerif-Bold-16" d="M 550 4531 
Q 963 4641 1350 4695 
Q 1738 4750 2106 4750 
Q 2950 4750 3401 4448 
Q 3853 4147 3853 3584 
Q 3853 3163 3593 2900 
Q 3334 2638 2834 2547 
Q 3444 2450 3744 2131 
Q 4044 1813 4044 1259 
Q 4044 606 3526 257 
Q 3009 -91 2028 -91 
Q 1659 -91 1267 -28 
Q 875 34 447 159 
L 447 1184 
L 825 1184 
Q 859 741 1103 508 
Q 1347 275 1778 275 
Q 2253 275 2512 539 
Q 2772 803 2772 1288 
Q 2772 1794 2501 2069 
Q 2231 2344 1734 2344 
L 1528 2344 
L 1528 2719 
L 1691 2719 
Q 2150 2719 2381 2931 
Q 2613 3144 2613 3566 
Q 2613 3963 2395 4173 
Q 2178 4384 1772 4384 
Q 1403 4384 1187 4182 
Q 972 3981 928 3597 
L 550 3597 
L 550 4531 
z
" transform="scale(0.015625)"/>
     </defs>
     <use xlink:href="#DejaVuSerif-Bold-16"/>
    </g>
   </g>
  </g>
 </g>
 <defs>
  <clipPath id="pce0bf86831">
   <rect x="37.053359" y="18.718125" width="494.088436" height="476.752"/>
  </clipPath>
 </defs>
</svg>
