<?xml version="1.0" encoding="utf-8" standalone="no"?>
<!DOCTYPE svg PUBLIC "-//W3C//DTD SVG 1.1//EN"
  "http://www.w3.org/Graphics/SVG/1.1/DTD/svg11.dtd">
<svg xmlns:xlink="http://www.w3.org/1999/xlink" width="1012.028599pt" height="282.527188pt" viewBox="0 0 1012.028599 282.527188" xmlns="http://www.w3.org/2000/svg" version="1.1">
 <metadata>
  <rdf:RDF xmlns:dc="http://purl.org/dc/elements/1.1/" xmlns:cc="http://creativecommons.org/ns#" xmlns:rdf="http://www.w3.org/1999/02/22-rdf-syntax-ns#">
   <cc:Work>
    <dc:type rdf:resource="http://purl.org/dc/dcmitype/StillImage"/>
    <dc:date>2026-06-27T18:05:47.340819</dc:date>
    <dc:format>image/svg+xml</dc:format>
    <dc:creator>
     <cc:Agent>
      <dc:title>Matplotlib v3.11.0, https://matplotlib.org/</dc:title>
     </cc:Agent>
    </dc:creator>
   </cc:Work>
  </rdf:RDF>
 </metadata>
 <defs>
  <style type="text/css">*{stroke-linejoin: round; stroke-linecap: butt}</style>
 </defs>
 <g id="figure_1">
  <g id="patch_1">
   <path d="M 0 282.527188 
L 1012.028599 282.527188 
L 1012.028599 0 
L 0 0 
z
" style="fill: #ffffff"/>
  </g>
  <g id="axes_1">
   <g id="patch_2">
    <path d="M 42.77875 229.685188 
L 212.883757 229.685188 
L 212.883757 18.717187 
L 42.77875 18.717187 
z
" style="fill: #ffffff"/>
   </g>
   <g id="matplotlib.axis_1">
    <g id="xtick_1">
     <g id="line2d_1">
      <path d="M 50.510796 229.685188 
L 50.510796 18.717187 
" clip-path="url(#p25e8c5ec9a)" style="fill: none; stroke-dasharray: 0.5,0.825; stroke-dashoffset: 0; stroke: #bfbfbf; stroke-opacity: 0.7; stroke-width: 0.5"/>
     </g>
     <g id="line2d_2">
      <defs>
       <path id="mf1bba918f7" d="M 0 0 
L 0 3.5 
" style="stroke: #000000; stroke-width: 0.8"/>
      </defs>
      <g>
       <use xlink:href="#mf1bba918f7" x="50.510796" y="229.685188" style="stroke: #000000; stroke-width: 0.8"/>
      </g>
     </g>
     <g id="text_1">
      <!-- 0 -->
      <g transform="translate(47.647671 243.523078) scale(0.09 -0.09)">
       <defs>
        <path id="DejaVuSerif-13" d="M 2034 219 
Q 2513 219 2750 744 
Q 2988 1269 2988 2328 
Q 2988 3391 2750 3916 
Q 2513 4441 2034 4441 
Q 1556 4441 1318 3916 
Q 1081 3391 1081 2328 
Q 1081 1269 1318 744 
Q 1556 219 2034 219 
z
M 2034 -91 
Q 1275 -91 848 546 
Q 422 1184 422 2328 
Q 422 3475 848 4112 
Q 1275 4750 2034 4750 
Q 2797 4750 3222 4112 
Q 3647 3475 3647 2328 
Q 3647 1184 3222 546 
Q 2797 -91 2034 -91 
z
" transform="scale(0.015625)"/>
       </defs>
       <use xlink:href="#DejaVuSerif-13"/>
      </g>
     </g>
    </g>
    <g id="xtick_2">
     <g id="line2d_3">
      <path d="M 81.751385 229.685188 
L 81.751385 18.717187 
" clip-path="url(#p25e8c5ec9a)" style="fill: none; stroke-dasharray: 0.5,0.825; stroke-dashoffset: 0; stroke: #bfbfbf; stroke-opacity: 0.7; stroke-width: 0.5"/>
     </g>
     <g id="line2d_4">
      <g>
       <use xlink:href="#mf1bba918f7" x="81.751385" y="229.685188" style="stroke: #000000; stroke-width: 0.8"/>
      </g>
     </g>
     <g id="text_2">
      <!-- 20 -->
      <g transform="translate(76.025135 243.523078) scale(0.09 -0.09)">
       <defs>
        <path id="DejaVuSerif-15" d="M 819 3553 
L 469 3553 
L 469 4384 
Q 803 4563 1142 4656 
Q 1481 4750 1806 4750 
Q 2534 4750 2956 4397 
Q 3378 4044 3378 3438 
Q 3378 2753 2422 1800 
Q 2347 1728 2309 1691 
L 1131 513 
L 3078 513 
L 3078 1088 
L 3444 1088 
L 3444 0 
L 434 0 
L 434 341 
L 1850 1753 
Q 2319 2222 2519 2614 
Q 2719 3006 2719 3438 
Q 2719 3909 2473 4175 
Q 2228 4441 1797 4441 
Q 1350 4441 1106 4219 
Q 863 3997 819 3553 
z
" transform="scale(0.015625)"/>
       </defs>
       <use xlink:href="#DejaVuSerif-15"/>
       <use xlink:href="#DejaVuSerif-13" transform="translate(63.625 0)"/>
      </g>
     </g>
    </g>
    <g id="xtick_3">
     <g id="line2d_5">
      <path d="M 112.991974 229.685188 
L 112.991974 18.717187 
" clip-path="url(#p25e8c5ec9a)" style="fill: none; stroke-dasharray: 0.5,0.825; stroke-dashoffset: 0; stroke: #bfbfbf; stroke-opacity: 0.7; stroke-width: 0.5"/>
     </g>
     <g id="line2d_6">
      <g>
       <use xlink:href="#mf1bba918f7" x="112.991974" y="229.685188" style="stroke: #000000; stroke-width: 0.8"/>
      </g>
     </g>
     <g id="text_3">
      <!-- 40 -->
      <g transform="translate(107.265724 243.523078) scale(0.09 -0.09)">
       <defs>
        <path id="DejaVuSerif-17" d="M 2234 1581 
L 2234 4063 
L 641 1581 
L 2234 1581 
z
M 3609 0 
L 1484 0 
L 1484 331 
L 2234 331 
L 2234 1247 
L 197 1247 
L 197 1588 
L 2241 4750 
L 2859 4750 
L 2859 1581 
L 3750 1581 
L 3750 1247 
L 2859 1247 
L 2859 331 
L 3609 331 
L 3609 0 
z
" transform="scale(0.015625)"/>
       </defs>
       <use xlink:href="#DejaVuSerif-17"/>
       <use xlink:href="#DejaVuSerif-13" transform="translate(63.625 0)"/>
      </g>
     </g>
    </g>
    <g id="xtick_4">
     <g id="line2d_7">
      <path d="M 144.232563 229.685188 
L 144.232563 18.717187 
" clip-path="url(#p25e8c5ec9a)" style="fill: none; stroke-dasharray: 0.5,0.825; stroke-dashoffset: 0; stroke: #bfbfbf; stroke-opacity: 0.7; stroke-width: 0.5"/>
     </g>
     <g id="line2d_8">
      <g>
       <use xlink:href="#mf1bba918f7" x="144.232563" y="229.685188" style="stroke: #000000; stroke-width: 0.8"/>
      </g>
     </g>
     <g id="text_4">
      <!-- 60 -->
      <g transform="translate(138.506313 243.523078) scale(0.09 -0.09)">
       <defs>
        <path id="DejaVuSerif-19" d="M 2094 219 
Q 2534 219 2771 542 
Q 3009 866 3009 1472 
Q 3009 2078 2771 2401 
Q 2534 2725 2094 2725 
Q 1647 2725 1412 2412 
Q 1178 2100 1178 1509 
Q 1178 888 1415 553 
Q 1653 219 2094 219 
z
M 1075 2569 
Q 1288 2803 1556 2918 
Q 1825 3034 2163 3034 
Q 2859 3034 3264 2615 
Q 3669 2197 3669 1472 
Q 3669 763 3233 336 
Q 2797 -91 2069 -91 
Q 1278 -91 853 498 
Q 428 1088 428 2181 
Q 428 3406 931 4078 
Q 1434 4750 2350 4750 
Q 2597 4750 2869 4703 
Q 3141 4656 3425 4563 
L 3425 3794 
L 3072 3794 
Q 3034 4109 2831 4275 
Q 2628 4441 2284 4441 
Q 1678 4441 1381 3981 
Q 1084 3522 1075 2569 
z
" transform="scale(0.015625)"/>
       </defs>
       <use xlink:href="#DejaVuSerif-19"/>
       <use xlink:href="#DejaVuSerif-13" transform="translate(63.625 0)"/>
      </g>
     </g>
    </g>
    <g id="xtick_5">
     <g id="line2d_9">
      <path d="M 175.473152 229.685188 
L 175.473152 18.717187 
" clip-path="url(#p25e8c5ec9a)" style="fill: none; stroke-dasharray: 0.5,0.825; stroke-dashoffset: 0; stroke: #bfbfbf; stroke-opacity: 0.7; stroke-width: 0.5"/>
     </g>
     <g id="line2d_10">
      <g>
       <use xlink:href="#mf1bba918f7" x="175.473152" y="229.685188" style="stroke: #000000; stroke-width: 0.8"/>
      </g>
     </g>
     <g id="text_5">
      <!-- 80 -->
      <g transform="translate(169.746902 243.523078) scale(0.09 -0.09)">
       <defs>
        <path id="DejaVuSerif-1b" d="M 2981 1275 
Q 2981 1775 2732 2051 
Q 2484 2328 2034 2328 
Q 1584 2328 1336 2051 
Q 1088 1775 1088 1275 
Q 1088 772 1336 495 
Q 1584 219 2034 219 
Q 2484 219 2732 495 
Q 2981 772 2981 1275 
z
M 2853 3541 
Q 2853 3966 2637 4203 
Q 2422 4441 2034 4441 
Q 1650 4441 1433 4203 
Q 1216 3966 1216 3541 
Q 1216 3113 1433 2875 
Q 1650 2638 2034 2638 
Q 2422 2638 2637 2875 
Q 2853 3113 2853 3541 
z
M 2516 2484 
Q 3047 2413 3344 2092 
Q 3641 1772 3641 1275 
Q 3641 619 3225 264 
Q 2809 -91 2034 -91 
Q 1263 -91 845 264 
Q 428 619 428 1275 
Q 428 1772 725 2092 
Q 1022 2413 1556 2484 
Q 1084 2569 832 2842 
Q 581 3116 581 3541 
Q 581 4103 968 4426 
Q 1356 4750 2034 4750 
Q 2713 4750 3100 4426 
Q 3488 4103 3488 3541 
Q 3488 3116 3236 2842 
Q 2984 2569 2516 2484 
z
" transform="scale(0.015625)"/>
       </defs>
       <use xlink:href="#DejaVuSerif-1b"/>
       <use xlink:href="#DejaVuSerif-13" transform="translate(63.625 0)"/>
      </g>
     </g>
    </g>
    <g id="xtick_6">
     <g id="line2d_11">
      <path d="M 206.713741 229.685188 
L 206.713741 18.717187 
" clip-path="url(#p25e8c5ec9a)" style="fill: none; stroke-dasharray: 0.5,0.825; stroke-dashoffset: 0; stroke: #bfbfbf; stroke-opacity: 0.7; stroke-width: 0.5"/>
     </g>
     <g id="line2d_12">
      <g>
       <use xlink:href="#mf1bba918f7" x="206.713741" y="229.685188" style="stroke: #000000; stroke-width: 0.8"/>
      </g>
     </g>
     <g id="text_6">
      <!-- 100 -->
      <g transform="translate(198.124366 243.523078) scale(0.09 -0.09)">
       <defs>
        <path id="DejaVuSerif-14" d="M 909 0 
L 909 331 
L 1722 331 
L 1722 4213 
L 781 3603 
L 781 4013 
L 1919 4750 
L 2350 4750 
L 2350 331 
L 3163 331 
L 3163 0 
L 909 0 
z
" transform="scale(0.015625)"/>
       </defs>
       <use xlink:href="#DejaVuSerif-14"/>
       <use xlink:href="#DejaVuSerif-13" transform="translate(63.625 0)"/>
       <use xlink:href="#DejaVuSerif-13" transform="translate(127.25 0)"/>
      </g>
     </g>
    </g>
    <g id="text_7">
     <!-- Iteration -->
     <g transform="translate(103.461957 258.042609) scale(0.11 -0.11)">
      <defs>
       <path id="DejaVuSerif-2c" d="M 1581 331 
L 2175 331 
L 2175 0 
L 353 0 
L 353 331 
L 947 331 
L 947 4331 
L 353 4331 
L 353 4666 
L 2175 4666 
L 2175 4331 
L 1581 4331 
L 1581 331 
z
" transform="scale(0.015625)"/>
       <path id="DejaVuSerif-57" d="M 691 2988 
L 184 2988 
L 184 3322 
L 691 3322 
L 691 4353 
L 1269 4353 
L 1269 3322 
L 2350 3322 
L 2350 2988 
L 1269 2988 
L 1269 878 
Q 1269 456 1350 337 
Q 1431 219 1650 219 
Q 1875 219 1978 351 
Q 2081 484 2088 781 
L 2522 781 
Q 2497 328 2275 118 
Q 2053 -91 1600 -91 
Q 1103 -91 897 129 
Q 691 350 691 878 
L 691 2988 
z
" transform="scale(0.015625)"/>
       <path id="DejaVuSerif-48" d="M 3469 1600 
L 991 1600 
L 991 1575 
Q 991 903 1244 561 
Q 1497 219 1991 219 
Q 2369 219 2611 417 
Q 2853 616 2950 1006 
L 3413 1006 
Q 3275 459 2904 184 
Q 2534 -91 1931 -91 
Q 1203 -91 761 389 
Q 319 869 319 1663 
Q 319 2450 753 2931 
Q 1188 3413 1894 3413 
Q 2647 3413 3050 2948 
Q 3453 2484 3469 1600 
z
M 2791 1931 
Q 2772 2513 2545 2808 
Q 2319 3103 1894 3103 
Q 1497 3103 1269 2806 
Q 1041 2509 991 1931 
L 2791 1931 
z
" transform="scale(0.015625)"/>
       <path id="DejaVuSerif-55" d="M 3059 3328 
L 3059 2497 
L 2728 2497 
Q 2713 2744 2591 2866 
Q 2469 2988 2234 2988 
Q 1809 2988 1582 2694 
Q 1356 2400 1356 1850 
L 1356 331 
L 2022 331 
L 2022 0 
L 263 0 
L 263 331 
L 781 331 
L 781 2994 
L 231 2994 
L 231 3322 
L 1356 3322 
L 1356 2731 
Q 1525 3078 1790 3245 
Q 2056 3413 2438 3413 
Q 2578 3413 2733 3391 
Q 2888 3369 3059 3328 
z
" transform="scale(0.015625)"/>
       <path id="DejaVuSerif-44" d="M 2547 1044 
L 2547 1747 
L 1806 1747 
Q 1378 1747 1168 1562 
Q 959 1378 959 997 
Q 959 650 1171 447 
Q 1384 244 1747 244 
Q 2106 244 2326 466 
Q 2547 688 2547 1044 
z
M 3122 2075 
L 3122 331 
L 3634 331 
L 3634 0 
L 2547 0 
L 2547 359 
Q 2356 128 2106 18 
Q 1856 -91 1522 -91 
Q 969 -91 644 203 
Q 319 497 319 997 
Q 319 1513 691 1797 
Q 1063 2081 1741 2081 
L 2547 2081 
L 2547 2309 
Q 2547 2688 2317 2895 
Q 2088 3103 1672 3103 
Q 1328 3103 1125 2947 
Q 922 2791 872 2484 
L 575 2484 
L 575 3156 
Q 875 3284 1158 3348 
Q 1441 3413 1709 3413 
Q 2400 3413 2761 3070 
Q 3122 2728 3122 2075 
z
" transform="scale(0.015625)"/>
       <path id="DejaVuSerif-4c" d="M 622 4353 
Q 622 4497 726 4603 
Q 831 4709 978 4709 
Q 1122 4709 1226 4603 
Q 1331 4497 1331 4353 
Q 1331 4206 1228 4103 
Q 1125 4000 978 4000 
Q 831 4000 726 4103 
Q 622 4206 622 4353 
z
M 1356 331 
L 1900 331 
L 1900 0 
L 231 0 
L 231 331 
L 781 331 
L 781 2988 
L 231 2988 
L 231 3322 
L 1356 3322 
L 1356 331 
z
" transform="scale(0.015625)"/>
       <path id="DejaVuSerif-52" d="M 1925 219 
Q 2388 219 2623 584 
Q 2859 950 2859 1663 
Q 2859 2375 2623 2739 
Q 2388 3103 1925 3103 
Q 1463 3103 1227 2739 
Q 991 2375 991 1663 
Q 991 950 1228 584 
Q 1466 219 1925 219 
z
M 1925 -91 
Q 1200 -91 759 389 
Q 319 869 319 1663 
Q 319 2456 758 2934 
Q 1197 3413 1925 3413 
Q 2653 3413 3092 2934 
Q 3531 2456 3531 1663 
Q 3531 869 3092 389 
Q 2653 -91 1925 -91 
z
" transform="scale(0.015625)"/>
       <path id="DejaVuSerif-51" d="M 263 0 
L 263 331 
L 781 331 
L 781 2988 
L 231 2988 
L 231 3322 
L 1356 3322 
L 1356 2731 
Q 1516 3069 1770 3241 
Q 2025 3413 2363 3413 
Q 2913 3413 3172 3097 
Q 3431 2781 3431 2113 
L 3431 331 
L 3944 331 
L 3944 0 
L 2356 0 
L 2356 331 
L 2853 331 
L 2853 1931 
Q 2853 2541 2703 2767 
Q 2553 2994 2175 2994 
Q 1775 2994 1565 2701 
Q 1356 2409 1356 1850 
L 1356 331 
L 1856 331 
L 1856 0 
L 263 0 
z
" transform="scale(0.015625)"/>
      </defs>
      <use xlink:href="#DejaVuSerif-2c"/>
      <use xlink:href="#DejaVuSerif-57" transform="translate(39.5 0)"/>
      <use xlink:href="#DejaVuSerif-48" transform="translate(79.6875 0)"/>
      <use xlink:href="#DejaVuSerif-55" transform="translate(138.875 0)"/>
      <use xlink:href="#DejaVuSerif-44" transform="translate(186.671875 0)"/>
      <use xlink:href="#DejaVuSerif-57" transform="translate(246.296875 0)"/>
      <use xlink:href="#DejaVuSerif-4c" transform="translate(286.484375 0)"/>
      <use xlink:href="#DejaVuSerif-52" transform="translate(318.46875 0)"/>
      <use xlink:href="#DejaVuSerif-51" transform="translate(378.671875 0)"/>
     </g>
    </g>
   </g>
   <g id="matplotlib.axis_2">
    <g id="ytick_1">
     <g id="line2d_13">
      <path d="M 42.77875 216.486074 
L 212.883757 216.486074 
" clip-path="url(#p25e8c5ec9a)" style="fill: none; stroke-dasharray: 0.5,0.825; stroke-dashoffset: 0; stroke: #bfbfbf; stroke-opacity: 0.7; stroke-width: 0.5"/>
     </g>
     <g id="line2d_14">
      <defs>
       <path id="m3643cdf425" d="M 0 0 
L -3.5 0 
" style="stroke: #000000; stroke-width: 0.8"/>
      </defs>
      <g>
       <use xlink:href="#m3643cdf425" x="42.77875" y="216.486074" style="stroke: #000000; stroke-width: 0.8"/>
      </g>
     </g>
     <g id="text_8">
      <!-- 230 -->
      <g transform="translate(18.6 219.905019) scale(0.09 -0.09)">
       <defs>
        <path id="DejaVuSerif-16" d="M 622 4469 
Q 988 4606 1323 4678 
Q 1659 4750 1953 4750 
Q 2638 4750 3022 4454 
Q 3406 4159 3406 3634 
Q 3406 3213 3140 2930 
Q 2875 2647 2388 2547 
Q 2963 2466 3280 2130 
Q 3597 1794 3597 1259 
Q 3597 606 3158 257 
Q 2719 -91 1894 -91 
Q 1528 -91 1179 -12 
Q 831 66 488 225 
L 488 1131 
L 838 1131 
Q 869 681 1141 450 
Q 1413 219 1906 219 
Q 2384 219 2661 495 
Q 2938 772 2938 1253 
Q 2938 1803 2653 2086 
Q 2369 2369 1819 2369 
L 1522 2369 
L 1522 2688 
L 1678 2688 
Q 2225 2688 2498 2914 
Q 2772 3141 2772 3597 
Q 2772 4006 2547 4223 
Q 2322 4441 1900 4441 
Q 1478 4441 1245 4241 
Q 1013 4041 972 3647 
L 622 3647 
L 622 4469 
z
" transform="scale(0.015625)"/>
       </defs>
       <use xlink:href="#DejaVuSerif-15"/>
       <use xlink:href="#DejaVuSerif-16" transform="translate(63.625 0)"/>
       <use xlink:href="#DejaVuSerif-13" transform="translate(127.25 0)"/>
      </g>
     </g>
    </g>
    <g id="ytick_2">
     <g id="line2d_15">
      <path d="M 42.77875 188.466094 
L 212.883757 188.466094 
" clip-path="url(#p25e8c5ec9a)" style="fill: none; stroke-dasharray: 0.5,0.825; stroke-dashoffset: 0; stroke: #bfbfbf; stroke-opacity: 0.7; stroke-width: 0.5"/>
     </g>
     <g id="line2d_16">
      <g>
       <use xlink:href="#m3643cdf425" x="42.77875" y="188.466094" style="stroke: #000000; stroke-width: 0.8"/>
      </g>
     </g>
     <g id="text_9">
      <!-- 240 -->
      <g transform="translate(18.6 191.885039) scale(0.09 -0.09)">
       <use xlink:href="#DejaVuSerif-15"/>
       <use xlink:href="#DejaVuSerif-17" transform="translate(63.625 0)"/>
       <use xlink:href="#DejaVuSerif-13" transform="translate(127.25 0)"/>
      </g>
     </g>
    </g>
    <g id="ytick_3">
     <g id="line2d_17">
      <path d="M 42.77875 160.446114 
L 212.883757 160.446114 
" clip-path="url(#p25e8c5ec9a)" style="fill: none; stroke-dasharray: 0.5,0.825; stroke-dashoffset: 0; stroke: #bfbfbf; stroke-opacity: 0.7; stroke-width: 0.5"/>
     </g>
     <g id="line2d_18">
      <g>
       <use xlink:href="#m3643cdf425" x="42.77875" y="160.446114" style="stroke: #000000; stroke-width: 0.8"/>
      </g>
     </g>
     <g id="text_10">
      <!-- 250 -->
      <g transform="translate(18.6 163.865059) scale(0.09 -0.09)">
       <defs>
        <path id="DejaVuSerif-18" d="M 3219 4666 
L 3219 4153 
L 1081 4153 
L 1081 2816 
Q 1244 2928 1461 2984 
Q 1678 3041 1947 3041 
Q 2703 3041 3140 2622 
Q 3578 2203 3578 1478 
Q 3578 738 3136 323 
Q 2694 -91 1894 -91 
Q 1572 -91 1234 -12 
Q 897 66 544 225 
L 544 1131 
L 897 1131 
Q 925 688 1179 453 
Q 1434 219 1894 219 
Q 2388 219 2653 544 
Q 2919 869 2919 1478 
Q 2919 2084 2655 2407 
Q 2391 2731 1894 2731 
Q 1613 2731 1398 2631 
Q 1184 2531 1019 2322 
L 750 2322 
L 750 4666 
L 3219 4666 
z
" transform="scale(0.015625)"/>
       </defs>
       <use xlink:href="#DejaVuSerif-15"/>
       <use xlink:href="#DejaVuSerif-18" transform="translate(63.625 0)"/>
       <use xlink:href="#DejaVuSerif-13" transform="translate(127.25 0)"/>
      </g>
     </g>
    </g>
    <g id="ytick_4">
     <g id="line2d_19">
      <path d="M 42.77875 132.426134 
L 212.883757 132.426134 
" clip-path="url(#p25e8c5ec9a)" style="fill: none; stroke-dasharray: 0.5,0.825; stroke-dashoffset: 0; stroke: #bfbfbf; stroke-opacity: 0.7; stroke-width: 0.5"/>
     </g>
     <g id="line2d_20">
      <g>
       <use xlink:href="#m3643cdf425" x="42.77875" y="132.426134" style="stroke: #000000; stroke-width: 0.8"/>
      </g>
     </g>
     <g id="text_11">
      <!-- 260 -->
      <g transform="translate(18.6 135.84508) scale(0.09 -0.09)">
       <use xlink:href="#DejaVuSerif-15"/>
       <use xlink:href="#DejaVuSerif-19" transform="translate(63.625 0)"/>
       <use xlink:href="#DejaVuSerif-13" transform="translate(127.25 0)"/>
      </g>
     </g>
    </g>
    <g id="ytick_5">
     <g id="line2d_21">
      <path d="M 42.77875 104.406154 
L 212.883757 104.406154 
" clip-path="url(#p25e8c5ec9a)" style="fill: none; stroke-dasharray: 0.5,0.825; stroke-dashoffset: 0; stroke: #bfbfbf; stroke-opacity: 0.7; stroke-width: 0.5"/>
     </g>
     <g id="line2d_22">
      <g>
       <use xlink:href="#m3643cdf425" x="42.77875" y="104.406154" style="stroke: #000000; stroke-width: 0.8"/>
      </g>
     </g>
     <g id="text_12">
      <!-- 270 -->
      <g transform="translate(18.6 107.8251) scale(0.09 -0.09)">
       <defs>
        <path id="DejaVuSerif-1a" d="M 3609 4347 
L 1784 0 
L 1319 0 
L 3059 4153 
L 903 4153 
L 903 3578 
L 538 3578 
L 538 4666 
L 3609 4666 
L 3609 4347 
z
" transform="scale(0.015625)"/>
       </defs>
       <use xlink:href="#DejaVuSerif-15"/>
       <use xlink:href="#DejaVuSerif-1a" transform="translate(63.625 0)"/>
       <use xlink:href="#DejaVuSerif-13" transform="translate(127.25 0)"/>
      </g>
     </g>
    </g>
    <g id="ytick_6">
     <g id="line2d_23">
      <path d="M 42.77875 76.386175 
L 212.883757 76.386175 
" clip-path="url(#p25e8c5ec9a)" style="fill: none; stroke-dasharray: 0.5,0.825; stroke-dashoffset: 0; stroke: #bfbfbf; stroke-opacity: 0.7; stroke-width: 0.5"/>
     </g>
     <g id="line2d_24">
      <g>
       <use xlink:href="#m3643cdf425" x="42.77875" y="76.386175" style="stroke: #000000; stroke-width: 0.8"/>
      </g>
     </g>
     <g id="text_13">
      <!-- 280 -->
      <g transform="translate(18.6 79.80512) scale(0.09 -0.09)">
       <use xlink:href="#DejaVuSerif-15"/>
       <use xlink:href="#DejaVuSerif-1b" transform="translate(63.625 0)"/>
       <use xlink:href="#DejaVuSerif-13" transform="translate(127.25 0)"/>
      </g>
     </g>
    </g>
    <g id="ytick_7">
     <g id="line2d_25">
      <path d="M 42.77875 48.366195 
L 212.883757 48.366195 
" clip-path="url(#p25e8c5ec9a)" style="fill: none; stroke-dasharray: 0.5,0.825; stroke-dashoffset: 0; stroke: #bfbfbf; stroke-opacity: 0.7; stroke-width: 0.5"/>
     </g>
     <g id="line2d_26">
      <g>
       <use xlink:href="#m3643cdf425" x="42.77875" y="48.366195" style="stroke: #000000; stroke-width: 0.8"/>
      </g>
     </g>
     <g id="text_14">
      <!-- 290 -->
      <g transform="translate(18.6 51.78514) scale(0.09 -0.09)">
       <defs>
        <path id="DejaVuSerif-1c" d="M 2994 2091 
Q 2784 1856 2512 1740 
Q 2241 1625 1900 1625 
Q 1206 1625 804 2044 
Q 403 2463 403 3188 
Q 403 3897 839 4323 
Q 1275 4750 2003 4750 
Q 2794 4750 3217 4161 
Q 3641 3572 3641 2478 
Q 3641 1253 3137 581 
Q 2634 -91 1722 -91 
Q 1475 -91 1203 -44 
Q 931 3 647 97 
L 647 872 
L 997 872 
Q 1038 556 1241 387 
Q 1444 219 1784 219 
Q 2391 219 2687 676 
Q 2984 1134 2994 2091 
z
M 1978 4441 
Q 1534 4441 1298 4117 
Q 1063 3794 1063 3188 
Q 1063 2581 1298 2256 
Q 1534 1931 1978 1931 
Q 2422 1931 2658 2245 
Q 2894 2559 2894 3150 
Q 2894 3772 2656 4106 
Q 2419 4441 1978 4441 
z
" transform="scale(0.015625)"/>
       </defs>
       <use xlink:href="#DejaVuSerif-15"/>
       <use xlink:href="#DejaVuSerif-1c" transform="translate(63.625 0)"/>
       <use xlink:href="#DejaVuSerif-13" transform="translate(127.25 0)"/>
      </g>
     </g>
    </g>
    <g id="ytick_8">
     <g id="line2d_27">
      <path d="M 42.77875 20.346215 
L 212.883757 20.346215 
" clip-path="url(#p25e8c5ec9a)" style="fill: none; stroke-dasharray: 0.5,0.825; stroke-dashoffset: 0; stroke: #bfbfbf; stroke-opacity: 0.7; stroke-width: 0.5"/>
     </g>
     <g id="line2d_28">
      <g>
       <use xlink:href="#m3643cdf425" x="42.77875" y="20.346215" style="stroke: #000000; stroke-width: 0.8"/>
      </g>
     </g>
     <g id="text_15">
      <!-- 300 -->
      <g transform="translate(18.6 23.76516) scale(0.09 -0.09)">
       <use xlink:href="#DejaVuSerif-16"/>
       <use xlink:href="#DejaVuSerif-13" transform="translate(63.625 0)"/>
       <use xlink:href="#DejaVuSerif-13" transform="translate(127.25 0)"/>
      </g>
     </g>
    </g>
    <g id="text_16">
     <!-- Best Distance -->
     <g transform="translate(11.957422 162.636734) rotate(-90) scale(0.11 -0.11)">
      <defs>
       <path id="DejaVuSerif-25" d="M 1581 331 
L 2516 331 
Q 3078 331 3337 575 
Q 3597 819 3597 1350 
Q 3597 1878 3339 2120 
Q 3081 2363 2516 2363 
L 1581 2363 
L 1581 331 
z
M 1581 2694 
L 2375 2694 
Q 2888 2694 3123 2891 
Q 3359 3088 3359 3513 
Q 3359 3941 3123 4136 
Q 2888 4331 2375 4331 
L 1581 4331 
L 1581 2694 
z
M 353 0 
L 353 331 
L 947 331 
L 947 4331 
L 353 4331 
L 353 4666 
L 2656 4666 
Q 3363 4666 3720 4377 
Q 4078 4088 4078 3513 
Q 4078 3097 3829 2850 
Q 3581 2603 3103 2547 
Q 3697 2472 4005 2167 
Q 4313 1863 4313 1350 
Q 4313 656 3875 328 
Q 3438 0 2509 0 
L 353 0 
z
" transform="scale(0.015625)"/>
       <path id="DejaVuSerif-56" d="M 359 184 
L 359 959 
L 691 959 
Q 703 588 923 403 
Q 1144 219 1575 219 
Q 1963 219 2166 364 
Q 2369 509 2369 788 
Q 2369 1006 2220 1140 
Q 2072 1275 1594 1428 
L 1178 1569 
Q 750 1706 558 1912 
Q 366 2119 366 2438 
Q 366 2894 700 3153 
Q 1034 3413 1625 3413 
Q 1888 3413 2178 3344 
Q 2469 3275 2778 3144 
L 2778 2419 
L 2447 2419 
Q 2434 2741 2221 2922 
Q 2009 3103 1644 3103 
Q 1281 3103 1095 2975 
Q 909 2847 909 2591 
Q 909 2381 1050 2254 
Q 1191 2128 1613 1997 
L 2069 1856 
Q 2541 1709 2748 1489 
Q 2956 1269 2956 922 
Q 2956 450 2595 179 
Q 2234 -91 1600 -91 
Q 1278 -91 972 -22 
Q 666 47 359 184 
z
" transform="scale(0.015625)"/>
       <path id="DejaVuSerif-3" transform="scale(0.015625)"/>
       <path id="DejaVuSerif-27" d="M 1581 331 
L 2163 331 
Q 3072 331 3558 850 
Q 4044 1369 4044 2338 
Q 4044 3306 3559 3818 
Q 3075 4331 2163 4331 
L 1581 4331 
L 1581 331 
z
M 353 0 
L 353 331 
L 947 331 
L 947 4331 
L 353 4331 
L 353 4666 
L 2209 4666 
Q 3416 4666 4089 4050 
Q 4763 3434 4763 2338 
Q 4763 1238 4088 619 
Q 3413 0 2209 0 
L 353 0 
z
" transform="scale(0.015625)"/>
       <path id="DejaVuSerif-46" d="M 3291 997 
Q 3169 466 2822 187 
Q 2475 -91 1925 -91 
Q 1200 -91 759 389 
Q 319 869 319 1663 
Q 319 2459 759 2936 
Q 1200 3413 1925 3413 
Q 2241 3413 2553 3339 
Q 2866 3266 3181 3116 
L 3181 2266 
L 2847 2266 
Q 2781 2703 2561 2903 
Q 2341 3103 1931 3103 
Q 1466 3103 1228 2742 
Q 991 2381 991 1663 
Q 991 944 1227 581 
Q 1463 219 1931 219 
Q 2303 219 2525 412 
Q 2747 606 2828 997 
L 3291 997 
z
" transform="scale(0.015625)"/>
      </defs>
      <use xlink:href="#DejaVuSerif-25"/>
      <use xlink:href="#DejaVuSerif-48" transform="translate(73.484375 0)"/>
      <use xlink:href="#DejaVuSerif-56" transform="translate(132.671875 0)"/>
      <use xlink:href="#DejaVuSerif-57" transform="translate(183.984375 0)"/>
      <use xlink:href="#DejaVuSerif-3" transform="translate(224.171875 0)"/>
      <use xlink:href="#DejaVuSerif-27" transform="translate(255.953125 0)"/>
      <use xlink:href="#DejaVuSerif-4c" transform="translate(336.125 0)"/>
      <use xlink:href="#DejaVuSerif-56" transform="translate(368.109375 0)"/>
      <use xlink:href="#DejaVuSerif-57" transform="translate(419.421875 0)"/>
      <use xlink:href="#DejaVuSerif-44" transform="translate(459.609375 0)"/>
      <use xlink:href="#DejaVuSerif-51" transform="translate(519.234375 0)"/>
      <use xlink:href="#DejaVuSerif-46" transform="translate(583.640625 0)"/>
      <use xlink:href="#DejaVuSerif-48" transform="translate(639.640625 0)"/>
     </g>
    </g>
   </g>
   <g id="line2d_29">
    <path d="M 50.510796 48.378412 
L 52.072825 79.037387 
L 53.634855 79.037387 
L 55.196884 82.619701 
L 56.758914 82.619701 
L 58.320943 94.646017 
L 59.882972 94.646017 
L 61.445002 101.223456 
L 63.007031 110.131244 
L 64.569061 110.131244 
L 66.13109 110.131244 
L 67.69312 113.80548 
L 69.255149 113.80548 
L 70.817179 138.170828 
L 72.379208 138.170828 
L 73.941238 138.170828 
L 75.503267 163.413595 
L 77.065296 163.413595 
L 78.627326 163.413595 
L 80.189355 163.413595 
L 81.751385 163.413595 
L 83.313414 163.413595 
L 84.875444 163.413595 
L 86.437473 163.413595 
L 87.999503 163.413595 
L 89.561532 163.413595 
L 91.123562 163.413595 
L 92.685591 163.413595 
L 94.24762 184.363667 
L 95.80965 184.363667 
L 97.371679 184.363667 
L 98.933709 184.363667 
L 100.495738 184.363667 
L 102.057768 184.363667 
L 103.619797 190.768162 
L 105.181827 190.768162 
L 106.743856 190.768162 
L 108.305885 190.768162 
L 109.867915 190.768162 
L 111.429944 190.768162 
L 112.991974 190.768162 
L 114.554003 190.768162 
L 116.116033 190.768162 
L 117.678062 190.768162 
L 119.240092 190.768162 
L 120.802121 190.768162 
L 122.364151 190.768162 
L 123.92618 190.768162 
L 125.488209 190.768162 
L 127.050239 190.768162 
L 128.612268 190.768162 
L 130.174298 190.768162 
L 131.736327 190.768162 
L 133.298357 195.107483 
L 134.860386 195.107483 
L 136.422416 195.107483 
L 137.984445 195.107483 
L 139.546475 195.107483 
L 141.108504 195.107483 
L 142.670533 200.110881 
L 144.232563 200.110881 
L 145.794592 200.110881 
L 147.356622 200.110881 
L 148.918651 200.110881 
L 150.480681 200.110881 
L 152.04271 200.110881 
L 153.60474 202.761016 
L 155.166769 202.761016 
L 156.728799 202.761016 
L 158.290828 202.761016 
L 159.852857 202.761016 
L 161.414887 202.761016 
L 162.976916 202.761016 
L 164.538946 202.761016 
L 166.100975 202.761016 
L 167.663005 202.761016 
L 169.225034 206.760506 
L 170.787064 206.760506 
L 172.349093 206.760506 
L 173.911122 206.760506 
L 175.473152 206.760506 
L 177.035181 206.760506 
L 178.597211 206.760506 
L 180.15924 206.760506 
L 181.72127 206.760506 
L 183.283299 206.760506 
L 184.845329 206.760506 
L 186.407358 206.760506 
L 187.969388 206.760506 
L 189.531417 206.760506 
L 191.093446 206.760506 
L 192.655476 206.760506 
L 194.217505 206.760506 
L 195.779535 206.760506 
L 197.341564 206.760506 
L 198.903594 206.760506 
L 200.465623 206.760506 
L 202.027653 206.760506 
L 203.589682 206.760506 
L 205.151712 206.760506 
" clip-path="url(#p25e8c5ec9a)" style="fill: none; stroke: #000000; stroke-width: 0.9; stroke-linecap: square"/>
   </g>
   <g id="line2d_30">
    <path d="M 50.510796 28.306642 
L 52.072825 32.033001 
L 53.634855 51.274186 
L 55.196884 51.274186 
L 56.758914 51.274186 
L 58.320943 51.274186 
L 59.882972 52.760776 
L 61.445002 52.760776 
L 63.007031 75.63076 
L 64.569061 75.63076 
L 66.13109 75.63076 
L 67.69312 86.193693 
L 69.255149 86.193693 
L 70.817179 86.193693 
L 72.379208 86.193693 
L 73.941238 86.193693 
L 75.503267 86.193693 
L 77.065296 86.193693 
L 78.627326 88.970573 
L 80.189355 88.970573 
L 81.751385 88.970573 
L 83.313414 88.970573 
L 84.875444 110.976857 
L 86.437473 110.976857 
L 87.999503 110.976857 
L 89.561532 110.976857 
L 91.123562 110.976857 
L 92.685591 110.976857 
L 94.24762 110.976857 
L 95.80965 110.976857 
L 97.371679 110.976857 
L 98.933709 110.976857 
L 100.495738 110.976857 
L 102.057768 110.976857 
L 103.619797 110.976857 
L 105.181827 110.976857 
L 106.743856 112.046046 
L 108.305885 112.046046 
L 109.867915 112.046046 
L 111.429944 112.046046 
L 112.991974 112.046046 
L 114.554003 112.046046 
L 116.116033 112.046046 
L 117.678062 112.046046 
L 119.240092 112.046046 
L 120.802121 112.046046 
L 122.364151 112.046046 
L 123.92618 112.046046 
L 125.488209 112.046046 
L 127.050239 119.655856 
L 128.612268 119.655856 
L 130.174298 119.655856 
L 131.736327 119.655856 
L 133.298357 119.655856 
L 134.860386 119.655856 
L 136.422416 119.655856 
L 137.984445 119.655856 
L 139.546475 119.655856 
L 141.108504 119.655856 
L 142.670533 119.655856 
L 144.232563 119.655856 
L 145.794592 119.655856 
L 147.356622 119.655856 
L 148.918651 119.655856 
L 150.480681 119.655856 
L 152.04271 119.655856 
L 153.60474 119.655856 
L 155.166769 119.655856 
L 156.728799 119.655856 
L 158.290828 119.655856 
L 159.852857 119.655856 
L 161.414887 119.655856 
L 162.976916 119.655856 
L 164.538946 119.655856 
L 166.100975 119.655856 
L 167.663005 119.655856 
L 169.225034 119.655856 
L 170.787064 119.655856 
L 172.349093 119.655856 
L 173.911122 119.655856 
L 175.473152 119.655856 
L 177.035181 119.655856 
L 178.597211 119.655856 
L 180.15924 119.655856 
L 181.72127 119.823569 
L 183.283299 119.823569 
L 184.845329 119.823569 
L 186.407358 119.823569 
L 187.969388 122.630649 
L 189.531417 122.630649 
L 191.093446 122.630649 
L 192.655476 122.630649 
L 194.217505 122.630649 
L 195.779535 122.630649 
L 197.341564 122.630649 
L 198.903594 122.630649 
L 200.465623 122.630649 
L 202.027653 122.630649 
L 203.589682 122.630649 
L 205.151712 122.630649 
" clip-path="url(#p25e8c5ec9a)" style="fill: none; stroke-dasharray: 3.33,1.44; stroke-dashoffset: 0; stroke: #000000; stroke-width: 0.9"/>
   </g>
   <g id="line2d_31">
    <path d="M 50.510796 48.378412 
L 52.072825 79.037387 
L 53.634855 79.037387 
L 55.196884 81.801886 
L 56.758914 86.795464 
L 58.320943 103.474726 
L 59.882972 103.474726 
L 61.445002 103.474726 
L 63.007031 103.474726 
L 64.569061 120.041834 
L 66.13109 120.041834 
L 67.69312 133.984076 
L 69.255149 145.968006 
L 70.817179 171.916657 
L 72.379208 171.916657 
L 73.941238 171.916657 
L 75.503267 171.916657 
L 77.065296 176.222258 
L 78.627326 179.285505 
L 80.189355 179.285505 
L 81.751385 179.285505 
L 83.313414 179.285505 
L 84.875444 179.285505 
L 86.437473 179.285505 
L 87.999503 179.285505 
L 89.561532 179.285505 
L 91.123562 187.917246 
L 92.685591 187.917246 
L 94.24762 203.421862 
L 95.80965 203.421862 
L 97.371679 208.331245 
L 98.933709 208.331245 
L 100.495738 208.331245 
L 102.057768 208.331245 
L 103.619797 208.331245 
L 105.181827 208.331245 
L 106.743856 208.331245 
L 108.305885 210.27668 
L 109.867915 210.27668 
L 111.429944 213.315056 
L 112.991974 213.315056 
L 114.554003 213.315056 
L 116.116033 213.315056 
L 117.678062 213.315056 
L 119.240092 213.315056 
L 120.802121 213.315056 
L 122.364151 215.307039 
L 123.92618 215.307039 
L 125.488209 215.307039 
L 127.050239 215.307039 
L 128.612268 215.307039 
L 130.174298 215.307039 
L 131.736327 215.307039 
L 133.298357 215.307039 
L 134.860386 215.307039 
L 136.422416 215.307039 
L 137.984445 215.307039 
L 139.546475 215.307039 
L 141.108504 215.307039 
L 142.670533 215.307039 
L 144.232563 215.307039 
L 145.794592 215.307039 
L 147.356622 215.307039 
L 148.918651 215.307039 
L 150.480681 215.307039 
L 152.04271 215.307039 
L 153.60474 215.307039 
L 155.166769 215.307039 
L 156.728799 215.307039 
L 158.290828 215.307039 
L 159.852857 215.307039 
L 161.414887 215.307039 
L 162.976916 215.307039 
L 164.538946 215.307039 
L 166.100975 215.307039 
L 167.663005 215.307039 
L 169.225034 215.307039 
L 170.787064 215.307039 
L 172.349093 215.307039 
L 173.911122 215.307039 
L 175.473152 215.307039 
L 177.035181 215.307039 
L 178.597211 215.307039 
L 180.15924 215.307039 
L 181.72127 215.307039 
L 183.283299 215.307039 
L 184.845329 215.307039 
L 186.407358 215.307039 
L 187.969388 215.307039 
L 189.531417 215.307039 
L 191.093446 220.095733 
L 192.655476 220.095733 
L 194.217505 220.095733 
L 195.779535 220.095733 
L 197.341564 220.095733 
L 198.903594 220.095733 
L 200.465623 220.095733 
L 202.027653 220.095733 
L 203.589682 220.095733 
L 205.151712 220.095733 
" clip-path="url(#p25e8c5ec9a)" style="fill: none; stroke-dasharray: 5.76,1.44,0.9,1.44; stroke-dashoffset: 0; stroke: #000000; stroke-width: 0.9"/>
   </g>
   <g id="line2d_32">
    <path d="M 50.510796 28.306642 
L 52.072825 32.033001 
L 53.634855 52.818312 
L 55.196884 52.818312 
L 56.758914 52.818312 
L 58.320943 52.818312 
L 59.882972 52.818312 
L 61.445002 52.818312 
L 63.007031 52.818312 
L 64.569061 52.818312 
L 66.13109 77.526834 
L 67.69312 77.526834 
L 69.255149 77.526834 
L 70.817179 77.526834 
L 72.379208 86.00781 
L 73.941238 86.00781 
L 75.503267 86.00781 
L 77.065296 95.863988 
L 78.627326 95.863988 
L 80.189355 95.863988 
L 81.751385 95.863988 
L 83.313414 95.863988 
L 84.875444 95.863988 
L 86.437473 109.354481 
L 87.999503 109.354481 
L 89.561532 109.354481 
L 91.123562 109.354481 
L 92.685591 132.098395 
L 94.24762 133.434207 
L 95.80965 167.864103 
L 97.371679 167.864103 
L 98.933709 167.864103 
L 100.495738 167.864103 
L 102.057768 167.864103 
L 103.619797 167.864103 
L 105.181827 167.864103 
L 106.743856 167.864103 
L 108.305885 167.864103 
L 109.867915 167.864103 
L 111.429944 167.864103 
L 112.991974 167.864103 
L 114.554003 167.864103 
L 116.116033 168.997597 
L 117.678062 168.997597 
L 119.240092 168.997597 
L 120.802121 168.997597 
L 122.364151 168.997597 
L 123.92618 168.997597 
L 125.488209 168.997597 
L 127.050239 168.997597 
L 128.612268 168.997597 
L 130.174298 168.997597 
L 131.736327 168.997597 
L 133.298357 172.940604 
L 134.860386 195.154485 
L 136.422416 199.162632 
L 137.984445 199.162632 
L 139.546475 199.162632 
L 141.108504 199.162632 
L 142.670533 199.162632 
L 144.232563 199.162632 
L 145.794592 199.162632 
L 147.356622 199.162632 
L 148.918651 199.162632 
L 150.480681 199.162632 
L 152.04271 199.162632 
L 153.60474 199.162632 
L 155.166769 199.162632 
L 156.728799 199.162632 
L 158.290828 199.162632 
L 159.852857 200.970069 
L 161.414887 200.970069 
L 162.976916 200.970069 
L 164.538946 200.970069 
L 166.100975 200.970069 
L 167.663005 200.970069 
L 169.225034 200.970069 
L 170.787064 200.970069 
L 172.349093 200.970069 
L 173.911122 200.970069 
L 175.473152 200.970069 
L 177.035181 200.970069 
L 178.597211 200.970069 
L 180.15924 200.970069 
L 181.72127 200.970069 
L 183.283299 200.970069 
L 184.845329 200.970069 
L 186.407358 200.970069 
L 187.969388 200.970069 
L 189.531417 200.970069 
L 191.093446 200.970069 
L 192.655476 200.970069 
L 194.217505 200.970069 
L 195.779535 200.970069 
L 197.341564 200.970069 
L 198.903594 200.970069 
L 200.465623 200.970069 
L 202.027653 200.970069 
L 203.589682 200.970069 
L 205.151712 200.970069 
" clip-path="url(#p25e8c5ec9a)" style="fill: none; stroke-dasharray: 0.9,1.485; stroke-dashoffset: 0; stroke: #000000; stroke-width: 0.9"/>
   </g>
   <g id="patch_3">
    <path d="M 42.77875 229.685188 
L 42.77875 18.717188 
" style="fill: none; stroke: #000000; stroke-width: 0.8; stroke-linejoin: miter; stroke-linecap: square"/>
   </g>
   <g id="patch_4">
    <path d="M 42.77875 229.685188 
L 212.883757 229.685188 
" style="fill: none; stroke: #000000; stroke-width: 0.8; stroke-linejoin: miter; stroke-linecap: square"/>
   </g>
   <g id="text_17">
    <!-- Size = 25 -->
    <g transform="translate(98.613129 12.717187) scale(0.12 -0.12)">
     <defs>
      <path id="DejaVuSerif-36" d="M 594 225 
L 594 1288 
L 953 1284 
Q 969 753 1261 498 
Q 1553 244 2150 244 
Q 2706 244 2998 464 
Q 3291 684 3291 1106 
Q 3291 1444 3114 1625 
Q 2938 1806 2369 1978 
L 1753 2163 
Q 1084 2366 811 2669 
Q 538 2972 538 3500 
Q 538 4094 959 4422 
Q 1381 4750 2144 4750 
Q 2469 4750 2856 4679 
Q 3244 4609 3681 4475 
L 3681 3481 
L 3328 3481 
Q 3275 3975 2998 4195 
Q 2722 4416 2156 4416 
Q 1663 4416 1405 4214 
Q 1147 4013 1147 3628 
Q 1147 3294 1340 3103 
Q 1534 2913 2163 2725 
L 2741 2553 
Q 3375 2363 3645 2067 
Q 3916 1772 3916 1275 
Q 3916 597 3481 253 
Q 3047 -91 2188 -91 
Q 1803 -91 1404 -12 
Q 1006 66 594 225 
z
" transform="scale(0.015625)"/>
      <path id="DejaVuSerif-5d" d="M 256 0 
L 256 269 
L 2338 2988 
L 691 2988 
L 691 2413 
L 359 2413 
L 359 3322 
L 3078 3322 
L 3078 3053 
L 997 331 
L 2803 331 
L 2803 934 
L 3138 934 
L 3138 0 
L 256 0 
z
" transform="scale(0.015625)"/>
      <path id="DejaVuSerif-20" d="M 678 2894 
L 4684 2894 
L 4684 2394 
L 678 2394 
L 678 2894 
z
M 678 1619 
L 4684 1619 
L 4684 1119 
L 678 1119 
L 678 1619 
z
" transform="scale(0.015625)"/>
     </defs>
     <use xlink:href="#DejaVuSerif-36"/>
     <use xlink:href="#DejaVuSerif-4c" transform="translate(68.5 0)"/>
     <use xlink:href="#DejaVuSerif-5d" transform="translate(100.484375 0)"/>
     <use xlink:href="#DejaVuSerif-48" transform="translate(153.171875 0)"/>
     <use xlink:href="#DejaVuSerif-3" transform="translate(212.359375 0)"/>
     <use xlink:href="#DejaVuSerif-20" transform="translate(244.140625 0)"/>
     <use xlink:href="#DejaVuSerif-3" transform="translate(327.9375 0)"/>
     <use xlink:href="#DejaVuSerif-15" transform="translate(359.71875 0)"/>
     <use xlink:href="#DejaVuSerif-18" transform="translate(423.34375 0)"/>
    </g>
   </g>
  </g>
  <g id="axes_2">
   <g id="patch_5">
    <path d="M 362.187423 229.685188 
L 532.29243 229.685188 
L 532.29243 18.717187 
L 362.187423 18.717187 
z
" style="fill: #ffffff"/>
   </g>
   <g id="matplotlib.axis_3">
    <g id="xtick_7">
     <g id="line2d_33">
      <path d="M 369.919469 229.685188 
L 369.919469 18.717187 
" clip-path="url(#p7ebe67575a)" style="fill: none; stroke-dasharray: 0.5,0.825; stroke-dashoffset: 0; stroke: #bfbfbf; stroke-opacity: 0.7; stroke-width: 0.5"/>
     </g>
     <g id="line2d_34">
      <g>
       <use xlink:href="#mf1bba918f7" x="369.919469" y="229.685188" style="stroke: #000000; stroke-width: 0.8"/>
      </g>
     </g>
     <g id="text_18">
      <!-- 0 -->
      <g transform="translate(367.056344 243.523078) scale(0.09 -0.09)">
       <use xlink:href="#DejaVuSerif-13"/>
      </g>
     </g>
    </g>
    <g id="xtick_8">
     <g id="line2d_35">
      <path d="M 401.160058 229.685188 
L 401.160058 18.717187 
" clip-path="url(#p7ebe67575a)" style="fill: none; stroke-dasharray: 0.5,0.825; stroke-dashoffset: 0; stroke: #bfbfbf; stroke-opacity: 0.7; stroke-width: 0.5"/>
     </g>
     <g id="line2d_36">
      <g>
       <use xlink:href="#mf1bba918f7" x="401.160058" y="229.685188" style="stroke: #000000; stroke-width: 0.8"/>
      </g>
     </g>
     <g id="text_19">
      <!-- 20 -->
      <g transform="translate(395.433808 243.523078) scale(0.09 -0.09)">
       <use xlink:href="#DejaVuSerif-15"/>
       <use xlink:href="#DejaVuSerif-13" transform="translate(63.625 0)"/>
      </g>
     </g>
    </g>
    <g id="xtick_9">
     <g id="line2d_37">
      <path d="M 432.400647 229.685188 
L 432.400647 18.717187 
" clip-path="url(#p7ebe67575a)" style="fill: none; stroke-dasharray: 0.5,0.825; stroke-dashoffset: 0; stroke: #bfbfbf; stroke-opacity: 0.7; stroke-width: 0.5"/>
     </g>
     <g id="line2d_38">
      <g>
       <use xlink:href="#mf1bba918f7" x="432.400647" y="229.685188" style="stroke: #000000; stroke-width: 0.8"/>
      </g>
     </g>
     <g id="text_20">
      <!-- 40 -->
      <g transform="translate(426.674397 243.523078) scale(0.09 -0.09)">
       <use xlink:href="#DejaVuSerif-17"/>
       <use xlink:href="#DejaVuSerif-13" transform="translate(63.625 0)"/>
      </g>
     </g>
    </g>
    <g id="xtick_10">
     <g id="line2d_39">
      <path d="M 463.641236 229.685188 
L 463.641236 18.717187 
" clip-path="url(#p7ebe67575a)" style="fill: none; stroke-dasharray: 0.5,0.825; stroke-dashoffset: 0; stroke: #bfbfbf; stroke-opacity: 0.7; stroke-width: 0.5"/>
     </g>
     <g id="line2d_40">
      <g>
       <use xlink:href="#mf1bba918f7" x="463.641236" y="229.685188" style="stroke: #000000; stroke-width: 0.8"/>
      </g>
     </g>
     <g id="text_21">
      <!-- 60 -->
      <g transform="translate(457.914986 243.523078) scale(0.09 -0.09)">
       <use xlink:href="#DejaVuSerif-19"/>
       <use xlink:href="#DejaVuSerif-13" transform="translate(63.625 0)"/>
      </g>
     </g>
    </g>
    <g id="xtick_11">
     <g id="line2d_41">
      <path d="M 494.881825 229.685188 
L 494.881825 18.717187 
" clip-path="url(#p7ebe67575a)" style="fill: none; stroke-dasharray: 0.5,0.825; stroke-dashoffset: 0; stroke: #bfbfbf; stroke-opacity: 0.7; stroke-width: 0.5"/>
     </g>
     <g id="line2d_42">
      <g>
       <use xlink:href="#mf1bba918f7" x="494.881825" y="229.685188" style="stroke: #000000; stroke-width: 0.8"/>
      </g>
     </g>
     <g id="text_22">
      <!-- 80 -->
      <g transform="translate(489.155575 243.523078) scale(0.09 -0.09)">
       <use xlink:href="#DejaVuSerif-1b"/>
       <use xlink:href="#DejaVuSerif-13" transform="translate(63.625 0)"/>
      </g>
     </g>
    </g>
    <g id="xtick_12">
     <g id="line2d_43">
      <path d="M 526.122414 229.685188 
L 526.122414 18.717187 
" clip-path="url(#p7ebe67575a)" style="fill: none; stroke-dasharray: 0.5,0.825; stroke-dashoffset: 0; stroke: #bfbfbf; stroke-opacity: 0.7; stroke-width: 0.5"/>
     </g>
     <g id="line2d_44">
      <g>
       <use xlink:href="#mf1bba918f7" x="526.122414" y="229.685188" style="stroke: #000000; stroke-width: 0.8"/>
      </g>
     </g>
     <g id="text_23">
      <!-- 100 -->
      <g transform="translate(517.533039 243.523078) scale(0.09 -0.09)">
       <use xlink:href="#DejaVuSerif-14"/>
       <use xlink:href="#DejaVuSerif-13" transform="translate(63.625 0)"/>
       <use xlink:href="#DejaVuSerif-13" transform="translate(127.25 0)"/>
      </g>
     </g>
    </g>
    <g id="text_24">
     <!-- Iteration -->
     <g transform="translate(422.87063 258.042609) scale(0.11 -0.11)">
      <use xlink:href="#DejaVuSerif-2c"/>
      <use xlink:href="#DejaVuSerif-57" transform="translate(39.5 0)"/>
      <use xlink:href="#DejaVuSerif-48" transform="translate(79.6875 0)"/>
      <use xlink:href="#DejaVuSerif-55" transform="translate(138.875 0)"/>
      <use xlink:href="#DejaVuSerif-44" transform="translate(186.671875 0)"/>
      <use xlink:href="#DejaVuSerif-57" transform="translate(246.296875 0)"/>
      <use xlink:href="#DejaVuSerif-4c" transform="translate(286.484375 0)"/>
      <use xlink:href="#DejaVuSerif-52" transform="translate(318.46875 0)"/>
      <use xlink:href="#DejaVuSerif-51" transform="translate(378.671875 0)"/>
     </g>
    </g>
   </g>
   <g id="matplotlib.axis_4">
    <g id="ytick_9">
     <g id="line2d_45">
      <path d="M 362.187423 219.963315 
L 532.29243 219.963315 
" clip-path="url(#p7ebe67575a)" style="fill: none; stroke-dasharray: 0.5,0.825; stroke-dashoffset: 0; stroke: #bfbfbf; stroke-opacity: 0.7; stroke-width: 0.5"/>
     </g>
     <g id="line2d_46">
      <g>
       <use xlink:href="#m3643cdf425" x="362.187423" y="219.963315" style="stroke: #000000; stroke-width: 0.8"/>
      </g>
     </g>
     <g id="text_25">
      <!-- 400 -->
      <g transform="translate(338.008673 223.382261) scale(0.09 -0.09)">
       <use xlink:href="#DejaVuSerif-17"/>
       <use xlink:href="#DejaVuSerif-13" transform="translate(63.625 0)"/>
       <use xlink:href="#DejaVuSerif-13" transform="translate(127.25 0)"/>
      </g>
     </g>
    </g>
    <g id="ytick_10">
     <g id="line2d_47">
      <path d="M 362.187423 177.915555 
L 532.29243 177.915555 
" clip-path="url(#p7ebe67575a)" style="fill: none; stroke-dasharray: 0.5,0.825; stroke-dashoffset: 0; stroke: #bfbfbf; stroke-opacity: 0.7; stroke-width: 0.5"/>
     </g>
     <g id="line2d_48">
      <g>
       <use xlink:href="#m3643cdf425" x="362.187423" y="177.915555" style="stroke: #000000; stroke-width: 0.8"/>
      </g>
     </g>
     <g id="text_26">
      <!-- 420 -->
      <g transform="translate(338.008673 181.3345) scale(0.09 -0.09)">
       <use xlink:href="#DejaVuSerif-17"/>
       <use xlink:href="#DejaVuSerif-15" transform="translate(63.625 0)"/>
       <use xlink:href="#DejaVuSerif-13" transform="translate(127.25 0)"/>
      </g>
     </g>
    </g>
    <g id="ytick_11">
     <g id="line2d_49">
      <path d="M 362.187423 135.867794 
L 532.29243 135.867794 
" clip-path="url(#p7ebe67575a)" style="fill: none; stroke-dasharray: 0.5,0.825; stroke-dashoffset: 0; stroke: #bfbfbf; stroke-opacity: 0.7; stroke-width: 0.5"/>
     </g>
     <g id="line2d_50">
      <g>
       <use xlink:href="#m3643cdf425" x="362.187423" y="135.867794" style="stroke: #000000; stroke-width: 0.8"/>
      </g>
     </g>
     <g id="text_27">
      <!-- 440 -->
      <g transform="translate(338.008673 139.286739) scale(0.09 -0.09)">
       <use xlink:href="#DejaVuSerif-17"/>
       <use xlink:href="#DejaVuSerif-17" transform="translate(63.625 0)"/>
       <use xlink:href="#DejaVuSerif-13" transform="translate(127.25 0)"/>
      </g>
     </g>
    </g>
    <g id="ytick_12">
     <g id="line2d_51">
      <path d="M 362.187423 93.820033 
L 532.29243 93.820033 
" clip-path="url(#p7ebe67575a)" style="fill: none; stroke-dasharray: 0.5,0.825; stroke-dashoffset: 0; stroke: #bfbfbf; stroke-opacity: 0.7; stroke-width: 0.5"/>
     </g>
     <g id="line2d_52">
      <g>
       <use xlink:href="#m3643cdf425" x="362.187423" y="93.820033" style="stroke: #000000; stroke-width: 0.8"/>
      </g>
     </g>
     <g id="text_28">
      <!-- 460 -->
      <g transform="translate(338.008673 97.238979) scale(0.09 -0.09)">
       <use xlink:href="#DejaVuSerif-17"/>
       <use xlink:href="#DejaVuSerif-19" transform="translate(63.625 0)"/>
       <use xlink:href="#DejaVuSerif-13" transform="translate(127.25 0)"/>
      </g>
     </g>
    </g>
    <g id="ytick_13">
     <g id="line2d_53">
      <path d="M 362.187423 51.772273 
L 532.29243 51.772273 
" clip-path="url(#p7ebe67575a)" style="fill: none; stroke-dasharray: 0.5,0.825; stroke-dashoffset: 0; stroke: #bfbfbf; stroke-opacity: 0.7; stroke-width: 0.5"/>
     </g>
     <g id="line2d_54">
      <g>
       <use xlink:href="#m3643cdf425" x="362.187423" y="51.772273" style="stroke: #000000; stroke-width: 0.8"/>
      </g>
     </g>
     <g id="text_29">
      <!-- 480 -->
      <g transform="translate(338.008673 55.191218) scale(0.09 -0.09)">
       <use xlink:href="#DejaVuSerif-17"/>
       <use xlink:href="#DejaVuSerif-1b" transform="translate(63.625 0)"/>
       <use xlink:href="#DejaVuSerif-13" transform="translate(127.25 0)"/>
      </g>
     </g>
    </g>
   </g>
   <g id="line2d_55">
    <path d="M 369.919469 28.306642 
L 371.481498 89.631915 
L 373.043528 89.631915 
L 374.605557 89.631915 
L 376.167586 118.556051 
L 377.729616 118.556051 
L 379.291645 118.556051 
L 380.853675 118.556051 
L 382.415704 118.556051 
L 383.977734 118.556051 
L 385.539763 118.556051 
L 387.101793 118.556051 
L 388.663822 133.362184 
L 390.225851 133.362184 
L 391.787881 133.362184 
L 393.34991 133.362184 
L 394.91194 133.362184 
L 396.473969 133.362184 
L 398.035999 133.362184 
L 399.598028 133.362184 
L 401.160058 133.362184 
L 402.722087 156.474296 
L 404.284117 156.474296 
L 405.846146 156.474296 
L 407.408175 156.474296 
L 408.970205 156.474296 
L 410.532234 156.474296 
L 412.094264 156.474296 
L 413.656293 156.474296 
L 415.218323 167.363926 
L 416.780352 167.363926 
L 418.342382 167.363926 
L 419.904411 167.363926 
L 421.466441 167.363926 
L 423.02847 167.363926 
L 424.590499 167.363926 
L 426.152529 167.363926 
L 427.714558 167.363926 
L 429.276588 167.363926 
L 430.838617 167.363926 
L 432.400647 167.363926 
L 433.962676 167.363926 
L 435.524706 167.363926 
L 437.086735 167.363926 
L 438.648764 169.658509 
L 440.210794 169.658509 
L 441.772823 169.658509 
L 443.334853 169.658509 
L 444.896882 169.658509 
L 446.458912 169.658509 
L 448.020941 169.658509 
L 449.582971 169.658509 
L 451.145 178.645529 
L 452.70703 178.645529 
L 454.269059 178.645529 
L 455.831088 178.645529 
L 457.393118 178.645529 
L 458.955147 178.645529 
L 460.517177 178.645529 
L 462.079206 178.645529 
L 463.641236 178.645529 
L 465.203265 178.645529 
L 466.765295 178.645529 
L 468.327324 178.645529 
L 469.889354 178.645529 
L 471.451383 178.645529 
L 473.013412 178.645529 
L 474.575442 178.645529 
L 476.137471 178.645529 
L 477.699501 178.645529 
L 479.26153 178.645529 
L 480.82356 178.645529 
L 482.385589 185.785891 
L 483.947619 185.785891 
L 485.509648 185.785891 
L 487.071677 185.785891 
L 488.633707 185.785891 
L 490.195736 185.785891 
L 491.757766 191.588878 
L 493.319795 191.588878 
L 494.881825 191.588878 
L 496.443854 191.588878 
L 498.005884 191.588878 
L 499.567913 198.233639 
L 501.129943 198.233639 
L 502.691972 198.233639 
L 504.254001 198.233639 
L 505.816031 198.233639 
L 507.37806 198.233639 
L 508.94009 198.233639 
L 510.502119 198.233639 
L 512.064149 198.233639 
L 513.626178 198.80245 
L 515.188208 198.80245 
L 516.750237 198.80245 
L 518.312267 205.937816 
L 519.874296 205.937816 
L 521.436325 205.937816 
L 522.998355 205.937816 
L 524.560384 211.597585 
" clip-path="url(#p7ebe67575a)" style="fill: none; stroke: #000000; stroke-width: 0.9; stroke-linecap: square"/>
   </g>
   <g id="line2d_56">
    <path d="M 369.919469 119.736657 
L 371.481498 123.039275 
L 373.043528 137.013379 
L 374.605557 137.013379 
L 376.167586 148.370433 
L 377.729616 148.370433 
L 379.291645 148.370433 
L 380.853675 152.498322 
L 382.415704 152.498322 
L 383.977734 152.498322 
L 385.539763 152.498322 
L 387.101793 152.498322 
L 388.663822 152.498322 
L 390.225851 152.498322 
L 391.787881 152.498322 
L 393.34991 152.498322 
L 394.91194 152.498322 
L 396.473969 152.498322 
L 398.035999 152.498322 
L 399.598028 152.498322 
L 401.160058 152.498322 
L 402.722087 152.498322 
L 404.284117 152.498322 
L 405.846146 152.498322 
L 407.408175 152.498322 
L 408.970205 152.498322 
L 410.532234 152.498322 
L 412.094264 152.498322 
L 413.656293 152.498322 
L 415.218323 152.498322 
L 416.780352 152.498322 
L 418.342382 152.498322 
L 419.904411 152.627245 
L 421.466441 153.23024 
L 423.02847 153.23024 
L 424.590499 153.23024 
L 426.152529 153.23024 
L 427.714558 153.23024 
L 429.276588 153.23024 
L 430.838617 153.23024 
L 432.400647 153.23024 
L 433.962676 153.23024 
L 435.524706 153.23024 
L 437.086735 153.23024 
L 438.648764 153.23024 
L 440.210794 153.23024 
L 441.772823 156.06802 
L 443.334853 156.06802 
L 444.896882 156.06802 
L 446.458912 174.900043 
L 448.020941 174.900043 
L 449.582971 174.900043 
L 451.145 174.900043 
L 452.70703 177.565772 
L 454.269059 177.565772 
L 455.831088 177.565772 
L 457.393118 177.565772 
L 458.955147 177.565772 
L 460.517177 177.565772 
L 462.079206 177.565772 
L 463.641236 177.565772 
L 465.203265 177.565772 
L 466.765295 177.565772 
L 468.327324 177.565772 
L 469.889354 177.565772 
L 471.451383 177.565772 
L 473.013412 179.785267 
L 474.575442 179.785267 
L 476.137471 179.785267 
L 477.699501 179.785267 
L 479.26153 179.785267 
L 480.82356 179.785267 
L 482.385589 179.785267 
L 483.947619 179.785267 
L 485.509648 179.785267 
L 487.071677 179.785267 
L 488.633707 183.887635 
L 490.195736 183.887635 
L 491.757766 183.887635 
L 493.319795 183.887635 
L 494.881825 183.887635 
L 496.443854 183.887635 
L 498.005884 183.887635 
L 499.567913 212.624102 
L 501.129943 212.624102 
L 502.691972 212.624102 
L 504.254001 212.624102 
L 505.816031 212.624102 
L 507.37806 212.624102 
L 508.94009 212.624102 
L 510.502119 212.624102 
L 512.064149 212.624102 
L 513.626178 212.624102 
L 515.188208 212.624102 
L 516.750237 212.624102 
L 518.312267 212.624102 
L 519.874296 212.624102 
L 521.436325 212.624102 
L 522.998355 212.624102 
L 524.560384 212.624102 
" clip-path="url(#p7ebe67575a)" style="fill: none; stroke-dasharray: 3.33,1.44; stroke-dashoffset: 0; stroke: #000000; stroke-width: 0.9"/>
   </g>
   <g id="line2d_57">
    <path d="M 369.919469 28.306642 
L 371.481498 89.631915 
L 373.043528 89.631915 
L 374.605557 89.631915 
L 376.167586 89.631915 
L 377.729616 89.631915 
L 379.291645 106.668687 
L 380.853675 106.668687 
L 382.415704 106.668687 
L 383.977734 106.668687 
L 385.539763 106.668687 
L 387.101793 106.668687 
L 388.663822 106.668687 
L 390.225851 106.668687 
L 391.787881 106.668687 
L 393.34991 106.668687 
L 394.91194 106.668687 
L 396.473969 106.668687 
L 398.035999 115.730569 
L 399.598028 130.277958 
L 401.160058 136.312624 
L 402.722087 137.080173 
L 404.284117 137.080173 
L 405.846146 156.849444 
L 407.408175 165.443624 
L 408.970205 165.443624 
L 410.532234 167.049158 
L 412.094264 172.21904 
L 413.656293 172.21904 
L 415.218323 200.47567 
L 416.780352 201.394966 
L 418.342382 201.394966 
L 419.904411 201.394966 
L 421.466441 201.394966 
L 423.02847 201.394966 
L 424.590499 201.394966 
L 426.152529 201.394966 
L 427.714558 201.394966 
L 429.276588 201.394966 
L 430.838617 201.394966 
L 432.400647 201.394966 
L 433.962676 201.394966 
L 435.524706 201.394966 
L 437.086735 201.394966 
L 438.648764 201.394966 
L 440.210794 201.394966 
L 441.772823 201.394966 
L 443.334853 201.394966 
L 444.896882 201.394966 
L 446.458912 201.394966 
L 448.020941 201.394966 
L 449.582971 202.878016 
L 451.145 204.63373 
L 452.70703 204.63373 
L 454.269059 204.63373 
L 455.831088 206.144158 
L 457.393118 206.34036 
L 458.955147 206.34036 
L 460.517177 206.34036 
L 462.079206 206.34036 
L 463.641236 206.34036 
L 465.203265 206.34036 
L 466.765295 206.34036 
L 468.327324 209.511923 
L 469.889354 209.511923 
L 471.451383 209.511923 
L 473.013412 209.511923 
L 474.575442 209.511923 
L 476.137471 209.511923 
L 477.699501 209.511923 
L 479.26153 209.511923 
L 480.82356 209.511923 
L 482.385589 209.511923 
L 483.947619 209.511923 
L 485.509648 209.511923 
L 487.071677 209.511923 
L 488.633707 209.511923 
L 490.195736 209.511923 
L 491.757766 209.511923 
L 493.319795 209.511923 
L 494.881825 209.511923 
L 496.443854 209.511923 
L 498.005884 209.511923 
L 499.567913 209.511923 
L 501.129943 209.511923 
L 502.691972 209.511923 
L 504.254001 209.511923 
L 505.816031 209.511923 
L 507.37806 209.511923 
L 508.94009 209.511923 
L 510.502119 209.511923 
L 512.064149 209.511923 
L 513.626178 209.511923 
L 515.188208 209.511923 
L 516.750237 209.511923 
L 518.312267 209.511923 
L 519.874296 209.511923 
L 521.436325 209.511923 
L 522.998355 209.511923 
L 524.560384 209.511923 
" clip-path="url(#p7ebe67575a)" style="fill: none; stroke-dasharray: 5.76,1.44,0.9,1.44; stroke-dashoffset: 0; stroke: #000000; stroke-width: 0.9"/>
   </g>
   <g id="line2d_58">
    <path d="M 369.919469 119.736657 
L 371.481498 123.039275 
L 373.043528 137.013379 
L 374.605557 137.013379 
L 376.167586 148.370433 
L 377.729616 148.370433 
L 379.291645 148.370433 
L 380.853675 152.498322 
L 382.415704 152.498322 
L 383.977734 152.498322 
L 385.539763 165.696122 
L 387.101793 165.696122 
L 388.663822 165.696122 
L 390.225851 165.696122 
L 391.787881 165.696122 
L 393.34991 165.696122 
L 394.91194 165.696122 
L 396.473969 165.696122 
L 398.035999 165.696122 
L 399.598028 174.118099 
L 401.160058 175.571289 
L 402.722087 183.808634 
L 404.284117 183.808634 
L 405.846146 183.808634 
L 407.408175 186.52339 
L 408.970205 186.807924 
L 410.532234 186.807924 
L 412.094264 186.807924 
L 413.656293 189.771832 
L 415.218323 216.839664 
L 416.780352 216.839664 
L 418.342382 216.839664 
L 419.904411 216.839664 
L 421.466441 220.095733 
L 423.02847 220.095733 
L 424.590499 220.095733 
L 426.152529 220.095733 
L 427.714558 220.095733 
L 429.276588 220.095733 
L 430.838617 220.095733 
L 432.400647 220.095733 
L 433.962676 220.095733 
L 435.524706 220.095733 
L 437.086735 220.095733 
L 438.648764 220.095733 
L 440.210794 220.095733 
L 441.772823 220.095733 
L 443.334853 220.095733 
L 444.896882 220.095733 
L 446.458912 220.095733 
L 448.020941 220.095733 
L 449.582971 220.095733 
L 451.145 220.095733 
L 452.70703 220.095733 
L 454.269059 220.095733 
L 455.831088 220.095733 
L 457.393118 220.095733 
L 458.955147 220.095733 
L 460.517177 220.095733 
L 462.079206 220.095733 
L 463.641236 220.095733 
L 465.203265 220.095733 
L 466.765295 220.095733 
L 468.327324 220.095733 
L 469.889354 220.095733 
L 471.451383 220.095733 
L 473.013412 220.095733 
L 474.575442 220.095733 
L 476.137471 220.095733 
L 477.699501 220.095733 
L 479.26153 220.095733 
L 480.82356 220.095733 
L 482.385589 220.095733 
L 483.947619 220.095733 
L 485.509648 220.095733 
L 487.071677 220.095733 
L 488.633707 220.095733 
L 490.195736 220.095733 
L 491.757766 220.095733 
L 493.319795 220.095733 
L 494.881825 220.095733 
L 496.443854 220.095733 
L 498.005884 220.095733 
L 499.567913 220.095733 
L 501.129943 220.095733 
L 502.691972 220.095733 
L 504.254001 220.095733 
L 505.816031 220.095733 
L 507.37806 220.095733 
L 508.94009 220.095733 
L 510.502119 220.095733 
L 512.064149 220.095733 
L 513.626178 220.095733 
L 515.188208 220.095733 
L 516.750237 220.095733 
L 518.312267 220.095733 
L 519.874296 220.095733 
L 521.436325 220.095733 
L 522.998355 220.095733 
L 524.560384 220.095733 
" clip-path="url(#p7ebe67575a)" style="fill: none; stroke-dasharray: 0.9,1.485; stroke-dashoffset: 0; stroke: #000000; stroke-width: 0.9"/>
   </g>
   <g id="patch_6">
    <path d="M 362.187423 229.685188 
L 362.187423 18.717188 
" style="fill: none; stroke: #000000; stroke-width: 0.8; stroke-linejoin: miter; stroke-linecap: square"/>
   </g>
   <g id="patch_7">
    <path d="M 362.187423 229.685188 
L 532.29243 229.685188 
" style="fill: none; stroke: #000000; stroke-width: 0.8; stroke-linejoin: miter; stroke-linecap: square"/>
   </g>
   <g id="text_30">
    <!-- Size = 50 -->
    <g transform="translate(418.021801 12.717187) scale(0.12 -0.12)">
     <use xlink:href="#DejaVuSerif-36"/>
     <use xlink:href="#DejaVuSerif-4c" transform="translate(68.5 0)"/>
     <use xlink:href="#DejaVuSerif-5d" transform="translate(100.484375 0)"/>
     <use xlink:href="#DejaVuSerif-48" transform="translate(153.171875 0)"/>
     <use xlink:href="#DejaVuSerif-3" transform="translate(212.359375 0)"/>
     <use xlink:href="#DejaVuSerif-20" transform="translate(244.140625 0)"/>
     <use xlink:href="#DejaVuSerif-3" transform="translate(327.9375 0)"/>
     <use xlink:href="#DejaVuSerif-18" transform="translate(359.71875 0)"/>
     <use xlink:href="#DejaVuSerif-13" transform="translate(423.34375 0)"/>
    </g>
   </g>
  </g>
  <g id="axes_3">
   <g id="patch_8">
    <path d="M 681.596096 229.685188 
L 851.701103 229.685188 
L 851.701103 18.717187 
L 681.596096 18.717187 
z
" style="fill: #ffffff"/>
   </g>
   <g id="matplotlib.axis_5">
    <g id="xtick_13">
     <g id="line2d_59">
      <path d="M 689.328141 229.685188 
L 689.328141 18.717187 
" clip-path="url(#pea290615ef)" style="fill: none; stroke-dasharray: 0.5,0.825; stroke-dashoffset: 0; stroke: #bfbfbf; stroke-opacity: 0.7; stroke-width: 0.5"/>
     </g>
     <g id="line2d_60">
      <g>
       <use xlink:href="#mf1bba918f7" x="689.328141" y="229.685188" style="stroke: #000000; stroke-width: 0.8"/>
      </g>
     </g>
     <g id="text_31">
      <!-- 0 -->
      <g transform="translate(686.465016 243.523078) scale(0.09 -0.09)">
       <use xlink:href="#DejaVuSerif-13"/>
      </g>
     </g>
    </g>
    <g id="xtick_14">
     <g id="line2d_61">
      <path d="M 720.56873 229.685188 
L 720.56873 18.717187 
" clip-path="url(#pea290615ef)" style="fill: none; stroke-dasharray: 0.5,0.825; stroke-dashoffset: 0; stroke: #bfbfbf; stroke-opacity: 0.7; stroke-width: 0.5"/>
     </g>
     <g id="line2d_62">
      <g>
       <use xlink:href="#mf1bba918f7" x="720.56873" y="229.685188" style="stroke: #000000; stroke-width: 0.8"/>
      </g>
     </g>
     <g id="text_32">
      <!-- 20 -->
      <g transform="translate(714.84248 243.523078) scale(0.09 -0.09)">
       <use xlink:href="#DejaVuSerif-15"/>
       <use xlink:href="#DejaVuSerif-13" transform="translate(63.625 0)"/>
      </g>
     </g>
    </g>
    <g id="xtick_15">
     <g id="line2d_63">
      <path d="M 751.80932 229.685188 
L 751.80932 18.717187 
" clip-path="url(#pea290615ef)" style="fill: none; stroke-dasharray: 0.5,0.825; stroke-dashoffset: 0; stroke: #bfbfbf; stroke-opacity: 0.7; stroke-width: 0.5"/>
     </g>
     <g id="line2d_64">
      <g>
       <use xlink:href="#mf1bba918f7" x="751.80932" y="229.685188" style="stroke: #000000; stroke-width: 0.8"/>
      </g>
     </g>
     <g id="text_33">
      <!-- 40 -->
      <g transform="translate(746.08307 243.523078) scale(0.09 -0.09)">
       <use xlink:href="#DejaVuSerif-17"/>
       <use xlink:href="#DejaVuSerif-13" transform="translate(63.625 0)"/>
      </g>
     </g>
    </g>
    <g id="xtick_16">
     <g id="line2d_65">
      <path d="M 783.049909 229.685188 
L 783.049909 18.717187 
" clip-path="url(#pea290615ef)" style="fill: none; stroke-dasharray: 0.5,0.825; stroke-dashoffset: 0; stroke: #bfbfbf; stroke-opacity: 0.7; stroke-width: 0.5"/>
     </g>
     <g id="line2d_66">
      <g>
       <use xlink:href="#mf1bba918f7" x="783.049909" y="229.685188" style="stroke: #000000; stroke-width: 0.8"/>
      </g>
     </g>
     <g id="text_34">
      <!-- 60 -->
      <g transform="translate(777.323659 243.523078) scale(0.09 -0.09)">
       <use xlink:href="#DejaVuSerif-19"/>
       <use xlink:href="#DejaVuSerif-13" transform="translate(63.625 0)"/>
      </g>
     </g>
    </g>
    <g id="xtick_17">
     <g id="line2d_67">
      <path d="M 814.290498 229.685188 
L 814.290498 18.717187 
" clip-path="url(#pea290615ef)" style="fill: none; stroke-dasharray: 0.5,0.825; stroke-dashoffset: 0; stroke: #bfbfbf; stroke-opacity: 0.7; stroke-width: 0.5"/>
     </g>
     <g id="line2d_68">
      <g>
       <use xlink:href="#mf1bba918f7" x="814.290498" y="229.685188" style="stroke: #000000; stroke-width: 0.8"/>
      </g>
     </g>
     <g id="text_35">
      <!-- 80 -->
      <g transform="translate(808.564248 243.523078) scale(0.09 -0.09)">
       <use xlink:href="#DejaVuSerif-1b"/>
       <use xlink:href="#DejaVuSerif-13" transform="translate(63.625 0)"/>
      </g>
     </g>
    </g>
    <g id="xtick_18">
     <g id="line2d_69">
      <path d="M 845.531087 229.685188 
L 845.531087 18.717187 
" clip-path="url(#pea290615ef)" style="fill: none; stroke-dasharray: 0.5,0.825; stroke-dashoffset: 0; stroke: #bfbfbf; stroke-opacity: 0.7; stroke-width: 0.5"/>
     </g>
     <g id="line2d_70">
      <g>
       <use xlink:href="#mf1bba918f7" x="845.531087" y="229.685188" style="stroke: #000000; stroke-width: 0.8"/>
      </g>
     </g>
     <g id="text_36">
      <!-- 100 -->
      <g transform="translate(836.941712 243.523078) scale(0.09 -0.09)">
       <use xlink:href="#DejaVuSerif-14"/>
       <use xlink:href="#DejaVuSerif-13" transform="translate(63.625 0)"/>
       <use xlink:href="#DejaVuSerif-13" transform="translate(127.25 0)"/>
      </g>
     </g>
    </g>
    <g id="text_37">
     <!-- Iteration -->
     <g transform="translate(742.279302 258.042609) scale(0.11 -0.11)">
      <use xlink:href="#DejaVuSerif-2c"/>
      <use xlink:href="#DejaVuSerif-57" transform="translate(39.5 0)"/>
      <use xlink:href="#DejaVuSerif-48" transform="translate(79.6875 0)"/>
      <use xlink:href="#DejaVuSerif-55" transform="translate(138.875 0)"/>
      <use xlink:href="#DejaVuSerif-44" transform="translate(186.671875 0)"/>
      <use xlink:href="#DejaVuSerif-57" transform="translate(246.296875 0)"/>
      <use xlink:href="#DejaVuSerif-4c" transform="translate(286.484375 0)"/>
      <use xlink:href="#DejaVuSerif-52" transform="translate(318.46875 0)"/>
      <use xlink:href="#DejaVuSerif-51" transform="translate(378.671875 0)"/>
     </g>
    </g>
   </g>
   <g id="matplotlib.axis_6">
    <g id="ytick_14">
     <g id="line2d_71">
      <path d="M 681.596096 216.145908 
L 851.701103 216.145908 
" clip-path="url(#pea290615ef)" style="fill: none; stroke-dasharray: 0.5,0.825; stroke-dashoffset: 0; stroke: #bfbfbf; stroke-opacity: 0.7; stroke-width: 0.5"/>
     </g>
     <g id="line2d_72">
      <g>
       <use xlink:href="#m3643cdf425" x="681.596096" y="216.145908" style="stroke: #000000; stroke-width: 0.8"/>
      </g>
     </g>
     <g id="text_38">
      <!-- 600 -->
      <g transform="translate(657.417346 219.564854) scale(0.09 -0.09)">
       <use xlink:href="#DejaVuSerif-19"/>
       <use xlink:href="#DejaVuSerif-13" transform="translate(63.625 0)"/>
       <use xlink:href="#DejaVuSerif-13" transform="translate(127.25 0)"/>
      </g>
     </g>
    </g>
    <g id="ytick_15">
     <g id="line2d_73">
      <path d="M 681.596096 183.792367 
L 851.701103 183.792367 
" clip-path="url(#pea290615ef)" style="fill: none; stroke-dasharray: 0.5,0.825; stroke-dashoffset: 0; stroke: #bfbfbf; stroke-opacity: 0.7; stroke-width: 0.5"/>
     </g>
     <g id="line2d_74">
      <g>
       <use xlink:href="#m3643cdf425" x="681.596096" y="183.792367" style="stroke: #000000; stroke-width: 0.8"/>
      </g>
     </g>
     <g id="text_39">
      <!-- 650 -->
      <g transform="translate(657.417346 187.211313) scale(0.09 -0.09)">
       <use xlink:href="#DejaVuSerif-19"/>
       <use xlink:href="#DejaVuSerif-18" transform="translate(63.625 0)"/>
       <use xlink:href="#DejaVuSerif-13" transform="translate(127.25 0)"/>
      </g>
     </g>
    </g>
    <g id="ytick_16">
     <g id="line2d_75">
      <path d="M 681.596096 151.438826 
L 851.701103 151.438826 
" clip-path="url(#pea290615ef)" style="fill: none; stroke-dasharray: 0.5,0.825; stroke-dashoffset: 0; stroke: #bfbfbf; stroke-opacity: 0.7; stroke-width: 0.5"/>
     </g>
     <g id="line2d_76">
      <g>
       <use xlink:href="#m3643cdf425" x="681.596096" y="151.438826" style="stroke: #000000; stroke-width: 0.8"/>
      </g>
     </g>
     <g id="text_40">
      <!-- 700 -->
      <g transform="translate(657.417346 154.857772) scale(0.09 -0.09)">
       <use xlink:href="#DejaVuSerif-1a"/>
       <use xlink:href="#DejaVuSerif-13" transform="translate(63.625 0)"/>
       <use xlink:href="#DejaVuSerif-13" transform="translate(127.25 0)"/>
      </g>
     </g>
    </g>
    <g id="ytick_17">
     <g id="line2d_77">
      <path d="M 681.596096 119.085285 
L 851.701103 119.085285 
" clip-path="url(#pea290615ef)" style="fill: none; stroke-dasharray: 0.5,0.825; stroke-dashoffset: 0; stroke: #bfbfbf; stroke-opacity: 0.7; stroke-width: 0.5"/>
     </g>
     <g id="line2d_78">
      <g>
       <use xlink:href="#m3643cdf425" x="681.596096" y="119.085285" style="stroke: #000000; stroke-width: 0.8"/>
      </g>
     </g>
     <g id="text_41">
      <!-- 750 -->
      <g transform="translate(657.417346 122.504231) scale(0.09 -0.09)">
       <use xlink:href="#DejaVuSerif-1a"/>
       <use xlink:href="#DejaVuSerif-18" transform="translate(63.625 0)"/>
       <use xlink:href="#DejaVuSerif-13" transform="translate(127.25 0)"/>
      </g>
     </g>
    </g>
    <g id="ytick_18">
     <g id="line2d_79">
      <path d="M 681.596096 86.731744 
L 851.701103 86.731744 
" clip-path="url(#pea290615ef)" style="fill: none; stroke-dasharray: 0.5,0.825; stroke-dashoffset: 0; stroke: #bfbfbf; stroke-opacity: 0.7; stroke-width: 0.5"/>
     </g>
     <g id="line2d_80">
      <g>
       <use xlink:href="#m3643cdf425" x="681.596096" y="86.731744" style="stroke: #000000; stroke-width: 0.8"/>
      </g>
     </g>
     <g id="text_42">
      <!-- 800 -->
      <g transform="translate(657.417346 90.15069) scale(0.09 -0.09)">
       <use xlink:href="#DejaVuSerif-1b"/>
       <use xlink:href="#DejaVuSerif-13" transform="translate(63.625 0)"/>
       <use xlink:href="#DejaVuSerif-13" transform="translate(127.25 0)"/>
      </g>
     </g>
    </g>
    <g id="ytick_19">
     <g id="line2d_81">
      <path d="M 681.596096 54.378203 
L 851.701103 54.378203 
" clip-path="url(#pea290615ef)" style="fill: none; stroke-dasharray: 0.5,0.825; stroke-dashoffset: 0; stroke: #bfbfbf; stroke-opacity: 0.7; stroke-width: 0.5"/>
     </g>
     <g id="line2d_82">
      <g>
       <use xlink:href="#m3643cdf425" x="681.596096" y="54.378203" style="stroke: #000000; stroke-width: 0.8"/>
      </g>
     </g>
     <g id="text_43">
      <!-- 850 -->
      <g transform="translate(657.417346 57.797149) scale(0.09 -0.09)">
       <use xlink:href="#DejaVuSerif-1b"/>
       <use xlink:href="#DejaVuSerif-18" transform="translate(63.625 0)"/>
       <use xlink:href="#DejaVuSerif-13" transform="translate(127.25 0)"/>
      </g>
     </g>
    </g>
    <g id="ytick_20">
     <g id="line2d_83">
      <path d="M 681.596096 22.024662 
L 851.701103 22.024662 
" clip-path="url(#pea290615ef)" style="fill: none; stroke-dasharray: 0.5,0.825; stroke-dashoffset: 0; stroke: #bfbfbf; stroke-opacity: 0.7; stroke-width: 0.5"/>
     </g>
     <g id="line2d_84">
      <g>
       <use xlink:href="#m3643cdf425" x="681.596096" y="22.024662" style="stroke: #000000; stroke-width: 0.8"/>
      </g>
     </g>
     <g id="text_44">
      <!-- 900 -->
      <g transform="translate(657.417346 25.443608) scale(0.09 -0.09)">
       <use xlink:href="#DejaVuSerif-1c"/>
       <use xlink:href="#DejaVuSerif-13" transform="translate(63.625 0)"/>
       <use xlink:href="#DejaVuSerif-13" transform="translate(127.25 0)"/>
      </g>
     </g>
    </g>
   </g>
   <g id="line2d_85">
    <path d="M 689.328141 28.306642 
L 690.890171 39.282231 
L 692.4522 40.089656 
L 694.01423 64.576858 
L 695.576259 73.814577 
L 697.138289 73.814577 
L 698.700318 73.814577 
L 700.262348 73.88839 
L 701.824377 73.88839 
L 703.386407 73.88839 
L 704.948436 79.112276 
L 706.510465 89.332075 
L 708.072495 89.332075 
L 709.634524 89.332075 
L 711.196554 89.332075 
L 712.758583 89.332075 
L 714.320613 89.332075 
L 715.882642 89.332075 
L 717.444672 89.332075 
L 719.006701 89.332075 
L 720.56873 89.332075 
L 722.13076 89.332075 
L 723.692789 89.332075 
L 725.254819 89.332075 
L 726.816848 89.332075 
L 728.378878 89.332075 
L 729.940907 89.332075 
L 731.502937 89.332075 
L 733.064966 89.332075 
L 734.626996 89.332075 
L 736.189025 89.332075 
L 737.751054 89.332075 
L 739.313084 89.332075 
L 740.875113 89.332075 
L 742.437143 89.332075 
L 743.999172 89.332075 
L 745.561202 89.332075 
L 747.123231 89.332075 
L 748.685261 89.332075 
L 750.24729 89.332075 
L 751.80932 89.332075 
L 753.371349 89.332075 
L 754.933378 89.332075 
L 756.495408 89.332075 
L 758.057437 93.282275 
L 759.619467 93.282275 
L 761.181496 93.282275 
L 762.743526 93.282275 
L 764.305555 93.282275 
L 765.867585 95.114523 
L 767.429614 95.114523 
L 768.991643 95.114523 
L 770.553673 108.151832 
L 772.115702 112.229005 
L 773.677732 112.229005 
L 775.239761 112.229005 
L 776.801791 112.229005 
L 778.36382 112.229005 
L 779.92585 112.229005 
L 781.487879 112.229005 
L 783.049909 118.789233 
L 784.611938 118.789233 
L 786.173967 129.187365 
L 787.735997 129.187365 
L 789.298026 129.187365 
L 790.860056 129.187365 
L 792.422085 143.00742 
L 793.984115 143.00742 
L 795.546144 143.00742 
L 797.108174 145.00575 
L 798.670203 160.231396 
L 800.232233 162.260474 
L 801.794262 162.260474 
L 803.356291 162.260474 
L 804.918321 162.260474 
L 806.48035 162.260474 
L 808.04238 162.260474 
L 809.604409 162.260474 
L 811.166439 163.735627 
L 812.728468 163.735627 
L 814.290498 166.616861 
L 815.852527 168.873221 
L 817.414556 168.873221 
L 818.976586 172.483647 
L 820.538615 172.483647 
L 822.100645 172.483647 
L 823.662674 174.695751 
L 825.224704 174.695751 
L 826.786733 174.695751 
L 828.348763 174.695751 
L 829.910792 174.695751 
L 831.472822 174.699167 
L 833.034851 178.872244 
L 834.59688 181.240732 
L 836.15891 181.240732 
L 837.720939 181.240732 
L 839.282969 181.240732 
L 840.844998 181.240732 
L 842.407028 181.240732 
L 843.969057 181.240732 
" clip-path="url(#pea290615ef)" style="fill: none; stroke: #000000; stroke-width: 0.9; stroke-linecap: square"/>
   </g>
   <g id="line2d_86">
    <path d="M 689.328141 176.042044 
L 690.890171 176.042044 
L 692.4522 176.042044 
L 694.01423 176.042044 
L 695.576259 178.139758 
L 697.138289 178.139758 
L 698.700318 178.139758 
L 700.262348 178.139758 
L 701.824377 188.284729 
L 703.386407 188.284729 
L 704.948436 188.284729 
L 706.510465 189.038572 
L 708.072495 189.038572 
L 709.634524 189.038572 
L 711.196554 189.038572 
L 712.758583 189.038572 
L 714.320613 189.038572 
L 715.882642 189.038572 
L 717.444672 189.038572 
L 719.006701 189.038572 
L 720.56873 189.038572 
L 722.13076 189.648966 
L 723.692789 189.648966 
L 725.254819 189.648966 
L 726.816848 189.648966 
L 728.378878 189.648966 
L 729.940907 189.648966 
L 731.502937 189.648966 
L 733.064966 189.648966 
L 734.626996 193.02489 
L 736.189025 193.02489 
L 737.751054 193.02489 
L 739.313084 193.02489 
L 740.875113 193.02489 
L 742.437143 193.02489 
L 743.999172 193.02489 
L 745.561202 193.02489 
L 747.123231 193.02489 
L 748.685261 193.02489 
L 750.24729 194.519257 
L 751.80932 194.519257 
L 753.371349 194.519257 
L 754.933378 194.519257 
L 756.495408 194.519257 
L 758.057437 194.519257 
L 759.619467 194.519257 
L 761.181496 194.519257 
L 762.743526 194.519257 
L 764.305555 194.519257 
L 765.867585 194.519257 
L 767.429614 194.519257 
L 768.991643 194.519257 
L 770.553673 194.519257 
L 772.115702 194.519257 
L 773.677732 194.519257 
L 775.239761 195.08899 
L 776.801791 195.08899 
L 778.36382 195.251592 
L 779.92585 195.251592 
L 781.487879 195.251592 
L 783.049909 195.720725 
L 784.611938 195.720725 
L 786.173967 195.720725 
L 787.735997 195.720725 
L 789.298026 197.67693 
L 790.860056 197.67693 
L 792.422085 197.67693 
L 793.984115 197.67693 
L 795.546144 199.956585 
L 797.108174 199.956585 
L 798.670203 199.956585 
L 800.232233 199.956585 
L 801.794262 199.956585 
L 803.356291 199.956585 
L 804.918321 199.956585 
L 806.48035 199.956585 
L 808.04238 199.956585 
L 809.604409 199.956585 
L 811.166439 199.956585 
L 812.728468 199.956585 
L 814.290498 199.956585 
L 815.852527 199.956585 
L 817.414556 199.956585 
L 818.976586 199.956585 
L 820.538615 199.956585 
L 822.100645 199.956585 
L 823.662674 199.956585 
L 825.224704 199.956585 
L 826.786733 199.956585 
L 828.348763 199.956585 
L 829.910792 199.956585 
L 831.472822 199.956585 
L 833.034851 199.956585 
L 834.59688 199.956585 
L 836.15891 203.702023 
L 837.720939 203.702023 
L 839.282969 203.702023 
L 840.844998 203.702023 
L 842.407028 203.702023 
L 843.969057 203.702023 
" clip-path="url(#pea290615ef)" style="fill: none; stroke-dasharray: 3.33,1.44; stroke-dashoffset: 0; stroke: #000000; stroke-width: 0.9"/>
   </g>
   <g id="line2d_87">
    <path d="M 689.328141 28.306642 
L 690.890171 42.718234 
L 692.4522 43.525659 
L 694.01423 43.525659 
L 695.576259 53.553206 
L 697.138289 58.911406 
L 698.700318 58.911406 
L 700.262348 58.911406 
L 701.824377 58.911406 
L 703.386407 58.911406 
L 704.948436 60.039308 
L 706.510465 64.273942 
L 708.072495 65.944977 
L 709.634524 66.953089 
L 711.196554 66.953089 
L 712.758583 66.953089 
L 714.320613 85.01275 
L 715.882642 98.310452 
L 717.444672 108.937923 
L 719.006701 110.711017 
L 720.56873 129.178966 
L 722.13076 139.979507 
L 723.692789 152.662862 
L 725.254819 152.662862 
L 726.816848 170.526815 
L 728.378878 174.891519 
L 729.940907 177.589619 
L 731.502937 177.589619 
L 733.064966 182.450226 
L 734.626996 187.888571 
L 736.189025 187.888571 
L 737.751054 193.968727 
L 739.313084 193.968727 
L 740.875113 194.950135 
L 742.437143 201.030215 
L 743.999172 201.030215 
L 745.561202 203.108254 
L 747.123231 215.866258 
L 748.685261 215.866258 
L 750.24729 215.866258 
L 751.80932 215.866258 
L 753.371349 215.866258 
L 754.933378 215.866258 
L 756.495408 216.014149 
L 758.057437 216.014149 
L 759.619467 216.014149 
L 761.181496 216.014149 
L 762.743526 216.476322 
L 764.305555 216.476322 
L 765.867585 216.476322 
L 767.429614 216.476322 
L 768.991643 216.476322 
L 770.553673 216.476322 
L 772.115702 216.476322 
L 773.677732 216.476322 
L 775.239761 216.476322 
L 776.801791 216.476322 
L 778.36382 218.041591 
L 779.92585 218.041591 
L 781.487879 218.041591 
L 783.049909 218.041591 
L 784.611938 218.041591 
L 786.173967 218.041591 
L 787.735997 218.041591 
L 789.298026 218.041591 
L 790.860056 218.041591 
L 792.422085 218.041591 
L 793.984115 218.041591 
L 795.546144 218.041591 
L 797.108174 218.041591 
L 798.670203 218.041591 
L 800.232233 218.041591 
L 801.794262 218.041591 
L 803.356291 218.041591 
L 804.918321 218.041591 
L 806.48035 218.041591 
L 808.04238 218.041591 
L 809.604409 218.303351 
L 811.166439 218.303351 
L 812.728468 218.303351 
L 814.290498 218.303351 
L 815.852527 218.303351 
L 817.414556 218.303351 
L 818.976586 218.303351 
L 820.538615 218.303351 
L 822.100645 218.303351 
L 823.662674 218.303351 
L 825.224704 218.303351 
L 826.786733 218.303351 
L 828.348763 220.095733 
L 829.910792 220.095733 
L 831.472822 220.095733 
L 833.034851 220.095733 
L 834.59688 220.095733 
L 836.15891 220.095733 
L 837.720939 220.095733 
L 839.282969 220.095733 
L 840.844998 220.095733 
L 842.407028 220.095733 
L 843.969057 220.095733 
" clip-path="url(#pea290615ef)" style="fill: none; stroke-dasharray: 5.76,1.44,0.9,1.44; stroke-dashoffset: 0; stroke: #000000; stroke-width: 0.9"/>
   </g>
   <g id="line2d_88">
    <path d="M 689.328141 176.042044 
L 690.890171 176.042044 
L 692.4522 176.042044 
L 694.01423 179.725087 
L 695.576259 179.725087 
L 697.138289 179.725087 
L 698.700318 184.203241 
L 700.262348 184.203241 
L 701.824377 184.203241 
L 703.386407 184.203241 
L 704.948436 184.203241 
L 706.510465 184.203241 
L 708.072495 185.489301 
L 709.634524 185.489301 
L 711.196554 185.979132 
L 712.758583 186.389675 
L 714.320613 192.452631 
L 715.882642 192.452631 
L 717.444672 192.452631 
L 719.006701 192.452631 
L 720.56873 192.452631 
L 722.13076 193.151873 
L 723.692789 193.390103 
L 725.254819 194.552012 
L 726.816848 198.221013 
L 728.378878 198.221013 
L 729.940907 198.512 
L 731.502937 198.512 
L 733.064966 199.946246 
L 734.626996 199.946246 
L 736.189025 199.946246 
L 737.751054 201.930768 
L 739.313084 201.930768 
L 740.875113 202.446085 
L 742.437143 202.692815 
L 743.999172 202.692815 
L 745.561202 202.692815 
L 747.123231 202.692815 
L 748.685261 202.692815 
L 750.24729 203.274427 
L 751.80932 203.274427 
L 753.371349 203.274427 
L 754.933378 203.274427 
L 756.495408 203.274427 
L 758.057437 203.774703 
L 759.619467 203.774703 
L 761.181496 203.774703 
L 762.743526 203.774703 
L 764.305555 203.774703 
L 765.867585 203.774703 
L 767.429614 203.774703 
L 768.991643 203.774703 
L 770.553673 203.774703 
L 772.115702 203.774703 
L 773.677732 203.774703 
L 775.239761 203.774703 
L 776.801791 203.774703 
L 778.36382 203.774703 
L 779.92585 203.774703 
L 781.487879 203.774703 
L 783.049909 203.774703 
L 784.611938 203.774703 
L 786.173967 203.774703 
L 787.735997 203.774703 
L 789.298026 203.774703 
L 790.860056 203.820285 
L 792.422085 203.820285 
L 793.984115 203.820285 
L 795.546144 204.027449 
L 797.108174 204.027449 
L 798.670203 204.027449 
L 800.232233 204.027449 
L 801.794262 204.027449 
L 803.356291 204.027449 
L 804.918321 204.027449 
L 806.48035 204.027449 
L 808.04238 204.027449 
L 809.604409 204.027449 
L 811.166439 204.027449 
L 812.728468 204.027449 
L 814.290498 204.027449 
L 815.852527 204.027449 
L 817.414556 204.027449 
L 818.976586 204.027449 
L 820.538615 204.027449 
L 822.100645 204.027449 
L 823.662674 204.027449 
L 825.224704 204.027449 
L 826.786733 204.027449 
L 828.348763 204.027449 
L 829.910792 204.027449 
L 831.472822 204.027449 
L 833.034851 204.027449 
L 834.59688 204.027449 
L 836.15891 204.027449 
L 837.720939 204.027449 
L 839.282969 204.027449 
L 840.844998 204.027449 
L 842.407028 204.027449 
L 843.969057 204.027449 
" clip-path="url(#pea290615ef)" style="fill: none; stroke-dasharray: 0.9,1.485; stroke-dashoffset: 0; stroke: #000000; stroke-width: 0.9"/>
   </g>
   <g id="patch_9">
    <path d="M 681.596096 229.685188 
L 681.596096 18.717187 
" style="fill: none; stroke: #000000; stroke-width: 0.8; stroke-linejoin: miter; stroke-linecap: square"/>
   </g>
   <g id="patch_10">
    <path d="M 681.596096 229.685188 
L 851.701103 229.685188 
" style="fill: none; stroke: #000000; stroke-width: 0.8; stroke-linejoin: miter; stroke-linecap: square"/>
   </g>
   <g id="text_45">
    <!-- Size = 100 -->
    <g transform="translate(733.612974 12.717187) scale(0.12 -0.12)">
     <use xlink:href="#DejaVuSerif-36"/>
     <use xlink:href="#DejaVuSerif-4c" transform="translate(68.5 0)"/>
     <use xlink:href="#DejaVuSerif-5d" transform="translate(100.484375 0)"/>
     <use xlink:href="#DejaVuSerif-48" transform="translate(153.171875 0)"/>
     <use xlink:href="#DejaVuSerif-3" transform="translate(212.359375 0)"/>
     <use xlink:href="#DejaVuSerif-20" transform="translate(244.140625 0)"/>
     <use xlink:href="#DejaVuSerif-3" transform="translate(327.9375 0)"/>
     <use xlink:href="#DejaVuSerif-14" transform="translate(359.71875 0)"/>
     <use xlink:href="#DejaVuSerif-13" transform="translate(423.34375 0)"/>
     <use xlink:href="#DejaVuSerif-13" transform="translate(486.96875 0)"/>
    </g>
   </g>
   <g id="legend_1">
    <g id="line2d_89">
     <path d="M 527.668599 271.995547 
L 534.668599 271.995547 
L 541.668599 271.995547 
" style="fill: none; stroke: #000000; stroke-width: 0.9; stroke-linecap: square"/>
    </g>
    <g id="text_46">
     <!-- C1 (a=1.0, b=2.0, r=0.1) -->
     <g transform="translate(547.268599 274.445547) scale(0.07 -0.07)">
      <defs>
       <path id="DejaVuSerif-26" d="M 4513 1234 
Q 4306 581 3820 245 
Q 3334 -91 2591 -91 
Q 2134 -91 1743 65 
Q 1353 222 1050 525 
Q 700 875 529 1320 
Q 359 1766 359 2328 
Q 359 3416 987 4083 
Q 1616 4750 2644 4750 
Q 3025 4750 3456 4650 
Q 3888 4550 4384 4347 
L 4384 3272 
L 4031 3272 
Q 3916 3859 3567 4137 
Q 3219 4416 2591 4416 
Q 1844 4416 1459 3886 
Q 1075 3356 1075 2328 
Q 1075 1303 1459 773 
Q 1844 244 2591 244 
Q 3113 244 3450 492 
Q 3788 741 3938 1234 
L 4513 1234 
z
" transform="scale(0.015625)"/>
       <path id="DejaVuSerif-b" d="M 2041 -997 
Q 1281 -656 893 83 
Q 506 822 506 1931 
Q 506 3044 893 3783 
Q 1281 4522 2041 4863 
L 2041 4556 
Q 1559 4225 1350 3623 
Q 1141 3022 1141 1931 
Q 1141 844 1350 242 
Q 1559 -359 2041 -691 
L 2041 -997 
z
" transform="scale(0.015625)"/>
       <path id="DejaVuSerif-11" d="M 603 325 
Q 603 500 722 622 
Q 841 744 1019 744 
Q 1191 744 1312 622 
Q 1434 500 1434 325 
Q 1434 153 1312 31 
Q 1191 -91 1019 -91 
Q 841 -91 722 29 
Q 603 150 603 325 
z
" transform="scale(0.015625)"/>
       <path id="DejaVuSerif-f" d="M 231 -622 
Q 525 -406 662 -114 
Q 800 178 800 594 
L 800 709 
L 1416 709 
Q 1391 175 1164 -208 
Q 938 -591 481 -872 
L 231 -622 
z
" transform="scale(0.015625)"/>
       <path id="DejaVuSerif-45" d="M 738 331 
L 738 4531 
L 184 4531 
L 184 4863 
L 1313 4863 
L 1313 2803 
Q 1481 3116 1742 3264 
Q 2003 3413 2388 3413 
Q 3000 3413 3387 2928 
Q 3775 2444 3775 1663 
Q 3775 881 3387 395 
Q 3000 -91 2388 -91 
Q 2003 -91 1742 57 
Q 1481 206 1313 519 
L 1313 0 
L 184 0 
L 184 331 
L 738 331 
z
M 1313 1497 
Q 1313 897 1542 583 
Q 1772 269 2209 269 
Q 2650 269 2876 622 
Q 3103 975 3103 1663 
Q 3103 2353 2876 2703 
Q 2650 3053 2209 3053 
Q 1772 3053 1542 2737 
Q 1313 2422 1313 1825 
L 1313 1497 
z
" transform="scale(0.015625)"/>
       <path id="DejaVuSerif-c" d="M 453 -997 
L 453 -691 
Q 934 -359 1145 242 
Q 1356 844 1356 1931 
Q 1356 3022 1145 3623 
Q 934 4225 453 4556 
L 453 4863 
Q 1216 4522 1603 3783 
Q 1991 3044 1991 1931 
Q 1991 822 1603 83 
Q 1216 -656 453 -997 
z
" transform="scale(0.015625)"/>
      </defs>
      <use xlink:href="#DejaVuSerif-26"/>
      <use xlink:href="#DejaVuSerif-14" transform="translate(76.515625 0)"/>
      <use xlink:href="#DejaVuSerif-3" transform="translate(140.140625 0)"/>
      <use xlink:href="#DejaVuSerif-b" transform="translate(171.921875 0)"/>
      <use xlink:href="#DejaVuSerif-44" transform="translate(210.9375 0)"/>
      <use xlink:href="#DejaVuSerif-20" transform="translate(270.5625 0)"/>
      <use xlink:href="#DejaVuSerif-14" transform="translate(354.359375 0)"/>
      <use xlink:href="#DejaVuSerif-11" transform="translate(417.984375 0)"/>
      <use xlink:href="#DejaVuSerif-13" transform="translate(449.765625 0)"/>
      <use xlink:href="#DejaVuSerif-f" transform="translate(513.390625 0)"/>
      <use xlink:href="#DejaVuSerif-3" transform="translate(545.171875 0)"/>
      <use xlink:href="#DejaVuSerif-45" transform="translate(576.953125 0)"/>
      <use xlink:href="#DejaVuSerif-20" transform="translate(640.96875 0)"/>
      <use xlink:href="#DejaVuSerif-15" transform="translate(724.765625 0)"/>
      <use xlink:href="#DejaVuSerif-11" transform="translate(788.390625 0)"/>
      <use xlink:href="#DejaVuSerif-13" transform="translate(820.171875 0)"/>
      <use xlink:href="#DejaVuSerif-f" transform="translate(883.796875 0)"/>
      <use xlink:href="#DejaVuSerif-3" transform="translate(915.578125 0)"/>
      <use xlink:href="#DejaVuSerif-55" transform="translate(947.359375 0)"/>
      <use xlink:href="#DejaVuSerif-20" transform="translate(995.15625 0)"/>
      <use xlink:href="#DejaVuSerif-13" transform="translate(1078.953125 0)"/>
      <use xlink:href="#DejaVuSerif-11" transform="translate(1142.578125 0)"/>
      <use xlink:href="#DejaVuSerif-14" transform="translate(1174.359375 0)"/>
      <use xlink:href="#DejaVuSerif-c" transform="translate(1237.984375 0)"/>
     </g>
    </g>
    <g id="line2d_90">
     <path d="M 650.658599 271.995547 
L 657.658599 271.995547 
L 664.658599 271.995547 
" style="fill: none; stroke-dasharray: 3.33,1.44; stroke-dashoffset: 0; stroke: #000000; stroke-width: 0.9"/>
    </g>
    <g id="text_47">
     <!-- C2 (a=1.0, b=5.0, r=0.1) -->
     <g transform="translate(670.258599 274.445547) scale(0.07 -0.07)">
      <use xlink:href="#DejaVuSerif-26"/>
      <use xlink:href="#DejaVuSerif-15" transform="translate(76.515625 0)"/>
      <use xlink:href="#DejaVuSerif-3" transform="translate(140.140625 0)"/>
      <use xlink:href="#DejaVuSerif-b" transform="translate(171.921875 0)"/>
      <use xlink:href="#DejaVuSerif-44" transform="translate(210.9375 0)"/>
      <use xlink:href="#DejaVuSerif-20" transform="translate(270.5625 0)"/>
      <use xlink:href="#DejaVuSerif-14" transform="translate(354.359375 0)"/>
      <use xlink:href="#DejaVuSerif-11" transform="translate(417.984375 0)"/>
      <use xlink:href="#DejaVuSerif-13" transform="translate(449.765625 0)"/>
      <use xlink:href="#DejaVuSerif-f" transform="translate(513.390625 0)"/>
      <use xlink:href="#DejaVuSerif-3" transform="translate(545.171875 0)"/>
      <use xlink:href="#DejaVuSerif-45" transform="translate(576.953125 0)"/>
      <use xlink:href="#DejaVuSerif-20" transform="translate(640.96875 0)"/>
      <use xlink:href="#DejaVuSerif-18" transform="translate(724.765625 0)"/>
      <use xlink:href="#DejaVuSerif-11" transform="translate(788.390625 0)"/>
      <use xlink:href="#DejaVuSerif-13" transform="translate(820.171875 0)"/>
      <use xlink:href="#DejaVuSerif-f" transform="translate(883.796875 0)"/>
      <use xlink:href="#DejaVuSerif-3" transform="translate(915.578125 0)"/>
      <use xlink:href="#DejaVuSerif-55" transform="translate(947.359375 0)"/>
      <use xlink:href="#DejaVuSerif-20" transform="translate(995.15625 0)"/>
      <use xlink:href="#DejaVuSerif-13" transform="translate(1078.953125 0)"/>
      <use xlink:href="#DejaVuSerif-11" transform="translate(1142.578125 0)"/>
      <use xlink:href="#DejaVuSerif-14" transform="translate(1174.359375 0)"/>
      <use xlink:href="#DejaVuSerif-c" transform="translate(1237.984375 0)"/>
     </g>
    </g>
    <g id="line2d_91">
     <path d="M 773.648599 271.995547 
L 780.648599 271.995547 
L 787.648599 271.995547 
" style="fill: none; stroke-dasharray: 5.76,1.44,0.9,1.44; stroke-dashoffset: 0; stroke: #000000; stroke-width: 0.9"/>
    </g>
    <g id="text_48">
     <!-- C3 (a=2.0, b=2.0, r=0.3) -->
     <g transform="translate(793.248599 274.445547) scale(0.07 -0.07)">
      <use xlink:href="#DejaVuSerif-26"/>
      <use xlink:href="#DejaVuSerif-16" transform="translate(76.515625 0)"/>
      <use xlink:href="#DejaVuSerif-3" transform="translate(140.140625 0)"/>
      <use xlink:href="#DejaVuSerif-b" transform="translate(171.921875 0)"/>
      <use xlink:href="#DejaVuSerif-44" transform="translate(210.9375 0)"/>
      <use xlink:href="#DejaVuSerif-20" transform="translate(270.5625 0)"/>
      <use xlink:href="#DejaVuSerif-15" transform="translate(354.359375 0)"/>
      <use xlink:href="#DejaVuSerif-11" transform="translate(417.984375 0)"/>
      <use xlink:href="#DejaVuSerif-13" transform="translate(449.765625 0)"/>
      <use xlink:href="#DejaVuSerif-f" transform="translate(513.390625 0)"/>
      <use xlink:href="#DejaVuSerif-3" transform="translate(545.171875 0)"/>
      <use xlink:href="#DejaVuSerif-45" transform="translate(576.953125 0)"/>
      <use xlink:href="#DejaVuSerif-20" transform="translate(640.96875 0)"/>
      <use xlink:href="#DejaVuSerif-15" transform="translate(724.765625 0)"/>
      <use xlink:href="#DejaVuSerif-11" transform="translate(788.390625 0)"/>
      <use xlink:href="#DejaVuSerif-13" transform="translate(820.171875 0)"/>
      <use xlink:href="#DejaVuSerif-f" transform="translate(883.796875 0)"/>
      <use xlink:href="#DejaVuSerif-3" transform="translate(915.578125 0)"/>
      <use xlink:href="#DejaVuSerif-55" transform="translate(947.359375 0)"/>
      <use xlink:href="#DejaVuSerif-20" transform="translate(995.15625 0)"/>
      <use xlink:href="#DejaVuSerif-13" transform="translate(1078.953125 0)"/>
      <use xlink:href="#DejaVuSerif-11" transform="translate(1142.578125 0)"/>
      <use xlink:href="#DejaVuSerif-16" transform="translate(1174.359375 0)"/>
      <use xlink:href="#DejaVuSerif-c" transform="translate(1237.984375 0)"/>
     </g>
    </g>
    <g id="line2d_92">
     <path d="M 896.638599 271.995547 
L 903.638599 271.995547 
L 910.638599 271.995547 
" style="fill: none; stroke-dasharray: 0.9,1.485; stroke-dashoffset: 0; stroke: #000000; stroke-width: 0.9"/>
    </g>
    <g id="text_49">
     <!-- C4 (a=2.0, b=5.0, r=0.3) -->
     <g transform="translate(916.238599 274.445547) scale(0.07 -0.07)">
      <use xlink:href="#DejaVuSerif-26"/>
      <use xlink:href="#DejaVuSerif-17" transform="translate(76.515625 0)"/>
      <use xlink:href="#DejaVuSerif-3" transform="translate(140.140625 0)"/>
      <use xlink:href="#DejaVuSerif-b" transform="translate(171.921875 0)"/>
      <use xlink:href="#DejaVuSerif-44" transform="translate(210.9375 0)"/>
      <use xlink:href="#DejaVuSerif-20" transform="translate(270.5625 0)"/>
      <use xlink:href="#DejaVuSerif-15" transform="translate(354.359375 0)"/>
      <use xlink:href="#DejaVuSerif-11" transform="translate(417.984375 0)"/>
      <use xlink:href="#DejaVuSerif-13" transform="translate(449.765625 0)"/>
      <use xlink:href="#DejaVuSerif-f" transform="translate(513.390625 0)"/>
      <use xlink:href="#DejaVuSerif-3" transform="translate(545.171875 0)"/>
      <use xlink:href="#DejaVuSerif-45" transform="translate(576.953125 0)"/>
      <use xlink:href="#DejaVuSerif-20" transform="translate(640.96875 0)"/>
      <use xlink:href="#DejaVuSerif-18" transform="translate(724.765625 0)"/>
      <use xlink:href="#DejaVuSerif-11" transform="translate(788.390625 0)"/>
      <use xlink:href="#DejaVuSerif-13" transform="translate(820.171875 0)"/>
      <use xlink:href="#DejaVuSerif-f" transform="translate(883.796875 0)"/>
      <use xlink:href="#DejaVuSerif-3" transform="translate(915.578125 0)"/>
      <use xlink:href="#DejaVuSerif-55" transform="translate(947.359375 0)"/>
      <use xlink:href="#DejaVuSerif-20" transform="translate(995.15625 0)"/>
      <use xlink:href="#DejaVuSerif-13" transform="translate(1078.953125 0)"/>
      <use xlink:href="#DejaVuSerif-11" transform="translate(1142.578125 0)"/>
      <use xlink:href="#DejaVuSerif-16" transform="translate(1174.359375 0)"/>
      <use xlink:href="#DejaVuSerif-c" transform="translate(1237.984375 0)"/>
     </g>
    </g>
   </g>
  </g>
 </g>
 <defs>
  <clipPath id="p25e8c5ec9a">
   <rect x="42.77875" y="18.717187" width="170.105007" height="210.968"/>
  </clipPath>
  <clipPath id="p7ebe67575a">
   <rect x="362.187423" y="18.717187" width="170.105007" height="210.968"/>
  </clipPath>
  <clipPath id="pea290615ef">
   <rect x="681.596096" y="18.717187" width="170.105007" height="210.968"/>
  </clipPath>
 </defs>
</svg>
