<?xml version="1.0" encoding="utf-8" standalone="no"?>
<!DOCTYPE svg PUBLIC "-//W3C//DTD SVG 1.1//EN"
  "http://www.w3.org/Graphics/SVG/1.1/DTD/svg11.dtd">
<svg xmlns:xlink="http://www.w3.org/1999/xlink" width="519.8825pt" height="311.762448pt" viewBox="0 0 519.8825 311.762448" xmlns="http://www.w3.org/2000/svg" version="1.1">
 <metadata>
  <rdf:RDF xmlns:dc="http://purl.org/dc/elements/1.1/" xmlns:cc="http://creativecommons.org/ns#" xmlns:rdf="http://www.w3.org/1999/02/22-rdf-syntax-ns#">
   <cc:Work>
    <dc:type rdf:resource="http://purl.org/dc/dcmitype/StillImage"/>
    <dc:date>2026-06-27T18:05:46.910384</dc:date>
    <dc:format>image/svg+xml</dc:format>
    <dc:creator>
     <cc:Agent>
      <dc:title>Matplotlib v3.11.0, https://matplotlib.org/</dc:title>
     </cc:Agent>
    </dc:creator>
   </cc:Work>
  </rdf:RDF>
 </metadata>
 <defs>
  <style type="text/css">*{stroke-linejoin: round; stroke-linecap: butt}</style>
 </defs>
 <g id="figure_1">
  <g id="patch_1">
   <path d="M 0 311.762448 
L 519.8825 311.762448 
L 519.8825 0 
L 0 0 
z
" style="fill: #ffffff"/>
  </g>
  <g id="axes_1">
   <g id="patch_2">
    <path d="M 113.95375 265.0936 
L 405.92875 265.0936 
L 405.92875 3.6 
L 113.95375 3.6 
z
" style="fill: #ffffff"/>
   </g>
   <g id="FillBetweenPolyCollection_1">
    <path d="M 131.12875 246.534148 
L 131.12875 252.847031 
L 217.00375 164.324647 
L 388.75375 38.510594 
L 388.75375 24.356752 
L 388.75375 24.356752 
L 217.00375 158.04327 
L 131.12875 246.534148 
z
" clip-path="url(#pfdf5f865e5)" style="fill: #bfbfbf; fill-opacity: 0.4"/>
   </g>
   <g id="FillBetweenPolyCollection_2">
    <path d="M 131.12875 233.390981 
L 131.12875 234.819764 
L 217.00375 167.572068 
L 388.75375 56.08939 
L 388.75375 42.814521 
L 388.75375 42.814521 
L 217.00375 155.302739 
L 131.12875 233.390981 
z
" clip-path="url(#pfdf5f865e5)" style="fill: #bfbfbf; fill-opacity: 0.4"/>
   </g>
   <g id="FillBetweenPolyCollection_3">
    <path d="M 131.12875 251.114403 
L 131.12875 253.207527 
L 217.00375 170.128875 
L 388.75375 74.391007 
L 388.75375 50.814732 
L 388.75375 50.814732 
L 217.00375 151.20915 
L 131.12875 251.114403 
z
" clip-path="url(#pfdf5f865e5)" style="fill: #bfbfbf; fill-opacity: 0.4"/>
   </g>
   <g id="FillBetweenPolyCollection_4">
    <path d="M 131.12875 246.317501 
L 131.12875 250.918298 
L 217.00375 168.190941 
L 388.75375 54.819334 
L 388.75375 44.606686 
L 388.75375 44.606686 
L 217.00375 158.373328 
L 131.12875 246.317501 
z
" clip-path="url(#pfdf5f865e5)" style="fill: #bfbfbf; fill-opacity: 0.4"/>
   </g>
   <g id="matplotlib.axis_1">
    <g id="xtick_1">
     <g id="line2d_1">
      <path d="M 131.12875 265.0936 
L 131.12875 3.6 
" clip-path="url(#pfdf5f865e5)" style="fill: none; stroke-dasharray: 0.5,0.825; stroke-dashoffset: 0; stroke: #bfbfbf; stroke-opacity: 0.7; stroke-width: 0.5"/>
     </g>
     <g id="line2d_2">
      <defs>
       <path id="macdea3ecdb" d="M 0 0 
L 0 3.5 
" style="stroke: #000000; stroke-width: 0.8"/>
      </defs>
      <g>
       <use xlink:href="#macdea3ecdb" x="131.12875" y="265.0936" style="stroke: #000000; stroke-width: 0.8"/>
      </g>
     </g>
     <g id="text_1">
      <!-- 25 -->
      <g transform="translate(125.4025 278.931491) scale(0.09 -0.09)">
       <defs>
        <path id="DejaVuSerif-15" d="M 819 3553 
L 469 3553 
L 469 4384 
Q 803 4563 1142 4656 
Q 1481 4750 1806 4750 
Q 2534 4750 2956 4397 
Q 3378 4044 3378 3438 
Q 3378 2753 2422 1800 
Q 2347 1728 2309 1691 
L 1131 513 
L 3078 513 
L 3078 1088 
L 3444 1088 
L 3444 0 
L 434 0 
L 434 341 
L 1850 1753 
Q 2319 2222 2519 2614 
Q 2719 3006 2719 3438 
Q 2719 3909 2473 4175 
Q 2228 4441 1797 4441 
Q 1350 4441 1106 4219 
Q 863 3997 819 3553 
z
" transform="scale(0.015625)"/>
        <path id="DejaVuSerif-18" d="M 3219 4666 
L 3219 4153 
L 1081 4153 
L 1081 2816 
Q 1244 2928 1461 2984 
Q 1678 3041 1947 3041 
Q 2703 3041 3140 2622 
Q 3578 2203 3578 1478 
Q 3578 738 3136 323 
Q 2694 -91 1894 -91 
Q 1572 -91 1234 -12 
Q 897 66 544 225 
L 544 1131 
L 897 1131 
Q 925 688 1179 453 
Q 1434 219 1894 219 
Q 2388 219 2653 544 
Q 2919 869 2919 1478 
Q 2919 2084 2655 2407 
Q 2391 2731 1894 2731 
Q 1613 2731 1398 2631 
Q 1184 2531 1019 2322 
L 750 2322 
L 750 4666 
L 3219 4666 
z
" transform="scale(0.015625)"/>
       </defs>
       <use xlink:href="#DejaVuSerif-15"/>
       <use xlink:href="#DejaVuSerif-18" transform="translate(63.625 0)"/>
      </g>
     </g>
    </g>
    <g id="xtick_2">
     <g id="line2d_3">
      <path d="M 217.00375 265.0936 
L 217.00375 3.6 
" clip-path="url(#pfdf5f865e5)" style="fill: none; stroke-dasharray: 0.5,0.825; stroke-dashoffset: 0; stroke: #bfbfbf; stroke-opacity: 0.7; stroke-width: 0.5"/>
     </g>
     <g id="line2d_4">
      <g>
       <use xlink:href="#macdea3ecdb" x="217.00375" y="265.0936" style="stroke: #000000; stroke-width: 0.8"/>
      </g>
     </g>
     <g id="text_2">
      <!-- 50 -->
      <g transform="translate(211.2775 278.931491) scale(0.09 -0.09)">
       <defs>
        <path id="DejaVuSerif-13" d="M 2034 219 
Q 2513 219 2750 744 
Q 2988 1269 2988 2328 
Q 2988 3391 2750 3916 
Q 2513 4441 2034 4441 
Q 1556 4441 1318 3916 
Q 1081 3391 1081 2328 
Q 1081 1269 1318 744 
Q 1556 219 2034 219 
z
M 2034 -91 
Q 1275 -91 848 546 
Q 422 1184 422 2328 
Q 422 3475 848 4112 
Q 1275 4750 2034 4750 
Q 2797 4750 3222 4112 
Q 3647 3475 3647 2328 
Q 3647 1184 3222 546 
Q 2797 -91 2034 -91 
z
" transform="scale(0.015625)"/>
       </defs>
       <use xlink:href="#DejaVuSerif-18"/>
       <use xlink:href="#DejaVuSerif-13" transform="translate(63.625 0)"/>
      </g>
     </g>
    </g>
    <g id="xtick_3">
     <g id="line2d_5">
      <path d="M 388.75375 265.0936 
L 388.75375 3.6 
" clip-path="url(#pfdf5f865e5)" style="fill: none; stroke-dasharray: 0.5,0.825; stroke-dashoffset: 0; stroke: #bfbfbf; stroke-opacity: 0.7; stroke-width: 0.5"/>
     </g>
     <g id="line2d_6">
      <g>
       <use xlink:href="#macdea3ecdb" x="388.75375" y="265.0936" style="stroke: #000000; stroke-width: 0.8"/>
      </g>
     </g>
     <g id="text_3">
      <!-- 100 -->
      <g transform="translate(380.164375 278.931491) scale(0.09 -0.09)">
       <defs>
        <path id="DejaVuSerif-14" d="M 909 0 
L 909 331 
L 1722 331 
L 1722 4213 
L 781 3603 
L 781 4013 
L 1919 4750 
L 2350 4750 
L 2350 331 
L 3163 331 
L 3163 0 
L 909 0 
z
" transform="scale(0.015625)"/>
       </defs>
       <use xlink:href="#DejaVuSerif-14"/>
       <use xlink:href="#DejaVuSerif-13" transform="translate(63.625 0)"/>
       <use xlink:href="#DejaVuSerif-13" transform="translate(127.25 0)"/>
      </g>
     </g>
    </g>
    <g id="text_4">
     <!-- Problem Size (Number of Customers) -->
     <g transform="translate(155.247891 293.451881) scale(0.11 -0.11)">
      <defs>
       <path id="DejaVuSerif-33" d="M 1581 2375 
L 2406 2375 
Q 2872 2375 3115 2626 
Q 3359 2878 3359 3353 
Q 3359 3831 3115 4081 
Q 2872 4331 2406 4331 
L 1581 4331 
L 1581 2375 
z
M 353 0 
L 353 331 
L 947 331 
L 947 4331 
L 353 4331 
L 353 4666 
L 2559 4666 
Q 3259 4666 3668 4311 
Q 4078 3956 4078 3353 
Q 4078 2753 3668 2397 
Q 3259 2041 2559 2041 
L 1581 2041 
L 1581 331 
L 2303 331 
L 2303 0 
L 353 0 
z
" transform="scale(0.015625)"/>
       <path id="DejaVuSerif-55" d="M 3059 3328 
L 3059 2497 
L 2728 2497 
Q 2713 2744 2591 2866 
Q 2469 2988 2234 2988 
Q 1809 2988 1582 2694 
Q 1356 2400 1356 1850 
L 1356 331 
L 2022 331 
L 2022 0 
L 263 0 
L 263 331 
L 781 331 
L 781 2994 
L 231 2994 
L 231 3322 
L 1356 3322 
L 1356 2731 
Q 1525 3078 1790 3245 
Q 2056 3413 2438 3413 
Q 2578 3413 2733 3391 
Q 2888 3369 3059 3328 
z
" transform="scale(0.015625)"/>
       <path id="DejaVuSerif-52" d="M 1925 219 
Q 2388 219 2623 584 
Q 2859 950 2859 1663 
Q 2859 2375 2623 2739 
Q 2388 3103 1925 3103 
Q 1463 3103 1227 2739 
Q 991 2375 991 1663 
Q 991 950 1228 584 
Q 1466 219 1925 219 
z
M 1925 -91 
Q 1200 -91 759 389 
Q 319 869 319 1663 
Q 319 2456 758 2934 
Q 1197 3413 1925 3413 
Q 2653 3413 3092 2934 
Q 3531 2456 3531 1663 
Q 3531 869 3092 389 
Q 2653 -91 1925 -91 
z
" transform="scale(0.015625)"/>
       <path id="DejaVuSerif-45" d="M 738 331 
L 738 4531 
L 184 4531 
L 184 4863 
L 1313 4863 
L 1313 2803 
Q 1481 3116 1742 3264 
Q 2003 3413 2388 3413 
Q 3000 3413 3387 2928 
Q 3775 2444 3775 1663 
Q 3775 881 3387 395 
Q 3000 -91 2388 -91 
Q 2003 -91 1742 57 
Q 1481 206 1313 519 
L 1313 0 
L 184 0 
L 184 331 
L 738 331 
z
M 1313 1497 
Q 1313 897 1542 583 
Q 1772 269 2209 269 
Q 2650 269 2876 622 
Q 3103 975 3103 1663 
Q 3103 2353 2876 2703 
Q 2650 3053 2209 3053 
Q 1772 3053 1542 2737 
Q 1313 2422 1313 1825 
L 1313 1497 
z
" transform="scale(0.015625)"/>
       <path id="DejaVuSerif-4f" d="M 1313 331 
L 1856 331 
L 1856 0 
L 184 0 
L 184 331 
L 738 331 
L 738 4531 
L 184 4531 
L 184 4863 
L 1313 4863 
L 1313 331 
z
" transform="scale(0.015625)"/>
       <path id="DejaVuSerif-48" d="M 3469 1600 
L 991 1600 
L 991 1575 
Q 991 903 1244 561 
Q 1497 219 1991 219 
Q 2369 219 2611 417 
Q 2853 616 2950 1006 
L 3413 1006 
Q 3275 459 2904 184 
Q 2534 -91 1931 -91 
Q 1203 -91 761 389 
Q 319 869 319 1663 
Q 319 2450 753 2931 
Q 1188 3413 1894 3413 
Q 2647 3413 3050 2948 
Q 3453 2484 3469 1600 
z
M 2791 1931 
Q 2772 2513 2545 2808 
Q 2319 3103 1894 3103 
Q 1497 3103 1269 2806 
Q 1041 2509 991 1931 
L 2791 1931 
z
" transform="scale(0.015625)"/>
       <path id="DejaVuSerif-50" d="M 3316 2675 
Q 3481 3041 3739 3227 
Q 3997 3413 4341 3413 
Q 4863 3413 5119 3089 
Q 5375 2766 5375 2113 
L 5375 331 
L 5894 331 
L 5894 0 
L 4300 0 
L 4300 331 
L 4800 331 
L 4800 2047 
Q 4800 2556 4650 2772 
Q 4500 2988 4153 2988 
Q 3769 2988 3567 2697 
Q 3366 2406 3366 1850 
L 3366 331 
L 3866 331 
L 3866 0 
L 2291 0 
L 2291 331 
L 2791 331 
L 2791 2069 
Q 2791 2566 2641 2777 
Q 2491 2988 2144 2988 
Q 1759 2988 1557 2697 
Q 1356 2406 1356 1850 
L 1356 331 
L 1856 331 
L 1856 0 
L 263 0 
L 263 331 
L 781 331 
L 781 2994 
L 231 2994 
L 231 3322 
L 1356 3322 
L 1356 2731 
Q 1516 3063 1762 3238 
Q 2009 3413 2322 3413 
Q 2709 3413 2968 3220 
Q 3228 3028 3316 2675 
z
" transform="scale(0.015625)"/>
       <path id="DejaVuSerif-3" transform="scale(0.015625)"/>
       <path id="DejaVuSerif-36" d="M 594 225 
L 594 1288 
L 953 1284 
Q 969 753 1261 498 
Q 1553 244 2150 244 
Q 2706 244 2998 464 
Q 3291 684 3291 1106 
Q 3291 1444 3114 1625 
Q 2938 1806 2369 1978 
L 1753 2163 
Q 1084 2366 811 2669 
Q 538 2972 538 3500 
Q 538 4094 959 4422 
Q 1381 4750 2144 4750 
Q 2469 4750 2856 4679 
Q 3244 4609 3681 4475 
L 3681 3481 
L 3328 3481 
Q 3275 3975 2998 4195 
Q 2722 4416 2156 4416 
Q 1663 4416 1405 4214 
Q 1147 4013 1147 3628 
Q 1147 3294 1340 3103 
Q 1534 2913 2163 2725 
L 2741 2553 
Q 3375 2363 3645 2067 
Q 3916 1772 3916 1275 
Q 3916 597 3481 253 
Q 3047 -91 2188 -91 
Q 1803 -91 1404 -12 
Q 1006 66 594 225 
z
" transform="scale(0.015625)"/>
       <path id="DejaVuSerif-4c" d="M 622 4353 
Q 622 4497 726 4603 
Q 831 4709 978 4709 
Q 1122 4709 1226 4603 
Q 1331 4497 1331 4353 
Q 1331 4206 1228 4103 
Q 1125 4000 978 4000 
Q 831 4000 726 4103 
Q 622 4206 622 4353 
z
M 1356 331 
L 1900 331 
L 1900 0 
L 231 0 
L 231 331 
L 781 331 
L 781 2988 
L 231 2988 
L 231 3322 
L 1356 3322 
L 1356 331 
z
" transform="scale(0.015625)"/>
       <path id="DejaVuSerif-5d" d="M 256 0 
L 256 269 
L 2338 2988 
L 691 2988 
L 691 2413 
L 359 2413 
L 359 3322 
L 3078 3322 
L 3078 3053 
L 997 331 
L 2803 331 
L 2803 934 
L 3138 934 
L 3138 0 
L 256 0 
z
" transform="scale(0.015625)"/>
       <path id="DejaVuSerif-b" d="M 2041 -997 
Q 1281 -656 893 83 
Q 506 822 506 1931 
Q 506 3044 893 3783 
Q 1281 4522 2041 4863 
L 2041 4556 
Q 1559 4225 1350 3623 
Q 1141 3022 1141 1931 
Q 1141 844 1350 242 
Q 1559 -359 2041 -691 
L 2041 -997 
z
" transform="scale(0.015625)"/>
       <path id="DejaVuSerif-31" d="M 313 0 
L 313 331 
L 941 331 
L 941 4331 
L 313 4331 
L 313 4666 
L 1509 4666 
L 4306 984 
L 4306 4331 
L 3681 4331 
L 3681 4666 
L 5319 4666 
L 5319 4331 
L 4691 4331 
L 4691 -91 
L 4313 -91 
L 1325 3841 
L 1325 331 
L 1953 331 
L 1953 0 
L 313 0 
z
" transform="scale(0.015625)"/>
       <path id="DejaVuSerif-58" d="M 2266 3322 
L 3341 3322 
L 3341 331 
L 3884 331 
L 3884 0 
L 2766 0 
L 2766 588 
Q 2606 256 2353 82 
Q 2100 -91 1766 -91 
Q 1213 -91 952 223 
Q 691 538 691 1209 
L 691 2988 
L 172 2988 
L 172 3322 
L 1269 3322 
L 1269 1388 
Q 1269 781 1417 556 
Q 1566 331 1947 331 
Q 2347 331 2556 625 
Q 2766 919 2766 1478 
L 2766 2988 
L 2266 2988 
L 2266 3322 
z
" transform="scale(0.015625)"/>
       <path id="DejaVuSerif-49" d="M 2753 4078 
L 2450 4078 
Q 2447 4313 2317 4434 
Q 2188 4556 1941 4556 
Q 1619 4556 1487 4379 
Q 1356 4203 1356 3750 
L 1356 3322 
L 2284 3322 
L 2284 2988 
L 1356 2988 
L 1356 331 
L 2094 331 
L 2094 0 
L 231 0 
L 231 331 
L 781 331 
L 781 2988 
L 231 2988 
L 231 3322 
L 781 3322 
L 781 3738 
Q 781 4294 1070 4578 
Q 1359 4863 1919 4863 
Q 2128 4863 2337 4825 
Q 2547 4788 2753 4709 
L 2753 4078 
z
" transform="scale(0.015625)"/>
       <path id="DejaVuSerif-26" d="M 4513 1234 
Q 4306 581 3820 245 
Q 3334 -91 2591 -91 
Q 2134 -91 1743 65 
Q 1353 222 1050 525 
Q 700 875 529 1320 
Q 359 1766 359 2328 
Q 359 3416 987 4083 
Q 1616 4750 2644 4750 
Q 3025 4750 3456 4650 
Q 3888 4550 4384 4347 
L 4384 3272 
L 4031 3272 
Q 3916 3859 3567 4137 
Q 3219 4416 2591 4416 
Q 1844 4416 1459 3886 
Q 1075 3356 1075 2328 
Q 1075 1303 1459 773 
Q 1844 244 2591 244 
Q 3113 244 3450 492 
Q 3788 741 3938 1234 
L 4513 1234 
z
" transform="scale(0.015625)"/>
       <path id="DejaVuSerif-56" d="M 359 184 
L 359 959 
L 691 959 
Q 703 588 923 403 
Q 1144 219 1575 219 
Q 1963 219 2166 364 
Q 2369 509 2369 788 
Q 2369 1006 2220 1140 
Q 2072 1275 1594 1428 
L 1178 1569 
Q 750 1706 558 1912 
Q 366 2119 366 2438 
Q 366 2894 700 3153 
Q 1034 3413 1625 3413 
Q 1888 3413 2178 3344 
Q 2469 3275 2778 3144 
L 2778 2419 
L 2447 2419 
Q 2434 2741 2221 2922 
Q 2009 3103 1644 3103 
Q 1281 3103 1095 2975 
Q 909 2847 909 2591 
Q 909 2381 1050 2254 
Q 1191 2128 1613 1997 
L 2069 1856 
Q 2541 1709 2748 1489 
Q 2956 1269 2956 922 
Q 2956 450 2595 179 
Q 2234 -91 1600 -91 
Q 1278 -91 972 -22 
Q 666 47 359 184 
z
" transform="scale(0.015625)"/>
       <path id="DejaVuSerif-57" d="M 691 2988 
L 184 2988 
L 184 3322 
L 691 3322 
L 691 4353 
L 1269 4353 
L 1269 3322 
L 2350 3322 
L 2350 2988 
L 1269 2988 
L 1269 878 
Q 1269 456 1350 337 
Q 1431 219 1650 219 
Q 1875 219 1978 351 
Q 2081 484 2088 781 
L 2522 781 
Q 2497 328 2275 118 
Q 2053 -91 1600 -91 
Q 1103 -91 897 129 
Q 691 350 691 878 
L 691 2988 
z
" transform="scale(0.015625)"/>
       <path id="DejaVuSerif-c" d="M 453 -997 
L 453 -691 
Q 934 -359 1145 242 
Q 1356 844 1356 1931 
Q 1356 3022 1145 3623 
Q 934 4225 453 4556 
L 453 4863 
Q 1216 4522 1603 3783 
Q 1991 3044 1991 1931 
Q 1991 822 1603 83 
Q 1216 -656 453 -997 
z
" transform="scale(0.015625)"/>
      </defs>
      <use xlink:href="#DejaVuSerif-33"/>
      <use xlink:href="#DejaVuSerif-55" transform="translate(67.28125 0)"/>
      <use xlink:href="#DejaVuSerif-52" transform="translate(115.078125 0)"/>
      <use xlink:href="#DejaVuSerif-45" transform="translate(175.28125 0)"/>
      <use xlink:href="#DejaVuSerif-4f" transform="translate(239.296875 0)"/>
      <use xlink:href="#DejaVuSerif-48" transform="translate(271.28125 0)"/>
      <use xlink:href="#DejaVuSerif-50" transform="translate(330.46875 0)"/>
      <use xlink:href="#DejaVuSerif-3" transform="translate(425.296875 0)"/>
      <use xlink:href="#DejaVuSerif-36" transform="translate(457.078125 0)"/>
      <use xlink:href="#DejaVuSerif-4c" transform="translate(525.578125 0)"/>
      <use xlink:href="#DejaVuSerif-5d" transform="translate(557.5625 0)"/>
      <use xlink:href="#DejaVuSerif-48" transform="translate(610.25 0)"/>
      <use xlink:href="#DejaVuSerif-3" transform="translate(669.4375 0)"/>
      <use xlink:href="#DejaVuSerif-b" transform="translate(701.21875 0)"/>
      <use xlink:href="#DejaVuSerif-31" transform="translate(740.234375 0)"/>
      <use xlink:href="#DejaVuSerif-58" transform="translate(827.734375 0)"/>
      <use xlink:href="#DejaVuSerif-50" transform="translate(892.140625 0)"/>
      <use xlink:href="#DejaVuSerif-45" transform="translate(986.96875 0)"/>
      <use xlink:href="#DejaVuSerif-48" transform="translate(1050.984375 0)"/>
      <use xlink:href="#DejaVuSerif-55" transform="translate(1110.171875 0)"/>
      <use xlink:href="#DejaVuSerif-3" transform="translate(1157.96875 0)"/>
      <use xlink:href="#DejaVuSerif-52" transform="translate(1189.75 0)"/>
      <use xlink:href="#DejaVuSerif-49" transform="translate(1249.953125 0)"/>
      <use xlink:href="#DejaVuSerif-3" transform="translate(1286.96875 0)"/>
      <use xlink:href="#DejaVuSerif-26" transform="translate(1318.75 0)"/>
      <use xlink:href="#DejaVuSerif-58" transform="translate(1395.265625 0)"/>
      <use xlink:href="#DejaVuSerif-56" transform="translate(1459.671875 0)"/>
      <use xlink:href="#DejaVuSerif-57" transform="translate(1510.984375 0)"/>
      <use xlink:href="#DejaVuSerif-52" transform="translate(1551.171875 0)"/>
      <use xlink:href="#DejaVuSerif-50" transform="translate(1611.375 0)"/>
      <use xlink:href="#DejaVuSerif-48" transform="translate(1706.203125 0)"/>
      <use xlink:href="#DejaVuSerif-55" transform="translate(1765.390625 0)"/>
      <use xlink:href="#DejaVuSerif-56" transform="translate(1813.1875 0)"/>
      <use xlink:href="#DejaVuSerif-c" transform="translate(1864.5 0)"/>
     </g>
    </g>
   </g>
   <g id="matplotlib.axis_2">
    <g id="ytick_1">
     <g id="line2d_7">
      <path d="M 113.95375 215.156987 
L 405.92875 215.156987 
" clip-path="url(#pfdf5f865e5)" style="fill: none; stroke-dasharray: 0.5,0.825; stroke-dashoffset: 0; stroke: #bfbfbf; stroke-opacity: 0.7; stroke-width: 0.5"/>
     </g>
     <g id="line2d_8">
      <defs>
       <path id="m66b9c57865" d="M 0 0 
L -3.5 0 
" style="stroke: #000000; stroke-width: 0.8"/>
      </defs>
      <g>
       <use xlink:href="#m66b9c57865" x="113.95375" y="215.156987" style="stroke: #000000; stroke-width: 0.8"/>
      </g>
     </g>
     <g id="text_5">
      <!-- 300 -->
      <g transform="translate(89.775 218.575932) scale(0.09 -0.09)">
       <defs>
        <path id="DejaVuSerif-16" d="M 622 4469 
Q 988 4606 1323 4678 
Q 1659 4750 1953 4750 
Q 2638 4750 3022 4454 
Q 3406 4159 3406 3634 
Q 3406 3213 3140 2930 
Q 2875 2647 2388 2547 
Q 2963 2466 3280 2130 
Q 3597 1794 3597 1259 
Q 3597 606 3158 257 
Q 2719 -91 1894 -91 
Q 1528 -91 1179 -12 
Q 831 66 488 225 
L 488 1131 
L 838 1131 
Q 869 681 1141 450 
Q 1413 219 1906 219 
Q 2384 219 2661 495 
Q 2938 772 2938 1253 
Q 2938 1803 2653 2086 
Q 2369 2369 1819 2369 
L 1522 2369 
L 1522 2688 
L 1678 2688 
Q 2225 2688 2498 2914 
Q 2772 3141 2772 3597 
Q 2772 4006 2547 4223 
Q 2322 4441 1900 4441 
Q 1478 4441 1245 4241 
Q 1013 4041 972 3647 
L 622 3647 
L 622 4469 
z
" transform="scale(0.015625)"/>
       </defs>
       <use xlink:href="#DejaVuSerif-16"/>
       <use xlink:href="#DejaVuSerif-13" transform="translate(63.625 0)"/>
       <use xlink:href="#DejaVuSerif-13" transform="translate(127.25 0)"/>
      </g>
     </g>
    </g>
    <g id="ytick_2">
     <g id="line2d_9">
      <path d="M 113.95375 163.249441 
L 405.92875 163.249441 
" clip-path="url(#pfdf5f865e5)" style="fill: none; stroke-dasharray: 0.5,0.825; stroke-dashoffset: 0; stroke: #bfbfbf; stroke-opacity: 0.7; stroke-width: 0.5"/>
     </g>
     <g id="line2d_10">
      <g>
       <use xlink:href="#m66b9c57865" x="113.95375" y="163.249441" style="stroke: #000000; stroke-width: 0.8"/>
      </g>
     </g>
     <g id="text_6">
      <!-- 400 -->
      <g transform="translate(89.775 166.668386) scale(0.09 -0.09)">
       <defs>
        <path id="DejaVuSerif-17" d="M 2234 1581 
L 2234 4063 
L 641 1581 
L 2234 1581 
z
M 3609 0 
L 1484 0 
L 1484 331 
L 2234 331 
L 2234 1247 
L 197 1247 
L 197 1588 
L 2241 4750 
L 2859 4750 
L 2859 1581 
L 3750 1581 
L 3750 1247 
L 2859 1247 
L 2859 331 
L 3609 331 
L 3609 0 
z
" transform="scale(0.015625)"/>
       </defs>
       <use xlink:href="#DejaVuSerif-17"/>
       <use xlink:href="#DejaVuSerif-13" transform="translate(63.625 0)"/>
       <use xlink:href="#DejaVuSerif-13" transform="translate(127.25 0)"/>
      </g>
     </g>
    </g>
    <g id="ytick_3">
     <g id="line2d_11">
      <path d="M 113.95375 111.341895 
L 405.92875 111.341895 
" clip-path="url(#pfdf5f865e5)" style="fill: none; stroke-dasharray: 0.5,0.825; stroke-dashoffset: 0; stroke: #bfbfbf; stroke-opacity: 0.7; stroke-width: 0.5"/>
     </g>
     <g id="line2d_12">
      <g>
       <use xlink:href="#m66b9c57865" x="113.95375" y="111.341895" style="stroke: #000000; stroke-width: 0.8"/>
      </g>
     </g>
     <g id="text_7">
      <!-- 500 -->
      <g transform="translate(89.775 114.76084) scale(0.09 -0.09)">
       <use xlink:href="#DejaVuSerif-18"/>
       <use xlink:href="#DejaVuSerif-13" transform="translate(63.625 0)"/>
       <use xlink:href="#DejaVuSerif-13" transform="translate(127.25 0)"/>
      </g>
     </g>
    </g>
    <g id="ytick_4">
     <g id="line2d_13">
      <path d="M 113.95375 59.434349 
L 405.92875 59.434349 
" clip-path="url(#pfdf5f865e5)" style="fill: none; stroke-dasharray: 0.5,0.825; stroke-dashoffset: 0; stroke: #bfbfbf; stroke-opacity: 0.7; stroke-width: 0.5"/>
     </g>
     <g id="line2d_14">
      <g>
       <use xlink:href="#m66b9c57865" x="113.95375" y="59.434349" style="stroke: #000000; stroke-width: 0.8"/>
      </g>
     </g>
     <g id="text_8">
      <!-- 600 -->
      <g transform="translate(89.775 62.853294) scale(0.09 -0.09)">
       <defs>
        <path id="DejaVuSerif-19" d="M 2094 219 
Q 2534 219 2771 542 
Q 3009 866 3009 1472 
Q 3009 2078 2771 2401 
Q 2534 2725 2094 2725 
Q 1647 2725 1412 2412 
Q 1178 2100 1178 1509 
Q 1178 888 1415 553 
Q 1653 219 2094 219 
z
M 1075 2569 
Q 1288 2803 1556 2918 
Q 1825 3034 2163 3034 
Q 2859 3034 3264 2615 
Q 3669 2197 3669 1472 
Q 3669 763 3233 336 
Q 2797 -91 2069 -91 
Q 1278 -91 853 498 
Q 428 1088 428 2181 
Q 428 3406 931 4078 
Q 1434 4750 2350 4750 
Q 2597 4750 2869 4703 
Q 3141 4656 3425 4563 
L 3425 3794 
L 3072 3794 
Q 3034 4109 2831 4275 
Q 2628 4441 2284 4441 
Q 1678 4441 1381 3981 
Q 1084 3522 1075 2569 
z
" transform="scale(0.015625)"/>
       </defs>
       <use xlink:href="#DejaVuSerif-19"/>
       <use xlink:href="#DejaVuSerif-13" transform="translate(63.625 0)"/>
       <use xlink:href="#DejaVuSerif-13" transform="translate(127.25 0)"/>
      </g>
     </g>
    </g>
    <g id="ytick_5">
     <g id="line2d_15">
      <path d="M 113.95375 7.526803 
L 405.92875 7.526803 
" clip-path="url(#pfdf5f865e5)" style="fill: none; stroke-dasharray: 0.5,0.825; stroke-dashoffset: 0; stroke: #bfbfbf; stroke-opacity: 0.7; stroke-width: 0.5"/>
     </g>
     <g id="line2d_16">
      <g>
       <use xlink:href="#m66b9c57865" x="113.95375" y="7.526803" style="stroke: #000000; stroke-width: 0.8"/>
      </g>
     </g>
     <g id="text_9">
      <!-- 700 -->
      <g transform="translate(89.775 10.945748) scale(0.09 -0.09)">
       <defs>
        <path id="DejaVuSerif-1a" d="M 3609 4347 
L 1784 0 
L 1319 0 
L 3059 4153 
L 903 4153 
L 903 3578 
L 538 3578 
L 538 4666 
L 3609 4666 
L 3609 4347 
z
" transform="scale(0.015625)"/>
       </defs>
       <use xlink:href="#DejaVuSerif-1a"/>
       <use xlink:href="#DejaVuSerif-13" transform="translate(63.625 0)"/>
       <use xlink:href="#DejaVuSerif-13" transform="translate(127.25 0)"/>
      </g>
     </g>
    </g>
    <g id="text_10">
     <!-- Total Distance -->
     <g transform="translate(83.132422 174.254456) rotate(-90) scale(0.11 -0.11)">
      <defs>
       <path id="DejaVuSerif-37" d="M 1222 0 
L 1222 331 
L 1819 331 
L 1819 4294 
L 447 4294 
L 447 3566 
L 63 3566 
L 63 4666 
L 4206 4666 
L 4206 3566 
L 3822 3566 
L 3822 4294 
L 2450 4294 
L 2450 331 
L 3047 331 
L 3047 0 
L 1222 0 
z
" transform="scale(0.015625)"/>
       <path id="DejaVuSerif-44" d="M 2547 1044 
L 2547 1747 
L 1806 1747 
Q 1378 1747 1168 1562 
Q 959 1378 959 997 
Q 959 650 1171 447 
Q 1384 244 1747 244 
Q 2106 244 2326 466 
Q 2547 688 2547 1044 
z
M 3122 2075 
L 3122 331 
L 3634 331 
L 3634 0 
L 2547 0 
L 2547 359 
Q 2356 128 2106 18 
Q 1856 -91 1522 -91 
Q 969 -91 644 203 
Q 319 497 319 997 
Q 319 1513 691 1797 
Q 1063 2081 1741 2081 
L 2547 2081 
L 2547 2309 
Q 2547 2688 2317 2895 
Q 2088 3103 1672 3103 
Q 1328 3103 1125 2947 
Q 922 2791 872 2484 
L 575 2484 
L 575 3156 
Q 875 3284 1158 3348 
Q 1441 3413 1709 3413 
Q 2400 3413 2761 3070 
Q 3122 2728 3122 2075 
z
" transform="scale(0.015625)"/>
       <path id="DejaVuSerif-27" d="M 1581 331 
L 2163 331 
Q 3072 331 3558 850 
Q 4044 1369 4044 2338 
Q 4044 3306 3559 3818 
Q 3075 4331 2163 4331 
L 1581 4331 
L 1581 331 
z
M 353 0 
L 353 331 
L 947 331 
L 947 4331 
L 353 4331 
L 353 4666 
L 2209 4666 
Q 3416 4666 4089 4050 
Q 4763 3434 4763 2338 
Q 4763 1238 4088 619 
Q 3413 0 2209 0 
L 353 0 
z
" transform="scale(0.015625)"/>
       <path id="DejaVuSerif-51" d="M 263 0 
L 263 331 
L 781 331 
L 781 2988 
L 231 2988 
L 231 3322 
L 1356 3322 
L 1356 2731 
Q 1516 3069 1770 3241 
Q 2025 3413 2363 3413 
Q 2913 3413 3172 3097 
Q 3431 2781 3431 2113 
L 3431 331 
L 3944 331 
L 3944 0 
L 2356 0 
L 2356 331 
L 2853 331 
L 2853 1931 
Q 2853 2541 2703 2767 
Q 2553 2994 2175 2994 
Q 1775 2994 1565 2701 
Q 1356 2409 1356 1850 
L 1356 331 
L 1856 331 
L 1856 0 
L 263 0 
z
" transform="scale(0.015625)"/>
       <path id="DejaVuSerif-46" d="M 3291 997 
Q 3169 466 2822 187 
Q 2475 -91 1925 -91 
Q 1200 -91 759 389 
Q 319 869 319 1663 
Q 319 2459 759 2936 
Q 1200 3413 1925 3413 
Q 2241 3413 2553 3339 
Q 2866 3266 3181 3116 
L 3181 2266 
L 2847 2266 
Q 2781 2703 2561 2903 
Q 2341 3103 1931 3103 
Q 1466 3103 1228 2742 
Q 991 2381 991 1663 
Q 991 944 1227 581 
Q 1463 219 1931 219 
Q 2303 219 2525 412 
Q 2747 606 2828 997 
L 3291 997 
z
" transform="scale(0.015625)"/>
      </defs>
      <use xlink:href="#DejaVuSerif-37"/>
      <use xlink:href="#DejaVuSerif-52" transform="translate(58.9375 0)"/>
      <use xlink:href="#DejaVuSerif-57" transform="translate(119.140625 0)"/>
      <use xlink:href="#DejaVuSerif-44" transform="translate(159.328125 0)"/>
      <use xlink:href="#DejaVuSerif-4f" transform="translate(218.953125 0)"/>
      <use xlink:href="#DejaVuSerif-3" transform="translate(250.9375 0)"/>
      <use xlink:href="#DejaVuSerif-27" transform="translate(282.71875 0)"/>
      <use xlink:href="#DejaVuSerif-4c" transform="translate(362.890625 0)"/>
      <use xlink:href="#DejaVuSerif-56" transform="translate(394.875 0)"/>
      <use xlink:href="#DejaVuSerif-57" transform="translate(446.1875 0)"/>
      <use xlink:href="#DejaVuSerif-44" transform="translate(486.375 0)"/>
      <use xlink:href="#DejaVuSerif-51" transform="translate(546 0)"/>
      <use xlink:href="#DejaVuSerif-46" transform="translate(610.40625 0)"/>
      <use xlink:href="#DejaVuSerif-48" transform="translate(666.40625 0)"/>
     </g>
    </g>
   </g>
   <g id="line2d_17">
    <path d="M 131.12875 249.690589 
L 217.00375 161.183958 
L 388.75375 31.433673 
" clip-path="url(#pfdf5f865e5)" style="fill: none; stroke: #000000; stroke-width: 1.2; stroke-linecap: square"/>
    <defs>
     <path id="m67ff580b2a" d="M 0 3.5 
C 0.928211 3.5 1.81853 3.131218 2.474874 2.474874 
C 3.131218 1.81853 3.5 0.928211 3.5 0 
C 3.5 -0.928211 3.131218 -1.81853 2.474874 -2.474874 
C 1.81853 -3.131218 0.928211 -3.5 0 -3.5 
C -0.928211 -3.5 -1.81853 -3.131218 -2.474874 -2.474874 
C -3.131218 -1.81853 -3.5 -0.928211 -3.5 0 
C -3.5 0.928211 -3.131218 1.81853 -2.474874 2.474874 
C -1.81853 3.131218 -0.928211 3.5 0 3.5 
z
" style="stroke: #000000"/>
    </defs>
    <g clip-path="url(#pfdf5f865e5)">
     <use xlink:href="#m67ff580b2a" x="131.12875" y="249.690589" style="stroke: #000000"/>
     <use xlink:href="#m67ff580b2a" x="217.00375" y="161.183958" style="stroke: #000000"/>
     <use xlink:href="#m67ff580b2a" x="388.75375" y="31.433673" style="stroke: #000000"/>
    </g>
   </g>
   <g id="line2d_18">
    <path d="M 131.12875 234.105373 
L 217.00375 161.437404 
L 388.75375 49.451956 
" clip-path="url(#pfdf5f865e5)" style="fill: none; stroke-dasharray: 4.44,1.92; stroke-dashoffset: 0; stroke: #000000; stroke-width: 1.2"/>
    <defs>
     <path id="mb0a2b45aa2" d="M 0 -3.5 
L -3.5 3.5 
L 3.5 3.5 
z
" style="stroke: #000000; stroke-linejoin: miter"/>
    </defs>
    <g clip-path="url(#pfdf5f865e5)">
     <use xlink:href="#mb0a2b45aa2" x="131.12875" y="234.105373" style="fill-opacity: 0; stroke: #000000; stroke-linejoin: miter"/>
     <use xlink:href="#mb0a2b45aa2" x="217.00375" y="161.437404" style="fill-opacity: 0; stroke: #000000; stroke-linejoin: miter"/>
     <use xlink:href="#mb0a2b45aa2" x="388.75375" y="49.451956" style="fill-opacity: 0; stroke: #000000; stroke-linejoin: miter"/>
    </g>
   </g>
   <g id="line2d_19">
    <path d="M 131.12875 252.160965 
L 217.00375 160.669013 
L 388.75375 62.602869 
" clip-path="url(#pfdf5f865e5)" style="fill: none; stroke-dasharray: 7.68,1.92,1.2,1.92; stroke-dashoffset: 0; stroke: #000000; stroke-width: 1.2"/>
    <defs>
     <path id="m66ae57af06" d="M -3.5 3.5 
L 3.5 3.5 
L 3.5 -3.5 
L -3.5 -3.5 
z
" style="stroke: #000000; stroke-linejoin: miter"/>
    </defs>
    <g clip-path="url(#pfdf5f865e5)">
     <use xlink:href="#m66ae57af06" x="131.12875" y="252.160965" style="stroke: #000000; stroke-linejoin: miter"/>
     <use xlink:href="#m66ae57af06" x="217.00375" y="160.669013" style="stroke: #000000; stroke-linejoin: miter"/>
     <use xlink:href="#m66ae57af06" x="388.75375" y="62.602869" style="stroke: #000000; stroke-linejoin: miter"/>
    </g>
   </g>
   <g id="line2d_20">
    <path d="M 131.12875 248.6179 
L 217.00375 163.282135 
L 388.75375 49.71301 
" clip-path="url(#pfdf5f865e5)" style="fill: none; stroke-dasharray: 1.2,1.98; stroke-dashoffset: 0; stroke: #000000; stroke-width: 1.2"/>
    <defs>
     <path id="ma9212a54bb" d="M -0 4.949747 
L 4.949747 0 
L 0 -4.949747 
L -4.949747 -0 
z
" style="stroke: #000000; stroke-linejoin: miter"/>
    </defs>
    <g clip-path="url(#pfdf5f865e5)">
     <use xlink:href="#ma9212a54bb" x="131.12875" y="248.6179" style="fill-opacity: 0; stroke: #000000; stroke-linejoin: miter"/>
     <use xlink:href="#ma9212a54bb" x="217.00375" y="163.282135" style="fill-opacity: 0; stroke: #000000; stroke-linejoin: miter"/>
     <use xlink:href="#ma9212a54bb" x="388.75375" y="49.71301" style="fill-opacity: 0; stroke: #000000; stroke-linejoin: miter"/>
    </g>
   </g>
   <g id="line2d_21">
    <path d="M 131.12875 208.489257 
L 217.00375 103.583927 
L 388.75375 15.486073 
" clip-path="url(#pfdf5f865e5)" style="fill: none; stroke-dasharray: 0.9,1.8; stroke-dashoffset: 0.54; stroke: #000000; stroke-width: 0.9"/>
   </g>
   <g id="line2d_22">
    <path d="M 131.12875 250.936486 
L 217.00375 177.251594 
L 388.75375 79.104352 
" clip-path="url(#pfdf5f865e5)" style="fill: none; stroke-dasharray: 2.7,2.7,0.9,2.7; stroke-dashoffset: 0.54; stroke: #000000; stroke-width: 0.9"/>
   </g>
   <g id="patch_3">
    <path d="M 113.95375 265.0936 
L 113.95375 3.6 
" style="fill: none; stroke: #000000; stroke-width: 0.8; stroke-linejoin: miter; stroke-linecap: square"/>
   </g>
   <g id="patch_4">
    <path d="M 113.95375 265.0936 
L 405.92875 265.0936 
" style="fill: none; stroke: #000000; stroke-width: 0.8; stroke-linejoin: miter; stroke-linecap: square"/>
   </g>
   <g id="legend_1">
    <g id="line2d_23">
     <path d="M 6.8 288.239948 
L 14.8 288.239948 
L 22.8 288.239948 
" style="fill: none; stroke: #000000; stroke-width: 1.2; stroke-linecap: square"/>
     <g>
      <use xlink:href="#m67ff580b2a" x="14.8" y="288.239948" style="stroke: #000000"/>
     </g>
    </g>
    <g id="text_11">
     <!-- C1 (a=1.0, b=2.0, r=0.1) -->
     <g transform="translate(29.2 291.039948) scale(0.08 -0.08)">
      <defs>
       <path id="DejaVuSerif-20" d="M 678 2894 
L 4684 2894 
L 4684 2394 
L 678 2394 
L 678 2894 
z
M 678 1619 
L 4684 1619 
L 4684 1119 
L 678 1119 
L 678 1619 
z
" transform="scale(0.015625)"/>
       <path id="DejaVuSerif-11" d="M 603 325 
Q 603 500 722 622 
Q 841 744 1019 744 
Q 1191 744 1312 622 
Q 1434 500 1434 325 
Q 1434 153 1312 31 
Q 1191 -91 1019 -91 
Q 841 -91 722 29 
Q 603 150 603 325 
z
" transform="scale(0.015625)"/>
       <path id="DejaVuSerif-f" d="M 231 -622 
Q 525 -406 662 -114 
Q 800 178 800 594 
L 800 709 
L 1416 709 
Q 1391 175 1164 -208 
Q 938 -591 481 -872 
L 231 -622 
z
" transform="scale(0.015625)"/>
      </defs>
      <use xlink:href="#DejaVuSerif-26"/>
      <use xlink:href="#DejaVuSerif-14" transform="translate(76.515625 0)"/>
      <use xlink:href="#DejaVuSerif-3" transform="translate(140.140625 0)"/>
      <use xlink:href="#DejaVuSerif-b" transform="translate(171.921875 0)"/>
      <use xlink:href="#DejaVuSerif-44" transform="translate(210.9375 0)"/>
      <use xlink:href="#DejaVuSerif-20" transform="translate(270.5625 0)"/>
      <use xlink:href="#DejaVuSerif-14" transform="translate(354.359375 0)"/>
      <use xlink:href="#DejaVuSerif-11" transform="translate(417.984375 0)"/>
      <use xlink:href="#DejaVuSerif-13" transform="translate(449.765625 0)"/>
      <use xlink:href="#DejaVuSerif-f" transform="translate(513.390625 0)"/>
      <use xlink:href="#DejaVuSerif-3" transform="translate(545.171875 0)"/>
      <use xlink:href="#DejaVuSerif-45" transform="translate(576.953125 0)"/>
      <use xlink:href="#DejaVuSerif-20" transform="translate(640.96875 0)"/>
      <use xlink:href="#DejaVuSerif-15" transform="translate(724.765625 0)"/>
      <use xlink:href="#DejaVuSerif-11" transform="translate(788.390625 0)"/>
      <use xlink:href="#DejaVuSerif-13" transform="translate(820.171875 0)"/>
      <use xlink:href="#DejaVuSerif-f" transform="translate(883.796875 0)"/>
      <use xlink:href="#DejaVuSerif-3" transform="translate(915.578125 0)"/>
      <use xlink:href="#DejaVuSerif-55" transform="translate(947.359375 0)"/>
      <use xlink:href="#DejaVuSerif-20" transform="translate(995.15625 0)"/>
      <use xlink:href="#DejaVuSerif-13" transform="translate(1078.953125 0)"/>
      <use xlink:href="#DejaVuSerif-11" transform="translate(1142.578125 0)"/>
      <use xlink:href="#DejaVuSerif-14" transform="translate(1174.359375 0)"/>
      <use xlink:href="#DejaVuSerif-c" transform="translate(1237.984375 0)"/>
     </g>
    </g>
    <g id="line2d_24">
     <path d="M 6.8 300.240573 
L 14.8 300.240573 
L 22.8 300.240573 
" style="fill: none; stroke-dasharray: 4.44,1.92; stroke-dashoffset: 0; stroke: #000000; stroke-width: 1.2"/>
     <g>
      <use xlink:href="#mb0a2b45aa2" x="14.8" y="300.240573" style="fill-opacity: 0; stroke: #000000; stroke-linejoin: miter"/>
     </g>
    </g>
    <g id="text_12">
     <!-- C2 (a=1.0, b=5.0, r=0.1) -->
     <g transform="translate(29.2 303.040573) scale(0.08 -0.08)">
      <use xlink:href="#DejaVuSerif-26"/>
      <use xlink:href="#DejaVuSerif-15" transform="translate(76.515625 0)"/>
      <use xlink:href="#DejaVuSerif-3" transform="translate(140.140625 0)"/>
      <use xlink:href="#DejaVuSerif-b" transform="translate(171.921875 0)"/>
      <use xlink:href="#DejaVuSerif-44" transform="translate(210.9375 0)"/>
      <use xlink:href="#DejaVuSerif-20" transform="translate(270.5625 0)"/>
      <use xlink:href="#DejaVuSerif-14" transform="translate(354.359375 0)"/>
      <use xlink:href="#DejaVuSerif-11" transform="translate(417.984375 0)"/>
      <use xlink:href="#DejaVuSerif-13" transform="translate(449.765625 0)"/>
      <use xlink:href="#DejaVuSerif-f" transform="translate(513.390625 0)"/>
      <use xlink:href="#DejaVuSerif-3" transform="translate(545.171875 0)"/>
      <use xlink:href="#DejaVuSerif-45" transform="translate(576.953125 0)"/>
      <use xlink:href="#DejaVuSerif-20" transform="translate(640.96875 0)"/>
      <use xlink:href="#DejaVuSerif-18" transform="translate(724.765625 0)"/>
      <use xlink:href="#DejaVuSerif-11" transform="translate(788.390625 0)"/>
      <use xlink:href="#DejaVuSerif-13" transform="translate(820.171875 0)"/>
      <use xlink:href="#DejaVuSerif-f" transform="translate(883.796875 0)"/>
      <use xlink:href="#DejaVuSerif-3" transform="translate(915.578125 0)"/>
      <use xlink:href="#DejaVuSerif-55" transform="translate(947.359375 0)"/>
      <use xlink:href="#DejaVuSerif-20" transform="translate(995.15625 0)"/>
      <use xlink:href="#DejaVuSerif-13" transform="translate(1078.953125 0)"/>
      <use xlink:href="#DejaVuSerif-11" transform="translate(1142.578125 0)"/>
      <use xlink:href="#DejaVuSerif-14" transform="translate(1174.359375 0)"/>
      <use xlink:href="#DejaVuSerif-c" transform="translate(1237.984375 0)"/>
     </g>
    </g>
    <g id="line2d_25">
     <path d="M 147.36 288.239948 
L 155.36 288.239948 
L 163.36 288.239948 
" style="fill: none; stroke-dasharray: 7.68,1.92,1.2,1.92; stroke-dashoffset: 0; stroke: #000000; stroke-width: 1.2"/>
     <g>
      <use xlink:href="#m66ae57af06" x="155.36" y="288.239948" style="stroke: #000000; stroke-linejoin: miter"/>
     </g>
    </g>
    <g id="text_13">
     <!-- C3 (a=2.0, b=2.0, r=0.3) -->
     <g transform="translate(169.76 291.039948) scale(0.08 -0.08)">
      <use xlink:href="#DejaVuSerif-26"/>
      <use xlink:href="#DejaVuSerif-16" transform="translate(76.515625 0)"/>
      <use xlink:href="#DejaVuSerif-3" transform="translate(140.140625 0)"/>
      <use xlink:href="#DejaVuSerif-b" transform="translate(171.921875 0)"/>
      <use xlink:href="#DejaVuSerif-44" transform="translate(210.9375 0)"/>
      <use xlink:href="#DejaVuSerif-20" transform="translate(270.5625 0)"/>
      <use xlink:href="#DejaVuSerif-15" transform="translate(354.359375 0)"/>
      <use xlink:href="#DejaVuSerif-11" transform="translate(417.984375 0)"/>
      <use xlink:href="#DejaVuSerif-13" transform="translate(449.765625 0)"/>
      <use xlink:href="#DejaVuSerif-f" transform="translate(513.390625 0)"/>
      <use xlink:href="#DejaVuSerif-3" transform="translate(545.171875 0)"/>
      <use xlink:href="#DejaVuSerif-45" transform="translate(576.953125 0)"/>
      <use xlink:href="#DejaVuSerif-20" transform="translate(640.96875 0)"/>
      <use xlink:href="#DejaVuSerif-15" transform="translate(724.765625 0)"/>
      <use xlink:href="#DejaVuSerif-11" transform="translate(788.390625 0)"/>
      <use xlink:href="#DejaVuSerif-13" transform="translate(820.171875 0)"/>
      <use xlink:href="#DejaVuSerif-f" transform="translate(883.796875 0)"/>
      <use xlink:href="#DejaVuSerif-3" transform="translate(915.578125 0)"/>
      <use xlink:href="#DejaVuSerif-55" transform="translate(947.359375 0)"/>
      <use xlink:href="#DejaVuSerif-20" transform="translate(995.15625 0)"/>
      <use xlink:href="#DejaVuSerif-13" transform="translate(1078.953125 0)"/>
      <use xlink:href="#DejaVuSerif-11" transform="translate(1142.578125 0)"/>
      <use xlink:href="#DejaVuSerif-16" transform="translate(1174.359375 0)"/>
      <use xlink:href="#DejaVuSerif-c" transform="translate(1237.984375 0)"/>
     </g>
    </g>
    <g id="line2d_26">
     <path d="M 147.36 300.240573 
L 155.36 300.240573 
L 163.36 300.240573 
" style="fill: none; stroke-dasharray: 1.2,1.98; stroke-dashoffset: 0; stroke: #000000; stroke-width: 1.2"/>
     <g>
      <use xlink:href="#ma9212a54bb" x="155.36" y="300.240573" style="fill-opacity: 0; stroke: #000000; stroke-linejoin: miter"/>
     </g>
    </g>
    <g id="text_14">
     <!-- C4 (a=2.0, b=5.0, r=0.3) -->
     <g transform="translate(169.76 303.040573) scale(0.08 -0.08)">
      <use xlink:href="#DejaVuSerif-26"/>
      <use xlink:href="#DejaVuSerif-17" transform="translate(76.515625 0)"/>
      <use xlink:href="#DejaVuSerif-3" transform="translate(140.140625 0)"/>
      <use xlink:href="#DejaVuSerif-b" transform="translate(171.921875 0)"/>
      <use xlink:href="#DejaVuSerif-44" transform="translate(210.9375 0)"/>
      <use xlink:href="#DejaVuSerif-20" transform="translate(270.5625 0)"/>
      <use xlink:href="#DejaVuSerif-15" transform="translate(354.359375 0)"/>
      <use xlink:href="#DejaVuSerif-11" transform="translate(417.984375 0)"/>
      <use xlink:href="#DejaVuSerif-13" transform="translate(449.765625 0)"/>
      <use xlink:href="#DejaVuSerif-f" transform="translate(513.390625 0)"/>
      <use xlink:href="#DejaVuSerif-3" transform="translate(545.171875 0)"/>
      <use xlink:href="#DejaVuSerif-45" transform="translate(576.953125 0)"/>
      <use xlink:href="#DejaVuSerif-20" transform="translate(640.96875 0)"/>
      <use xlink:href="#DejaVuSerif-18" transform="translate(724.765625 0)"/>
      <use xlink:href="#DejaVuSerif-11" transform="translate(788.390625 0)"/>
      <use xlink:href="#DejaVuSerif-13" transform="translate(820.171875 0)"/>
      <use xlink:href="#DejaVuSerif-f" transform="translate(883.796875 0)"/>
      <use xlink:href="#DejaVuSerif-3" transform="translate(915.578125 0)"/>
      <use xlink:href="#DejaVuSerif-55" transform="translate(947.359375 0)"/>
      <use xlink:href="#DejaVuSerif-20" transform="translate(995.15625 0)"/>
      <use xlink:href="#DejaVuSerif-13" transform="translate(1078.953125 0)"/>
      <use xlink:href="#DejaVuSerif-11" transform="translate(1142.578125 0)"/>
      <use xlink:href="#DejaVuSerif-16" transform="translate(1174.359375 0)"/>
      <use xlink:href="#DejaVuSerif-c" transform="translate(1237.984375 0)"/>
     </g>
    </g>
    <g id="line2d_27">
     <path d="M 287.92 288.239948 
L 295.92 288.239948 
L 303.92 288.239948 
" style="fill: none; stroke-dasharray: 0.9,1.8; stroke-dashoffset: 0.54; stroke: #000000; stroke-width: 0.9"/>
    </g>
    <g id="text_15">
     <!-- Nearest Neighbor -->
     <g transform="translate(310.32 291.039948) scale(0.08 -0.08)">
      <defs>
       <path id="DejaVuSerif-4a" d="M 3359 2988 
L 3359 72 
Q 3359 -644 2965 -1033 
Q 2572 -1422 1844 -1422 
Q 1516 -1422 1216 -1362 
Q 916 -1303 641 -1184 
L 641 -488 
L 941 -488 
Q 997 -813 1206 -963 
Q 1416 -1113 1806 -1113 
Q 2313 -1113 2548 -827 
Q 2784 -541 2784 72 
L 2784 519 
Q 2616 206 2355 57 
Q 2094 -91 1709 -91 
Q 1097 -91 708 395 
Q 319 881 319 1663 
Q 319 2444 706 2928 
Q 1094 3413 1709 3413 
Q 2094 3413 2355 3264 
Q 2616 3116 2784 2803 
L 2784 3322 
L 3909 3322 
L 3909 2988 
L 3359 2988 
z
M 2784 1825 
Q 2784 2422 2554 2737 
Q 2325 3053 1888 3053 
Q 1444 3053 1217 2703 
Q 991 2353 991 1663 
Q 991 975 1217 622 
Q 1444 269 1888 269 
Q 2325 269 2554 583 
Q 2784 897 2784 1497 
L 2784 1825 
z
" transform="scale(0.015625)"/>
       <path id="DejaVuSerif-4b" d="M 263 0 
L 263 331 
L 781 331 
L 781 4531 
L 231 4531 
L 231 4863 
L 1356 4863 
L 1356 2731 
Q 1516 3069 1770 3241 
Q 2025 3413 2363 3413 
Q 2913 3413 3172 3097 
Q 3431 2781 3431 2113 
L 3431 331 
L 3944 331 
L 3944 0 
L 2356 0 
L 2356 331 
L 2853 331 
L 2853 1931 
Q 2853 2541 2704 2764 
Q 2556 2988 2175 2988 
Q 1775 2988 1565 2697 
Q 1356 2406 1356 1850 
L 1356 331 
L 1856 331 
L 1856 0 
L 263 0 
z
" transform="scale(0.015625)"/>
      </defs>
      <use xlink:href="#DejaVuSerif-31"/>
      <use xlink:href="#DejaVuSerif-48" transform="translate(87.5 0)"/>
      <use xlink:href="#DejaVuSerif-44" transform="translate(146.6875 0)"/>
      <use xlink:href="#DejaVuSerif-55" transform="translate(206.3125 0)"/>
      <use xlink:href="#DejaVuSerif-48" transform="translate(254.109375 0)"/>
      <use xlink:href="#DejaVuSerif-56" transform="translate(313.296875 0)"/>
      <use xlink:href="#DejaVuSerif-57" transform="translate(364.609375 0)"/>
      <use xlink:href="#DejaVuSerif-3" transform="translate(404.796875 0)"/>
      <use xlink:href="#DejaVuSerif-31" transform="translate(436.578125 0)"/>
      <use xlink:href="#DejaVuSerif-48" transform="translate(524.078125 0)"/>
      <use xlink:href="#DejaVuSerif-4c" transform="translate(583.265625 0)"/>
      <use xlink:href="#DejaVuSerif-4a" transform="translate(615.25 0)"/>
      <use xlink:href="#DejaVuSerif-4b" transform="translate(679.265625 0)"/>
      <use xlink:href="#DejaVuSerif-45" transform="translate(743.671875 0)"/>
      <use xlink:href="#DejaVuSerif-52" transform="translate(807.6875 0)"/>
      <use xlink:href="#DejaVuSerif-55" transform="translate(867.890625 0)"/>
     </g>
    </g>
    <g id="line2d_28">
     <path d="M 399.575 288.239948 
L 407.575 288.239948 
L 415.575 288.239948 
" style="fill: none; stroke-dasharray: 2.7,2.7,0.9,2.7; stroke-dashoffset: 0.54; stroke: #000000; stroke-width: 0.9"/>
    </g>
    <g id="text_16">
     <!-- Clarke-Wright Savings -->
     <g transform="translate(421.975 291.039948) scale(0.08 -0.08)">
      <defs>
       <path id="DejaVuSerif-4e" d="M 1831 0 
L 219 0 
L 219 331 
L 738 331 
L 738 4531 
L 184 4531 
L 184 4863 
L 1313 4863 
L 1313 1697 
L 2713 2988 
L 2234 2988 
L 2234 3322 
L 3738 3322 
L 3738 2988 
L 3169 2988 
L 2181 2075 
L 3444 331 
L 3922 331 
L 3922 0 
L 2284 0 
L 2284 331 
L 2759 331 
L 1766 1697 
L 1313 1275 
L 1313 331 
L 1831 331 
L 1831 0 
z
" transform="scale(0.015625)"/>
       <path id="DejaVuSerif-10" d="M 281 1959 
L 1881 1959 
L 1881 1472 
L 281 1472 
L 281 1959 
z
" transform="scale(0.015625)"/>
       <path id="DejaVuSerif-3a" d="M 4878 0 
L 4366 0 
L 3297 3794 
L 2228 0 
L 1716 0 
L 494 4331 
L 31 4331 
L 31 4666 
L 1734 4666 
L 1734 4331 
L 1153 4331 
L 2125 884 
L 3188 4666 
L 3694 4666 
L 4775 844 
L 5753 4331 
L 5216 4331 
L 5216 4666 
L 6559 4666 
L 6559 4331 
L 6100 4331 
L 4878 0 
z
" transform="scale(0.015625)"/>
       <path id="DejaVuSerif-59" d="M 1581 0 
L 359 2988 
L -19 2988 
L -19 3322 
L 1509 3322 
L 1509 2988 
L 978 2988 
L 1913 703 
L 2847 2988 
L 2350 2988 
L 2350 3322 
L 3597 3322 
L 3597 2988 
L 3225 2988 
L 2003 0 
L 1581 0 
z
" transform="scale(0.015625)"/>
      </defs>
      <use xlink:href="#DejaVuSerif-26"/>
      <use xlink:href="#DejaVuSerif-4f" transform="translate(76.515625 0)"/>
      <use xlink:href="#DejaVuSerif-44" transform="translate(108.5 0)"/>
      <use xlink:href="#DejaVuSerif-55" transform="translate(168.125 0)"/>
      <use xlink:href="#DejaVuSerif-4e" transform="translate(215.921875 0)"/>
      <use xlink:href="#DejaVuSerif-48" transform="translate(276.515625 0)"/>
      <use xlink:href="#DejaVuSerif-10" transform="translate(335.703125 0)"/>
      <use xlink:href="#DejaVuSerif-3a" transform="translate(364.03125 0)"/>
      <use xlink:href="#DejaVuSerif-55" transform="translate(462.328125 0)"/>
      <use xlink:href="#DejaVuSerif-4c" transform="translate(510.125 0)"/>
      <use xlink:href="#DejaVuSerif-4a" transform="translate(542.109375 0)"/>
      <use xlink:href="#DejaVuSerif-4b" transform="translate(606.125 0)"/>
      <use xlink:href="#DejaVuSerif-57" transform="translate(670.53125 0)"/>
      <use xlink:href="#DejaVuSerif-3" transform="translate(710.71875 0)"/>
      <use xlink:href="#DejaVuSerif-36" transform="translate(742.5 0)"/>
      <use xlink:href="#DejaVuSerif-44" transform="translate(811 0)"/>
      <use xlink:href="#DejaVuSerif-59" transform="translate(870.625 0)"/>
      <use xlink:href="#DejaVuSerif-4c" transform="translate(927.125 0)"/>
      <use xlink:href="#DejaVuSerif-51" transform="translate(959.109375 0)"/>
      <use xlink:href="#DejaVuSerif-4a" transform="translate(1023.515625 0)"/>
      <use xlink:href="#DejaVuSerif-56" transform="translate(1087.53125 0)"/>
     </g>
    </g>
   </g>
  </g>
 </g>
 <defs>
  <clipPath id="pfdf5f865e5">
   <rect x="113.95375" y="3.6" width="291.975" height="261.4936"/>
  </clipPath>
 </defs>
</svg>
