<?xml version="1.0" encoding="utf-8" standalone="no"?>
<!DOCTYPE svg PUBLIC "-//W3C//DTD SVG 1.1//EN"
  "http://www.w3.org/Graphics/SVG/1.1/DTD/svg11.dtd">
<svg xmlns:xlink="http://www.w3.org/1999/xlink" width="492.798087pt" height="489.598984pt" viewBox="0 0 492.798087 489.598984" xmlns="http://www.w3.org/2000/svg" version="1.1">
 <metadata>
  <rdf:RDF xmlns:dc="http://purl.org/dc/elements/1.1/" xmlns:cc="http://creativecommons.org/ns#" xmlns:rdf="http://www.w3.org/1999/02/22-rdf-syntax-ns#">
   <cc:Work>
    <dc:type rdf:resource="http://purl.org/dc/dcmitype/StillImage"/>
    <dc:date>2026-06-27T17:10:57.101284</dc:date>
    <dc:format>image/svg+xml</dc:format>
    <dc:creator>
     <cc:Agent>
      <dc:title>Matplotlib v3.11.0, https://matplotlib.org/</dc:title>
     </cc:Agent>
    </dc:creator>
   </cc:Work>
  </rdf:RDF>
 </metadata>
 <defs>
  <style type="text/css">*{stroke-linejoin: round; stroke-linecap: butt}</style>
 </defs>
 <g id="figure_1">
  <g id="patch_1">
   <path d="M 0 489.598984 
L 492.798087 489.598984 
L 492.798087 0 
L 0 0 
z
" style="fill: #ffffff"/>
  </g>
  <g id="axes_1">
   <g id="patch_2">
    <path d="M 37.053359 454.998125 
L 489.198087 454.998125 
L 489.198087 18.718125 
L 37.053359 18.718125 
z
" style="fill: #ffffff"/>
   </g>
   <g id="line2d_1">
    <path d="M 346.054979 290.942423 
L 288.365062 399.111018 
" clip-path="url(#p657b6476a8)" style="fill: none; stroke-dasharray: 0.5,0.825; stroke-dashoffset: 0; stroke: #000000; stroke-width: 0.5"/>
   </g>
   <g id="line2d_2">
    <path d="M 468.646054 312.576142 
L 346.054979 290.942423 
" clip-path="url(#p657b6476a8)" style="fill: none; stroke-dasharray: 0.5,0.825; stroke-dashoffset: 0; stroke: #000000; stroke-width: 0.5"/>
   </g>
   <g id="line2d_3">
    <path d="M 346.054979 290.942423 
L 317.210021 312.576142 
" clip-path="url(#p657b6476a8)" style="fill: none; stroke-dasharray: 0.5,0.825; stroke-dashoffset: 0; stroke: #000000; stroke-width: 0.5"/>
   </g>
   <g id="line2d_4">
    <path d="M 309.998781 276.519943 
L 346.054979 290.942423 
" clip-path="url(#p657b6476a8)" style="fill: none; stroke-dasharray: 0.5,0.825; stroke-dashoffset: 0; stroke: #000000; stroke-width: 0.5"/>
   </g>
   <g id="line2d_5">
    <path d="M 346.054979 290.942423 
L 115.29531 363.054819 
" clip-path="url(#p657b6476a8)" style="fill: none; stroke-dasharray: 0.5,0.825; stroke-dashoffset: 0; stroke: #000000; stroke-width: 0.5"/>
   </g>
   <g id="line2d_6">
    <path d="M 201.830186 290.942423 
L 346.054979 290.942423 
" clip-path="url(#p657b6476a8)" style="fill: none; stroke-dasharray: 0.5,0.825; stroke-dashoffset: 0; stroke: #000000; stroke-width: 0.5"/>
   </g>
   <g id="line2d_7">
    <path d="M 346.054979 290.942423 
L 216.252665 110.661431 
" clip-path="url(#p657b6476a8)" style="fill: none; stroke-dasharray: 0.5,0.825; stroke-dashoffset: 0; stroke: #000000; stroke-width: 0.5"/>
   </g>
   <g id="line2d_8">
    <path d="M 237.886384 254.886224 
L 346.054979 290.942423 
" clip-path="url(#p657b6476a8)" style="fill: none; stroke-dasharray: 0.5,0.825; stroke-dashoffset: 0; stroke: #000000; stroke-width: 0.5"/>
   </g>
   <g id="line2d_9">
    <path d="M 346.054979 290.942423 
L 259.520103 254.886224 
" clip-path="url(#p657b6476a8)" style="fill: none; stroke-dasharray: 0.5,0.825; stroke-dashoffset: 0; stroke: #000000; stroke-width: 0.5"/>
   </g>
   <g id="line2d_10">
    <path d="M 223.463905 276.519943 
L 346.054979 290.942423 
" clip-path="url(#p657b6476a8)" style="fill: none; stroke-dasharray: 0.5,0.825; stroke-dashoffset: 0; stroke: #000000; stroke-width: 0.5"/>
   </g>
   <g id="matplotlib.axis_1">
    <g id="xtick_1">
     <g id="line2d_11">
      <path d="M 57.605392 454.998125 
L 57.605392 18.718125 
" clip-path="url(#p657b6476a8)" style="fill: none; stroke-dasharray: 0.3,0.495; stroke-dashoffset: 0; stroke: #bfbfbf; stroke-opacity: 0.5; stroke-width: 0.3"/>
     </g>
     <g id="line2d_12">
      <defs>
       <path id="m1dafc6ea8a" d="M 0 0 
L 0 3.5 
" style="stroke: #000000; stroke-width: 0.8"/>
      </defs>
      <g>
       <use xlink:href="#m1dafc6ea8a" x="57.605392" y="454.998125" style="stroke: #000000; stroke-width: 0.8"/>
      </g>
     </g>
     <g id="text_1">
      <!-- 0 -->
      <g transform="translate(54.742267 468.836016) scale(0.09 -0.09)">
       <defs>
        <path id="DejaVuSerif-13" d="M 2034 219 
Q 2513 219 2750 744 
Q 2988 1269 2988 2328 
Q 2988 3391 2750 3916 
Q 2513 4441 2034 4441 
Q 1556 4441 1318 3916 
Q 1081 3391 1081 2328 
Q 1081 1269 1318 744 
Q 1556 219 2034 219 
z
M 2034 -91 
Q 1275 -91 848 546 
Q 422 1184 422 2328 
Q 422 3475 848 4112 
Q 1275 4750 2034 4750 
Q 2797 4750 3222 4112 
Q 3647 3475 3647 2328 
Q 3647 1184 3222 546 
Q 2797 -91 2034 -91 
z
" transform="scale(0.015625)"/>
       </defs>
       <use xlink:href="#DejaVuSerif-13"/>
      </g>
     </g>
    </g>
    <g id="xtick_2">
     <g id="line2d_13">
      <path d="M 129.717789 454.998125 
L 129.717789 18.718125 
" clip-path="url(#p657b6476a8)" style="fill: none; stroke-dasharray: 0.3,0.495; stroke-dashoffset: 0; stroke: #bfbfbf; stroke-opacity: 0.5; stroke-width: 0.3"/>
     </g>
     <g id="line2d_14">
      <g>
       <use xlink:href="#m1dafc6ea8a" x="129.717789" y="454.998125" style="stroke: #000000; stroke-width: 0.8"/>
      </g>
     </g>
     <g id="text_2">
      <!-- 10 -->
      <g transform="translate(123.991539 468.836016) scale(0.09 -0.09)">
       <defs>
        <path id="DejaVuSerif-14" d="M 909 0 
L 909 331 
L 1722 331 
L 1722 4213 
L 781 3603 
L 781 4013 
L 1919 4750 
L 2350 4750 
L 2350 331 
L 3163 331 
L 3163 0 
L 909 0 
z
" transform="scale(0.015625)"/>
       </defs>
       <use xlink:href="#DejaVuSerif-14"/>
       <use xlink:href="#DejaVuSerif-13" transform="translate(63.625 0)"/>
      </g>
     </g>
    </g>
    <g id="xtick_3">
     <g id="line2d_15">
      <path d="M 201.830186 454.998125 
L 201.830186 18.718125 
" clip-path="url(#p657b6476a8)" style="fill: none; stroke-dasharray: 0.3,0.495; stroke-dashoffset: 0; stroke: #bfbfbf; stroke-opacity: 0.5; stroke-width: 0.3"/>
     </g>
     <g id="line2d_16">
      <g>
       <use xlink:href="#m1dafc6ea8a" x="201.830186" y="454.998125" style="stroke: #000000; stroke-width: 0.8"/>
      </g>
     </g>
     <g id="text_3">
      <!-- 20 -->
      <g transform="translate(196.103936 468.836016) scale(0.09 -0.09)">
       <defs>
        <path id="DejaVuSerif-15" d="M 819 3553 
L 469 3553 
L 469 4384 
Q 803 4563 1142 4656 
Q 1481 4750 1806 4750 
Q 2534 4750 2956 4397 
Q 3378 4044 3378 3438 
Q 3378 2753 2422 1800 
Q 2347 1728 2309 1691 
L 1131 513 
L 3078 513 
L 3078 1088 
L 3444 1088 
L 3444 0 
L 434 0 
L 434 341 
L 1850 1753 
Q 2319 2222 2519 2614 
Q 2719 3006 2719 3438 
Q 2719 3909 2473 4175 
Q 2228 4441 1797 4441 
Q 1350 4441 1106 4219 
Q 863 3997 819 3553 
z
" transform="scale(0.015625)"/>
       </defs>
       <use xlink:href="#DejaVuSerif-15"/>
       <use xlink:href="#DejaVuSerif-13" transform="translate(63.625 0)"/>
      </g>
     </g>
    </g>
    <g id="xtick_4">
     <g id="line2d_17">
      <path d="M 273.942583 454.998125 
L 273.942583 18.718125 
" clip-path="url(#p657b6476a8)" style="fill: none; stroke-dasharray: 0.3,0.495; stroke-dashoffset: 0; stroke: #bfbfbf; stroke-opacity: 0.5; stroke-width: 0.3"/>
     </g>
     <g id="line2d_18">
      <g>
       <use xlink:href="#m1dafc6ea8a" x="273.942583" y="454.998125" style="stroke: #000000; stroke-width: 0.8"/>
      </g>
     </g>
     <g id="text_4">
      <!-- 30 -->
      <g transform="translate(268.216333 468.836016) scale(0.09 -0.09)">
       <defs>
        <path id="DejaVuSerif-16" d="M 622 4469 
Q 988 4606 1323 4678 
Q 1659 4750 1953 4750 
Q 2638 4750 3022 4454 
Q 3406 4159 3406 3634 
Q 3406 3213 3140 2930 
Q 2875 2647 2388 2547 
Q 2963 2466 3280 2130 
Q 3597 1794 3597 1259 
Q 3597 606 3158 257 
Q 2719 -91 1894 -91 
Q 1528 -91 1179 -12 
Q 831 66 488 225 
L 488 1131 
L 838 1131 
Q 869 681 1141 450 
Q 1413 219 1906 219 
Q 2384 219 2661 495 
Q 2938 772 2938 1253 
Q 2938 1803 2653 2086 
Q 2369 2369 1819 2369 
L 1522 2369 
L 1522 2688 
L 1678 2688 
Q 2225 2688 2498 2914 
Q 2772 3141 2772 3597 
Q 2772 4006 2547 4223 
Q 2322 4441 1900 4441 
Q 1478 4441 1245 4241 
Q 1013 4041 972 3647 
L 622 3647 
L 622 4469 
z
" transform="scale(0.015625)"/>
       </defs>
       <use xlink:href="#DejaVuSerif-16"/>
       <use xlink:href="#DejaVuSerif-13" transform="translate(63.625 0)"/>
      </g>
     </g>
    </g>
    <g id="xtick_5">
     <g id="line2d_19">
      <path d="M 346.054979 454.998125 
L 346.054979 18.718125 
" clip-path="url(#p657b6476a8)" style="fill: none; stroke-dasharray: 0.3,0.495; stroke-dashoffset: 0; stroke: #bfbfbf; stroke-opacity: 0.5; stroke-width: 0.3"/>
     </g>
     <g id="line2d_20">
      <g>
       <use xlink:href="#m1dafc6ea8a" x="346.054979" y="454.998125" style="stroke: #000000; stroke-width: 0.8"/>
      </g>
     </g>
     <g id="text_5">
      <!-- 40 -->
      <g transform="translate(340.328729 468.836016) scale(0.09 -0.09)">
       <defs>
        <path id="DejaVuSerif-17" d="M 2234 1581 
L 2234 4063 
L 641 1581 
L 2234 1581 
z
M 3609 0 
L 1484 0 
L 1484 331 
L 2234 331 
L 2234 1247 
L 197 1247 
L 197 1588 
L 2241 4750 
L 2859 4750 
L 2859 1581 
L 3750 1581 
L 3750 1247 
L 2859 1247 
L 2859 331 
L 3609 331 
L 3609 0 
z
" transform="scale(0.015625)"/>
       </defs>
       <use xlink:href="#DejaVuSerif-17"/>
       <use xlink:href="#DejaVuSerif-13" transform="translate(63.625 0)"/>
      </g>
     </g>
    </g>
    <g id="xtick_6">
     <g id="line2d_21">
      <path d="M 418.167376 454.998125 
L 418.167376 18.718125 
" clip-path="url(#p657b6476a8)" style="fill: none; stroke-dasharray: 0.3,0.495; stroke-dashoffset: 0; stroke: #bfbfbf; stroke-opacity: 0.5; stroke-width: 0.3"/>
     </g>
     <g id="line2d_22">
      <g>
       <use xlink:href="#m1dafc6ea8a" x="418.167376" y="454.998125" style="stroke: #000000; stroke-width: 0.8"/>
      </g>
     </g>
     <g id="text_6">
      <!-- 50 -->
      <g transform="translate(412.441126 468.836016) scale(0.09 -0.09)">
       <defs>
        <path id="DejaVuSerif-18" d="M 3219 4666 
L 3219 4153 
L 1081 4153 
L 1081 2816 
Q 1244 2928 1461 2984 
Q 1678 3041 1947 3041 
Q 2703 3041 3140 2622 
Q 3578 2203 3578 1478 
Q 3578 738 3136 323 
Q 2694 -91 1894 -91 
Q 1572 -91 1234 -12 
Q 897 66 544 225 
L 544 1131 
L 897 1131 
Q 925 688 1179 453 
Q 1434 219 1894 219 
Q 2388 219 2653 544 
Q 2919 869 2919 1478 
Q 2919 2084 2655 2407 
Q 2391 2731 1894 2731 
Q 1613 2731 1398 2631 
Q 1184 2531 1019 2322 
L 750 2322 
L 750 4666 
L 3219 4666 
z
" transform="scale(0.015625)"/>
       </defs>
       <use xlink:href="#DejaVuSerif-18"/>
       <use xlink:href="#DejaVuSerif-13" transform="translate(63.625 0)"/>
      </g>
     </g>
    </g>
    <g id="text_7">
     <!-- X Coordinate -->
     <g transform="translate(226.435567 483.356406) scale(0.11 -0.11)">
      <defs>
       <path id="DejaVuSerif-3b" d="M 2119 1997 
L 978 331 
L 1581 331 
L 1581 0 
L 38 0 
L 38 331 
L 575 331 
L 1919 2291 
L 556 4331 
L 56 4331 
L 56 4666 
L 1906 4666 
L 1906 4331 
L 1356 4331 
L 2356 2828 
L 3384 4331 
L 2784 4331 
L 2784 4666 
L 4313 4666 
L 4313 4331 
L 3788 4331 
L 2553 2534 
L 4025 331 
L 4525 331 
L 4525 0 
L 2675 0 
L 2675 331 
L 3231 331 
L 2119 1997 
z
" transform="scale(0.015625)"/>
       <path id="DejaVuSerif-3" transform="scale(0.015625)"/>
       <path id="DejaVuSerif-26" d="M 4513 1234 
Q 4306 581 3820 245 
Q 3334 -91 2591 -91 
Q 2134 -91 1743 65 
Q 1353 222 1050 525 
Q 700 875 529 1320 
Q 359 1766 359 2328 
Q 359 3416 987 4083 
Q 1616 4750 2644 4750 
Q 3025 4750 3456 4650 
Q 3888 4550 4384 4347 
L 4384 3272 
L 4031 3272 
Q 3916 3859 3567 4137 
Q 3219 4416 2591 4416 
Q 1844 4416 1459 3886 
Q 1075 3356 1075 2328 
Q 1075 1303 1459 773 
Q 1844 244 2591 244 
Q 3113 244 3450 492 
Q 3788 741 3938 1234 
L 4513 1234 
z
" transform="scale(0.015625)"/>
       <path id="DejaVuSerif-52" d="M 1925 219 
Q 2388 219 2623 584 
Q 2859 950 2859 1663 
Q 2859 2375 2623 2739 
Q 2388 3103 1925 3103 
Q 1463 3103 1227 2739 
Q 991 2375 991 1663 
Q 991 950 1228 584 
Q 1466 219 1925 219 
z
M 1925 -91 
Q 1200 -91 759 389 
Q 319 869 319 1663 
Q 319 2456 758 2934 
Q 1197 3413 1925 3413 
Q 2653 3413 3092 2934 
Q 3531 2456 3531 1663 
Q 3531 869 3092 389 
Q 2653 -91 1925 -91 
z
" transform="scale(0.015625)"/>
       <path id="DejaVuSerif-55" d="M 3059 3328 
L 3059 2497 
L 2728 2497 
Q 2713 2744 2591 2866 
Q 2469 2988 2234 2988 
Q 1809 2988 1582 2694 
Q 1356 2400 1356 1850 
L 1356 331 
L 2022 331 
L 2022 0 
L 263 0 
L 263 331 
L 781 331 
L 781 2994 
L 231 2994 
L 231 3322 
L 1356 3322 
L 1356 2731 
Q 1525 3078 1790 3245 
Q 2056 3413 2438 3413 
Q 2578 3413 2733 3391 
Q 2888 3369 3059 3328 
z
" transform="scale(0.015625)"/>
       <path id="DejaVuSerif-47" d="M 3359 331 
L 3909 331 
L 3909 0 
L 2784 0 
L 2784 519 
Q 2616 206 2355 57 
Q 2094 -91 1709 -91 
Q 1097 -91 708 395 
Q 319 881 319 1663 
Q 319 2444 706 2928 
Q 1094 3413 1709 3413 
Q 2094 3413 2355 3264 
Q 2616 3116 2784 2803 
L 2784 4531 
L 2241 4531 
L 2241 4863 
L 3359 4863 
L 3359 331 
z
M 2784 1497 
L 2784 1825 
Q 2784 2422 2554 2737 
Q 2325 3053 1888 3053 
Q 1444 3053 1217 2703 
Q 991 2353 991 1663 
Q 991 975 1217 622 
Q 1444 269 1888 269 
Q 2325 269 2554 583 
Q 2784 897 2784 1497 
z
" transform="scale(0.015625)"/>
       <path id="DejaVuSerif-4c" d="M 622 4353 
Q 622 4497 726 4603 
Q 831 4709 978 4709 
Q 1122 4709 1226 4603 
Q 1331 4497 1331 4353 
Q 1331 4206 1228 4103 
Q 1125 4000 978 4000 
Q 831 4000 726 4103 
Q 622 4206 622 4353 
z
M 1356 331 
L 1900 331 
L 1900 0 
L 231 0 
L 231 331 
L 781 331 
L 781 2988 
L 231 2988 
L 231 3322 
L 1356 3322 
L 1356 331 
z
" transform="scale(0.015625)"/>
       <path id="DejaVuSerif-51" d="M 263 0 
L 263 331 
L 781 331 
L 781 2988 
L 231 2988 
L 231 3322 
L 1356 3322 
L 1356 2731 
Q 1516 3069 1770 3241 
Q 2025 3413 2363 3413 
Q 2913 3413 3172 3097 
Q 3431 2781 3431 2113 
L 3431 331 
L 3944 331 
L 3944 0 
L 2356 0 
L 2356 331 
L 2853 331 
L 2853 1931 
Q 2853 2541 2703 2767 
Q 2553 2994 2175 2994 
Q 1775 2994 1565 2701 
Q 1356 2409 1356 1850 
L 1356 331 
L 1856 331 
L 1856 0 
L 263 0 
z
" transform="scale(0.015625)"/>
       <path id="DejaVuSerif-44" d="M 2547 1044 
L 2547 1747 
L 1806 1747 
Q 1378 1747 1168 1562 
Q 959 1378 959 997 
Q 959 650 1171 447 
Q 1384 244 1747 244 
Q 2106 244 2326 466 
Q 2547 688 2547 1044 
z
M 3122 2075 
L 3122 331 
L 3634 331 
L 3634 0 
L 2547 0 
L 2547 359 
Q 2356 128 2106 18 
Q 1856 -91 1522 -91 
Q 969 -91 644 203 
Q 319 497 319 997 
Q 319 1513 691 1797 
Q 1063 2081 1741 2081 
L 2547 2081 
L 2547 2309 
Q 2547 2688 2317 2895 
Q 2088 3103 1672 3103 
Q 1328 3103 1125 2947 
Q 922 2791 872 2484 
L 575 2484 
L 575 3156 
Q 875 3284 1158 3348 
Q 1441 3413 1709 3413 
Q 2400 3413 2761 3070 
Q 3122 2728 3122 2075 
z
" transform="scale(0.015625)"/>
       <path id="DejaVuSerif-57" d="M 691 2988 
L 184 2988 
L 184 3322 
L 691 3322 
L 691 4353 
L 1269 4353 
L 1269 3322 
L 2350 3322 
L 2350 2988 
L 1269 2988 
L 1269 878 
Q 1269 456 1350 337 
Q 1431 219 1650 219 
Q 1875 219 1978 351 
Q 2081 484 2088 781 
L 2522 781 
Q 2497 328 2275 118 
Q 2053 -91 1600 -91 
Q 1103 -91 897 129 
Q 691 350 691 878 
L 691 2988 
z
" transform="scale(0.015625)"/>
       <path id="DejaVuSerif-48" d="M 3469 1600 
L 991 1600 
L 991 1575 
Q 991 903 1244 561 
Q 1497 219 1991 219 
Q 2369 219 2611 417 
Q 2853 616 2950 1006 
L 3413 1006 
Q 3275 459 2904 184 
Q 2534 -91 1931 -91 
Q 1203 -91 761 389 
Q 319 869 319 1663 
Q 319 2450 753 2931 
Q 1188 3413 1894 3413 
Q 2647 3413 3050 2948 
Q 3453 2484 3469 1600 
z
M 2791 1931 
Q 2772 2513 2545 2808 
Q 2319 3103 1894 3103 
Q 1497 3103 1269 2806 
Q 1041 2509 991 1931 
L 2791 1931 
z
" transform="scale(0.015625)"/>
      </defs>
      <use xlink:href="#DejaVuSerif-3b"/>
      <use xlink:href="#DejaVuSerif-3" transform="translate(71.1875 0)"/>
      <use xlink:href="#DejaVuSerif-26" transform="translate(102.96875 0)"/>
      <use xlink:href="#DejaVuSerif-52" transform="translate(179.484375 0)"/>
      <use xlink:href="#DejaVuSerif-52" transform="translate(239.6875 0)"/>
      <use xlink:href="#DejaVuSerif-55" transform="translate(299.890625 0)"/>
      <use xlink:href="#DejaVuSerif-47" transform="translate(347.6875 0)"/>
      <use xlink:href="#DejaVuSerif-4c" transform="translate(411.703125 0)"/>
      <use xlink:href="#DejaVuSerif-51" transform="translate(443.6875 0)"/>
      <use xlink:href="#DejaVuSerif-44" transform="translate(508.09375 0)"/>
      <use xlink:href="#DejaVuSerif-57" transform="translate(567.71875 0)"/>
      <use xlink:href="#DejaVuSerif-48" transform="translate(607.90625 0)"/>
     </g>
    </g>
   </g>
   <g id="matplotlib.axis_2">
    <g id="ytick_1">
     <g id="line2d_23">
      <path d="M 37.053359 435.167216 
L 489.198087 435.167216 
" clip-path="url(#p657b6476a8)" style="fill: none; stroke-dasharray: 0.3,0.495; stroke-dashoffset: 0; stroke: #bfbfbf; stroke-opacity: 0.5; stroke-width: 0.3"/>
     </g>
     <g id="line2d_24">
      <defs>
       <path id="me257b371ac" d="M 0 0 
L -3.5 0 
" style="stroke: #000000; stroke-width: 0.8"/>
      </defs>
      <g>
       <use xlink:href="#me257b371ac" x="37.053359" y="435.167216" style="stroke: #000000; stroke-width: 0.8"/>
      </g>
     </g>
     <g id="text_8">
      <!-- 30 -->
      <g transform="translate(18.600859 438.586161) scale(0.09 -0.09)">
       <use xlink:href="#DejaVuSerif-16"/>
       <use xlink:href="#DejaVuSerif-13" transform="translate(63.625 0)"/>
      </g>
     </g>
    </g>
    <g id="ytick_2">
     <g id="line2d_25">
      <path d="M 37.053359 363.054819 
L 489.198087 363.054819 
" clip-path="url(#p657b6476a8)" style="fill: none; stroke-dasharray: 0.3,0.495; stroke-dashoffset: 0; stroke: #bfbfbf; stroke-opacity: 0.5; stroke-width: 0.3"/>
     </g>
     <g id="line2d_26">
      <g>
       <use xlink:href="#me257b371ac" x="37.053359" y="363.054819" style="stroke: #000000; stroke-width: 0.8"/>
      </g>
     </g>
     <g id="text_9">
      <!-- 40 -->
      <g transform="translate(18.600859 366.473765) scale(0.09 -0.09)">
       <use xlink:href="#DejaVuSerif-17"/>
       <use xlink:href="#DejaVuSerif-13" transform="translate(63.625 0)"/>
      </g>
     </g>
    </g>
    <g id="ytick_3">
     <g id="line2d_27">
      <path d="M 37.053359 290.942423 
L 489.198087 290.942423 
" clip-path="url(#p657b6476a8)" style="fill: none; stroke-dasharray: 0.3,0.495; stroke-dashoffset: 0; stroke: #bfbfbf; stroke-opacity: 0.5; stroke-width: 0.3"/>
     </g>
     <g id="line2d_28">
      <g>
       <use xlink:href="#me257b371ac" x="37.053359" y="290.942423" style="stroke: #000000; stroke-width: 0.8"/>
      </g>
     </g>
     <g id="text_10">
      <!-- 50 -->
      <g transform="translate(18.600859 294.361368) scale(0.09 -0.09)">
       <use xlink:href="#DejaVuSerif-18"/>
       <use xlink:href="#DejaVuSerif-13" transform="translate(63.625 0)"/>
      </g>
     </g>
    </g>
    <g id="ytick_4">
     <g id="line2d_29">
      <path d="M 37.053359 218.830026 
L 489.198087 218.830026 
" clip-path="url(#p657b6476a8)" style="fill: none; stroke-dasharray: 0.3,0.495; stroke-dashoffset: 0; stroke: #bfbfbf; stroke-opacity: 0.5; stroke-width: 0.3"/>
     </g>
     <g id="line2d_30">
      <g>
       <use xlink:href="#me257b371ac" x="37.053359" y="218.830026" style="stroke: #000000; stroke-width: 0.8"/>
      </g>
     </g>
     <g id="text_11">
      <!-- 60 -->
      <g transform="translate(18.600859 222.248971) scale(0.09 -0.09)">
       <defs>
        <path id="DejaVuSerif-19" d="M 2094 219 
Q 2534 219 2771 542 
Q 3009 866 3009 1472 
Q 3009 2078 2771 2401 
Q 2534 2725 2094 2725 
Q 1647 2725 1412 2412 
Q 1178 2100 1178 1509 
Q 1178 888 1415 553 
Q 1653 219 2094 219 
z
M 1075 2569 
Q 1288 2803 1556 2918 
Q 1825 3034 2163 3034 
Q 2859 3034 3264 2615 
Q 3669 2197 3669 1472 
Q 3669 763 3233 336 
Q 2797 -91 2069 -91 
Q 1278 -91 853 498 
Q 428 1088 428 2181 
Q 428 3406 931 4078 
Q 1434 4750 2350 4750 
Q 2597 4750 2869 4703 
Q 3141 4656 3425 4563 
L 3425 3794 
L 3072 3794 
Q 3034 4109 2831 4275 
Q 2628 4441 2284 4441 
Q 1678 4441 1381 3981 
Q 1084 3522 1075 2569 
z
" transform="scale(0.015625)"/>
       </defs>
       <use xlink:href="#DejaVuSerif-19"/>
       <use xlink:href="#DejaVuSerif-13" transform="translate(63.625 0)"/>
      </g>
     </g>
    </g>
    <g id="ytick_5">
     <g id="line2d_31">
      <path d="M 37.053359 146.717629 
L 489.198087 146.717629 
" clip-path="url(#p657b6476a8)" style="fill: none; stroke-dasharray: 0.3,0.495; stroke-dashoffset: 0; stroke: #bfbfbf; stroke-opacity: 0.5; stroke-width: 0.3"/>
     </g>
     <g id="line2d_32">
      <g>
       <use xlink:href="#me257b371ac" x="37.053359" y="146.717629" style="stroke: #000000; stroke-width: 0.8"/>
      </g>
     </g>
     <g id="text_12">
      <!-- 70 -->
      <g transform="translate(18.600859 150.136574) scale(0.09 -0.09)">
       <defs>
        <path id="DejaVuSerif-1a" d="M 3609 4347 
L 1784 0 
L 1319 0 
L 3059 4153 
L 903 4153 
L 903 3578 
L 538 3578 
L 538 4666 
L 3609 4666 
L 3609 4347 
z
" transform="scale(0.015625)"/>
       </defs>
       <use xlink:href="#DejaVuSerif-1a"/>
       <use xlink:href="#DejaVuSerif-13" transform="translate(63.625 0)"/>
      </g>
     </g>
    </g>
    <g id="ytick_6">
     <g id="line2d_33">
      <path d="M 37.053359 74.605232 
L 489.198087 74.605232 
" clip-path="url(#p657b6476a8)" style="fill: none; stroke-dasharray: 0.3,0.495; stroke-dashoffset: 0; stroke: #bfbfbf; stroke-opacity: 0.5; stroke-width: 0.3"/>
     </g>
     <g id="line2d_34">
      <g>
       <use xlink:href="#me257b371ac" x="37.053359" y="74.605232" style="stroke: #000000; stroke-width: 0.8"/>
      </g>
     </g>
     <g id="text_13">
      <!-- 80 -->
      <g transform="translate(18.600859 78.024178) scale(0.09 -0.09)">
       <defs>
        <path id="DejaVuSerif-1b" d="M 2981 1275 
Q 2981 1775 2732 2051 
Q 2484 2328 2034 2328 
Q 1584 2328 1336 2051 
Q 1088 1775 1088 1275 
Q 1088 772 1336 495 
Q 1584 219 2034 219 
Q 2484 219 2732 495 
Q 2981 772 2981 1275 
z
M 2853 3541 
Q 2853 3966 2637 4203 
Q 2422 4441 2034 4441 
Q 1650 4441 1433 4203 
Q 1216 3966 1216 3541 
Q 1216 3113 1433 2875 
Q 1650 2638 2034 2638 
Q 2422 2638 2637 2875 
Q 2853 3113 2853 3541 
z
M 2516 2484 
Q 3047 2413 3344 2092 
Q 3641 1772 3641 1275 
Q 3641 619 3225 264 
Q 2809 -91 2034 -91 
Q 1263 -91 845 264 
Q 428 619 428 1275 
Q 428 1772 725 2092 
Q 1022 2413 1556 2484 
Q 1084 2569 832 2842 
Q 581 3116 581 3541 
Q 581 4103 968 4426 
Q 1356 4750 2034 4750 
Q 2713 4750 3100 4426 
Q 3488 4103 3488 3541 
Q 3488 3116 3236 2842 
Q 2984 2569 2516 2484 
z
" transform="scale(0.015625)"/>
       </defs>
       <use xlink:href="#DejaVuSerif-1b"/>
       <use xlink:href="#DejaVuSerif-13" transform="translate(63.625 0)"/>
      </g>
     </g>
    </g>
    <g id="text_14">
     <!-- Y Coordinate -->
     <g transform="translate(11.958281 273.263828) rotate(-90) scale(0.11 -0.11)">
      <defs>
       <path id="DejaVuSerif-3c" d="M 1209 0 
L 1209 331 
L 1806 331 
L 1806 2009 
L 366 4331 
L -72 4331 
L -72 4666 
L 1663 4666 
L 1663 4331 
L 1119 4331 
L 2284 2444 
L 3450 4331 
L 2925 4331 
L 2925 4666 
L 4281 4666 
L 4281 4331 
L 3841 4331 
L 2438 2069 
L 2438 331 
L 3034 331 
L 3034 0 
L 1209 0 
z
" transform="scale(0.015625)"/>
      </defs>
      <use xlink:href="#DejaVuSerif-3c"/>
      <use xlink:href="#DejaVuSerif-3" transform="translate(66.015625 0)"/>
      <use xlink:href="#DejaVuSerif-26" transform="translate(97.796875 0)"/>
      <use xlink:href="#DejaVuSerif-52" transform="translate(174.3125 0)"/>
      <use xlink:href="#DejaVuSerif-52" transform="translate(234.515625 0)"/>
      <use xlink:href="#DejaVuSerif-55" transform="translate(294.71875 0)"/>
      <use xlink:href="#DejaVuSerif-47" transform="translate(342.515625 0)"/>
      <use xlink:href="#DejaVuSerif-4c" transform="translate(406.53125 0)"/>
      <use xlink:href="#DejaVuSerif-51" transform="translate(438.515625 0)"/>
      <use xlink:href="#DejaVuSerif-44" transform="translate(502.921875 0)"/>
      <use xlink:href="#DejaVuSerif-57" transform="translate(562.546875 0)"/>
      <use xlink:href="#DejaVuSerif-48" transform="translate(602.734375 0)"/>
     </g>
    </g>
   </g>
   <g id="line2d_35">
    <path d="M 288.365062 399.111018 
L 295.576302 399.111018 
L 273.942583 399.111018 
L 259.520103 399.111018 
L 237.886384 399.111018 
L 201.830186 420.744737 
L 201.830186 435.167216 
L 259.520103 435.167216 
L 273.942583 435.167216 
L 273.942583 420.744737 
L 295.576302 420.744737 
L 309.998781 420.744737 
L 309.998781 435.167216 
L 468.646054 312.576142 
" clip-path="url(#p657b6476a8)" style="fill: none; stroke: #000000; stroke-width: 1.2; stroke-linecap: square"/>
   </g>
   <g id="line2d_36">
    <path d="M 317.210021 312.576142 
L 309.998781 312.576142 
L 288.365062 312.576142 
L 273.942583 312.576142 
L 273.942583 290.942423 
L 237.886384 290.942423 
L 259.520103 290.942423 
L 259.520103 276.519943 
L 273.942583 276.519943 
L 288.365062 290.942423 
L 309.998781 290.942423 
L 309.998781 276.519943 
" clip-path="url(#p657b6476a8)" style="fill: none; stroke-dasharray: 4.44,1.92; stroke-dashoffset: 0; stroke: #000000; stroke-width: 1.2"/>
   </g>
   <g id="line2d_37">
    <path d="M 115.29531 363.054819 
L 129.717789 363.054819 
L 129.717789 399.111018 
L 93.661591 399.111018 
L 93.661591 363.054819 
L 72.027872 363.054819 
L 57.605392 363.054819 
L 57.605392 326.998621 
L 115.29531 326.998621 
L 201.830186 290.942423 
" clip-path="url(#p657b6476a8)" style="fill: none; stroke-dasharray: 7.68,1.92,1.2,1.92; stroke-dashoffset: 0; stroke: #000000; stroke-width: 1.2"/>
   </g>
   <g id="line2d_38">
    <path d="M 216.252665 110.661431 
L 201.830186 74.605232 
L 216.252665 38.549034 
L 237.886384 38.549034 
L 201.830186 38.549034 
L 165.773987 74.605232 
L 165.773987 110.661431 
L 187.407706 110.661431 
L 223.463905 254.886224 
L 201.830186 254.886224 
L 237.886384 254.886224 
" clip-path="url(#p657b6476a8)" style="fill: none; stroke-dasharray: 3.6,2.4,1.2,2.4; stroke-dashoffset: 0; stroke: #000000; stroke-width: 1.2"/>
   </g>
   <g id="line2d_39">
    <path d="M 259.520103 254.886224 
L 237.886384 276.519943 
L 223.463905 276.519943 
" clip-path="url(#p657b6476a8)" style="fill: none; stroke-dasharray: 0.9,0.9; stroke-dashoffset: 0; stroke: #000000; stroke-width: 0.9"/>
   </g>
   <g id="patch_3">
    <path d="M 37.053359 454.998125 
L 37.053359 18.718125 
" style="fill: none; stroke: #000000; stroke-width: 0.8; stroke-linejoin: miter; stroke-linecap: square"/>
   </g>
   <g id="patch_4">
    <path d="M 37.053359 454.998125 
L 489.198087 454.998125 
" style="fill: none; stroke: #000000; stroke-width: 0.8; stroke-linejoin: miter; stroke-linecap: square"/>
   </g>
   <g id="PathCollection_1">
    <defs>
     <path id="m70ddc5af11" d="M 0 2.12132 
C 0.562581 2.12132 1.102195 1.897805 1.5 1.5 
C 1.897805 1.102195 2.12132 0.562581 2.12132 0 
C 2.12132 -0.562581 1.897805 -1.102195 1.5 -1.5 
C 1.102195 -1.897805 0.562581 -2.12132 0 -2.12132 
C -0.562581 -2.12132 -1.102195 -1.897805 -1.5 -1.5 
C -1.897805 -1.102195 -2.12132 -0.562581 -2.12132 0 
C -2.12132 0.562581 -1.897805 1.102195 -1.5 1.5 
C -1.102195 1.897805 -0.562581 2.12132 0 2.12132 
z
" style="stroke: #000000; stroke-width: 0.5"/>
    </defs>
    <g clip-path="url(#p657b6476a8)">
     <use xlink:href="#m70ddc5af11" x="237.886384" y="38.549034" style="fill: #ffffff; stroke: #000000; stroke-width: 0.5"/>
     <use xlink:href="#m70ddc5af11" x="216.252665" y="110.661431" style="fill: #ffffff; stroke: #000000; stroke-width: 0.5"/>
     <use xlink:href="#m70ddc5af11" x="216.252665" y="38.549034" style="fill: #ffffff; stroke: #000000; stroke-width: 0.5"/>
     <use xlink:href="#m70ddc5af11" x="201.830186" y="74.605232" style="fill: #ffffff; stroke: #000000; stroke-width: 0.5"/>
     <use xlink:href="#m70ddc5af11" x="201.830186" y="38.549034" style="fill: #ffffff; stroke: #000000; stroke-width: 0.5"/>
     <use xlink:href="#m70ddc5af11" x="187.407706" y="110.661431" style="fill: #ffffff; stroke: #000000; stroke-width: 0.5"/>
     <use xlink:href="#m70ddc5af11" x="165.773987" y="110.661431" style="fill: #ffffff; stroke: #000000; stroke-width: 0.5"/>
     <use xlink:href="#m70ddc5af11" x="165.773987" y="74.605232" style="fill: #ffffff; stroke: #000000; stroke-width: 0.5"/>
     <use xlink:href="#m70ddc5af11" x="273.942583" y="290.942423" style="fill: #ffffff; stroke: #000000; stroke-width: 0.5"/>
     <use xlink:href="#m70ddc5af11" x="273.942583" y="276.519943" style="fill: #ffffff; stroke: #000000; stroke-width: 0.5"/>
     <use xlink:href="#m70ddc5af11" x="259.520103" y="276.519943" style="fill: #ffffff; stroke: #000000; stroke-width: 0.5"/>
     <use xlink:href="#m70ddc5af11" x="259.520103" y="254.886224" style="fill: #ffffff; stroke: #000000; stroke-width: 0.5"/>
     <use xlink:href="#m70ddc5af11" x="237.886384" y="290.942423" style="fill: #ffffff; stroke: #000000; stroke-width: 0.5"/>
     <use xlink:href="#m70ddc5af11" x="237.886384" y="276.519943" style="fill: #ffffff; stroke: #000000; stroke-width: 0.5"/>
     <use xlink:href="#m70ddc5af11" x="237.886384" y="254.886224" style="fill: #ffffff; stroke: #000000; stroke-width: 0.5"/>
     <use xlink:href="#m70ddc5af11" x="223.463905" y="276.519943" style="fill: #ffffff; stroke: #000000; stroke-width: 0.5"/>
     <use xlink:href="#m70ddc5af11" x="223.463905" y="254.886224" style="fill: #ffffff; stroke: #000000; stroke-width: 0.5"/>
     <use xlink:href="#m70ddc5af11" x="201.830186" y="290.942423" style="fill: #ffffff; stroke: #000000; stroke-width: 0.5"/>
     <use xlink:href="#m70ddc5af11" x="201.830186" y="254.886224" style="fill: #ffffff; stroke: #000000; stroke-width: 0.5"/>
     <use xlink:href="#m70ddc5af11" x="129.717789" y="399.111018" style="fill: #ffffff; stroke: #000000; stroke-width: 0.5"/>
     <use xlink:href="#m70ddc5af11" x="129.717789" y="363.054819" style="fill: #ffffff; stroke: #000000; stroke-width: 0.5"/>
     <use xlink:href="#m70ddc5af11" x="115.29531" y="363.054819" style="fill: #ffffff; stroke: #000000; stroke-width: 0.5"/>
     <use xlink:href="#m70ddc5af11" x="115.29531" y="326.998621" style="fill: #ffffff; stroke: #000000; stroke-width: 0.5"/>
     <use xlink:href="#m70ddc5af11" x="93.661591" y="399.111018" style="fill: #ffffff; stroke: #000000; stroke-width: 0.5"/>
     <use xlink:href="#m70ddc5af11" x="93.661591" y="363.054819" style="fill: #ffffff; stroke: #000000; stroke-width: 0.5"/>
     <use xlink:href="#m70ddc5af11" x="72.027872" y="363.054819" style="fill: #ffffff; stroke: #000000; stroke-width: 0.5"/>
     <use xlink:href="#m70ddc5af11" x="57.605392" y="363.054819" style="fill: #ffffff; stroke: #000000; stroke-width: 0.5"/>
     <use xlink:href="#m70ddc5af11" x="57.605392" y="326.998621" style="fill: #ffffff; stroke: #000000; stroke-width: 0.5"/>
     <use xlink:href="#m70ddc5af11" x="309.998781" y="435.167216" style="fill: #ffffff; stroke: #000000; stroke-width: 0.5"/>
     <use xlink:href="#m70ddc5af11" x="309.998781" y="420.744737" style="fill: #ffffff; stroke: #000000; stroke-width: 0.5"/>
     <use xlink:href="#m70ddc5af11" x="295.576302" y="420.744737" style="fill: #ffffff; stroke: #000000; stroke-width: 0.5"/>
     <use xlink:href="#m70ddc5af11" x="295.576302" y="399.111018" style="fill: #ffffff; stroke: #000000; stroke-width: 0.5"/>
     <use xlink:href="#m70ddc5af11" x="288.365062" y="399.111018" style="fill: #ffffff; stroke: #000000; stroke-width: 0.5"/>
     <use xlink:href="#m70ddc5af11" x="273.942583" y="435.167216" style="fill: #ffffff; stroke: #000000; stroke-width: 0.5"/>
     <use xlink:href="#m70ddc5af11" x="273.942583" y="420.744737" style="fill: #ffffff; stroke: #000000; stroke-width: 0.5"/>
     <use xlink:href="#m70ddc5af11" x="273.942583" y="399.111018" style="fill: #ffffff; stroke: #000000; stroke-width: 0.5"/>
     <use xlink:href="#m70ddc5af11" x="259.520103" y="435.167216" style="fill: #ffffff; stroke: #000000; stroke-width: 0.5"/>
     <use xlink:href="#m70ddc5af11" x="259.520103" y="399.111018" style="fill: #ffffff; stroke: #000000; stroke-width: 0.5"/>
     <use xlink:href="#m70ddc5af11" x="237.886384" y="399.111018" style="fill: #ffffff; stroke: #000000; stroke-width: 0.5"/>
     <use xlink:href="#m70ddc5af11" x="201.830186" y="435.167216" style="fill: #ffffff; stroke: #000000; stroke-width: 0.5"/>
     <use xlink:href="#m70ddc5af11" x="201.830186" y="420.744737" style="fill: #ffffff; stroke: #000000; stroke-width: 0.5"/>
     <use xlink:href="#m70ddc5af11" x="317.210021" y="312.576142" style="fill: #ffffff; stroke: #000000; stroke-width: 0.5"/>
     <use xlink:href="#m70ddc5af11" x="309.998781" y="312.576142" style="fill: #ffffff; stroke: #000000; stroke-width: 0.5"/>
     <use xlink:href="#m70ddc5af11" x="309.998781" y="290.942423" style="fill: #ffffff; stroke: #000000; stroke-width: 0.5"/>
     <use xlink:href="#m70ddc5af11" x="309.998781" y="276.519943" style="fill: #ffffff; stroke: #000000; stroke-width: 0.5"/>
     <use xlink:href="#m70ddc5af11" x="288.365062" y="312.576142" style="fill: #ffffff; stroke: #000000; stroke-width: 0.5"/>
     <use xlink:href="#m70ddc5af11" x="288.365062" y="290.942423" style="fill: #ffffff; stroke: #000000; stroke-width: 0.5"/>
     <use xlink:href="#m70ddc5af11" x="273.942583" y="312.576142" style="fill: #ffffff; stroke: #000000; stroke-width: 0.5"/>
     <use xlink:href="#m70ddc5af11" x="259.520103" y="290.942423" style="fill: #ffffff; stroke: #000000; stroke-width: 0.5"/>
     <use xlink:href="#m70ddc5af11" x="468.646054" y="312.576142" style="fill: #ffffff; stroke: #000000; stroke-width: 0.5"/>
    </g>
   </g>
   <g id="text_15">
    <!-- Depot -->
    <g transform="translate(334.39451 280.125563) scale(0.07 -0.07)">
     <defs>
      <path id="DejaVuSerif-Bold-27" d="M 2100 378 
L 2534 378 
Q 3266 378 3605 847 
Q 3944 1316 3944 2338 
Q 3944 3353 3606 3820 
Q 3269 4288 2534 4288 
L 2100 4288 
L 2100 378 
z
M 300 0 
L 300 378 
L 897 378 
L 897 4288 
L 300 4288 
L 300 4666 
L 2694 4666 
Q 3950 4666 4615 4066 
Q 5281 3466 5281 2338 
Q 5281 1203 4614 601 
Q 3947 0 2694 0 
L 300 0 
z
" transform="scale(0.015625)"/>
      <path id="DejaVuSerif-Bold-48" d="M 2566 1875 
Q 2566 2531 2444 2795 
Q 2322 3059 2028 3059 
Q 1744 3059 1620 2800 
Q 1497 2541 1497 1931 
L 1497 1875 
L 2566 1875 
z
M 3781 1503 
L 1497 1503 
L 1497 1478 
Q 1497 834 1690 548 
Q 1884 263 2316 263 
Q 2675 263 2897 453 
Q 3119 644 3181 1006 
L 3700 1006 
Q 3566 441 3166 175 
Q 2766 -91 2047 -91 
Q 1184 -91 723 364 
Q 263 819 263 1663 
Q 263 2488 734 2950 
Q 1206 3413 2047 3413 
Q 2872 3413 3312 2927 
Q 3753 2441 3781 1503 
z
" transform="scale(0.015625)"/>
      <path id="DejaVuSerif-Bold-53" d="M 1728 1825 
L 1728 1497 
Q 1728 916 1876 656 
Q 2025 397 2356 397 
Q 2697 397 2836 672 
Q 2975 947 2975 1663 
Q 2975 2378 2836 2651 
Q 2697 2925 2356 2925 
Q 2025 2925 1876 2665 
Q 1728 2406 1728 1825 
z
M 622 2944 
L 147 2944 
L 147 3322 
L 1728 3322 
L 1728 2900 
Q 1869 3159 2106 3286 
Q 2344 3413 2694 3413 
Q 3403 3413 3811 2945 
Q 4219 2478 4219 1663 
Q 4219 847 3811 378 
Q 3403 -91 2694 -91 
Q 2344 -91 2106 36 
Q 1869 163 1728 422 
L 1728 -953 
L 2241 -953 
L 2241 -1331 
L 147 -1331 
L 147 -953 
L 622 -953 
L 622 2944 
z
" transform="scale(0.015625)"/>
      <path id="DejaVuSerif-Bold-52" d="M 2138 263 
Q 2488 263 2630 563 
Q 2772 863 2772 1663 
Q 2772 2463 2631 2761 
Q 2491 3059 2138 3059 
Q 1784 3059 1640 2757 
Q 1497 2456 1497 1663 
Q 1497 869 1640 566 
Q 1784 263 2138 263 
z
M 2138 -91 
Q 1259 -91 761 376 
Q 263 844 263 1663 
Q 263 2484 761 2948 
Q 1259 3413 2138 3413 
Q 3019 3413 3516 2948 
Q 4013 2484 4013 1663 
Q 4013 844 3514 376 
Q 3016 -91 2138 -91 
z
" transform="scale(0.015625)"/>
      <path id="DejaVuSerif-Bold-57" d="M 634 2944 
L 153 2944 
L 153 3322 
L 634 3322 
L 634 4353 
L 1741 4353 
L 1741 3322 
L 2663 3322 
L 2663 2944 
L 1741 2944 
L 1741 909 
Q 1741 475 1809 369 
Q 1878 263 2059 263 
Q 2259 263 2356 397 
Q 2453 531 2459 813 
L 2925 813 
Q 2897 313 2651 111 
Q 2406 -91 1806 -91 
Q 1122 -91 878 123 
Q 634 338 634 909 
L 634 2944 
z
" transform="scale(0.015625)"/>
     </defs>
     <use xlink:href="#DejaVuSerif-Bold-27"/>
     <use xlink:href="#DejaVuSerif-Bold-48" transform="translate(86.71875 0)"/>
     <use xlink:href="#DejaVuSerif-Bold-53" transform="translate(150.34375 0)"/>
     <use xlink:href="#DejaVuSerif-Bold-52" transform="translate(220.265625 0)"/>
     <use xlink:href="#DejaVuSerif-Bold-57" transform="translate(286.96875 0)"/>
    </g>
   </g>
   <g id="text_16">
    <!-- 1 -->
    <g style="fill: #666666" transform="translate(240.622503 35.521118) scale(0.05 -0.05)">
     <use xlink:href="#DejaVuSerif-14"/>
    </g>
   </g>
   <g id="text_17">
    <!-- 2 -->
    <g style="fill: #666666" transform="translate(218.988784 107.633515) scale(0.05 -0.05)">
     <use xlink:href="#DejaVuSerif-15"/>
    </g>
   </g>
   <g id="text_18">
    <!-- 3 -->
    <g style="fill: #666666" transform="translate(218.988784 35.521118) scale(0.05 -0.05)">
     <use xlink:href="#DejaVuSerif-16"/>
    </g>
   </g>
   <g id="text_19">
    <!-- 4 -->
    <g style="fill: #666666" transform="translate(204.566305 71.577317) scale(0.05 -0.05)">
     <use xlink:href="#DejaVuSerif-17"/>
    </g>
   </g>
   <g id="text_20">
    <!-- 5 -->
    <g style="fill: #666666" transform="translate(204.566305 35.521118) scale(0.05 -0.05)">
     <use xlink:href="#DejaVuSerif-18"/>
    </g>
   </g>
   <g id="text_21">
    <!-- 6 -->
    <g style="fill: #666666" transform="translate(190.143825 107.633515) scale(0.05 -0.05)">
     <use xlink:href="#DejaVuSerif-19"/>
    </g>
   </g>
   <g id="text_22">
    <!-- 7 -->
    <g style="fill: #666666" transform="translate(168.510106 107.633515) scale(0.05 -0.05)">
     <use xlink:href="#DejaVuSerif-1a"/>
    </g>
   </g>
   <g id="text_23">
    <!-- 8 -->
    <g style="fill: #666666" transform="translate(168.510106 71.577317) scale(0.05 -0.05)">
     <use xlink:href="#DejaVuSerif-1b"/>
    </g>
   </g>
   <g id="text_24">
    <!-- 9 -->
    <g style="fill: #666666" transform="translate(276.678701 287.914507) scale(0.05 -0.05)">
     <defs>
      <path id="DejaVuSerif-1c" d="M 2994 2091 
Q 2784 1856 2512 1740 
Q 2241 1625 1900 1625 
Q 1206 1625 804 2044 
Q 403 2463 403 3188 
Q 403 3897 839 4323 
Q 1275 4750 2003 4750 
Q 2794 4750 3217 4161 
Q 3641 3572 3641 2478 
Q 3641 1253 3137 581 
Q 2634 -91 1722 -91 
Q 1475 -91 1203 -44 
Q 931 3 647 97 
L 647 872 
L 997 872 
Q 1038 556 1241 387 
Q 1444 219 1784 219 
Q 2391 219 2687 676 
Q 2984 1134 2994 2091 
z
M 1978 4441 
Q 1534 4441 1298 4117 
Q 1063 3794 1063 3188 
Q 1063 2581 1298 2256 
Q 1534 1931 1978 1931 
Q 2422 1931 2658 2245 
Q 2894 2559 2894 3150 
Q 2894 3772 2656 4106 
Q 2419 4441 1978 4441 
z
" transform="scale(0.015625)"/>
     </defs>
     <use xlink:href="#DejaVuSerif-1c"/>
    </g>
   </g>
   <g id="text_25">
    <!-- 10 -->
    <g style="fill: #666666" transform="translate(275.088076 273.492028) scale(0.05 -0.05)">
     <use xlink:href="#DejaVuSerif-14"/>
     <use xlink:href="#DejaVuSerif-13" transform="translate(63.625 0)"/>
    </g>
   </g>
   <g id="text_26">
    <!-- ACO Route Map (50 Customers) -->
    <g transform="translate(165.074473 12.718125) scale(0.12 -0.12)">
     <defs>
      <path id="DejaVuSerif-24" d="M 1281 1691 
L 2994 1691 
L 2138 3909 
L 1281 1691 
z
M -38 0 
L -38 331 
L 372 331 
L 2034 4666 
L 2559 4666 
L 4225 331 
L 4684 331 
L 4684 0 
L 2988 0 
L 2988 331 
L 3506 331 
L 3116 1356 
L 1153 1356 
L 763 331 
L 1275 331 
L 1275 0 
L -38 0 
z
" transform="scale(0.015625)"/>
      <path id="DejaVuSerif-32" d="M 2625 244 
Q 3391 244 3781 770 
Q 4172 1297 4172 2328 
Q 4172 3363 3781 3889 
Q 3391 4416 2625 4416 
Q 1856 4416 1465 3889 
Q 1075 3363 1075 2328 
Q 1075 1297 1465 770 
Q 1856 244 2625 244 
z
M 2625 -91 
Q 2150 -91 1751 65 
Q 1353 222 1050 525 
Q 700 875 529 1319 
Q 359 1763 359 2328 
Q 359 2894 529 3339 
Q 700 3784 1050 4134 
Q 1356 4441 1750 4595 
Q 2144 4750 2625 4750 
Q 3641 4750 4266 4084 
Q 4891 3419 4891 2328 
Q 4891 1769 4719 1320 
Q 4547 872 4197 525 
Q 3891 219 3497 64 
Q 3103 -91 2625 -91 
z
" transform="scale(0.015625)"/>
      <path id="DejaVuSerif-35" d="M 3066 2316 
Q 3284 2256 3442 2114 
Q 3600 1972 3725 1716 
L 4403 331 
L 4972 331 
L 4972 0 
L 3872 0 
L 3144 1484 
Q 2934 1916 2759 2042 
Q 2584 2169 2278 2169 
L 1581 2169 
L 1581 331 
L 2241 331 
L 2241 0 
L 353 0 
L 353 331 
L 947 331 
L 947 4331 
L 353 4331 
L 353 4666 
L 2719 4666 
Q 3400 4666 3770 4341 
Q 4141 4016 4141 3419 
Q 4141 2938 3870 2661 
Q 3600 2384 3066 2316 
z
M 1581 2503 
L 2503 2503 
Q 2975 2503 3200 2726 
Q 3425 2950 3425 3419 
Q 3425 3888 3200 4109 
Q 2975 4331 2503 4331 
L 1581 4331 
L 1581 2503 
z
" transform="scale(0.015625)"/>
      <path id="DejaVuSerif-58" d="M 2266 3322 
L 3341 3322 
L 3341 331 
L 3884 331 
L 3884 0 
L 2766 0 
L 2766 588 
Q 2606 256 2353 82 
Q 2100 -91 1766 -91 
Q 1213 -91 952 223 
Q 691 538 691 1209 
L 691 2988 
L 172 2988 
L 172 3322 
L 1269 3322 
L 1269 1388 
Q 1269 781 1417 556 
Q 1566 331 1947 331 
Q 2347 331 2556 625 
Q 2766 919 2766 1478 
L 2766 2988 
L 2266 2988 
L 2266 3322 
z
" transform="scale(0.015625)"/>
      <path id="DejaVuSerif-30" d="M 353 0 
L 353 331 
L 947 331 
L 947 4331 
L 319 4331 
L 319 4666 
L 1678 4666 
L 3316 1344 
L 4953 4666 
L 6228 4666 
L 6228 4331 
L 5606 4331 
L 5606 331 
L 6203 331 
L 6203 0 
L 4378 0 
L 4378 331 
L 4972 331 
L 4972 3938 
L 3372 684 
L 2931 684 
L 1331 3938 
L 1331 331 
L 1925 331 
L 1925 0 
L 353 0 
z
" transform="scale(0.015625)"/>
      <path id="DejaVuSerif-53" d="M 1313 1825 
L 1313 1497 
Q 1313 897 1542 583 
Q 1772 269 2209 269 
Q 2650 269 2876 622 
Q 3103 975 3103 1663 
Q 3103 2353 2876 2703 
Q 2650 3053 2209 3053 
Q 1772 3053 1542 2737 
Q 1313 2422 1313 1825 
z
M 738 2988 
L 184 2988 
L 184 3322 
L 1313 3322 
L 1313 2803 
Q 1481 3116 1742 3264 
Q 2003 3413 2388 3413 
Q 3000 3413 3387 2928 
Q 3775 2444 3775 1663 
Q 3775 881 3387 395 
Q 3000 -91 2388 -91 
Q 2003 -91 1742 57 
Q 1481 206 1313 519 
L 1313 -997 
L 1856 -997 
L 1856 -1331 
L 184 -1331 
L 184 -997 
L 738 -997 
L 738 2988 
z
" transform="scale(0.015625)"/>
      <path id="DejaVuSerif-b" d="M 2041 -997 
Q 1281 -656 893 83 
Q 506 822 506 1931 
Q 506 3044 893 3783 
Q 1281 4522 2041 4863 
L 2041 4556 
Q 1559 4225 1350 3623 
Q 1141 3022 1141 1931 
Q 1141 844 1350 242 
Q 1559 -359 2041 -691 
L 2041 -997 
z
" transform="scale(0.015625)"/>
      <path id="DejaVuSerif-56" d="M 359 184 
L 359 959 
L 691 959 
Q 703 588 923 403 
Q 1144 219 1575 219 
Q 1963 219 2166 364 
Q 2369 509 2369 788 
Q 2369 1006 2220 1140 
Q 2072 1275 1594 1428 
L 1178 1569 
Q 750 1706 558 1912 
Q 366 2119 366 2438 
Q 366 2894 700 3153 
Q 1034 3413 1625 3413 
Q 1888 3413 2178 3344 
Q 2469 3275 2778 3144 
L 2778 2419 
L 2447 2419 
Q 2434 2741 2221 2922 
Q 2009 3103 1644 3103 
Q 1281 3103 1095 2975 
Q 909 2847 909 2591 
Q 909 2381 1050 2254 
Q 1191 2128 1613 1997 
L 2069 1856 
Q 2541 1709 2748 1489 
Q 2956 1269 2956 922 
Q 2956 450 2595 179 
Q 2234 -91 1600 -91 
Q 1278 -91 972 -22 
Q 666 47 359 184 
z
" transform="scale(0.015625)"/>
      <path id="DejaVuSerif-50" d="M 3316 2675 
Q 3481 3041 3739 3227 
Q 3997 3413 4341 3413 
Q 4863 3413 5119 3089 
Q 5375 2766 5375 2113 
L 5375 331 
L 5894 331 
L 5894 0 
L 4300 0 
L 4300 331 
L 4800 331 
L 4800 2047 
Q 4800 2556 4650 2772 
Q 4500 2988 4153 2988 
Q 3769 2988 3567 2697 
Q 3366 2406 3366 1850 
L 3366 331 
L 3866 331 
L 3866 0 
L 2291 0 
L 2291 331 
L 2791 331 
L 2791 2069 
Q 2791 2566 2641 2777 
Q 2491 2988 2144 2988 
Q 1759 2988 1557 2697 
Q 1356 2406 1356 1850 
L 1356 331 
L 1856 331 
L 1856 0 
L 263 0 
L 263 331 
L 781 331 
L 781 2994 
L 231 2994 
L 231 3322 
L 1356 3322 
L 1356 2731 
Q 1516 3063 1762 3238 
Q 2009 3413 2322 3413 
Q 2709 3413 2968 3220 
Q 3228 3028 3316 2675 
z
" transform="scale(0.015625)"/>
      <path id="DejaVuSerif-c" d="M 453 -997 
L 453 -691 
Q 934 -359 1145 242 
Q 1356 844 1356 1931 
Q 1356 3022 1145 3623 
Q 934 4225 453 4556 
L 453 4863 
Q 1216 4522 1603 3783 
Q 1991 3044 1991 1931 
Q 1991 822 1603 83 
Q 1216 -656 453 -997 
z
" transform="scale(0.015625)"/>
     </defs>
     <use xlink:href="#DejaVuSerif-24"/>
     <use xlink:href="#DejaVuSerif-26" transform="translate(72.21875 0)"/>
     <use xlink:href="#DejaVuSerif-32" transform="translate(148.734375 0)"/>
     <use xlink:href="#DejaVuSerif-3" transform="translate(230.71875 0)"/>
     <use xlink:href="#DejaVuSerif-35" transform="translate(262.5 0)"/>
     <use xlink:href="#DejaVuSerif-52" transform="translate(337.796875 0)"/>
     <use xlink:href="#DejaVuSerif-58" transform="translate(398 0)"/>
     <use xlink:href="#DejaVuSerif-57" transform="translate(462.40625 0)"/>
     <use xlink:href="#DejaVuSerif-48" transform="translate(502.59375 0)"/>
     <use xlink:href="#DejaVuSerif-3" transform="translate(561.78125 0)"/>
     <use xlink:href="#DejaVuSerif-30" transform="translate(593.5625 0)"/>
     <use xlink:href="#DejaVuSerif-44" transform="translate(695.953125 0)"/>
     <use xlink:href="#DejaVuSerif-53" transform="translate(755.578125 0)"/>
     <use xlink:href="#DejaVuSerif-3" transform="translate(819.59375 0)"/>
     <use xlink:href="#DejaVuSerif-b" transform="translate(851.375 0)"/>
     <use xlink:href="#DejaVuSerif-18" transform="translate(890.390625 0)"/>
     <use xlink:href="#DejaVuSerif-13" transform="translate(954.015625 0)"/>
     <use xlink:href="#DejaVuSerif-3" transform="translate(1017.640625 0)"/>
     <use xlink:href="#DejaVuSerif-26" transform="translate(1049.421875 0)"/>
     <use xlink:href="#DejaVuSerif-58" transform="translate(1125.9375 0)"/>
     <use xlink:href="#DejaVuSerif-56" transform="translate(1190.34375 0)"/>
     <use xlink:href="#DejaVuSerif-57" transform="translate(1241.65625 0)"/>
     <use xlink:href="#DejaVuSerif-52" transform="translate(1281.84375 0)"/>
     <use xlink:href="#DejaVuSerif-50" transform="translate(1342.046875 0)"/>
     <use xlink:href="#DejaVuSerif-48" transform="translate(1436.875 0)"/>
     <use xlink:href="#DejaVuSerif-55" transform="translate(1496.0625 0)"/>
     <use xlink:href="#DejaVuSerif-56" transform="translate(1543.859375 0)"/>
     <use xlink:href="#DejaVuSerif-c" transform="translate(1595.171875 0)"/>
    </g>
   </g>
   <g id="PathCollection_2">
    <defs>
     <path id="mbed9facb75" d="M -3.872983 3.872983 
L 3.872983 3.872983 
L 3.872983 -3.872983 
L -3.872983 -3.872983 
z
" style="stroke: #000000"/>
    </defs>
    <g clip-path="url(#p657b6476a8)">
     <use xlink:href="#mbed9facb75" x="346.054979" y="290.942423" style="stroke: #000000"/>
    </g>
   </g>
  </g>
 </g>
 <defs>
  <clipPath id="p657b6476a8">
   <rect x="37.053359" y="18.718125" width="452.144727" height="436.28"/>
  </clipPath>
 </defs>
</svg>
